<svg width="512" height="512" viewBox="0 0 512 512" fill="none" xmlns="http://www.w3.org/2000/svg">
<path fill-rule="evenodd" clip-rule="evenodd" d="M217.785 146.967C218.095 145.062 217.65 143.111 216.545 141.528C215.44 139.946 213.762 138.857 211.866 138.492C209.971 138.127 208.008 138.515 206.394 139.574C204.781 140.634 203.644 142.28 203.224 144.164L200.388 158.793C200.154 160.667 200.641 162.56 201.749 164.089C202.858 165.617 204.506 166.668 206.36 167.029C208.214 167.389 210.135 167.032 211.736 166.03C213.336 165.028 214.497 163.455 214.982 161.63L217.785 147.035V146.967ZM263.517 155.375C263.538 153.462 262.819 151.616 261.51 150.221C260.201 148.826 258.404 147.991 256.494 147.889C254.584 147.788 252.709 148.428 251.26 149.676C249.811 150.925 248.9 152.685 248.718 154.589L247.931 169.423C247.832 171.39 248.518 173.316 249.838 174.778C251.158 176.239 253.005 177.116 254.973 177.216C256.94 177.316 258.866 176.63 260.327 175.309C261.789 173.989 262.666 172.142 262.765 170.175L263.517 155.375ZM260.817 205.722L261.193 199.809C261.214 197.896 260.494 196.049 259.186 194.655C257.877 193.26 256.08 192.424 254.17 192.323C252.26 192.221 250.385 192.862 248.936 194.11C247.486 195.358 246.576 197.118 246.393 199.022L246.017 205.858H206.403V205.414L209.206 190.854C209.582 188.923 209.176 186.921 208.077 185.29C206.977 183.659 205.275 182.531 203.344 182.155C201.413 181.779 199.412 182.185 197.781 183.284C196.149 184.383 195.022 186.086 194.645 188.017L191.808 202.611C191.569 203.68 191.569 204.789 191.808 205.858H161.491C141.325 205.858 131.037 223.324 124.85 242.567L109.094 291.342L101.472 277.055C67.3944 275.004 63.4979 294.247 97.4383 311.508C59.6356 335.98 64.8651 378.808 68.5565 426.317C68.5213 426.909 68.5213 427.503 68.5565 428.095V454.55C68.5745 457.587 69.7913 460.494 71.9422 462.638C74.093 464.783 77.0037 465.991 80.0409 466H128.815C131.852 465.991 134.763 464.783 136.914 462.638C139.065 460.494 140.282 457.587 140.3 454.55V445.321H371.525V454.55C371.543 457.587 372.76 460.494 374.911 462.638C377.062 464.783 379.972 465.991 383.01 466H431.921C434.958 465.991 437.869 464.783 440.019 462.638C442.17 460.494 443.387 457.587 443.405 454.55V434.042C447.199 372.108 449.489 347.089 425.119 322.035L419.069 312.807C456.154 295.512 453.044 275.004 418.044 277.055L411.208 289.838L399.382 242.396C394.494 222.846 382.873 205.722 362.707 205.722H322.341C322.775 204.445 322.846 203.072 322.546 201.757L319.846 187.88C319.36 186.055 318.2 184.482 316.599 183.48C314.998 182.478 313.077 182.121 311.223 182.481C309.369 182.841 307.721 183.892 306.613 185.421C305.504 186.95 305.017 188.843 305.251 190.717L307.985 204.594C308.051 204.979 308.154 205.356 308.293 205.722H260.817ZM205.002 104.105H204.421H179.333C178.799 104.119 178.272 104.237 177.784 104.454C177.296 104.671 176.855 104.982 176.486 105.369C176.118 105.756 175.83 106.212 175.638 106.711C175.446 107.21 175.354 107.741 175.368 108.275V121.366C175.368 122.445 175.797 123.48 176.559 124.242C177.322 125.005 178.357 125.434 179.435 125.434H332.595C333.673 125.434 334.708 125.005 335.471 124.242C336.233 123.48 336.662 122.445 336.662 121.366V108.275C336.676 107.733 336.581 107.193 336.382 106.687C336.184 106.182 335.887 105.721 335.508 105.333C335.128 104.944 334.675 104.635 334.175 104.425C333.675 104.214 333.137 104.105 332.595 104.105H313.556L312.531 103.354C306.037 72.5918 285.529 56.8008 264.133 54.3398V46H247.624V55.1602C226.808 59.4326 208.351 76.2832 205.002 104.105ZM185.075 144.848C185.687 143.033 185.573 141.051 184.757 139.318C183.941 137.586 182.487 136.236 180.698 135.551C178.909 134.866 176.925 134.9 175.16 135.646C173.396 136.391 171.988 137.79 171.232 139.55L165.934 153.427C165.223 155.267 165.271 157.314 166.069 159.119C166.867 160.923 168.35 162.337 170.19 163.048C172.03 163.76 174.078 163.711 175.882 162.913C177.686 162.115 179.1 160.633 179.811 158.793L185.075 145.121V144.848ZM146.555 238.5C147.623 238.176 148.596 237.596 149.389 236.809C150.181 236.023 150.769 235.054 151.1 233.988L152.092 231.391C154.2 229.287 156.706 227.626 159.465 226.505C162.224 225.384 165.179 224.826 168.156 224.862H353.957C369.338 224.862 378.669 237.851 381.916 252.821L393.776 302.04H125.431L140.197 252.821C141.757 247.786 143.89 242.946 146.555 238.397V238.5ZM149.973 195.058C149.275 196.898 149.336 198.94 150.144 200.735C150.951 202.529 152.439 203.93 154.279 204.628C156.119 205.326 158.161 205.264 159.956 204.457C161.751 203.649 163.151 202.161 163.849 200.321L169.147 186.444C169.845 184.604 169.784 182.562 168.976 180.767C168.168 178.972 166.681 177.572 164.841 176.874C163 176.176 160.958 176.238 159.164 177.045C157.369 177.853 155.968 179.34 155.27 181.181L150.075 195.058H149.973ZM346.779 138.285C346.33 137.41 345.713 136.632 344.964 135.995C344.214 135.358 343.346 134.875 342.41 134.573C341.474 134.272 340.487 134.158 339.507 134.237C338.527 134.317 337.571 134.589 336.696 135.038C335.821 135.487 335.043 136.104 334.406 136.853C333.769 137.603 333.286 138.471 332.984 139.407C332.683 140.343 332.569 141.33 332.648 142.31C332.728 143.291 333 144.246 333.449 145.121L339.977 158.451C340.843 160.219 342.376 161.57 344.238 162.208C346.1 162.846 348.139 162.718 349.907 161.852C351.674 160.986 353.026 159.454 353.663 157.592C354.301 155.73 354.173 153.691 353.307 151.923L346.779 138.285ZM359.528 198.134C360.465 199.782 361.994 201.012 363.806 201.572C365.617 202.132 367.574 201.981 369.278 201.149C370.981 200.316 372.303 198.866 372.975 197.093C373.647 195.32 373.617 193.358 372.892 191.605L366.364 178.275C365.48 176.517 363.934 175.181 362.066 174.563C360.197 173.944 358.159 174.093 356.401 174.977C354.642 175.861 353.307 177.407 352.688 179.276C352.07 181.144 352.219 183.182 353.102 184.94L359.597 198.271L359.528 198.134ZM311.369 144.164C310.993 142.233 309.865 140.531 308.234 139.432C306.602 138.332 304.601 137.926 302.67 138.302C300.739 138.678 299.037 139.806 297.938 141.438C296.838 143.069 296.432 145.07 296.808 147.001L299.645 161.562C300.08 163.426 301.219 165.05 302.823 166.094C304.427 167.138 306.374 167.521 308.254 167.164C310.135 166.806 311.804 165.735 312.913 164.175C314.023 162.615 314.486 160.687 314.206 158.793L311.369 144.232V144.164ZM159.885 367.836L116.442 362.367C106.188 361.239 103.42 365.546 106.906 374.398L111.623 385.814C112.953 388.485 114.985 390.742 117.502 392.343C120.452 394.062 123.795 394.992 127.209 395.043L165.969 395.351C175.334 395.351 179.401 391.591 176.462 382.978C175.412 379.145 173.298 375.688 170.364 373.008C167.43 370.328 163.796 368.535 159.885 367.836ZM351.872 367.836L395.348 362.367C405.602 361.239 408.337 365.546 404.85 374.398L400.168 385.814C398.828 388.478 396.798 390.732 394.289 392.343C391.327 394.062 387.972 394.992 384.548 395.043L345.788 395.351C336.423 395.351 332.39 391.591 335.329 382.978C336.365 379.144 338.47 375.684 341.4 373.002C344.329 370.321 347.962 368.529 351.872 367.836Z" fill="white"/>
</svg>
