<svg width="512" height="512" viewBox="0 0 512 512" fill="none" xmlns="http://www.w3.org/2000/svg">
<path d="M314.472 41.8134C310.206 46.08 308.499 50.7734 309.779 52.48C311.486 53.76 308.499 60.16 303.379 66.56C298.686 72.5334 295.699 79.7867 297.406 82.3467C298.686 84.48 298.259 85.3334 295.699 84.0534C293.566 82.3467 288.872 86.6134 285.459 93.0134C282.046 99.4134 276.072 108.373 271.806 113.067C255.592 130.133 246.206 156.587 250.046 174.08C251.752 182.613 253.032 191.147 252.606 193.28C252.179 194.987 250.899 203.52 250.472 212.48C248.766 229.12 236.819 247.467 227.859 247.467C224.872 247.467 221.886 249.173 221.032 251.733C219.326 257.707 192.446 260.267 189.032 254.72C187.326 252.16 188.606 251.733 192.019 253.867C195.859 256 196.712 255.573 194.579 252.587C191.166 246.613 170.686 245.76 170.686 251.307C170.686 253.44 173.672 256 176.659 257.28C184.339 260.267 183.486 290.987 175.806 293.547C172.819 294.4 170.686 297.813 170.686 301.227C170.686 309.333 186.472 308.907 194.579 300.8C203.112 292.693 220.179 292.693 223.592 300.8C224.872 304.213 228.712 307.2 232.552 307.2C235.966 307.2 238.952 308.907 238.952 311.467C238.952 317.44 253.032 316.587 261.992 310.187C265.832 307.2 269.672 300.8 270.099 295.253C270.099 290.133 271.806 285.867 273.086 285.867C274.366 285.867 276.072 280.747 276.499 274.773C277.779 259.84 279.486 257.28 292.286 255.147C298.259 253.867 302.099 253.867 300.819 255.147C299.966 256.427 300.819 259.84 302.952 262.827C307.646 267.947 307.219 277.76 302.099 281.6C298.686 284.16 297.406 293.12 298.259 308.053C298.686 318.72 299.966 319.573 313.192 318.293C331.112 317.013 336.232 324.267 341.779 359.68C344.339 374.187 347.326 386.987 349.032 388.267C350.739 389.547 352.872 403.627 353.726 420.267C355.006 448.853 359.272 458.667 369.086 453.547C371.219 452.267 371.219 453.547 368.659 456.107C362.259 462.933 366.099 477.867 373.779 477.867C377.192 477.867 379.326 474.453 378.899 470.613C377.619 453.973 379.752 448.427 386.152 450.56C389.566 452.267 392.552 455.68 392.552 459.093C392.552 462.507 394.686 465.067 396.819 465.067C399.379 465.067 401.086 462.933 401.086 460.373C401.086 458.24 402.792 456.96 404.499 458.24C408.766 460.8 406.632 425.813 400.659 393.387C397.672 378.453 392.126 366.933 384.872 359.68C378.472 353.28 377.192 351.147 381.459 354.56C389.566 360.533 389.566 360.107 381.886 345.6C377.619 337.493 373.779 326.4 372.926 321.28C372.072 313.6 374.206 312.32 383.166 312.747C390.419 313.173 394.686 311.04 395.966 306.773C396.819 301.653 394.259 299.947 385.299 299.947C371.219 300.373 366.526 293.12 379.752 290.987C385.726 290.133 388.286 286.293 388.286 279.04C388.286 273.067 386.152 268.8 383.166 269.227C380.179 269.653 373.352 269.653 368.232 269.227C356.712 268.8 355.006 260.267 366.099 260.267C372.072 260.267 371.219 258.56 362.686 251.733C353.726 244.48 345.192 243.2 304.232 243.2C263.699 243.2 256.872 242.347 258.579 236.8C259.859 233.387 262.419 230.827 263.699 231.253C268.392 232.533 298.686 220.587 298.686 217.6C298.686 215.893 304.232 215.467 310.632 216.747C319.592 218.027 326.419 215.04 338.366 204.373C346.899 197.12 352.872 189.013 351.592 186.88C350.312 185.173 351.166 183.467 353.299 183.467C359.699 183.467 384.872 145.493 381.459 139.947C379.326 136.96 380.179 136.533 383.592 138.24C387.006 140.373 389.566 138.24 391.272 132.693C392.552 127.573 395.539 123.733 397.672 123.733C399.806 123.733 400.232 122.027 398.952 119.467C397.672 117.333 398.952 116.48 402.366 117.333C405.352 118.613 410.472 115.2 413.886 108.8C419.006 99.4134 418.579 97.28 411.752 89.6C407.486 84.9067 402.366 81.0667 400.232 81.0667C397.672 81.0667 388.712 74.6667 379.752 66.9867C364.392 53.76 331.112 34.1334 324.712 34.1334C322.579 34.1334 318.312 37.5467 314.472 41.8134ZM368.232 152.32C366.952 155.733 360.979 163.84 355.432 169.813C349.459 176.213 346.472 183.467 347.752 187.307C349.032 190.72 349.032 192.427 347.326 190.72C345.619 189.44 338.792 192.853 331.966 198.4C325.139 204.373 314.046 209.067 307.646 209.067C301.246 209.067 293.992 211.2 291.006 214.187C288.019 217.173 285.886 217.6 285.886 215.893C285.886 213.76 281.619 215.04 276.072 218.88C267.539 224.427 264.979 224.427 258.152 219.307C253.459 215.893 252.179 213.333 255.592 213.333C259.006 213.333 260.286 210.773 258.579 206.507C256.872 202.24 257.726 200.96 261.139 203.093C264.126 205.227 264.979 202.667 263.272 195.84C255.592 162.987 254.739 152.32 261.139 147.627C264.979 144.64 286.312 143.36 319.166 144.213C363.539 145.493 370.366 146.347 368.232 152.32Z" fill="white"/>
<path d="M96.8721 241.493C90.8987 247.893 94.3121 256 102.845 256C108.819 256 110.952 253.867 110.099 248.747C108.819 241.067 101.565 237.227 96.8721 241.493Z" fill="white"/>
<path d="M122.472 254.72C116.498 260.267 119.485 267.093 128.018 267.093C132.712 267.093 136.552 266.667 136.552 266.24C136.552 265.813 135.272 262.4 133.992 258.56C131.005 251.307 127.165 250.027 122.472 254.72Z" fill="white"/>
<path d="M283.753 264.533C282.046 267.093 281.619 270.507 282.899 271.787C284.179 273.067 282.473 281.6 278.633 290.56C272.659 306.347 272.659 308.053 279.486 315.733C283.753 320.427 286.313 324.267 285.033 324.267C283.753 324.267 284.179 331.093 285.886 339.2C287.593 347.307 287.593 354.133 285.886 354.133C284.179 354.133 281.619 358.827 280.766 364.8C279.059 372.053 280.339 375.467 284.606 375.467C288.873 375.467 290.153 372.907 288.446 368.64C287.166 364.8 287.593 363.52 290.153 364.8C293.139 366.507 294.419 357.12 293.993 339.2C293.566 315.307 292.286 311.467 286.313 313.173C280.339 315.307 280.339 315.307 285.886 310.613C291.433 305.493 293.566 298.24 295.699 271.36C296.553 261.973 288.019 257.28 283.753 264.533Z" fill="white"/>
<path d="M95.1654 271.36C91.752 280.32 100.712 289.28 107.112 282.88C112.659 277.333 109.245 264.533 102.419 264.533C99.8587 264.533 96.872 267.52 95.1654 271.36Z" fill="white"/>
<path d="M145.512 270.507C138.685 278.613 149.352 287.573 156.605 279.467C160.872 275.2 160.445 272.64 156.178 269.227C151.912 265.813 149.352 265.813 145.512 270.507Z" fill="white"/>
<path d="M120.338 288.853C121.192 293.12 124.605 296.533 128.018 296.533C131.432 296.533 134.845 293.12 135.698 288.853C136.552 283.733 134.418 281.6 128.018 281.6C121.618 281.6 119.485 283.733 120.338 288.853Z" fill="white"/>
<path d="M93.8857 299.947C93.8857 308.053 98.1524 311.467 104.979 308.48C113.939 305.067 112.232 294.4 102.419 294.4C97.7257 294.4 93.8857 296.96 93.8857 299.947Z" fill="white"/>
</svg>
