<svg width="512" height="512" viewBox="0 0 512 512" fill="none" xmlns="http://www.w3.org/2000/svg">
<path d="M391.664 56.5354C372.213 57.0707 370.071 57.4276 367.394 60.9966C364.539 64.7441 362.398 64.9226 328.135 66.3502C289.054 67.7778 248.903 71.5253 223.741 75.8081C171.99 84.9091 116.849 117.744 87.0472 157.004C74.734 173.064 61.5286 200.903 55.8182 222.138C51.1785 238.913 51 242.303 51 278.351C51 314.398 51.3569 317.788 55.8182 334.563C72.2357 395.236 112.387 435.209 173.953 451.805C194.832 457.516 233.734 457.337 255.148 451.627C295.835 440.741 333.667 414.331 356.866 380.782C368.108 364.543 373.64 352.586 378.28 334.563C387.381 298.872 378.28 237.307 358.472 200.189C354.724 192.872 351.512 186.805 351.512 186.27C351.512 185.913 354.546 185.556 358.293 185.556C363.112 185.556 366.324 186.805 368.644 189.303C372.034 193.051 372.748 193.051 405.762 191.98C426.283 191.088 440.738 189.839 442.879 188.589C448.411 185.199 456.442 166.283 458.762 151.293C460.011 143.441 460.368 128.451 459.832 115.603C458.94 90.6196 454.836 75.9866 445.378 63.6734L439.667 56.1785L426.462 56C419.145 56 403.442 56.1785 391.664 56.5354ZM443.772 67.4209C451.267 78.3064 454.479 87.7644 456.799 105.966C461.438 140.586 450.196 187.34 437.169 187.34C435.384 187.34 431.102 184.128 427.354 180.024C414.327 165.391 409.687 147.367 410.58 112.748C411.294 87.7644 410.58 87.5859 404.334 110.606L402.192 118.636L379.172 119.172L356.33 119.707L357.401 104.003C358.115 95.4378 359.007 86.3367 359.543 83.8384C360.435 79.5556 360.435 79.5556 358.829 83.4815C357.758 85.6229 355.795 92.761 354.546 99.3637L352.048 111.32L329.027 118.636L306.007 125.953L328.849 125.239L351.512 124.525V133.626C351.512 138.623 351.334 142.727 351.155 142.727C350.798 142.906 340.984 144.333 329.384 146.118C308.149 149.509 307.97 149.509 301.724 156.647L295.3 163.963L270.852 166.818C257.468 168.246 245.334 169.495 244.263 169.495C243.014 169.495 245.512 171.815 249.973 174.492C267.997 186.091 285.485 211.074 291.731 234.63C295.3 248.371 297.085 272.64 295.479 287.808L294.051 299.765H282.808C273.886 299.765 271.388 299.229 270.138 296.553C269.425 294.947 268.175 281.384 267.64 266.751C266.569 244.802 265.499 237.664 261.751 226.957C253.542 203.044 237.66 182.344 219.637 171.815C210.357 166.105 209.286 166.818 242.3 155.219C255.684 150.401 265.677 146.475 264.249 146.475C261.216 146.296 178.236 156.29 160.212 158.788C135.229 162.536 117.919 171.458 100.61 189.482C87.9395 202.687 82.7644 211.253 74.0202 232.667C62.5993 261.219 60.2795 271.391 59.0303 302.441L57.9596 330.994L55.6397 318.681C49.9293 288.701 51.1785 251.583 58.8519 222.138C70.2728 178.596 96.6836 142.192 135.764 116.138C183.768 84.0169 219.994 74.7374 318.499 69.5623C364.004 67.2424 364.539 67.2424 363.29 70.4546C360.078 78.4849 360.613 78.4849 365.61 70.0977L371.142 60.8182L382.206 60.1044C388.452 59.7475 403.442 59.3906 415.755 59.2121L438.061 58.8552L443.772 67.4209ZM202.327 166.64C224.633 175.027 241.586 190.909 252.472 213.037C261.751 232.132 264.785 245.694 264.785 269.428C264.785 293.876 261.93 306.724 251.223 328.317C221.957 388.277 151.29 400.054 104.357 352.586C42.9697 290.664 72.0573 180.024 154.323 162.357C166.637 159.68 188.943 161.643 202.327 166.64ZM304.936 226.421C311.718 239.983 314.573 252.832 314.394 270.32C314.216 296.017 308.149 319.394 297.798 335.812C289.947 347.947 287.984 346.519 294.586 333.492C303.509 315.468 307.256 298.337 307.435 272.997C307.613 249.798 305.293 236.236 297.977 219.818C292.802 208.219 298.512 213.573 304.936 226.421ZM310.29 358.118C295.657 382.388 273.529 403.802 252.65 413.974C235.162 422.539 218.031 425.573 195.367 424.145C175.916 422.718 161.997 419.149 145.401 411.297C132.552 405.051 116.849 394.522 118.455 393.095C118.99 392.559 125.593 394.344 133.266 396.842C140.94 399.341 152.896 402.731 159.677 404.159C175.559 407.549 207.859 407.549 223.384 404.337C249.973 398.627 280.31 382.388 302.438 361.687C308.327 356.155 313.324 351.694 313.681 351.516C314.037 351.516 312.431 354.549 310.29 358.118ZM258.004 363.293C241.943 378.105 213.391 388.99 190.549 388.99C178.414 388.99 179.842 386.135 192.869 384.708C207.68 383.28 233.199 374.357 248.189 365.792C254.792 361.866 260.859 357.761 261.394 356.869C261.93 355.798 263.536 355.085 264.606 355.085C265.856 355.263 262.822 358.832 258.004 363.293Z" fill="white"/>
<path d="M428.603 73.6667C417.183 87.4074 416.647 138.266 427.533 161.822C432.529 172.35 437.348 175.027 442.701 170.209C455.371 158.788 455.55 99.5421 442.88 77.5926C439.311 71.7037 431.994 69.5623 428.603 73.6667Z" fill="white"/>
<path d="M144.51 174.67C118.634 182.879 98.4694 204.472 88.1192 234.63C81.5165 253.724 80.9811 283.169 87.0485 302.441C103.823 356.512 155.038 382.745 201.436 360.974C214.106 355.085 233.379 335.99 239.981 322.963C256.399 290.485 257.648 253.903 243.372 223.031C224.813 182.879 182.698 162.357 144.51 174.67ZM139.156 181.63C113.281 199.297 101.503 225.35 101.146 265.859C100.968 280.67 101.86 289.415 104.18 297.088C116.136 337.239 142.19 355.62 186.624 355.442C195.904 355.442 203.042 356.155 202.328 357.048C201.793 357.94 195.725 360.26 188.944 362.401C161.106 370.788 133.981 362.758 112.389 339.559C83.4794 308.687 77.2336 261.398 96.8633 221.425C103.644 207.505 122.025 188.054 133.803 182.344C143.261 177.704 145.402 177.525 139.156 181.63ZM229.096 211.074C238.375 215.179 236.591 216.249 223.921 214.108C192.156 208.933 158.786 225.172 146.473 251.583C142.547 260.148 142.012 263.896 141.833 281.027C141.833 299.051 142.19 301.549 146.83 310.829C149.506 316.361 154.682 323.499 158.429 326.711C167.53 334.741 184.84 342.236 200.187 344.734C219.995 347.947 219.459 350.266 198.938 349.374C176.274 348.482 163.069 343.128 150.22 329.388C139.513 317.967 136.301 312.256 132.732 296.731C123.809 258.721 146.116 220.175 183.234 209.468C194.476 206.256 219.816 207.148 229.096 211.074ZM214.106 242.125C214.106 259.435 214.641 265.324 216.783 267.643C220.53 271.748 221.244 278.529 218.389 284.061C215.177 290.128 210.715 291.556 201.614 289.058C195.012 287.273 192.87 287.63 181.806 291.913C174.847 294.59 168.958 297.445 168.601 297.98C168.244 298.694 169.85 301.906 172.17 305.118C178.594 313.862 177.702 315.112 169.493 308.687C156.466 298.337 156.823 297.623 175.382 290.485C189.658 285.132 191.799 283.704 191.799 280.135C191.799 275.674 191.621 275.495 172.527 272.105L165.567 271.034L166.281 280.849C166.459 286.381 166.281 290.842 165.746 290.842C164.14 290.842 160.57 277.637 160.57 271.212V265.324L172.17 266.573C178.594 267.287 186.089 268.179 188.766 268.536C191.443 269.071 195.012 268.357 196.796 266.93C199.83 264.61 199.651 263.717 192.156 251.761L184.126 239.091L179.129 244.802C176.274 248.014 172.17 253.189 170.028 256.044C167.887 259.078 165.924 260.505 165.924 259.256C165.924 255.687 173.241 244.088 179.843 236.95L186.267 230.169L195.904 247.122C201.257 256.401 206.254 264.074 207.146 264.074C208.931 264.074 209.466 233.916 207.682 229.633C206.789 227.135 205.897 227.135 199.473 229.455C195.369 230.882 191.799 231.596 191.443 231.239C190.015 229.99 208.217 219.997 212.857 219.64C213.571 219.462 214.106 229.633 214.106 242.125ZM239.981 222.852C241.231 224.994 221.422 267.643 219.281 267.643C216.604 267.643 217.496 264.253 225.705 245.515C230.167 235.344 233.736 226.421 233.736 225.886C233.736 225.35 230.167 224.815 225.705 224.815C221.244 224.815 217.675 223.923 217.675 223.031C217.675 220.711 238.554 220.711 239.981 222.852ZM249.796 268.357C249.796 272.105 248.547 272.819 236.412 275.138C229.096 276.566 223.028 277.101 223.028 276.209C223.028 274.425 243.729 264.253 247.655 264.074C248.726 264.074 249.796 266.037 249.796 268.357ZM236.055 289.236C242.123 292.27 247.298 294.946 247.655 295.303C247.833 295.482 247.298 297.802 246.227 300.478L244.443 305.297L233.736 296.731C227.847 292.091 223.028 287.095 223.028 285.845C223.028 282.812 223.385 282.99 236.055 289.236ZM208.752 295.482C208.752 296.196 204.47 301.549 199.294 307.617C183.591 325.819 183.769 323.856 197.51 328.495C208.039 332.243 208.931 332.778 204.291 333.314C198.045 334.027 176.274 328.495 176.988 326.354C177.345 325.462 183.769 317.967 191.443 309.58C203.934 296.017 208.752 292.091 208.752 295.482ZM220.352 304.583C225.884 324.213 225.705 323.856 230.88 323.32C236.412 322.785 236.769 324.569 231.773 329.923C224.991 337.061 222.493 334.384 218.21 314.933C213.571 293.876 213.571 294.411 215.712 294.411C216.604 294.411 218.746 299.051 220.352 304.583Z" fill="white"/>
<path d="M208.93 272.819C210.358 276.566 210.179 279.243 208.752 281.92C206.432 286.381 207.324 288.165 211.428 286.559C218.567 283.883 217.674 267.643 210.358 267.643C207.503 267.643 207.324 268.357 208.93 272.819Z" fill="white"/>
<path d="M196.616 272.462C194.475 276.745 196.616 284.418 200.185 285.132C204.646 286.024 207.859 278.886 205.36 273.711C203.219 268.714 198.758 268.179 196.616 272.462Z" fill="white"/>
</svg>
