<svg width="512" height="512" viewBox="0 0 512 512" fill="none" xmlns="http://www.w3.org/2000/svg">
<path d="M185.539 334.489C169.94 337.568 152.01 337.984 152.01 337.984C154.751 325.833 157.062 311.742 166.903 301.574L216.282 291.909L185.539 334.489ZM170.137 144.402L189.512 145.936L189.649 150.745H165.151V151.249C165.151 170.16 149.778 185.512 130.828 185.512C111.874 185.512 96.5017 170.16 96.5017 151.249C96.5017 150.394 96.5339 149.518 96.5988 148.663H89.6478C91.4098 127.823 108.886 111.486 130.182 111.486C150.013 111.486 166.525 125.654 170.137 144.402ZM32.1816 285.467L37.5347 447.492H101.002V429.248L75.0981 426.082L95.3464 294.528L128.301 255.268L161.709 270.98L197.459 275.428C178.998 280.073 161.521 285.551 144.595 292.193L122.084 351.338L107.123 353.464L115.931 412.139L202.948 412.073C205.576 415.635 208.454 418.997 211.585 422.099C227.188 437.713 248.741 447.322 272.555 447.322C296.363 447.322 317.922 437.713 333.521 422.099C336.685 418.966 339.606 415.569 342.234 411.953L479.256 411.843V250.536L457.307 250.788C465.343 246.01 472.459 241.683 479.256 237.551V196.502L395.126 248.158C350.29 181.89 296.052 118.116 229.503 63.5493C226.471 65.2808 223.433 67.0124 220.407 68.7428L349.533 252.739C304.456 256.846 265.599 261.426 230.591 268.121L231.965 260.681L171.853 240.651L119.299 194.616L68.2238 193.432L32.1816 285.467ZM301.963 331.859C309.489 339.397 314.146 349.785 314.146 361.247C314.146 372.728 309.489 383.106 301.963 390.612C294.436 398.106 284.04 402.784 272.556 402.784C261.067 402.784 250.671 398.105 243.143 390.612C235.618 383.106 230.96 372.731 230.96 361.247C230.96 349.786 235.618 339.399 243.143 331.859C250.671 324.365 261.067 319.718 272.556 319.718C284.04 319.718 294.437 324.365 301.963 331.859Z" fill="white"/>
</svg>
