<svg width="512" height="512" viewBox="0 0 512 512" fill="none" xmlns="http://www.w3.org/2000/svg">
<path d="M313.636 49.0425C305.492 49.463 298.056 50.3703 291.063 51.8088C267.229 56.7217 245.696 67.322 226.885 83.4106C223.809 86.0441 215.112 94.7412 212.479 97.8173C192.318 121.297 180.855 148.827 178.266 179.809C177.911 184.081 177.911 197.005 178.266 201.276C178.797 207.428 179.638 213.469 180.766 218.98C186.786 248.302 201.812 274.726 224.009 295.085C244.213 313.586 269.906 326.045 296.595 330.294C297.812 330.471 299.074 330.67 299.428 330.737C300.402 330.892 305.647 331.467 308.878 331.755C312.772 332.109 325.984 332.131 330.233 331.777C342.715 330.737 353.868 328.435 365.309 324.563C382.261 318.787 397.996 309.758 412.115 297.674C415.191 295.041 423.888 286.344 426.521 283.268C446.682 259.788 458.145 232.258 460.734 201.276C460.867 199.439 461 194.614 461 190.543C461 181.115 460.535 175.361 459.119 166.863C455.246 143.826 445.686 122.138 431.213 103.549C423.844 94.0773 414.283 84.6499 404.789 77.5019C383.036 61.1256 357.918 51.6096 330.454 49.3524C327.644 49.1089 316.247 48.9098 313.636 49.0425ZM328.463 110.454C334.017 110.94 340.037 112.246 343.223 113.685C344.596 114.304 345.746 115.389 345.968 116.296C346.477 118.332 344.109 123.001 340.17 127.715C338.134 130.149 334.283 133.779 331.871 135.483C329.37 137.297 325.497 139.245 323.373 139.798C322.355 140.042 321.005 140.197 319.5 140.197C316.535 140.197 314.786 139.754 311.644 138.183C308.568 136.656 305.647 134.598 302.77 131.831C298.853 128.091 295.754 124.086 294.028 120.523C291.771 115.876 292.855 114.304 299.694 112.335C306.797 110.299 318.017 109.568 328.463 110.454ZM278.426 130.592C282.166 132.517 291.727 141.79 294.891 146.548L295.422 147.367L294.161 148.54C292.324 150.244 289.801 152.08 287.765 153.253L285.973 154.271L285.243 153.452C282.83 150.708 277.696 140.883 275.904 135.66C274.133 130.437 274.952 128.799 278.426 130.592ZM363.716 130.304C364.358 131.101 363.893 133.735 362.499 137.32C360.618 142.166 355.749 151.151 353.824 153.364L353.027 154.271L351.235 153.253C349.199 152.08 346.676 150.244 344.839 148.54L343.578 147.367L344.131 146.526C345.348 144.689 348.269 141.392 351.567 138.094C356.325 133.358 359.556 130.813 361.769 130.061C362.809 129.707 363.273 129.773 363.716 130.304ZM258.642 142.941C262.183 145.154 266.985 151.837 269.685 158.299C271.765 163.322 272.473 166.642 272.319 170.802C272.208 173.812 271.964 174.72 270.725 177.242C269.862 178.991 267.538 181.845 265.569 183.527C260.169 188.175 251.472 192.247 244.877 193.198C241.868 193.641 240.385 193.11 239.477 191.273C239.101 190.543 239.057 189.901 239.057 186.448C239.057 184.258 239.19 181.624 239.367 180.584C241.469 166.974 247.533 151.416 253.419 144.6C254.637 143.206 255.256 142.741 256.274 142.52C257.115 142.321 257.89 142.454 258.642 142.941ZM383.722 142.874C384.054 143.051 384.828 143.759 385.448 144.468C391.357 151.195 397.509 166.841 399.633 180.584C399.81 181.624 399.943 184.258 399.943 186.448C399.943 190.83 399.788 191.538 398.505 192.623C396.513 194.283 389.896 192.933 382.46 189.325C374.449 185.475 369.182 180.407 367.19 174.72C366.659 173.259 366.482 168.656 366.858 166.553C368.385 157.724 374.847 146.415 380.358 142.919C381.398 142.277 382.482 142.255 383.722 142.874ZM321.669 159.937C322.82 160.8 323.262 161.707 323.262 163.123C323.262 164.628 322.687 165.624 321.381 166.354C319.655 167.328 317.376 166.775 316.247 165.115C315.583 164.141 315.539 162.194 316.158 161.198C316.667 160.335 317.862 159.405 318.615 159.273C319.611 159.096 320.916 159.383 321.669 159.937ZM294.471 178.371C296.02 178.814 297.149 180.363 297.149 182.045C297.149 184.944 294.006 186.803 291.505 185.386C289.315 184.147 288.828 181.447 290.443 179.522C291.041 178.814 292.368 178.172 293.276 178.15C293.519 178.15 294.072 178.238 294.471 178.371ZM347.605 178.703C348.38 179.101 349.265 180.385 349.486 181.403C349.553 181.779 349.508 182.487 349.398 182.974C348.49 186.294 344.109 186.935 342.383 183.992C341.763 182.952 341.674 181.359 342.161 180.407C342.604 179.566 343.666 178.614 344.419 178.371C345.237 178.105 346.764 178.26 347.605 178.703ZM272.628 203.798C273.27 205.414 274.576 210.15 274.576 210.947C274.576 211.942 265.967 213.934 258.023 214.775C252.822 215.328 249.768 215.107 248.75 214.067C248.108 213.447 248.197 212.938 249.126 211.787C251.295 209.043 261.453 203.356 268.822 200.789L270.924 200.058L271.433 201.076C271.721 201.63 272.252 202.847 272.628 203.798ZM372.502 201.652C377.237 203.511 384.762 207.583 387.794 209.884C391.489 212.695 391.578 214.288 388.081 214.886C385.204 215.373 379.207 214.819 372.214 213.425C368.629 212.717 365.376 211.81 364.668 211.367C364.402 211.19 364.402 210.902 364.756 209.309C365.309 206.698 366.106 204.263 367.124 202.028L368.009 200.103L369.16 200.435C369.78 200.612 371.284 201.165 372.502 201.652ZM305.425 209.597C307.815 211.234 307.616 214.952 305.049 216.191C301.375 217.962 297.879 213.779 300.269 210.438C301.331 208.911 303.854 208.512 305.425 209.597ZM337.359 209.375C340.324 210.814 340.17 215.173 337.093 216.324C333.619 217.652 330.543 214.023 332.424 210.814C333.442 209.065 335.478 208.468 337.359 209.375ZM279.998 227.942C283.14 228.208 285.508 228.828 287.854 229.978C289.359 230.709 290.111 231.262 291.638 232.789C293.829 234.98 295.002 236.839 296.396 240.313C298.255 244.961 299.118 249.453 299.295 255.406C299.384 258.659 299.339 259.965 299.052 261.713C298.1 267.29 296.33 267.976 289.403 265.409C277.099 260.85 259.151 246.731 254.88 238.255C253.419 235.378 254.393 233.763 258.797 231.66C264.75 228.85 273.27 227.345 279.998 227.942ZM367.854 228.186C372.236 228.806 377.016 230.155 380.203 231.66C384.607 233.763 385.581 235.378 384.12 238.255C379.849 246.753 361.923 260.828 349.597 265.409C342.67 267.976 340.9 267.29 339.948 261.713C339.661 259.965 339.616 258.659 339.705 255.406C339.882 249.453 340.745 244.961 342.604 240.313C343.998 236.839 345.171 234.98 347.362 232.789C349.531 230.62 351.721 229.381 354.798 228.606C358.183 227.743 363.583 227.588 367.854 228.186ZM322.554 239.339C323.815 239.406 324.966 239.517 325.143 239.605C326.294 240.025 324.346 255.074 322.377 260.961C320.429 266.781 318.571 266.781 316.623 260.961C315.118 256.446 313.547 246.51 313.525 241.398C313.525 239.804 313.569 239.671 314.034 239.561C314.698 239.384 319.279 239.074 319.832 239.14C320.075 239.185 321.293 239.273 322.554 239.339Z" fill="white"/>
<path d="M244.829 324.814H214.432V315.171C214.432 313.42 213.013 312 211.262 312H189.522C187.771 312 186.352 313.419 186.352 315.171V324.814H111.648V315.171C111.648 313.42 110.228 312 108.477 312H86.7373C84.9866 312 83.5668 313.419 83.5668 315.171V324.814H53.1705C51.4198 324.814 50 326.234 50 327.985V348.223C50 349.973 51.4193 351.393 53.1705 351.393H63.4643H234.536H244.829C246.58 351.393 248 349.974 248 348.223V327.985C248 326.234 246.58 324.814 244.829 324.814Z" fill="white"/>
<path d="M63.4502 459.499C63.4502 461.77 65.291 463.611 67.5622 463.611H230.41C232.681 463.611 234.522 461.77 234.522 459.499V362.192H63.4502V459.499ZM129.521 417.478L139.156 386.687C139.321 386.158 139.811 385.798 140.366 385.798H155.39C155.796 385.798 156.176 385.992 156.416 386.32C156.654 386.647 156.721 387.07 156.596 387.456L150.73 405.575H167.242C167.707 405.575 168.133 405.829 168.356 406.237C168.578 406.644 168.559 407.139 168.308 407.529L146.249 441.759C146.01 442.129 145.604 442.34 145.183 442.34C145.031 442.34 144.878 442.312 144.729 442.255C144.168 442.04 143.836 441.46 143.933 440.867L147.495 419.125H130.731C130.328 419.125 129.948 418.932 129.71 418.608C129.47 418.282 129.4 417.863 129.521 417.478Z" fill="white"/>
</svg>
