<svg width="100" height="100" viewBox="0 0 100 100" fill="none"
    xmlns="http://www.w3.org/2000/svg">
    <path d="M88.0871 73.0446C84.9855 69.9196 77.4738 65.359 73.8292 63.5212C69.0832 61.1305 68.6925 60.9352 64.9621 63.7067C62.4738 65.5563 60.8195 67.2087 57.9074 66.5876C54.9953 65.9665 48.6671 62.4645 43.1261 56.9411C37.5851 51.4176 33.88 44.9059 33.257 42.0036C32.6339 39.1012 34.3136 37.4665 36.1456 34.9723C38.7277 31.4567 38.5324 30.8708 36.3253 26.1247C34.6046 22.4333 29.9113 14.9919 26.7746 11.9059C23.4191 8.59147 23.4191 9.1774 21.257 10.0758C19.4968 10.8164 17.8081 11.7167 16.2121 12.7653C13.0871 14.8415 11.3527 16.5661 10.1398 19.1579C8.9269 21.7497 8.38198 27.8258 14.6456 39.2047C20.9093 50.5837 25.3039 56.402 34.3996 65.4723C43.4953 74.5426 50.4894 79.4196 60.714 85.154C73.3625 92.238 78.214 90.8571 80.8136 89.6462C83.4132 88.4352 85.1457 86.7165 87.2257 83.5915C88.277 81.9981 89.1793 80.3113 89.921 78.5524C90.8214 76.3981 91.4074 76.3981 88.0871 73.0446Z" stroke="black" stroke-width="0.75" stroke-miterlimit="10"/>
</svg>
