<svg width="2048" height="2048" viewBox="0 0 2048 2048" fill="none" xmlns="http://www.w3.org/2000/svg">
<path d="M1024.5 1858C1541.16 1858 1960 1846.36 1960 1832C1960 1817.64 1541.16 1806 1024.5 1806C507.838 1806 89 1817.64 89 1832C89 1846.36 507.838 1858 1024.5 1858Z" fill="url(#paint0_radial_638_109)"/>
<path d="M1788.75 519H770.75V1621H1788.75V519Z" fill="white"/>
<path d="M1798.75 1631H760.75V509H1798.75V1631ZM780.75 1611H1778.75V529H780.75V1611Z" fill="#E5E5E5"/>
<path d="M1838 447H721V566H1838V447Z" fill="#131313"/>
<path d="M1781 660.5H765.25V669.5H1781V660.5Z" fill="#E5E5E5"/>
<path d="M1781 759.5H765.25V768.5H1781V759.5Z" fill="#E5E5E5"/>
<path d="M1781 852.5H765.25V861.5H1781V852.5Z" fill="#E5E5E5"/>
<path d="M1781 957.5H765.25V966.5H1781V957.5Z" fill="#E5E5E5"/>
<path d="M1781 1062.5H765.25V1071.5H1781V1062.5Z" fill="#E5E5E5"/>
<path d="M1781 1163.5H765.25V1172.5H1781V1163.5Z" fill="#E5E5E5"/>
<path d="M1288.32 699.422L1043.87 728.701C1035.6 729.692 1029.69 737.204 1030.68 745.478L1039.97 823.014C1040.96 831.289 1048.47 837.194 1056.75 836.203L1301.2 806.924C1309.47 805.932 1315.38 798.421 1314.39 790.146L1305.1 712.61C1304.11 704.335 1296.6 698.431 1288.32 699.422Z" fill="#131313"/>
<path d="M1124.23 769.75C1124.79 774.415 1124.43 778.547 1123.15 782.146C1121.87 785.746 1119.88 788.643 1117.16 790.838C1114.44 793.033 1111.2 794.356 1107.43 794.808C1103.65 795.259 1100.19 794.74 1097.03 793.249C1093.87 791.758 1091.25 789.414 1089.16 786.218C1087.07 783.022 1085.74 779.091 1085.18 774.427C1084.62 769.762 1084.98 765.63 1086.26 762.03C1087.54 758.43 1089.53 755.533 1092.25 753.339C1094.97 751.144 1098.21 749.821 1101.98 749.369C1105.76 748.917 1109.22 749.437 1112.38 750.928C1115.54 752.419 1118.16 754.763 1120.25 757.959C1122.34 761.155 1123.67 765.085 1124.23 769.75ZM1119.05 770.371C1118.59 766.541 1117.56 763.385 1115.96 760.904C1114.38 758.421 1112.42 756.633 1110.08 755.54C1107.76 754.445 1105.26 754.058 1102.58 754.379C1099.91 754.7 1097.56 755.667 1095.55 757.281C1093.55 758.893 1092.07 761.093 1091.1 763.881C1090.15 766.668 1089.91 769.976 1090.37 773.806C1090.82 777.636 1091.84 780.792 1093.43 783.275C1095.02 785.756 1096.98 787.544 1099.31 788.639C1101.64 789.732 1104.15 790.118 1106.83 789.797C1109.5 789.477 1111.84 788.51 1113.84 786.898C1115.85 785.284 1117.33 783.084 1118.28 780.298C1119.25 777.509 1119.5 774.2 1119.05 770.371ZM1135.88 790.786L1130.59 746.557L1145.53 744.767C1149 744.351 1151.91 744.638 1154.26 745.626C1156.63 746.599 1158.47 748.08 1159.79 750.069C1161.11 752.057 1161.92 754.355 1162.24 756.961C1162.55 759.567 1162.3 761.999 1161.49 764.257C1160.69 766.514 1159.27 768.408 1157.22 769.939C1155.17 771.455 1152.42 772.419 1148.98 772.832L1138.27 774.114L1137.7 769.363L1148.24 768.101C1150.61 767.816 1152.47 767.178 1153.81 766.185C1155.15 765.191 1156.07 763.958 1156.55 762.484C1157.04 760.993 1157.18 759.363 1156.97 757.592C1156.76 755.821 1156.23 754.277 1155.4 752.96C1154.59 751.641 1153.41 750.672 1151.86 750.055C1150.31 749.423 1148.33 749.251 1145.93 749.538L1136.51 750.666L1141.24 790.144L1135.88 790.786ZM1174.49 786.162L1169.19 741.933L1195.88 738.736L1196.45 743.487L1175.11 746.043L1176.9 760.987L1196.86 758.597L1197.43 763.348L1177.47 765.738L1179.27 780.77L1200.96 778.172L1201.52 782.924L1174.49 786.162ZM1240.61 733.379L1245.91 777.608L1240.72 778.229L1212.46 746.389L1212.03 746.44L1216.19 781.167L1210.83 781.809L1205.54 737.58L1210.72 736.959L1239.08 768.875L1239.51 768.823L1235.34 734.01L1240.61 733.379Z" fill="white"/>
<path d="M1077 726.74L1073.61 723.07L1142.36 659.6C1147.3 655.016 1153.57 652.137 1160.27 651.386C1166.96 650.636 1173.72 652.053 1179.55 655.43L1258.69 700.92L1256.19 705.25L1177.06 659.76C1172.15 656.921 1166.46 655.73 1160.83 656.364C1155.19 656.998 1149.91 659.422 1145.75 663.28L1077 726.74Z" fill="#131313"/>
<path d="M326.54 799H635.64C643.959 798.995 652.197 800.629 659.884 803.808C667.571 806.988 674.556 811.652 680.44 817.532C686.324 823.412 690.992 830.394 694.176 838.079C697.361 845.764 699 854.001 699 862.32V1509H263.22V862.32C263.22 854.005 264.858 845.771 268.04 838.089C271.222 830.406 275.886 823.426 281.766 817.546C287.646 811.666 294.626 807.002 302.309 803.82C309.991 800.638 318.225 799 326.54 799Z" fill="#1F1F1F"/>
<path d="M350.82 620H611.37C622.703 620 633.571 624.502 641.585 632.515C649.598 640.529 654.1 651.397 654.1 662.73V799H308.1V662.73C308.1 651.399 312.601 640.532 320.612 632.519C328.623 624.506 339.489 620.003 350.82 620Z" fill="#1F1F1F"/>
<path d="M589.09 779.5H373.09V686.5H589.09V779.5ZM378.09 774.5H584.09V691.5H378.09V774.5Z" fill="white"/>
<path d="M589.09 1408H373.09V896H589.09V1408ZM378.09 1403H584.09V901H378.09V1403Z" fill="white"/>
<path d="M1062.09 1255.68L1057.91 1242.32C1068.49 1238.58 1078.4 1233.13 1087.23 1226.2C1105.23 1211.82 1113.23 1194 1111.08 1173.2C1109.55 1158.68 1080 1152.84 1048.71 1146.65C1005.23 1138.05 951.11 1127.35 926.56 1087.33C911.07 1062.07 909.34 1029.27 921.26 987.07C932.42 947.6 928.26 917.07 909.02 896.26C855.26 838.26 701.93 868.52 700.39 868.83L697.61 855.11C726.475 849.749 755.752 846.915 785.11 846.64H788.11C850.48 846.64 894.6 860.12 919.29 886.74C942.12 911.36 947.29 946.4 934.75 990.88C923.94 1029.12 925.17 1058.27 938.51 1080.02C959.85 1114.82 1008.51 1124.44 1051.44 1132.93C1089.52 1140.45 1122.44 1146.93 1125.02 1171.75C1127.72 1197.36 1117.55 1220.06 1095.61 1237.41C1085.53 1245.32 1074.2 1251.49 1062.09 1255.68Z" fill="#1F1F1F"/>
<path d="M1588.82 891.51C1595.7 894.621 1602.35 898.2 1608.74 902.22L1609.74 902.88L1608.63 902.11C1600.63 896.34 1591.63 892.04 1582.46 888.11L1583.73 888.95C1585.37 889.902 1587.07 890.757 1588.82 891.51Z" fill="#1F1F1F"/>
<path d="M1609.71 902.88C1610.21 903.23 1610.23 903.25 1609.71 902.88V902.88Z" fill="#1F1F1F"/>
<path d="M1567.9 884.62C1572.46 885.79 1577 886.99 1581.43 888.53C1582.04 888.74 1582.24 888.74 1581.93 888.53C1580.86 887.81 1580.39 887.53 1579.6 887C1573.22 884.64 1566.81 882.55 1560.25 880.66C1561.63 881.47 1562.56 882.02 1564.77 883.42C1565.76 883.944 1566.81 884.346 1567.9 884.62Z" fill="#1F1F1F"/>
<path d="M1538.93 877.1C1545.93 878.67 1552.86 880.42 1559.75 882.4C1561.12 882.8 1561.84 882.83 1561.26 882.47C1559.01 881.07 1558.06 880.47 1556.66 879.7C1549.01 877.81 1541.35 876.2 1533.57 874.82C1534.57 875.31 1535.11 875.62 1536.47 876.36C1537.26 876.695 1538.09 876.943 1538.93 877.1Z" fill="#1F1F1F"/>
<path d="M1590.05 892.35C1588.13 891.51 1587.31 891.41 1588.45 892.2C1590.45 893.65 1591.66 894.49 1594.17 896.41C1596.04 897.743 1598.03 898.894 1600.11 899.85C1606.59 902.792 1612.87 906.159 1618.9 909.93C1620.19 910.79 1620.1 910.64 1618.9 909.69C1616.7 907.98 1615.7 907.22 1613.9 905.91C1612.9 905.18 1611.18 903.91 1609.83 903.02C1603.49 899.02 1596.88 895.455 1590.05 892.35Z" fill="#1F1F1F"/>
<path d="M1593.3 896.71C1589.42 893.71 1587.66 892.45 1584.78 890.46C1583.91 889.929 1582.99 889.496 1582.02 889.17C1577.65 887.703 1573.21 886.472 1568.71 885.48C1568.04 885.33 1567.87 885.43 1568.34 885.73C1571.83 888.057 1575.23 890.493 1578.55 893.04C1579.56 893.779 1580.71 894.318 1581.92 894.63C1585.75 895.26 1589.55 896.094 1593.29 897.13C1593.81 897.28 1593.8 897.1 1593.3 896.71Z" fill="#1F1F1F"/>
<path d="M1562.53 883.78C1555.66 881.78 1548.77 879.93 1541.79 878.28C1540.27 877.94 1539.4 877.97 1540.09 878.37C1543.83 880.504 1547.5 882.75 1551.09 885.11C1551.98 885.648 1552.95 886.052 1553.96 886.31C1560.87 888.22 1567.68 890.31 1574.46 892.56C1575.8 893.02 1576.23 892.81 1575.36 892.14C1571.98 889.574 1568.51 887.124 1564.94 884.79C1564.18 884.357 1563.37 884.018 1562.53 883.78Z" fill="#1F1F1F"/>
<path d="M1601.55 902.35C1604.44 904.81 1605.97 906.16 1609.08 909.13C1610.93 910.87 1613.03 912.319 1615.31 913.43C1621.36 915.945 1627.23 918.879 1632.87 922.21C1634.1 922.96 1633.72 922.33 1632.15 920.9C1629.32 918.31 1627.95 917.12 1625.39 914.96C1623.96 913.77 1621.91 912.19 1620.63 911.34C1614.65 907.605 1608.43 904.264 1602.02 901.34C1600.23 900.61 1600 901 1601.55 902.35Z" fill="#1F1F1F"/>
<path d="M1597.68 900.23C1596.78 899.514 1595.77 898.956 1594.68 898.58C1591 897.637 1587.27 896.896 1583.51 896.36C1582.95 896.28 1582.98 896.58 1583.61 897.1C1587.93 900.83 1592.04 904.61 1596.09 908.59C1596.98 909.554 1598.13 910.247 1599.4 910.59C1602.63 910.603 1605.86 910.817 1609.07 911.23C1609.51 911.29 1609.39 910.9 1608.78 910.31C1605.18 906.82 1601.51 903.5 1597.68 900.23Z" fill="#1F1F1F"/>
<path d="M1556.65 889C1561.51 892.495 1566.19 896.247 1570.65 900.24C1571.51 900.971 1572.5 901.537 1573.57 901.91C1580.02 904.07 1586.37 906.37 1592.69 908.84C1593.94 909.34 1594.2 908.84 1593.22 907.84C1589.1 903.84 1584.92 899.99 1580.52 896.24C1579.73 895.627 1578.84 895.141 1577.9 894.8C1571.23 892.48 1564.49 890.347 1557.67 888.4C1556.16 888 1555.64 888.27 1556.65 889Z" fill="#1F1F1F"/>
<path d="M1617.72 918C1620.52 921.06 1623.22 924.24 1625.72 927.49C1627.49 929.73 1630.24 932.07 1631.82 932.59C1637.61 934.537 1643.29 936.811 1648.82 939.4C1650.04 939.99 1649.57 938.8 1647.82 936.86C1644.68 933.34 1643.12 931.69 1640.09 928.63C1638.52 927.019 1636.78 925.572 1634.92 924.31C1629.31 921.064 1623.48 918.207 1617.48 915.76C1615.9 915.06 1615.94 916 1617.72 918Z" fill="#1F1F1F"/>
<path d="M1613.89 915.51C1613.08 914.595 1612.05 913.906 1610.89 913.51C1607.72 913.222 1604.53 913.129 1601.34 913.23C1600.86 913.23 1600.98 913.77 1601.64 914.51C1606.07 919.64 1610.19 924.87 1614.11 930.34C1615.02 931.64 1616.54 932.79 1617.19 932.63C1620.09 931.926 1623.04 931.382 1626 931C1626.4 931 1626.25 930.35 1625.65 929.55C1621.94 924.72 1618 920.06 1613.89 915.51Z" fill="#1F1F1F"/>
<path d="M1591 922.06C1591.71 922.974 1592.63 923.702 1593.68 924.18C1599.51 926.48 1605.31 928.86 1611.01 931.42C1612.16 931.94 1612.38 931.12 1611.47 929.8C1607.47 924.28 1603.32 918.99 1598.83 913.8C1598.1 913.012 1597.23 912.379 1596.25 911.94C1590.06 909.447 1583.8 907.113 1577.48 904.94C1576.11 904.47 1575.8 905.04 1576.89 906.12C1581.88 911.25 1586.54 916.51 1591 922.06Z" fill="#1F1F1F"/>
<path d="M1634.33 939.25C1636.92 943.25 1639.38 947.25 1641.76 951.43C1643.34 954.26 1645.88 956.9 1647.46 957.22C1653.37 958.49 1659.25 959.85 1665.04 961.54C1666.36 961.93 1666.04 960.15 1664.32 957.68C1661.84 954.07 1659.21 950.51 1656.48 947.06C1655.01 945.084 1653.2 943.39 1651.13 942.06C1645.58 939.594 1639.91 937.427 1634.13 935.57C1632.54 935.12 1632.63 936.69 1634.33 939.25Z" fill="#1F1F1F"/>
<path d="M1630.68 936.53C1629.83 935.27 1628.42 934.16 1627.84 934.26C1624.85 934.773 1621.9 935.44 1618.98 936.26C1618.53 936.39 1618.64 937.14 1619.23 938.1C1623.14 944.59 1626.67 951.19 1629.91 958C1630.64 959.59 1631.99 960.86 1632.65 960.54C1635.78 959.01 1638.8 957.66 1641.65 956.49C1642.06 956.32 1641.98 955.49 1641.45 954.49C1638.13 948.37 1634.56 942.41 1630.68 936.53Z" fill="#1F1F1F"/>
<path d="M1608.86 950.29C1609.35 951.333 1610.14 952.202 1611.14 952.78C1616.38 955.12 1621.59 957.514 1626.76 959.96C1627.76 960.47 1628.12 959.36 1627.38 957.75C1624.12 950.88 1620.56 944.22 1616.62 937.66C1616.05 936.721 1615.24 935.949 1614.28 935.42C1608.68 932.86 1603 930.47 1597.28 928.15C1596.05 927.66 1595.8 928.54 1596.78 929.96C1601.16 936.522 1605.19 943.308 1608.86 950.29Z" fill="#1F1F1F"/>
<path d="M1649.13 966.05C1651.25 970.88 1653.22 975.72 1655.13 980.64C1656.35 983.99 1658.63 986.86 1660.29 986.97C1666.75 987.44 1673.2 987.97 1679.63 988.69C1681.16 988.86 1681.21 986.49 1679.7 983.5C1677.43 979.11 1675.07 974.81 1672.59 970.5C1670.97 967.75 1668.59 965.32 1667.21 964.96C1661.35 963.4 1655.42 962.15 1649.45 960.96C1647.83 960.73 1647.72 962.94 1649.13 966.05Z" fill="#1F1F1F"/>
<path d="M1645.73 963.14C1645.01 961.61 1643.73 960.38 1643.11 960.65C1640.19 961.95 1637.11 963.44 1633.95 965.09C1633.49 965.33 1633.5 966.29 1633.95 967.44C1636.95 975.09 1639.51 982.78 1641.79 990.63C1642.29 992.44 1643.47 993.78 1644.18 993.33C1647.45 991.2 1650.78 989.12 1654.18 987.11C1654.65 986.84 1654.7 985.82 1654.3 984.65C1651.74 977.35 1648.91 970.22 1645.73 963.14Z" fill="#1F1F1F"/>
<path d="M1622.35 983.65C1622.62 984.753 1623.27 985.725 1624.19 986.39C1628.93 988.66 1633.66 990.97 1638.37 993.28C1639.37 993.76 1639.81 992.42 1639.31 990.6C1637.02 982.69 1634.43 974.94 1631.46 967.24C1631.09 966.197 1630.38 965.302 1629.46 964.69C1624.36 962.25 1619.24 959.863 1614.11 957.53C1613.01 957.04 1612.69 958.21 1613.45 959.93C1616.79 967.73 1619.73 975.61 1622.35 983.65Z" fill="#1F1F1F"/>
<path d="M1660.54 997.64C1662.06 1003.06 1663.02 1008.64 1664.89 1013.99C1666 1017.6 1668.21 1020.55 1669.95 1020.52C1676.99 1020.41 1684.03 1020.35 1691.08 1020.32C1692.84 1020.32 1693.42 1017.44 1692.28 1013.98C1690.53 1008.88 1688.67 1003.86 1686.67 998.84C1685.33 995.59 1682.94 992.92 1681.37 992.78C1674.83 992.22 1668.28 991.76 1661.72 991.4C1660 991.31 1659.55 994.08 1660.54 997.64Z" fill="#1F1F1F"/>
<path d="M1657.37 994.63C1656.87 992.86 1655.69 991.56 1655 991.99C1651.57 994.097 1648.19 996.263 1644.84 998.49C1644.34 998.82 1644.21 999.94 1644.51 1001.23C1646.36 1009.47 1649 1017.53 1651.06 1025.73C1651.51 1027.59 1652.63 1028.92 1653.35 1028.41C1656.76 1025.99 1660.19 1023.58 1663.62 1021.19C1664.1 1020.85 1664.2 1019.75 1663.85 1018.5C1661.51 1010.57 1659.57 1002.59 1657.37 994.63Z" fill="#1F1F1F"/>
<path d="M1632.32 1019.47C1632.51 1020.56 1633.11 1021.53 1633.99 1022.19L1647.59 1028.63C1648.53 1029.08 1649.04 1027.69 1648.59 1025.82C1646.59 1017.6 1643.86 1009.52 1642.02 1001.25C1641.85 1000.16 1641.26 999.179 1640.38 998.51C1635.71 996.223 1631.05 993.94 1626.38 991.66C1625.38 991.18 1624.94 992.56 1625.45 994.46C1627.63 1002.84 1630.07 1011.12 1632.32 1019.47Z" fill="#1F1F1F"/>
<path d="M1671.21 1025.26C1669.47 1025.26 1668.83 1028.33 1669.65 1032.08C1670.9 1037.75 1671.93 1043.46 1672.74 1049.2C1673.28 1053.03 1675.05 1056.11 1676.82 1056.06C1683.98 1055.86 1691.14 1055.68 1698.31 1055.52C1700.09 1055.52 1701.17 1052.3 1700.58 1048.46C1699.7 1042.78 1698.59 1037.11 1697.25 1031.46C1696.38 1027.79 1694.15 1024.89 1692.38 1024.9C1685.33 1025 1678.27 1025.12 1671.21 1025.26Z" fill="#1F1F1F"/>
<path d="M1658.71 1064.25C1662.59 1061.82 1666.45 1059.35 1670.28 1056.83C1670.83 1056.48 1671.11 1055.31 1670.95 1054C1669.86 1045.61 1668.4 1037.33 1666.57 1029C1666.14 1027.15 1664.99 1025.83 1664.27 1026.33C1660.78 1028.76 1657.29 1031.2 1653.82 1033.65C1653.31 1034.01 1653.14 1035.16 1653.39 1036.45C1654.89 1044.77 1656.03 1053.08 1656.82 1061.45C1657 1063.42 1657.9 1064.76 1658.71 1064.25Z" fill="#1F1F1F"/>
<path d="M1638.81 1055.27C1638.81 1055.78 1638.93 1056.29 1639.15 1056.75C1639.36 1057.22 1639.68 1057.63 1640.07 1057.96C1644.34 1060.09 1648.59 1062.24 1652.84 1064.43C1653.72 1064.89 1654.46 1063.49 1654.31 1061.62C1653.53 1053.22 1652.4 1044.92 1650.91 1036.62C1650.85 1036.09 1650.69 1035.57 1650.43 1035.11C1650.16 1034.64 1649.81 1034.23 1649.39 1033.9C1644.9 1031.75 1640.41 1029.61 1635.91 1027.48C1634.97 1027.04 1634.47 1028.48 1634.91 1030.33C1636.53 1038.61 1637.84 1046.89 1638.81 1055.27Z" fill="#1F1F1F"/>
<path d="M1702.67 1067.68C1702.42 1063.68 1700.67 1060.55 1698.85 1060.58C1691.68 1060.72 1684.51 1060.88 1677.32 1061.06C1675.55 1061.06 1674.4 1064.28 1674.62 1068.16C1674.87 1073.63 1674.99 1079.06 1674.98 1084.54C1674.98 1087.44 1676.28 1089.85 1678.07 1089.82L1699.7 1089.41C1701.49 1089.41 1703.05 1087.06 1703.08 1084.34C1703.16 1078.78 1703.02 1073.23 1702.67 1067.68Z" fill="#1F1F1F"/>
<path d="M1672 1065C1671.86 1063.09 1670.91 1061.72 1670.1 1062.23C1666.21 1064.72 1662.3 1067.17 1658.35 1069.58C1658 1069.95 1657.74 1070.39 1657.59 1070.87C1657.43 1071.35 1657.39 1071.86 1657.47 1072.36C1657.66 1079.64 1657.6 1086.89 1657.29 1094.17C1657.21 1095.74 1657.97 1096.87 1658.84 1096.44C1662.99 1094.37 1667.18 1092.37 1671.4 1090.44C1671.75 1090.19 1672.03 1089.86 1672.22 1089.47C1672.41 1089.09 1672.49 1088.66 1672.47 1088.23C1672.63 1080.44 1672.47 1072.74 1672 1065Z" fill="#1F1F1F"/>
<path d="M1641 1091C1645 1092.88 1649 1094.75 1653 1096.62C1653.82 1097.01 1654.73 1095.81 1654.82 1094.23C1655.13 1086.94 1655.19 1079.69 1655 1072.39C1655.04 1071.88 1654.96 1071.37 1654.76 1070.9C1654.57 1070.43 1654.27 1070.01 1653.89 1069.67C1649.7 1067.47 1645.49 1065.3 1641.25 1063.15C1640.37 1062.7 1639.64 1064.08 1639.76 1065.92C1640.16 1073.51 1640.28 1081.07 1640.13 1088.68C1640.06 1089.11 1640.1 1089.55 1640.25 1089.96C1640.41 1090.36 1640.66 1090.72 1641 1091Z" fill="#1F1F1F"/>
<path d="M1699.53 1093.1L1677.89 1093.7C1676.1 1093.7 1674.53 1096.26 1674.29 1099.4C1673.85 1104.26 1673.29 1109.08 1672.67 1113.93C1672.2 1117.21 1673.18 1119.8 1674.97 1119.65L1696.75 1117.79C1698.56 1117.64 1700.48 1114.97 1700.92 1111.89C1701.52 1107.35 1702.03 1102.83 1702.44 1098.27C1702.67 1095.33 1701.33 1093.05 1699.53 1093.1Z" fill="#1F1F1F"/>
<path d="M1669.6 1118.19C1670.67 1111.11 1671.48 1104.04 1672.05 1096.9C1672.15 1095.35 1671.38 1094.27 1670.5 1094.69C1666.24 1096.69 1662.03 1098.85 1657.82 1100.98C1657.45 1101.27 1657.15 1101.64 1656.94 1102.06C1656.73 1102.48 1656.62 1102.94 1656.61 1103.41C1655.84 1110.92 1654.79 1118.36 1653.45 1125.81C1653.12 1127.54 1653.7 1128.72 1654.65 1128.18C1659.15 1125.67 1663.66 1123.18 1668.19 1120.72C1668.59 1120.42 1668.92 1120.04 1669.16 1119.6C1669.4 1119.17 1669.55 1118.69 1669.6 1118.19Z" fill="#1F1F1F"/>
<path d="M1637.56 1123.38C1641.26 1125.21 1644.97 1127.01 1648.7 1128.78C1649.47 1129.15 1650.57 1127.78 1650.9 1126.05C1652.25 1118.56 1653.31 1111.05 1654.09 1103.53C1654.19 1102.4 1653.87 1101.43 1653.3 1101.17C1649.35 1099.31 1645.41 1097.44 1641.46 1095.55C1640.63 1095.16 1639.73 1096.37 1639.62 1098.02C1639.03 1105.67 1638.16 1113.26 1637 1120.85C1636.8 1122.08 1637 1123.12 1637.56 1123.38Z" fill="#1F1F1F"/>
<path d="M1696 1121.88L1674.18 1123.95C1672.39 1124.12 1670.42 1126.95 1669.68 1130.37C1668.48 1135.54 1667.17 1140.65 1665.74 1145.77C1664.74 1149.19 1665.3 1151.77 1667.13 1151.45L1689.29 1148.05C1691.13 1147.77 1693.48 1144.95 1694.42 1141.74C1695.77 1136.94 1696.99 1132.15 1698.11 1127.3C1698.82 1124.13 1697.83 1121.71 1696 1121.88Z" fill="#1F1F1F"/>
<path d="M1662 1150.35C1664.27 1142.89 1666.21 1135.41 1667.85 1127.81C1668.2 1126.13 1667.59 1124.99 1666.65 1125.51C1662.06 1128.04 1657.48 1130.59 1652.93 1133.16C1652.09 1133.83 1651.52 1134.78 1651.33 1135.84C1649.39 1143.74 1646.9 1151.49 1644.87 1159.36C1644.4 1161.21 1644.87 1162.41 1645.87 1161.79C1650.62 1158.85 1655.39 1155.92 1660.16 1153.01C1661.05 1152.35 1661.7 1151.42 1662 1150.35Z" fill="#1F1F1F"/>
<path d="M1635.1 1131.17C1633.34 1139.31 1631.26 1147.33 1628.83 1155.33C1628.44 1156.59 1628.48 1157.61 1629 1157.86C1632.57 1159.55 1636.17 1161.21 1639.79 1162.86C1640.54 1163.2 1641.79 1161.69 1642.26 1159.86C1644.26 1151.94 1646.8 1144.15 1648.76 1136.21C1649.04 1134.99 1648.87 1133.98 1648.34 1133.73C1644.66 1131.99 1640.99 1130.22 1637.34 1128.42C1636.57 1128 1635.47 1129.36 1635.1 1131.17Z" fill="#1F1F1F"/>
<path d="M1688 1152.25L1666 1155.99C1664.18 1156.29 1662 1159.43 1660.93 1162.99C1659.37 1168.39 1657.61 1173.72 1655.65 1178.99C1654.34 1182.51 1654.65 1184.99 1656.47 1184.46C1663.52 1182.54 1670.52 1180.5 1677.47 1178.34C1679.13 1177.81 1681.71 1174.87 1683.16 1171.74C1685.28 1167.01 1687.28 1162.27 1689.16 1157.45C1690.36 1154.28 1689.77 1151.94 1688 1152.25Z" fill="#1F1F1F"/>
<path d="M1651.46 1184C1654.46 1176.26 1656.98 1168.46 1659.24 1160.53C1659.72 1158.75 1659.24 1157.6 1658.24 1158.2C1653.4 1161.18 1648.57 1164.18 1643.74 1167.2C1642.84 1167.95 1642.19 1168.97 1641.9 1170.11C1639.3 1178.34 1636.36 1186.41 1633.01 1194.41C1632.23 1196.2 1632.55 1197.27 1633.68 1196.59C1638.96 1193.38 1644.21 1190.13 1649.44 1186.85C1650.36 1186.11 1651.06 1185.12 1651.46 1184Z" fill="#1F1F1F"/>
<path d="M1625.71 1166.19C1623.1 1174.78 1620.14 1183.19 1616.71 1191.56C1616.17 1192.86 1616.13 1193.9 1616.64 1194.11C1620.16 1195.53 1623.64 1196.84 1627.16 1198.03C1627.89 1198.28 1629.4 1196.77 1630.16 1194.96C1633.55 1186.96 1636.52 1178.8 1639.16 1170.51C1639.56 1169.23 1639.46 1168.18 1638.95 1167.96C1635.34 1166.39 1631.76 1164.77 1628.2 1163.1C1627.52 1162.75 1626.27 1164.28 1625.71 1166.19Z" fill="#1F1F1F"/>
<path d="M1675.45 1182.39C1668.54 1184.72 1661.58 1186.87 1654.56 1188.9C1652.75 1189.4 1650.07 1192.6 1648.48 1195.96C1646.03 1200.96 1643.48 1205.83 1640.75 1210.7C1638.93 1213.85 1638.9 1215.78 1640.75 1215.11C1647.75 1212.46 1654.63 1209.61 1661.38 1206.39C1662.93 1205.61 1665.68 1202.77 1667.51 1199.96C1670.26 1195.62 1672.89 1191.27 1675.44 1186.83C1677.11 1183.84 1677.09 1181.82 1675.45 1182.39Z" fill="#1F1F1F"/>
<path d="M1635.89 1215.41C1640.07 1208.41 1643.83 1201.23 1647.27 1193.86C1648.04 1192.17 1647.71 1191.15 1646.63 1191.86C1641.3 1195.19 1635.96 1198.47 1630.63 1201.68C1629.62 1202.41 1628.8 1203.39 1628.27 1204.52C1624.41 1212 1620.14 1219.27 1615.47 1226.28C1614.47 1227.81 1614.62 1228.63 1615.89 1227.95C1621.82 1224.75 1627.67 1221.45 1633.46 1218.04C1634.45 1217.35 1635.28 1216.45 1635.89 1215.41Z" fill="#1F1F1F"/>
<path d="M1611.92 1202.3C1607.91 1210.3 1603.45 1218.07 1598.55 1225.56C1597.78 1226.69 1597.55 1227.56 1598.11 1227.69C1601.7 1228.57 1605.3 1229.3 1608.86 1229.87C1609.6 1229.98 1611.39 1228.61 1612.46 1227.07C1617.2 1220.02 1621.54 1212.71 1625.46 1205.18C1626.06 1203.98 1626.13 1203.03 1625.63 1202.87C1622.16 1201.78 1618.63 1200.55 1615.12 1199.2C1614.37 1198.92 1612.81 1200.46 1611.92 1202.3Z" fill="#1F1F1F"/>
<path d="M1658.94 1209.93C1652.19 1213.27 1645.34 1216.22 1638.27 1218.93C1636.41 1219.63 1633.27 1222.59 1631.27 1225.43C1628.27 1229.56 1625.11 1233.56 1621.82 1237.52C1619.67 1240.03 1619.56 1241.32 1621.54 1240.52C1628.96 1237.58 1636.13 1234.07 1643 1230C1645.34 1228.34 1647.46 1226.39 1649.32 1224.2C1652.32 1220.57 1655.32 1216.92 1658.22 1213.2C1660.14 1210.63 1660.49 1209.13 1658.94 1209.93Z" fill="#1F1F1F"/>
<path d="M1616.37 1241.61C1621.37 1235.93 1625.93 1230.1 1630.29 1224C1631.29 1222.56 1631.1 1221.79 1629.91 1222.49C1624.01 1225.88 1618.04 1229.16 1612 1232.32C1610.91 1232.96 1609.95 1233.79 1609.17 1234.79C1604.34 1240.79 1599.17 1246.51 1593.67 1251.91C1592.47 1253.06 1592.67 1253.56 1594.11 1252.91C1600.71 1250.01 1607.18 1246.97 1613.6 1243.74C1614.63 1243.18 1615.57 1242.46 1616.37 1241.61Z" fill="#131313"/>
<path d="M1591.87 1234.75C1586.62 1241.28 1580.96 1247.46 1574.92 1253.27C1574 1254.12 1573.75 1254.74 1574.32 1254.77C1578.32 1255.06 1582.32 1255.17 1586.32 1255.1C1587.85 1254.71 1589.25 1253.93 1590.38 1252.83C1595.96 1247.42 1601.23 1241.68 1606.14 1235.65C1606.92 1234.65 1607.14 1233.92 1606.59 1233.85C1603 1233.39 1599.37 1232.76 1595.75 1231.99C1595 1231.83 1593.07 1233.21 1591.87 1234.75Z" fill="#131313"/>
<path d="M1640.4 1232.84C1633.49 1236.98 1626.26 1240.55 1618.77 1243.52C1615.96 1244.91 1613.38 1246.74 1611.13 1248.93C1607.96 1251.93 1604.78 1254.93 1601.39 1257.67C1599.28 1259.41 1599.45 1260.05 1601.63 1259.21C1609.66 1256.06 1617.44 1252.3 1624.89 1247.95C1627.05 1246.5 1629.1 1244.88 1631.02 1243.12C1633.96 1240.43 1636.82 1237.64 1639.59 1234.8C1641.54 1232.81 1642 1231.88 1640.4 1232.84Z" fill="#131313"/>
<path d="M1595.72 1260.85C1600.72 1256.85 1605.47 1252.64 1610.07 1248.21C1611.16 1247.12 1610.97 1246.66 1609.66 1247.31C1603.13 1250.48 1596.54 1253.45 1589.82 1256.31C1588.7 1256.8 1587.65 1257.44 1586.71 1258.21C1581.71 1262.34 1576.49 1266.21 1571.04 1269.84C1569.91 1270.57 1570.34 1270.77 1571.87 1270.27C1578.98 1267.88 1585.96 1265.27 1592.87 1262.51C1593.88 1262.07 1594.84 1261.51 1595.72 1260.85Z" fill="#131313"/>
<path d="M1567.12 1260C1561.35 1264.52 1555.34 1268.72 1549.12 1272.59C1548.21 1273.14 1548.05 1273.48 1548.74 1273.45C1553.55 1273.17 1558.31 1272.79 1563.11 1272.31C1564.6 1272 1566.03 1271.45 1567.34 1270.67C1572.89 1267.02 1578.16 1263.19 1583.34 1259.05C1584.19 1258.35 1584.34 1257.86 1583.79 1257.88C1579.79 1258.05 1575.62 1258.04 1571.57 1257.88C1570.65 1257.85 1568.49 1258.93 1567.12 1260Z" fill="#131313"/>
<path d="M1622.61 1249.93C1615.07 1254.3 1607.19 1258.07 1599.06 1261.21C1596.38 1262.3 1593.82 1263.67 1591.42 1265.29C1587.96 1267.74 1586.31 1268.8 1583.42 1270.62C1581.79 1271.62 1582.63 1271.69 1585.03 1270.87C1593.77 1267.81 1602.24 1264.07 1610.38 1259.66C1612.25 1258.53 1614.05 1257.31 1615.79 1255.99C1618.22 1254.12 1619.59 1252.99 1622.52 1250.6C1624.11 1249.25 1624.26 1248.9 1622.61 1249.93Z" fill="#131313"/>
<path d="M1554 1280.1C1561.23 1278.24 1568.36 1276.21 1575.46 1273.94C1576.34 1273.65 1577.18 1273.3 1578 1272.87C1582.05 1270.48 1585.98 1267.94 1589.8 1265.23C1590.8 1264.52 1590.43 1264.35 1589.03 1264.91C1582.03 1267.62 1574.94 1270.09 1567.75 1272.39C1566.69 1272.72 1565.66 1273.15 1564.69 1273.68C1560.69 1276.01 1556.59 1278.17 1552.39 1280.16C1551.65 1280.53 1552.48 1280.49 1554 1280.1Z" fill="#131313"/>
<path d="M1541.61 1276.82C1536.61 1279.34 1531.61 1281.74 1526.4 1283.82C1525.72 1284.1 1525.84 1284.22 1526.69 1284.15C1532.61 1283.6 1538.51 1282.89 1544.39 1282.03C1545.73 1281.83 1547.05 1281.5 1548.32 1281.03C1552.61 1279.03 1556.79 1276.89 1560.88 1274.6C1561.62 1274.18 1561.65 1273.94 1560.95 1274.02C1556.02 1274.58 1551.12 1275.02 1546.17 1275.38C1544.58 1275.62 1543.05 1276.1 1541.61 1276.82Z" fill="#131313"/>
<path d="M1583.2 1272C1580.89 1272.77 1578.63 1273.68 1576.44 1274.75C1574.53 1275.81 1573.74 1276.23 1572.57 1276.84C1584.51 1273.15 1596.32 1268.97 1606.9 1262.53C1607.84 1261.87 1608.49 1261.42 1610.04 1260.3C1611.04 1259.61 1610.58 1259.79 1608.8 1260.82C1600.58 1265.23 1592.02 1268.97 1583.2 1272Z" fill="#131313"/>
<path d="M1572.48 1275.36C1565.36 1277.53 1558.22 1279.47 1550.97 1281.24C1550.1 1281.43 1549.25 1281.68 1548.41 1281.99C1546.91 1282.66 1546.26 1282.93 1545.25 1283.35C1553.25 1281.74 1561.17 1280.01 1568.99 1277.81C1570.43 1277.08 1571.46 1276.56 1573.99 1275.18C1574.61 1274.83 1573.9 1274.9 1572.48 1275.36Z" fill="#131313"/>
<path d="M1543.51 1282.72C1537.51 1283.64 1531.45 1284.4 1525.33 1284.99C1523.9 1285.15 1522.49 1285.45 1521.12 1285.86C1517.85 1287.06 1516.5 1287.49 1514.62 1288.1C1523.45 1286.99 1532.24 1285.68 1540.99 1284.15C1541.99 1283.73 1542.68 1283.47 1544.22 1282.81C1544.65 1282.63 1544.37 1282.58 1543.51 1282.72Z" fill="#131313"/>
<path d="M1512.83 1286.47C1500.11 1287.85 1487.39 1288.81 1474.6 1289.4C1475.99 1289.15 1477.37 1288.87 1478.75 1288.57C1491 1287.93 1503.18 1286.94 1515.36 1285.57C1518.58 1285.2 1521.75 1284.46 1524.81 1283.37C1528.44 1281.9 1532.06 1280.28 1535.55 1278.54C1538.1 1277.28 1537.95 1276.54 1535.07 1276.94C1524.21 1278.53 1513.32 1279.79 1502.39 1280.74C1503.64 1280.19 1504.88 1279.61 1506.12 1279.01C1517 1277.98 1527.83 1276.65 1538.62 1275.01C1542.16 1274.33 1545.57 1273.05 1548.69 1271.24C1553.06 1268.54 1557.27 1265.64 1561.33 1262.53C1564.14 1260.38 1564.33 1258.89 1561.82 1259.37C1551.43 1261.28 1541 1262.89 1530.53 1264.21L1529.76 1264.37C1531.09 1263.33 1532.43 1262.27 1533.76 1261.18C1534.09 1261.23 1534.43 1261.23 1534.76 1261.18C1545.06 1259.85 1555.3 1258.21 1565.49 1256.28C1567.98 1255.79 1572.23 1253.41 1574.94 1250.77C1579.11 1246.71 1583.05 1242.43 1586.75 1237.94C1589.25 1234.94 1589.39 1232.68 1587.15 1233.15C1578.02 1234.98 1568.85 1236.61 1559.65 1238.04C1558.13 1238.43 1556.7 1239.1 1555.44 1240.04C1557.63 1237.49 1559.77 1234.86 1561.86 1232.15C1561.57 1233.34 1562 1233.99 1563.23 1233.8C1572.29 1232.37 1581.29 1230.75 1590.23 1228.96C1592.43 1228.51 1596.1 1225.46 1598.31 1222.04C1601.61 1216.76 1604.68 1211.41 1607.57 1205.93C1609.46 1202.24 1609.25 1199.5 1607.24 1199.93C1599.07 1201.46 1590.87 1202.88 1582.66 1204.2C1581.44 1204.39 1579.77 1205.66 1578.14 1207.46C1580.08 1204.03 1581.94 1200.53 1583.72 1196.94C1583.6 1198.46 1584.1 1199.34 1585.25 1199.16C1593.35 1197.87 1601.43 1196.49 1609.5 1195C1611.5 1194.63 1614.5 1191.23 1615.98 1187.38C1618.21 1181.58 1620.26 1175.76 1622.15 1169.86C1623.36 1165.98 1622.74 1163.08 1620.9 1163.38C1613.43 1164.55 1605.96 1165.72 1598.49 1166.87C1597.49 1167.01 1596.4 1167.97 1595.32 1169.41C1596.41 1166.29 1597.45 1163.13 1598.43 1159.93C1598.61 1161.21 1599.19 1161.93 1600.15 1161.79L1622.31 1158.39C1624.13 1158.11 1626.6 1154.89 1627.68 1151.18C1629.3 1145.67 1630.72 1140.11 1631.95 1134.5C1632.76 1130.83 1631.86 1128.01 1630.06 1128.18C1622.79 1128.85 1615.52 1129.54 1608.24 1130.25C1607.24 1130.35 1606.07 1131.47 1605.15 1133.14C1605.82 1129.72 1606.42 1126.27 1606.97 1122.78C1607.3 1124.4 1608.06 1125.41 1609.13 1125.32L1630.91 1123.46C1632.71 1123.31 1634.67 1120.25 1635.18 1116.68C1635.88 1111.44 1636.46 1106.21 1636.94 1100.95C1637.2 1097.55 1635.94 1094.95 1634.11 1094.95L1612.47 1095.55C1611.39 1095.55 1610.38 1096.65 1609.68 1098.27C1609.89 1095.08 1610.04 1091.87 1610.15 1088.65C1610.7 1090.14 1611.61 1091.12 1612.68 1091.1L1634.31 1090.69C1636.09 1090.69 1637.64 1087.98 1637.68 1084.84C1637.68 1079.58 1637.61 1074.35 1637.41 1069.09C1637.23 1065.42 1635.55 1062.46 1633.78 1062.53C1626.6 1062.82 1619.42 1063.13 1612.25 1063.47C1611.25 1063.47 1610.47 1064.4 1609.96 1065.75C1609.81 1062.8 1609.62 1059.87 1609.39 1056.94C1610.1 1058.14 1610.98 1058.86 1611.89 1058.81C1619.05 1058.43 1626.21 1058.07 1633.37 1057.73C1635.14 1057.65 1636.29 1054.55 1635.82 1050.73C1635.11 1044.99 1634.2 1039.28 1633.08 1033.59C1632.34 1029.78 1630.22 1026.76 1628.49 1026.85C1621.45 1027.24 1614.42 1027.67 1607.39 1028.12C1607.03 1028.18 1606.7 1028.34 1606.43 1028.58C1606.16 1028.81 1605.96 1029.12 1605.85 1029.47C1605.4 1027.03 1604.92 1024.61 1604.43 1022.2C1604.66 1022.47 1604.94 1022.69 1605.26 1022.85C1605.59 1023.01 1605.93 1023.09 1606.29 1023.11C1613.3 1022.67 1620.3 1022.27 1627.29 1021.91C1629.02 1021.83 1629.68 1018.67 1628.62 1014.91C1627.03 1009.17 1625.25 1003.49 1623.81 997.71C1622.81 993.85 1620.48 990.77 1618.69 990.81C1611.46 990.95 1604.23 991.153 1597 991.42C1596.83 991.424 1596.67 991.463 1596.51 991.533C1596.36 991.604 1596.22 991.705 1596.11 991.83C1595.45 989.9 1594.78 987.99 1594.11 986.1C1594.46 986.292 1594.84 986.392 1595.24 986.39C1602.58 986.15 1609.9 985.97 1617.24 985.87C1619.05 985.87 1619.58 982.78 1618.32 979.06C1616.45 973.54 1614.37 968.09 1612.08 962.71C1610.57 959.19 1607.71 956.33 1605.77 956.25C1597.77 955.87 1589.69 955.83 1581.65 955.89C1581.33 955.891 1581.02 955.988 1580.76 956.17C1579.85 954.45 1578.92 952.753 1577.97 951.08C1578.33 951.22 1578.72 951.295 1579.11 951.3C1587.29 951.3 1595.44 951.44 1603.61 951.83C1605.61 951.93 1605.78 949.31 1604.02 946.06C1601.33 941.3 1598.53 936.67 1595.55 932.06C1593.55 929.11 1590.21 926.63 1588.07 926.4C1578.98 925.53 1569.92 925 1560.79 924.77C1560.63 924.754 1560.46 924.754 1560.3 924.77C1559.3 923.47 1558.22 922.18 1557.16 920.92H1557.56C1566.86 921.19 1576.08 921.77 1585.33 922.72C1587.51 922.96 1587.54 920.96 1585.4 918.36C1582.2 914.6 1578.94 910.99 1575.51 907.41C1573.2 905.126 1570.3 903.533 1567.13 902.81C1557.01 901.49 1546.91 900.65 1536.71 900.2C1535.6 899.26 1534.48 898.333 1533.35 897.42C1543.69 897.89 1553.92 898.76 1564.16 900.12C1566.63 900.47 1566.76 899.12 1564.54 897.26C1561.41 894.59 1558.12 892 1554.75 889.57C1552.14 887.849 1549.2 886.688 1546.12 886.16C1534.77 884.59 1523.45 883.62 1512 883.16C1510.88 882.55 1509.75 881.96 1508.62 881.38C1520.31 881.87 1531.88 882.85 1543.47 884.44C1546.24 884.85 1546.83 884.15 1544.98 882.97C1541.63 880.86 1540.07 879.97 1537.34 878.4C1534.82 877.253 1532.15 876.498 1529.4 876.16C1516.4 874.46 1503.4 873.48 1490.18 873.08C1489.43 873.08 1488.78 873.08 1488.18 873.08C1486.87 872.68 1485.56 872.3 1484.24 871.95C1485.5 872.07 1486.84 872.15 1488.09 872.18C1501.32 872.513 1514.53 873.515 1527.66 875.18C1530.66 875.59 1532.06 875.44 1531.04 874.91L1529.42 874.07C1512.17 871.633 1494.77 870.364 1477.35 870.27C1469.69 868.695 1461.9 867.901 1454.08 867.9C1368.54 867.9 1299.2 962.65 1299.2 1079.52C1299.2 1196.39 1368.54 1291.14 1454.08 1291.14C1456.59 1291.14 1459.08 1291.05 1461.57 1290.89C1459.88 1291.24 1458.79 1291.44 1457.38 1291.71C1475.01 1291.38 1492.57 1290.32 1510.08 1288.51C1511.67 1288.01 1512.75 1287.68 1515.33 1286.79C1517 1286.34 1516 1286.11 1512.83 1286.47ZM1444.04 1243.47C1442.85 1243.47 1441.68 1243.32 1440.49 1243.24C1439.9 1243.24 1439.31 1243.11 1438.72 1243.05C1438.13 1242.99 1437.54 1242.92 1436.95 1242.82C1432.23 1242.13 1427.6 1240.95 1423.12 1239.32L1421.44 1238.71L1419.79 1238.04L1418.96 1237.71L1418.15 1237.35L1416.52 1236.62C1414.38 1235.62 1412.26 1234.52 1410.21 1233.34C1406.13 1231 1402.22 1228.35 1398.52 1225.44C1391.26 1219.64 1384.69 1213.03 1378.94 1205.73C1376.07 1202.14 1373.42 1198.41 1370.94 1194.59C1368.46 1190.77 1366.11 1186.86 1363.94 1182.86C1361.77 1178.86 1359.82 1174.81 1357.94 1170.7C1356.06 1166.59 1354.45 1162.41 1352.94 1158.19C1349.88 1149.79 1347.36 1141.19 1345.4 1132.47C1344.4 1128.13 1343.57 1123.75 1342.84 1119.37C1342.11 1114.99 1341.5 1110.57 1341.02 1106.16C1340.54 1101.75 1340.19 1097.32 1339.95 1092.89C1339.71 1088.46 1339.6 1084.02 1339.58 1079.59C1339.56 1075.16 1339.72 1070.72 1339.95 1066.29C1340.18 1061.86 1340.54 1057.43 1341.01 1053.02C1341.48 1048.61 1342.11 1044.2 1342.83 1039.81C1343.55 1035.42 1344.37 1031.05 1345.39 1026.7C1347.38 1017.98 1349.92 1009.4 1353 1001C1354.54 996.79 1356.2 992.61 1358 988.49C1359.8 984.37 1361.82 980.32 1364 976.33C1366.18 972.34 1368.46 968.43 1371 964.6C1373.54 960.77 1376.14 957.05 1379 953.46C1381.87 949.837 1384.93 946.372 1388.17 943.08C1391.45 939.765 1394.92 936.65 1398.57 933.75C1402.27 930.83 1406.18 928.19 1410.27 925.85C1412.27 924.66 1414.44 923.59 1416.59 922.57C1418.74 921.55 1420.93 920.65 1423.19 919.86C1427.67 918.24 1432.31 917.071 1437.02 916.37C1437.61 916.27 1438.2 916.21 1438.79 916.14C1439.38 916.07 1439.97 916 1440.56 915.95C1441.75 915.87 1442.92 915.75 1444.11 915.73C1446.47 915.628 1448.83 915.661 1451.18 915.83C1441.98 916.508 1432.99 918.931 1424.7 922.97L1423.19 923.72L1421.71 924.51L1420.97 924.91L1420.24 925.33L1418.78 926.16C1416.87 927.31 1414.99 928.51 1413.2 929.8C1409.6 932.344 1406.18 935.141 1402.98 938.17C1399.8 941.158 1396.79 944.33 1393.98 947.67C1391.19 950.99 1388.56 954.44 1386.13 958C1383.7 961.56 1381.42 965.23 1379.31 969C1377.2 972.77 1375.25 976.56 1373.42 980.43C1371.59 984.3 1369.93 988.24 1368.42 992.23C1366.91 996.22 1365.42 1000.23 1364.15 1004.29C1361.58 1012.4 1359.46 1020.65 1357.81 1029C1356.15 1037.33 1354.92 1045.75 1354.13 1054.21C1353.73 1058.43 1353.4 1062.67 1353.2 1066.91C1353 1071.15 1352.92 1075.39 1352.91 1079.64C1352.9 1083.89 1353.01 1088.13 1353.2 1092.37C1353.39 1096.61 1353.73 1100.84 1354.12 1105.07C1354.91 1113.53 1356.13 1121.95 1357.79 1130.28C1359.45 1138.63 1361.57 1146.88 1364.14 1155C1365.43 1159.06 1366.86 1163.08 1368.4 1167.06C1369.94 1171.04 1371.61 1174.98 1373.4 1178.85C1375.19 1182.72 1377.17 1186.55 1379.29 1190.29C1381.41 1194.03 1383.69 1197.69 1386.11 1201.29C1388.53 1204.89 1391.18 1208.29 1393.97 1211.63C1396.78 1214.97 1399.79 1218.14 1402.97 1221.13C1406.18 1224.16 1409.59 1226.95 1413.19 1229.5C1414.99 1230.79 1416.87 1231.98 1418.78 1233.14L1420.23 1233.97L1420.96 1234.39L1421.7 1234.79L1423.19 1235.58L1424.7 1236.32C1432.99 1240.36 1441.98 1242.79 1451.18 1243.46C1448.79 1243.61 1446.39 1243.62 1444 1243.5L1444.04 1243.47ZM1439.86 1099.4C1436.7 1061.7 1442.63 1023.78 1457.14 988.84C1462.6 975.72 1469.57 963.283 1477.91 951.78L1491.91 932.32C1524.55 960.72 1546.7 1016.02 1546.7 1079.59C1546.7 1143.16 1524.47 1198.65 1491.7 1227L1482.82 1214.54C1458.35 1180.14 1443.34 1140.56 1439.86 1099.43V1099.4Z" fill="#1F1F1F"/>
<path d="M1817.06 1234.2L1795 1140C1790.41 1120.1 1779.19 1102.35 1763.18 1089.67C1747.18 1076.98 1727.34 1070.1 1706.92 1070.17H1697.82V1054.87H1706.92C1730.78 1054.86 1753.94 1062.92 1772.64 1077.75C1791.34 1092.57 1804.48 1113.28 1809.92 1136.51L1831.98 1230.68L1817.06 1234.2Z" fill="#1F1F1F"/>
<path d="M1390.52 1232.72L1376.32 1227.02L1418.25 1122.56C1426.28 1102.38 1440.19 1085.08 1458.18 1072.92C1476.18 1060.75 1497.41 1054.28 1519.13 1054.35H1546.44V1069.65H1519.13C1500.47 1069.6 1482.22 1075.16 1466.77 1085.61C1451.31 1096.06 1439.35 1110.92 1432.45 1128.26L1390.52 1232.72Z" fill="#1F1F1F"/>
<path d="M1840.75 1332H1918.51C1919.51 1332.86 1920.42 1333.73 1921.38 1334.6V1230.24H526.63C428.276 1230.11 333.347 1266.35 260.11 1332H337.87C347.451 1332 356.639 1335.81 363.414 1342.58C370.19 1349.35 373.998 1358.54 374 1368.12C374 1389.18 369.852 1410.03 361.793 1429.49C353.733 1448.95 341.921 1466.63 327.029 1481.52C312.137 1496.41 294.458 1508.22 275.001 1516.28C255.544 1524.34 234.69 1528.49 213.63 1528.49H139.7C130.998 1561.71 126.602 1595.9 126.62 1630.24H484.53C484.53 1629.95 484.53 1629.66 484.53 1629.37C484.53 1496.14 592.53 1388.14 725.76 1388.14C858.99 1388.14 967 1496.14 967 1629.37C967 1629.66 967 1629.95 967 1630.24H1921.41V1522.48C1887.8 1512.97 1858.21 1492.75 1837.14 1464.89C1816.07 1437.03 1804.66 1403.05 1804.66 1368.12C1804.66 1358.55 1808.46 1349.36 1815.23 1342.59C1822 1335.82 1831.18 1332.01 1840.75 1332Z" fill="#131313"/>
<path d="M1216.11 1256.56H461.81L589.81 1049.56C621.681 998.048 666.188 955.535 719.105 926.055C772.022 896.576 831.595 881.108 892.17 881.12H1216.11V1256.56ZM524.77 1221.47H1181V916.2H892.17C780.35 916.2 678.48 972.98 619.66 1068.07L524.77 1221.47Z" fill="#131313"/>
<path d="M1210.85 881.12H1144.18V1242.53H1210.85V881.12Z" fill="#131313"/>
<path d="M1145.06 1293.4H1050.32C1036.27 1293.4 1024.88 1304.79 1024.88 1318.84C1024.88 1332.89 1036.27 1344.28 1050.32 1344.28H1145.06C1159.11 1344.28 1170.5 1332.89 1170.5 1318.84C1170.5 1304.79 1159.11 1293.4 1145.06 1293.4Z" fill="white"/>
<path d="M360.94 1345.05C367.059 1351.17 370.498 1359.47 370.5 1368.12V1368.12C370.5 1388.72 366.443 1409.12 358.559 1428.15C350.676 1447.18 339.121 1464.48 324.554 1479.04C309.987 1493.61 292.694 1505.17 273.662 1513.05C254.629 1520.93 234.231 1524.99 213.63 1524.99H144.268C164.399 1451.94 205.057 1386.17 261.448 1335.5H337.87C346.523 1335.5 354.821 1338.94 360.94 1345.05Z" fill="white" stroke="#131313" stroke-width="7"/>
<path d="M1918.51 1332H1840.75C1831.17 1332 1821.98 1335.81 1815.21 1342.58C1808.44 1349.35 1804.63 1358.54 1804.63 1368.12C1804.63 1403.05 1816.04 1437.03 1837.11 1464.89C1858.18 1492.75 1887.77 1512.97 1921.38 1522.48V1334.6C1920.42 1333.73 1919.48 1332.86 1918.51 1332Z" fill="#131313"/>
<path d="M1912.88 1332H1835.12C1825.54 1332 1816.35 1335.81 1809.58 1342.58C1802.81 1349.35 1799 1358.54 1799 1368.12C1799 1403.05 1810.41 1437.03 1831.48 1464.89C1852.55 1492.75 1882.14 1512.97 1915.75 1522.48V1334.6C1914.79 1333.73 1913.85 1332.86 1912.88 1332Z" fill="white"/>
<path d="M725.75 1388.14C592.52 1388.14 484.52 1496.14 484.52 1629.37C484.52 1629.66 484.52 1629.95 484.52 1630.24H967C967 1629.95 967 1629.66 967 1629.37C967 1496.14 859 1388.14 725.75 1388.14Z" fill="#1F1F1F"/>
<path d="M563.47 1630.24C563.47 1525.33 643.56 1439.13 745.93 1429.41C739.57 1428.81 733.14 1428.49 726.63 1428.49C615.2 1428.49 524.87 1518.82 524.87 1630.24C524.87 1741.66 615.2 1832 726.63 1832C733.14 1832 739.57 1831.68 745.93 1831.08C643.56 1821.36 563.47 1735.16 563.47 1630.24Z" fill="#131313"/>
<path d="M745.93 1429.41C742.39 1429.75 738.88 1430.18 735.4 1430.7C832.68 1445.12 907.33 1528.95 907.33 1630.24C907.33 1731.53 832.68 1815.37 735.4 1829.79C738.88 1830.3 742.4 1830.79 745.93 1831.08C848.3 1821.36 928.39 1735.16 928.39 1630.24C928.39 1525.32 848.3 1439.13 745.93 1429.41Z" fill="#131313"/>
<path d="M735.4 1829.78C830.354 1829.78 907.33 1740.44 907.33 1630.24C907.33 1520.04 830.354 1430.7 735.4 1430.7C640.445 1430.7 563.47 1520.04 563.47 1630.24C563.47 1740.44 640.445 1829.78 735.4 1829.78Z" fill="#131313"/>
<path d="M750.53 1516.49C799.75 1524.85 837.66 1573.9 837.66 1632.99C837.66 1692.08 799.75 1741.12 750.53 1749.48C755.459 1750.32 760.45 1750.75 765.45 1750.75C765.89 1750.75 766.32 1750.75 766.76 1750.75C810.76 1735.41 842.93 1688.45 842.93 1633.03C842.93 1577.61 810.79 1530.64 766.76 1515.3C766.32 1515.3 765.89 1515.3 765.45 1515.3C760.452 1515.28 755.461 1515.67 750.53 1516.49Z" fill="white"/>
<path d="M633.58 1633C633.58 1568.57 678.64 1516.09 734.3 1515.27C739.579 1513.43 745.01 1512.06 750.53 1511.18C745.6 1510.38 740.614 1509.98 735.62 1509.97C676.45 1509.97 628.31 1565.16 628.31 1632.97C628.31 1700.78 676.45 1755.97 735.62 1755.97C740.614 1755.96 745.6 1755.56 750.53 1754.76C745.01 1753.88 739.579 1752.51 734.3 1750.67C678.64 1749.89 633.58 1697.41 633.58 1633Z" fill="white"/>
<path d="M663.4 1633C663.4 1573.91 701.31 1524.86 750.53 1516.5C745.605 1515.66 740.617 1515.23 735.62 1515.23C735.18 1515.23 734.74 1515.23 734.3 1515.23C690.3 1530.57 658.14 1577.53 658.14 1632.96C658.14 1688.39 690.28 1735.34 734.3 1750.68C734.74 1750.68 735.18 1750.68 735.62 1750.68C740.617 1750.68 745.605 1750.25 750.53 1749.41C701.31 1741.12 663.4 1692.07 663.4 1633Z" fill="white"/>
<path d="M735.62 1515.22C740.617 1515.22 745.605 1515.65 750.53 1516.49C755.458 1515.65 760.45 1515.22 765.45 1515.22C765.89 1515.22 766.32 1515.22 766.76 1515.22C761.481 1513.38 756.05 1512.01 750.53 1511.13C745.01 1512.01 739.579 1513.38 734.3 1515.22C734.74 1515.25 735.18 1515.22 735.62 1515.22Z" fill="white"/>
<path d="M765.45 1750.75C760.45 1750.75 755.458 1750.32 750.53 1749.48C745.605 1750.32 740.617 1750.75 735.62 1750.75C735.18 1750.75 734.74 1750.75 734.3 1750.75C739.579 1752.59 745.01 1753.96 750.53 1754.84C756.05 1753.96 761.481 1752.59 766.76 1750.75C766.32 1750.72 765.89 1750.75 765.45 1750.75Z" fill="white"/>
<path d="M735.62 1660.62C724.5 1660.62 715.45 1648.22 715.45 1632.99C715.45 1617.76 724.45 1605.35 735.62 1605.35C746.79 1605.35 755.8 1617.75 755.8 1632.99C755.8 1648.23 746.75 1660.62 735.62 1660.62ZM735.62 1610.62C727.4 1610.62 720.71 1620.62 720.71 1632.99C720.71 1645.36 727.4 1655.35 735.62 1655.35C743.84 1655.35 750.53 1645.35 750.53 1632.99C750.53 1620.63 743.84 1610.62 735.62 1610.62Z" fill="white"/>
<path d="M1543.3 1388.14C1410.07 1388.14 1302.07 1496.14 1302.07 1629.37C1302.07 1629.66 1302.07 1629.95 1302.07 1630.24H1784.51C1784.51 1629.95 1784.51 1629.66 1784.51 1629.37C1784.53 1496.14 1676.53 1388.14 1543.3 1388.14Z" fill="#1F1F1F"/>
<path d="M1381 1630.24C1381 1525.33 1461.09 1439.13 1563.46 1429.41C1557.11 1428.81 1550.67 1428.49 1544.16 1428.49C1432.73 1428.49 1342.4 1518.82 1342.4 1630.24C1342.4 1741.66 1432.75 1832 1544.18 1832C1550.69 1832 1557.18 1831.68 1563.48 1831.08C1461.11 1821.36 1381 1735.16 1381 1630.24Z" fill="#131313"/>
<path d="M1563.48 1429.41C1559.94 1429.75 1556.43 1430.18 1552.95 1430.7C1650.23 1445.12 1724.88 1528.95 1724.88 1630.24C1724.88 1731.53 1650.23 1815.37 1552.95 1829.79C1556.43 1830.3 1559.95 1830.79 1563.48 1831.08C1665.85 1821.36 1745.94 1735.16 1745.94 1630.24C1745.94 1525.32 1665.85 1439.13 1563.48 1429.41Z" fill="#131313"/>
<path d="M1552.95 1829.78C1647.9 1829.78 1724.88 1740.44 1724.88 1630.24C1724.88 1520.04 1647.9 1430.7 1552.95 1430.7C1458 1430.7 1381.02 1520.04 1381.02 1630.24C1381.02 1740.44 1458 1829.78 1552.95 1829.78Z" fill="#131313"/>
<path d="M1568.08 1516.49C1617.3 1524.85 1655.21 1573.9 1655.21 1632.99C1655.21 1692.08 1617.3 1741.12 1568.08 1749.48C1573.01 1750.32 1578 1750.75 1583 1750.75C1583.44 1750.75 1583.87 1750.75 1584.31 1750.75C1628.31 1735.41 1660.48 1688.45 1660.48 1633.03C1660.48 1577.61 1628.34 1530.64 1584.31 1515.3C1583.87 1515.3 1583.44 1515.3 1583 1515.3C1578 1515.28 1573.01 1515.67 1568.08 1516.49Z" fill="white"/>
<path d="M1451.13 1633C1451.13 1568.57 1496.19 1516.09 1551.85 1515.27C1557.13 1513.43 1562.56 1512.06 1568.08 1511.18C1563.15 1510.38 1558.16 1509.98 1553.17 1509.97C1494 1509.97 1445.86 1565.16 1445.86 1632.97C1445.86 1700.78 1494 1755.97 1553.17 1755.97C1558.16 1755.96 1563.15 1755.56 1568.08 1754.76C1562.56 1753.88 1557.13 1752.51 1551.85 1750.67C1496.19 1749.89 1451.13 1697.41 1451.13 1633Z" fill="white"/>
<path d="M1481 1633C1481 1573.91 1518.91 1524.86 1568.13 1516.5C1563.2 1515.66 1558.22 1515.23 1553.22 1515.23C1552.78 1515.23 1552.34 1515.23 1551.9 1515.23C1507.9 1530.57 1475.74 1577.53 1475.74 1632.96C1475.74 1688.39 1507.88 1735.34 1551.9 1750.68C1552.34 1750.68 1552.78 1750.68 1553.22 1750.68C1558.22 1750.68 1563.2 1750.25 1568.13 1749.41C1518.86 1741.12 1481 1692.07 1481 1633Z" fill="white"/>
<path d="M1553.17 1515.22C1558.17 1515.22 1563.15 1515.65 1568.08 1516.49C1573.01 1515.65 1578 1515.22 1583 1515.22C1583.44 1515.22 1583.87 1515.22 1584.31 1515.22C1579.03 1513.38 1573.6 1512.01 1568.08 1511.13C1562.56 1512.01 1557.13 1513.38 1551.85 1515.22C1552.29 1515.25 1552.73 1515.22 1553.17 1515.22Z" fill="white"/>
<path d="M1583 1750.75C1578 1750.75 1573.01 1750.32 1568.08 1749.48C1563.15 1750.32 1558.17 1750.75 1553.17 1750.75C1552.73 1750.75 1552.29 1750.75 1551.85 1750.75C1557.13 1752.59 1562.56 1753.96 1568.08 1754.84C1573.6 1753.96 1579.03 1752.59 1584.31 1750.75C1583.87 1750.72 1583.44 1750.75 1583 1750.75Z" fill="white"/>
<path d="M1553.17 1660.62C1542.05 1660.62 1533 1648.22 1533 1632.99C1533 1617.76 1542 1605.35 1553.17 1605.35C1564.34 1605.35 1573.35 1617.75 1573.35 1632.99C1573.35 1648.23 1564.3 1660.62 1553.17 1660.62ZM1553.17 1610.62C1544.95 1610.62 1538.26 1620.62 1538.26 1632.99C1538.26 1645.36 1544.95 1655.35 1553.17 1655.35C1561.39 1655.35 1568.08 1645.35 1568.08 1632.99C1568.08 1620.63 1561.39 1610.62 1553.17 1610.62Z" fill="white"/>
<defs>
<radialGradient id="paint0_radial_638_109" cx="0" cy="0" r="1" gradientUnits="userSpaceOnUse" gradientTransform="translate(1024.5 1835.55) scale(831.66 33.2664)">
<stop offset="0.42" stop-color="#EEEEEE"/>
<stop offset="1" stop-color="white"/>
</radialGradient>
</defs>
</svg>
