<svg width="572" height="169" viewBox="0 0 572 169" fill="none" xmlns="http://www.w3.org/2000/svg">
<path d="M138.461 84.0463C138.561 76.5958 142.476 69.7131 148.837 65.8086C144.802 60.0614 138.291 56.5453 131.261 56.3262C123.861 55.5492 116.701 60.7387 112.926 60.7387C109.081 60.7387 103.279 56.3959 97.0375 56.5254C88.8187 56.7943 81.3389 61.3462 77.3344 68.5079C68.816 83.2195 75.1674 104.834 83.3262 116.727C87.4107 122.554 92.1841 129.048 98.4256 128.819C104.537 128.57 106.814 124.934 114.194 124.934C121.494 124.934 123.641 128.819 130.013 128.669C136.564 128.57 140.698 122.823 144.633 116.946C147.569 112.792 149.826 108.21 151.323 103.36C143.534 100.083 138.471 92.4728 138.461 84.0463ZM126.437 48.5072C130.013 44.2241 131.77 38.7259 131.351 33.168C125.888 33.7357 120.845 36.3454 117.22 40.4591C113.645 44.523 111.827 49.8319 112.187 55.2205C117.709 55.2803 122.962 52.8001 126.437 48.5072Z" fill="#010202"/>
<path d="M211.761 114.674H191.719L186.895 128.848H178.407L197.391 76.3861H206.209L225.203 128.848H216.565L211.761 114.674ZM193.786 108.13H209.674L201.835 85.1215H201.615C201.625 85.1215 193.786 108.13 193.786 108.13ZM266.217 109.724C266.217 121.607 259.836 129.247 250.209 129.247C245.236 129.506 240.552 126.906 238.145 122.553H237.966V141.498H230.096V90.5997H237.716V96.9645H237.856C240.362 92.6416 245.056 90.0419 250.069 90.2013C259.806 90.2113 266.217 97.8809 266.217 109.724ZM258.128 109.724C258.128 101.985 254.113 96.8948 247.992 96.8948C241.98 96.8948 237.936 102.094 237.936 109.734C237.936 117.443 241.98 122.603 247.992 122.603C254.113 122.603 258.128 117.543 258.128 109.724ZM308.419 109.724C308.419 121.607 302.038 129.247 292.411 129.247C287.438 129.506 282.754 126.906 280.348 122.553H280.168V141.498H272.299V90.5997H279.918V96.9645H280.058C282.575 92.6416 287.258 90.0419 292.271 90.2013C302.008 90.2113 308.419 97.8809 308.419 109.724ZM300.33 109.724C300.33 101.985 296.316 96.8948 290.194 96.8948C284.183 96.8948 280.138 102.094 280.138 109.734C280.138 117.443 284.183 122.603 290.194 122.603C296.316 122.603 300.33 117.543 300.33 109.724ZM336.311 114.236C336.901 119.435 341.964 122.852 348.884 122.852C355.515 122.852 360.289 119.435 360.289 114.744C360.289 110.67 357.413 108.24 350.592 106.566L343.771 104.933C334.114 102.602 329.631 98.1 329.631 90.789C329.631 81.7349 337.54 75.5195 348.764 75.5195C359.879 75.5195 367.499 81.7349 367.759 90.789H359.809C359.33 85.5498 354.996 82.3923 348.655 82.3923C342.313 82.3923 337.979 85.5896 337.979 90.2412C337.979 93.9564 340.755 96.1278 347.536 97.8012L353.328 99.2256C364.123 101.765 368.597 106.098 368.597 113.768C368.597 123.579 360.758 129.735 348.295 129.735C336.631 129.735 328.752 123.728 328.242 114.246C328.252 114.236 336.311 114.236 336.311 114.236ZM385.604 81.5556V90.6097H392.894V96.8251H385.604V117.911C385.604 121.188 387.062 122.712 390.268 122.712C391.137 122.693 391.995 122.633 392.854 122.533V128.709C391.406 128.978 389.948 129.097 388.48 129.077C380.721 129.077 377.685 126.169 377.685 118.758V96.835H372.103V90.6197H377.685V81.5556H385.604ZM397.109 109.724C397.109 97.6916 404.219 90.1316 415.294 90.1316C426.409 90.1316 433.489 97.6916 433.489 109.724C433.489 121.796 426.448 129.316 415.294 129.316C404.149 129.326 397.109 121.796 397.109 109.724ZM425.47 109.724C425.47 101.467 421.675 96.596 415.294 96.596C408.922 96.596 405.128 101.507 405.128 109.724C405.128 118.011 408.922 122.842 415.294 122.842C421.675 122.852 425.47 118.021 425.47 109.724ZM439.98 90.5997H447.49V97.104H447.67C448.718 92.9106 452.563 90.032 456.887 90.1914C457.796 90.1914 458.705 90.291 459.583 90.4802V97.8211C458.435 97.4725 457.246 97.3131 456.048 97.343C453.731 97.2534 451.494 98.1697 449.917 99.863C448.339 101.556 447.58 103.847 447.849 106.148V128.828H439.97V90.5997H439.98ZM495.884 117.613C494.825 124.555 488.045 129.316 479.376 129.316C468.222 129.316 461.301 121.866 461.301 109.903C461.301 97.9108 468.261 90.1216 479.047 90.1216C489.652 90.1216 496.323 97.3928 496.323 108.987V111.676H469.24V112.154C468.99 115.003 469.969 117.822 471.946 119.894C473.924 121.965 476.69 123.091 479.556 122.991C483.381 123.35 486.976 121.159 488.414 117.613H495.884ZM469.27 106.198H488.444C488.584 103.638 487.655 101.138 485.867 99.2953C484.08 97.4526 481.603 96.4366 479.037 96.4864C476.45 96.4665 473.964 97.4825 472.126 99.3152C470.299 101.138 469.26 103.618 469.27 106.198Z" fill="#010202"/>
<path d="M192.807 36.9033C196.153 36.6642 199.418 37.9292 201.725 40.3596C204.032 42.78 205.12 46.1068 204.701 49.4236C204.701 57.4817 200.337 62.1034 192.807 62.1034H183.68V36.8933H192.807V36.9033ZM187.604 58.5475H192.368C194.755 58.6869 197.081 57.7506 198.699 55.9976C200.317 54.2445 201.056 51.844 200.706 49.4834C201.026 47.1327 200.287 44.7621 198.669 43.019C197.051 41.2759 194.745 40.3396 192.368 40.4691H187.604V58.5475ZM209.125 52.5911C208.795 49.1746 210.433 45.8777 213.349 44.0748C216.265 42.262 219.96 42.262 222.876 44.0748C225.792 45.8777 227.43 49.1746 227.1 52.5911C227.43 56.0075 225.802 59.3045 222.876 61.1173C219.96 62.9301 216.265 62.9301 213.339 61.1173C210.433 59.3144 208.795 56.0075 209.125 52.5911ZM223.246 52.5911C223.246 48.4674 221.388 46.057 218.133 46.057C214.857 46.057 213.02 48.4674 213.02 52.5911C213.02 56.7546 214.857 59.1451 218.133 59.1451C221.388 59.1451 223.246 56.7346 223.246 52.5911ZM251.028 62.1133H247.123L243.179 48.1088H242.879L238.954 62.1133H235.09L229.827 43.0888H233.642L237.057 57.6012H237.336L241.251 43.0888H244.866L248.781 57.6012H249.08L252.476 43.0888H256.241L251.028 62.1133ZM260.685 43.0888H264.31V46.1068H264.589C265.568 43.8856 267.855 42.521 270.282 42.7202C272.159 42.5808 274.006 43.2979 275.285 44.6725C276.573 46.047 277.162 47.9296 276.883 49.7922V62.1034H273.118V50.7285C273.118 47.6706 271.79 46.1566 269.003 46.1566C267.725 46.0968 266.487 46.5948 265.618 47.5212C264.739 48.4475 264.32 49.7125 264.45 50.9775V62.1034H260.685V43.0888ZM282.884 35.6582H286.649V62.1034H282.884V35.6582ZM291.872 52.5911C291.543 49.1746 293.18 45.8777 296.106 44.0748C299.022 42.262 302.717 42.262 305.633 44.0748C308.549 45.8777 310.197 49.1746 309.868 52.5911C310.197 56.0075 308.569 59.3045 305.643 61.1173C302.717 62.9301 299.022 62.9301 296.106 61.1173C293.18 59.3144 291.543 56.0075 291.872 52.5911ZM305.993 52.5911C305.993 48.4674 304.135 46.057 300.88 46.057C297.604 46.057 295.767 48.4674 295.767 52.5911C295.767 56.7546 297.604 59.1451 300.88 59.1451C304.135 59.1451 305.993 56.7346 305.993 52.5911ZM313.832 56.7346C313.832 53.3082 316.389 51.3361 320.923 51.0572L326.085 50.7583V49.1148C326.085 47.1028 324.757 45.9773 322.181 45.9773C320.084 45.9773 318.626 46.7442 318.206 48.0889H314.561C314.941 44.8219 318.026 42.7302 322.351 42.7302C327.134 42.7302 329.83 45.1008 329.83 49.1248V62.1233H326.205V59.4439H325.906C324.677 61.3962 322.48 62.5416 320.174 62.4321C318.556 62.6014 316.938 62.0735 315.73 60.9878C314.531 59.9021 313.832 58.3582 313.832 56.7346ZM326.085 55.1111V53.5174L321.422 53.8162C318.795 53.9955 317.607 54.882 317.607 56.5653C317.607 58.2785 319.095 59.2746 321.142 59.2746C322.351 59.3941 323.569 59.0256 324.498 58.2387C325.436 57.4418 326.006 56.3163 326.085 55.1111ZM334.784 52.5911C334.784 46.5749 337.879 42.77 342.703 42.77C345.13 42.6604 347.416 43.9553 348.555 46.1068H348.834V35.6582H352.599V62.1133H348.994V59.1053H348.695C347.476 61.2368 345.159 62.5217 342.703 62.4221C337.849 62.4221 334.784 58.6172 334.784 52.5911ZM338.668 52.5911C338.668 56.6251 340.576 59.0554 343.761 59.0554C346.937 59.0554 348.894 56.5952 348.894 52.611C348.894 48.6467 346.907 46.1466 343.761 46.1466C340.606 46.1466 338.668 48.5869 338.668 52.5911ZM368.168 52.5911C367.839 49.1746 369.476 45.8777 372.392 44.0748C375.308 42.262 379.003 42.262 381.919 44.0748C384.835 45.8777 386.473 49.1746 386.144 52.5911C386.473 56.0075 384.845 59.3045 381.919 61.1173C379.003 62.9301 375.308 62.9301 372.382 61.1173C369.466 59.3144 367.829 56.0075 368.168 52.5911ZM382.289 52.5911C382.289 48.4674 380.431 46.057 377.176 46.057C373.9 46.057 372.063 48.4674 372.063 52.5911C372.063 56.7546 373.9 59.1451 377.176 59.1451C380.431 59.1451 382.289 56.7346 382.289 52.5911ZM391.207 43.0888H394.832V46.1068H395.111C396.09 43.8856 398.377 42.521 400.804 42.7202C402.681 42.5808 404.528 43.2979 405.807 44.6725C407.095 46.047 407.674 47.9296 407.405 49.7922V62.1034H403.64V50.7285C403.64 47.6706 402.312 46.1566 399.525 46.1566C398.247 46.0968 397.019 46.5948 396.14 47.5212C395.271 48.4475 394.842 49.7125 394.982 50.9775V62.1034H391.217V43.0888H391.207ZM428.676 38.3575V43.1784H432.81V46.3359H428.676V56.1171C428.676 58.1092 429.494 58.9857 431.372 58.9857C431.851 58.9857 432.331 58.9558 432.81 58.8961V62.0237C432.131 62.1432 431.452 62.2129 430.763 62.2229C426.578 62.2229 424.911 60.7487 424.911 57.0833V46.3359H421.875V43.1784H424.901V38.3575C424.901 38.3575 428.676 38.3575 428.676 38.3575ZM437.943 35.6582H441.678V46.1367H441.977C442.996 43.8955 445.323 42.531 447.79 42.7302C449.657 42.6306 451.474 43.3676 452.753 44.7322C454.021 46.1068 454.61 47.9694 454.361 49.8221V62.1034H450.596V50.7384C450.596 47.7005 449.178 46.1566 446.521 46.1566C445.213 46.047 443.925 46.5251 442.996 47.4614C442.067 48.3877 441.608 49.6826 441.718 50.9874V62.1034H437.953V35.6582H437.943ZM476.301 56.9737C475.242 60.5595 471.767 62.8803 468.032 62.4719C465.495 62.5416 463.049 61.4858 461.351 59.5933C459.653 57.7008 458.874 55.1609 459.224 52.6508C458.884 50.1308 459.663 47.5809 461.351 45.6785C463.039 43.7661 465.465 42.6903 468.022 42.7102C473.325 42.7102 476.53 46.3259 476.53 52.3022V53.607H463.069V53.8162C462.949 55.2306 463.438 56.6251 464.397 57.661C465.366 58.6969 466.724 59.2845 468.142 59.2646C469.989 59.4837 471.777 58.5773 472.686 56.9538L476.301 56.9737ZM463.069 50.848H472.706C472.795 49.5531 472.346 48.2881 471.447 47.3518C470.558 46.4056 469.3 45.8976 468.002 45.9175C466.684 45.8976 465.415 46.4156 464.487 47.3518C463.558 48.2682 463.049 49.5332 463.069 50.848Z" fill="#010202"/>
</svg>
