<svg width="572" height="169" viewBox="0 0 572 169" fill="none" xmlns="http://www.w3.org/2000/svg">
<path d="M238.732 130.082C248.724 130.082 256.824 122.037 256.824 112.112C256.824 102.188 248.724 94.1426 238.732 94.1426C228.74 94.1426 220.64 102.188 220.64 112.112C220.64 122.037 228.74 130.082 238.732 130.082Z" fill="black"/>
<path d="M278.193 130.082C288.184 130.082 296.285 122.037 296.285 112.112C296.285 102.188 288.184 94.1426 278.193 94.1426C268.201 94.1426 260.101 102.188 260.101 112.112C260.101 122.037 268.201 130.082 278.193 130.082Z" fill="black"/>
<path fill-rule="evenodd" clip-rule="evenodd" d="M200.919 43.2702C200.919 46.8163 199.87 49.6253 197.762 51.7371C195.365 54.2373 192.258 55.4824 188.422 55.4824C184.755 55.4824 181.628 54.2174 179.071 51.6773C176.494 49.1472 175.215 45.9895 175.215 42.2442C175.215 38.4888 176.494 35.3411 179.071 32.811C181.628 30.2809 184.755 29.0059 188.422 29.0059C190.24 29.0059 191.988 29.3645 193.636 30.0617C195.295 30.769 196.624 31.7153 197.613 32.8907L195.375 35.122C193.696 33.1198 191.379 32.1137 188.412 32.1137C185.734 32.1137 183.427 33.05 181.469 34.9327C179.511 36.8153 178.542 39.2459 178.542 42.2442C178.542 45.2425 179.521 47.673 181.469 49.5556C183.417 51.4383 185.734 52.3646 188.412 52.3646C191.249 52.3646 193.617 51.4183 195.515 49.5357C196.743 48.3005 197.453 46.5971 197.643 44.4057H188.412V41.3576H200.729C200.859 42.015 200.919 42.6526 200.919 43.2702Z" fill="#010202"/>
<path d="M200.919 43.2702C200.919 46.8163 199.87 49.6253 197.762 51.7371C195.365 54.2373 192.258 55.4824 188.422 55.4824C184.755 55.4824 181.628 54.2174 179.071 51.6773C176.494 49.1472 175.215 45.9895 175.215 42.2442C175.215 38.4888 176.494 35.3411 179.071 32.811C181.628 30.2809 184.755 29.0059 188.422 29.0059C190.24 29.0059 191.988 29.3645 193.636 30.0617C195.295 30.769 196.624 31.7153 197.613 32.8907L195.375 35.122C193.696 33.1198 191.379 32.1137 188.412 32.1137C185.734 32.1137 183.427 33.05 181.469 34.9327C179.511 36.8153 178.542 39.2459 178.542 42.2442C178.542 45.2425 179.521 47.673 181.469 49.5556C183.417 51.4383 185.734 52.3646 188.412 52.3646C191.249 52.3646 193.617 51.4183 195.515 49.5357C196.743 48.3005 197.453 46.5971 197.643 44.4057H188.412V41.3576H200.729C200.859 42.015 200.919 42.6526 200.919 43.2702Z" stroke="#010202" stroke-width="0.2"/>
<path fill-rule="evenodd" clip-rule="evenodd" d="M220.45 32.6821H208.872V40.7207H219.301V43.7688H208.872V51.8074H220.45V54.9252H205.605V29.5742H220.45V32.6821Z" fill="#010202"/>
<path d="M220.45 32.6821H208.872V40.7207H219.301V43.7688H208.872V51.8074H220.45V54.9252H205.605V29.5742H220.45V32.6821Z" stroke="#010202" stroke-width="0.2"/>
<path fill-rule="evenodd" clip-rule="evenodd" d="M234.216 54.9154H230.95V32.6823H223.847V29.5645H241.319V32.6823H234.216V54.9154Z" fill="#010202"/>
<path d="M234.216 54.9154H230.95V32.6823H223.847V29.5645H241.319V32.6823H234.216V54.9154Z" stroke="#010202" stroke-width="0.2"/>
<path fill-rule="evenodd" clip-rule="evenodd" d="M253.957 54.9154H257.224V29.5645H253.957V54.9154Z" fill="#010202"/>
<path d="M253.957 54.9154H257.224V29.5645H253.957V54.9154Z" stroke="#010202" stroke-width="0.2"/>
<path fill-rule="evenodd" clip-rule="evenodd" d="M271.719 54.9154H268.453V32.6823H261.35V29.5645H278.822V32.6823H271.719V54.9154Z" fill="#010202"/>
<path d="M271.719 54.9154H268.453V32.6823H261.35V29.5645H278.822V32.6823H271.719V54.9154Z" stroke="#010202" stroke-width="0.2"/>
<path fill-rule="evenodd" clip-rule="evenodd" d="M295.655 49.516C297.533 51.4185 299.841 52.3648 302.568 52.3648C305.286 52.3648 307.583 51.4185 309.472 49.516C311.35 47.6134 312.299 45.1929 312.299 42.2444C312.299 39.2959 311.35 36.8654 309.472 34.9728C307.593 33.0702 305.286 32.1239 302.568 32.1239C299.841 32.1239 297.543 33.0801 295.665 34.9728C293.787 36.8654 292.838 39.2959 292.838 42.2444C292.838 45.1929 293.777 47.6134 295.655 49.516ZM311.889 51.6377C309.382 54.2076 306.285 55.4827 302.568 55.4827C298.852 55.4827 295.745 54.2076 293.248 51.6377C290.75 49.0777 289.501 45.9499 289.501 42.2444C289.501 38.5388 290.75 35.4011 293.248 32.8411C295.745 30.2811 298.842 28.9961 302.558 28.9961C306.255 28.9961 309.352 30.2811 311.859 32.851C314.367 35.421 315.615 38.5488 315.615 42.2344C315.635 45.9499 314.387 49.0777 311.889 51.6377Z" fill="#010202"/>
<path d="M295.655 49.516C297.533 51.4185 299.841 52.3648 302.568 52.3648C305.286 52.3648 307.583 51.4185 309.472 49.516C311.35 47.6134 312.299 45.1929 312.299 42.2444C312.299 39.2959 311.35 36.8654 309.472 34.9728C307.593 33.0702 305.286 32.1239 302.568 32.1239C299.841 32.1239 297.543 33.0801 295.665 34.9728C293.787 36.8654 292.838 39.2959 292.838 42.2444C292.838 45.1929 293.777 47.6134 295.655 49.516ZM311.889 51.6377C309.382 54.2076 306.285 55.4827 302.568 55.4827C298.852 55.4827 295.745 54.2076 293.248 51.6377C290.75 49.0777 289.501 45.9499 289.501 42.2444C289.501 38.5388 290.75 35.4011 293.248 32.8411C295.745 30.2811 298.842 28.9961 302.558 28.9961C306.255 28.9961 309.352 30.2811 311.859 32.851C314.367 35.421 315.615 38.5488 315.615 42.2344C315.635 45.9499 314.387 49.0777 311.889 51.6377Z" stroke="#010202" stroke-width="0.2"/>
<path fill-rule="evenodd" clip-rule="evenodd" d="M320.221 54.9154V29.5645H324.197L336.555 49.2775H336.695L336.555 44.3965V29.5645H339.832V54.9154H336.415L323.488 34.2362H323.348L323.488 39.1271V54.9154H320.221Z" fill="#010202"/>
<path d="M320.221 54.9154V29.5645H324.197L336.555 49.2775H336.695L336.555 44.3965V29.5645H339.832V54.9154H336.415L323.488 34.2362H323.348L323.488 39.1271V54.9154H320.221Z" stroke="#010202" stroke-width="0.2"/>
<path d="M450.501 76.1836H442.599V128.997H450.501V76.1836Z" fill="black"/>
<path fill-rule="evenodd" clip-rule="evenodd" d="M513.808 95.209L504.747 118.11H504.468L495.067 95.209H486.545L500.651 127.204L492.609 145.014H500.851L522.59 95.209H513.808Z" fill="black"/>
<path fill-rule="evenodd" clip-rule="evenodd" d="M469.921 94.0527C464.197 94.0527 458.273 96.5629 455.816 102.141L462.829 105.06C464.327 102.141 467.124 101.185 470.051 101.185C474.137 101.185 478.293 103.635 478.363 107.978V108.526C476.924 107.709 473.868 106.494 470.121 106.494C462.549 106.494 454.856 110.638 454.856 118.378C454.856 125.45 461.06 130.002 468.013 130.002C473.318 130.002 476.255 127.622 478.093 124.833H478.363V128.907H485.995V108.656C486.005 99.2823 478.982 94.0527 469.921 94.0527Z" fill="black"/>
<path fill-rule="evenodd" clip-rule="evenodd" d="M420.861 76.1836H401.919V128.997H409.822V108.986H420.861C429.622 108.986 438.233 102.66 438.233 92.5796C438.233 82.5089 429.622 76.1836 420.861 76.1836Z" fill="black"/>
<path fill-rule="evenodd" clip-rule="evenodd" d="M326.625 98.1571H326.355C324.577 96.0453 321.16 94.1328 316.874 94.1328C307.863 94.1328 299.602 102.032 299.602 112.172C299.602 122.243 307.863 130.072 316.874 130.072C321.17 130.072 324.587 128.17 326.355 125.998H326.625V128.578C326.625 135.451 322.938 139.127 317.004 139.127C312.159 139.127 309.152 135.661 307.923 132.732L301.03 135.591C303.008 140.352 308.263 146.209 317.004 146.209C326.295 146.209 334.137 140.761 334.137 127.493V95.2285H326.625V98.1571Z" fill="black"/>
<path fill-rule="evenodd" clip-rule="evenodd" d="M339.602 128.997H347.524V76.1836H339.602V128.997Z" fill="black"/>
<path fill-rule="evenodd" clip-rule="evenodd" d="M383.767 105.578C382.269 101.564 377.693 94.1426 368.343 94.1426C359.062 94.1426 351.35 101.434 351.35 112.112C351.35 122.183 358.992 130.082 369.232 130.082C377.494 130.082 382.269 125.042 384.257 122.113L378.113 118.029C376.055 121.028 373.268 123 369.232 123C365.206 123 362.339 121.157 360.5 117.551L384.597 107.61L383.767 105.578Z" fill="black"/>
<path fill-rule="evenodd" clip-rule="evenodd" d="M191.799 99.6606V107.281H210.101C209.551 111.574 208.113 114.702 205.935 116.873C203.267 119.533 199.102 122.452 191.799 122.452C180.53 122.452 171.729 113.397 171.729 102.171C171.729 90.9446 180.54 81.89 191.799 81.89C197.873 81.89 202.308 84.2707 205.585 87.3287L210.98 81.9497C206.404 77.5967 200.33 74.2598 191.799 74.2598C176.374 74.2598 163.407 86.7908 163.407 102.171C163.407 117.551 176.374 130.072 191.799 130.072C200.131 130.072 206.404 127.352 211.319 122.242C216.364 117.202 217.943 110.13 217.943 104.412C217.943 102.649 217.813 101.015 217.533 99.6506L191.799 99.6606Z" fill="black"/>
<path fill-rule="evenodd" clip-rule="evenodd" d="M94.5157 84.4788L43.1969 33.4082C42.6075 34.5936 42.2578 36.0479 42.2578 37.811V131.166C42.2578 132.949 42.6174 134.434 43.2268 135.619L94.5157 84.4788Z" fill="black"/>
<path fill-rule="evenodd" clip-rule="evenodd" d="M43.3467 33.0795C43.3667 33.0295 43.3967 32.9895 43.4267 32.9395C43.3967 32.9895 43.3767 33.0395 43.3467 33.0795Z" fill="black"/>
<path fill-rule="evenodd" clip-rule="evenodd" d="M97.4829 81.519L113.287 65.7605L53.0272 31.6239C51.3189 30.6477 49.7105 30.1895 48.2719 30.1895C47.5426 30.1895 46.8733 30.3189 46.2539 30.548L97.4829 81.519Z" fill="black"/>
<path fill-rule="evenodd" clip-rule="evenodd" d="M135.575 78.3929L117.103 67.9238L100.479 84.4991L117.103 101.035L135.575 90.5654C141.489 87.2284 141.489 81.7399 135.575 78.3929Z" fill="black"/>
<path fill-rule="evenodd" clip-rule="evenodd" d="M97.5224 87.4648L46.4033 138.456C48.2315 139.073 50.5192 138.774 53.0267 137.36L113.327 103.183L97.5224 87.4648Z" fill="black"/>
<path fill-rule="evenodd" clip-rule="evenodd" d="M43.2969 135.777C43.5369 136.216 43.8069 136.614 44.1169 136.953C43.8069 136.594 43.5169 136.216 43.2969 135.777Z" fill="black"/>
<path d="M238.732 101.223C233.278 101.223 228.562 105.645 228.562 112.11C228.562 118.505 233.268 123.008 238.732 123.008C244.197 123.008 248.902 118.515 248.902 112.11C248.902 105.645 244.197 101.223 238.732 101.223Z" fill="white"/>
<path d="M288.363 112.11C288.363 105.645 283.657 101.223 278.193 101.223C272.738 101.223 268.023 105.645 268.023 112.11C268.023 118.505 272.728 123.008 278.193 123.008C283.657 123.008 288.363 118.505 288.363 112.11Z" fill="white"/>
<path fill-rule="evenodd" clip-rule="evenodd" d="M317.553 123.009C312.099 123.009 307.523 118.447 307.523 112.192C307.523 105.856 312.099 101.234 317.563 101.234C322.948 101.234 327.184 105.866 327.184 112.192C327.174 118.447 322.938 122.999 317.553 123.009Z" fill="#FBFBFB"/>
<path fill-rule="evenodd" clip-rule="evenodd" d="M421.06 101.633H409.812V83.5332H421.06C426.974 83.5332 430.331 88.4142 430.331 92.5779C430.321 96.6719 426.964 101.633 421.06 101.633Z" fill="white"/>
<path fill-rule="evenodd" clip-rule="evenodd" d="M359.192 111.575C358.992 104.632 364.586 101.096 368.622 101.096C371.759 101.096 374.427 102.67 375.306 104.911L359.192 111.575Z" fill="white"/>
<path fill-rule="evenodd" clip-rule="evenodd" d="M468.963 122.999C466.375 122.999 462.759 121.704 462.759 118.517C462.759 114.443 467.254 112.879 471.14 112.879C474.607 112.879 476.255 113.626 478.363 114.642C477.754 119.533 473.528 122.999 468.963 122.999Z" fill="#FBFBFB"/>
</svg>
