<svg width="256" height="256" viewBox="0 0 256 256" fill="none" xmlns="http://www.w3.org/2000/svg">
<path d="M150.841 44.332C149.174 45.9987 148.508 47.832 149.008 48.4987C149.674 48.9987 148.508 51.4987 146.508 53.9987C144.674 56.332 143.508 59.1654 144.174 60.1654C144.674 60.9987 144.508 61.332 143.508 60.832C142.674 60.1654 140.841 61.832 139.508 64.332C138.174 66.832 135.841 70.3319 134.174 72.1655C127.841 78.8319 124.174 89.1655 125.674 95.9987C126.341 99.3319 126.841 102.665 126.674 103.499C126.508 104.165 126.008 107.499 125.841 110.999C125.174 117.499 120.508 124.665 117.008 124.665C115.841 124.665 114.674 125.332 114.341 126.332C113.674 128.665 103.174 129.665 101.841 127.499C101.174 126.499 101.674 126.332 103.008 127.165C104.508 127.999 104.841 127.832 104.008 126.665C102.674 124.332 94.6743 123.999 94.6743 126.165C94.6743 126.999 95.8407 127.999 97.0075 128.499C100.008 129.665 99.6743 141.665 96.6743 142.665C95.5075 142.999 94.6743 144.332 94.6743 145.665C94.6743 148.832 100.841 148.665 104.008 145.499C107.341 142.332 114.008 142.332 115.341 145.499C115.841 146.832 117.341 147.999 118.841 147.999C120.174 147.999 121.341 148.665 121.341 149.665C121.341 151.999 126.841 151.665 130.341 149.165C131.841 147.999 133.341 145.499 133.508 143.332C133.508 141.332 134.174 139.665 134.674 139.665C135.174 139.665 135.841 137.665 136.008 135.332C136.508 129.499 137.174 128.499 142.174 127.665C144.508 127.165 146.008 127.165 145.508 127.665C145.174 128.165 145.508 129.499 146.341 130.665C148.174 132.665 148.008 136.499 146.008 137.999C144.674 138.999 144.174 142.499 144.508 148.332C144.674 152.499 145.174 152.832 150.341 152.332C157.341 151.832 159.341 154.665 161.508 168.499C162.508 174.165 163.674 179.165 164.341 179.665C165.008 180.165 165.841 185.665 166.174 192.165C166.674 203.332 168.341 207.165 172.174 205.165C173.008 204.665 173.008 205.165 172.008 206.165C169.508 208.832 171.008 214.665 174.008 214.665C175.341 214.665 176.174 213.332 176.008 211.832C175.508 205.332 176.341 203.165 178.841 203.999C180.174 204.665 181.341 205.999 181.341 207.332C181.341 208.665 182.174 209.665 183.008 209.665C184.008 209.665 184.674 208.832 184.674 207.832C184.674 206.999 185.341 206.499 186.008 206.999C187.674 207.999 186.841 194.332 184.508 181.665C183.341 175.832 181.174 171.332 178.341 168.499C175.841 165.999 175.341 165.165 177.008 166.499C180.174 168.832 180.174 168.665 177.174 162.999C175.508 159.832 174.008 155.499 173.674 153.499C173.341 150.499 174.174 149.999 177.674 150.165C180.508 150.332 182.174 149.499 182.674 147.832C183.008 145.832 182.008 145.165 178.508 145.165C173.008 145.332 171.174 142.499 176.341 141.665C178.674 141.332 179.674 139.832 179.674 136.999C179.674 134.665 178.841 132.999 177.674 133.165C176.508 133.332 173.841 133.332 171.841 133.165C167.341 132.999 166.674 129.665 171.008 129.665C173.341 129.665 173.008 128.999 169.674 126.332C166.174 123.499 162.841 122.999 146.841 122.999C131.008 122.999 128.341 122.665 129.008 120.499C129.508 119.165 130.508 118.165 131.008 118.332C132.841 118.832 144.674 114.165 144.674 112.999C144.674 112.332 146.841 112.165 149.341 112.665C152.841 113.165 155.508 111.999 160.174 107.832C163.508 104.999 165.841 101.832 165.341 100.999C164.841 100.332 165.174 99.6655 166.008 99.6655C168.508 99.6655 178.341 84.8319 177.008 82.6655C176.174 81.4987 176.508 81.3319 177.841 81.9987C179.174 82.8319 180.174 81.9987 180.841 79.8319C181.341 77.8319 182.508 76.3319 183.341 76.3319C184.174 76.3319 184.341 75.6655 183.841 74.6655C183.341 73.8319 183.841 73.4987 185.174 73.8319C186.341 74.3319 188.341 72.9987 189.674 70.4987C191.674 66.832 191.508 65.9987 188.841 62.9987C187.174 61.1654 185.174 59.6654 184.341 59.6654C183.341 59.6654 179.841 57.1654 176.341 54.1654C170.341 48.9987 157.341 41.332 154.841 41.332C154.008 41.332 152.341 42.6654 150.841 44.332ZM171.841 87.4987C171.341 88.8319 169.008 91.9987 166.841 94.3319C164.508 96.8319 163.341 99.6655 163.841 101.165C164.341 102.499 164.341 103.165 163.674 102.499C163.008 101.999 160.341 103.332 157.674 105.499C155.008 107.832 150.674 109.665 148.174 109.665C145.674 109.665 142.841 110.499 141.674 111.665C140.508 112.832 139.674 112.999 139.674 112.332C139.674 111.499 138.008 111.999 135.841 113.499C132.508 115.665 131.508 115.665 128.841 113.665C127.008 112.332 126.508 111.332 127.841 111.332C129.174 111.332 129.674 110.332 129.008 108.665C128.341 106.999 128.674 106.499 130.008 107.332C131.174 108.165 131.508 107.165 130.841 104.499C127.841 91.6655 127.508 87.4987 130.008 85.6655C131.508 84.4987 139.841 83.9987 152.674 84.3319C170.008 84.8319 172.674 85.1655 171.841 87.4987Z" fill="black"/>
<path d="M65.8407 122.332C63.5073 124.832 64.8407 127.999 68.1739 127.999C70.5074 127.999 71.3406 127.166 71.0074 125.166C70.5074 122.166 67.6739 120.666 65.8407 122.332Z" fill="#1C1C1A"/>
<path d="M75.8405 127.498C73.5069 129.665 74.6737 132.331 78.0069 132.331C79.8405 132.331 81.3405 132.165 81.3405 131.998C81.3405 131.831 80.8405 130.498 80.3405 128.998C79.1737 126.165 77.6737 125.665 75.8405 127.498Z" fill="#1C1C1A"/>
<path d="M138.841 131.332C138.174 132.332 138.007 133.666 138.507 134.166C139.007 134.666 138.341 137.999 136.841 141.499C134.507 147.666 134.507 148.332 137.174 151.332C138.841 153.166 139.841 154.666 139.341 154.666C138.841 154.666 139.007 157.332 139.674 160.499C140.341 163.666 140.341 166.332 139.674 166.332C139.007 166.332 138.007 168.166 137.674 170.499C137.007 173.332 137.507 174.666 139.174 174.666C140.841 174.666 141.341 173.666 140.674 171.999C140.174 170.499 140.341 169.999 141.341 170.499C142.507 171.166 143.007 167.499 142.841 160.499C142.674 151.166 142.174 149.666 139.841 150.332C137.507 151.166 137.507 151.166 139.674 149.332C141.841 147.332 142.674 144.499 143.507 133.999C143.841 130.332 140.507 128.499 138.841 131.332Z" fill="black"/>
<path d="M65.1741 133.999C63.8407 137.499 67.3407 140.999 69.8407 138.499C72.0075 136.332 70.6739 131.332 68.0075 131.332C67.0074 131.332 65.8407 132.499 65.1741 133.999Z" fill="#1C1C1A"/>
<path d="M84.8406 133.668C82.1738 136.834 86.3406 140.334 89.1738 137.168C90.8406 135.501 90.6738 134.501 89.007 133.168C87.3406 131.834 86.3406 131.834 84.8406 133.668Z" fill="#1C1C1A"/>
<path d="M75.007 140.833C75.3406 142.5 76.6738 143.833 78.007 143.833C79.3406 143.833 80.6738 142.5 81.007 140.833C81.3406 138.833 80.507 138 78.007 138C75.507 138 74.6738 138.833 75.007 140.833Z" fill="#1C1C1A"/>
<path d="M64.6741 145.167C64.6741 148.333 66.3408 149.667 69.0074 148.5C72.5074 147.167 71.8406 143 68.0074 143C66.1741 143 64.6741 144 64.6741 145.167Z" fill="#1C1C1A"/>
</svg>
