<svg width="256" height="256" viewBox="0 0 256 256" fill="none" xmlns="http://www.w3.org/2000/svg">
<path d="M59.802 55.3934C45.002 58.6934 28.702 70.3934 21.002 83.1934C13.102 96.2934 10.102 113.393 13.202 127.893C15.202 137.293 21.302 149.793 27.302 156.593C33.102 163.093 44.702 170.993 52.902 173.893C61.602 176.893 78.602 177.693 88.002 175.493C109.302 170.493 127.802 152.493 133.302 131.193C135.102 124.493 135.302 109.193 133.702 101.693C132.102 93.6934 125.602 81.0934 119.802 74.6934C105.302 58.4934 80.902 50.5934 59.802 55.3934ZM92.502 59.8934C115.802 67.9934 132.002 90.3934 132.202 114.893C132.202 125.293 130.702 132.093 126.102 141.593C112.002 170.793 75.302 182.793 46.402 167.693C37.802 163.093 25.102 150.293 21.002 141.793C12.202 123.493 13.002 102.993 23.302 85.2934C30.202 73.4934 45.802 61.8934 59.402 58.3934C67.802 56.2934 84.302 57.0934 92.502 59.8934Z" fill="black"/>
<path d="M60.102 65.4945C58.202 66.2945 51.802 75.6945 51.802 77.6945C51.802 80.1945 53.702 81.8945 56.502 81.8945C59.102 81.8945 65.802 72.8945 65.802 69.3945C65.802 65.8945 63.302 64.1945 60.102 65.4945ZM63.102 68.4945C63.902 69.3945 57.502 78.8945 56.102 78.8945C54.102 78.8945 54.602 77.2945 58.002 72.3945C61.202 67.8945 61.902 67.2945 63.102 68.4945Z" fill="white"/>
<path d="M82.8021 69.1949C77.0021 71.4949 75.3021 74.3949 77.8021 77.4949C79.5021 79.3949 81.0021 79.2949 88.0021 76.7949C94.2021 74.4949 96.3021 71.3949 93.8021 68.3949C92.1021 66.3949 89.3021 66.5949 82.8021 69.1949ZM91.8021 70.9949C91.8021 71.9949 87.2021 74.2949 82.5021 75.3949C78.0021 76.5949 79.3021 73.4949 84.1021 71.6949C89.2021 69.7949 91.8021 69.4949 91.8021 70.9949Z" fill="white"/>
<path d="M34.5019 81.6945C32.6019 83.7945 32.1019 93.7945 33.8019 96.9945C35.0019 99.0945 38.8019 99.4945 40.6019 97.6945C41.3019 96.9945 41.8019 93.5945 41.8019 89.1945C41.8019 83.0945 41.5019 81.7945 39.9019 80.8945C37.2019 79.4945 36.4019 79.5945 34.5019 81.6945ZM38.8019 89.3945C38.8019 94.4945 38.5019 95.8945 37.3019 95.8945C36.1019 95.8945 35.8019 94.5945 35.8019 90.0945C35.8019 86.8945 36.1019 83.8945 36.5019 83.5945C38.2019 81.8945 38.8019 83.3945 38.8019 89.3945Z" fill="white"/>
<path d="M100.002 83.0945C99.302 83.7945 98.802 85.3945 98.802 86.6945C98.802 89.6945 104.202 92.0945 111.302 92.2945L116.302 92.3945V88.8945C116.302 85.5945 116.102 85.3945 110.802 83.6945C104.202 81.6945 101.602 81.4945 100.002 83.0945ZM111.402 86.8945C114.102 87.9945 114.602 89.8945 112.202 89.8945C108.302 89.8945 101.802 87.5945 101.802 86.1945C101.802 84.9945 102.602 84.7945 105.402 85.3945C107.402 85.6945 110.102 86.3945 111.402 86.8945Z" fill="white"/>
<path d="M63.5021 86.2953C37.2021 95.6953 35.8021 132.695 61.3021 143.995C67.6021 146.795 79.3021 146.995 85.2021 144.395C101.502 137.295 108.602 119.195 101.602 102.595C99.0021 96.4953 90.5021 88.6953 84.2021 86.4953C78.5021 84.5953 68.7021 84.4953 63.5021 86.2953ZM74.6021 93.5953C73.1021 95.0953 71.5021 95.9953 71.2021 95.5953C70.2021 94.5953 73.8021 90.8953 75.7021 90.8953C76.8021 90.8953 76.5021 91.5953 74.6021 93.5953ZM63.8021 95.0953C63.8021 97.7953 62.2021 100.595 61.3021 99.6953C60.4021 98.7953 61.8021 92.8953 62.9021 92.8953C63.4021 92.8953 63.8021 93.8953 63.8021 95.0953ZM87.8021 95.7953C87.8021 96.8953 85.3021 97.8953 82.7021 97.8953C80.3021 97.8953 80.2021 96.1953 82.6021 95.5953C85.6021 94.7953 87.8021 94.8953 87.8021 95.7953ZM55.8021 106.095C55.8021 107.095 55.4021 107.895 54.9021 107.895C53.8021 107.895 52.8021 105.395 52.8021 102.595C52.9021 100.395 52.9021 100.395 54.3021 102.295C55.1021 103.395 55.8021 105.095 55.8021 106.095ZM82.4021 104.995C86.4021 108.695 88.1021 112.695 87.5021 117.095C86.1021 127.195 76.4021 132.595 67.2021 128.295C57.8021 123.795 57.1021 109.495 66.1021 103.795C70.6021 100.995 78.8021 101.595 82.4021 104.995ZM96.1021 104.895C97.5021 106.195 95.5021 106.695 92.0021 105.695C88.1021 104.695 88.7021 102.395 92.7021 103.395C94.1021 103.695 95.7021 104.395 96.1021 104.895ZM52.2021 114.795C54.8021 117.695 53.7021 119.395 51.0021 116.895C48.8021 114.795 48.1021 112.895 49.6021 112.895C50.1021 112.895 51.3021 113.795 52.2021 114.795ZM96.8021 115.395C98.1021 116.795 98.8021 118.195 98.5021 118.595C97.7021 119.295 92.8021 115.095 92.8021 113.695C92.8021 112.195 94.4021 112.895 96.8021 115.395ZM94.0021 126.895C94.2021 128.295 93.9021 129.595 93.4021 129.895C92.3021 130.495 90.6021 124.995 91.5021 123.595C92.3021 122.295 93.6021 123.995 94.0021 126.895ZM57.2021 126.995C58.8021 128.495 57.1021 129.195 54.2021 128.195C50.3021 126.895 49.6021 124.395 53.4021 125.295C55.0021 125.695 56.7021 126.495 57.2021 126.995ZM85.7021 135.695C84.2021 139.895 82.4021 139.895 83.3021 135.595C84.2021 131.395 84.8021 130.495 85.9021 131.595C86.5021 132.195 86.4021 133.795 85.7021 135.695ZM65.8021 133.895C65.8021 134.895 61.7021 136.895 59.7021 136.895C57.7021 136.895 59.5021 134.495 61.9021 133.795C65.4021 132.795 65.8021 132.795 65.8021 133.895ZM74.4021 138.695C73.0021 140.095 71.5021 140.995 71.2021 140.595C70.2021 139.595 74.9021 134.795 76.0021 135.595C76.6021 135.895 75.8021 137.295 74.4021 138.695Z" fill="#1C1C1A"/>
<path d="M111.402 105.494C109.002 107.794 109.402 109.094 113.802 114.694C118.702 120.794 121.502 121.994 123.902 118.994C126.202 116.194 125.502 114.194 120.302 108.594C115.702 103.594 113.902 102.994 111.402 105.494ZM118.802 111.394C122.202 115.794 122.802 117.394 120.902 117.394C119.502 117.394 112.702 108.794 113.402 107.794C114.302 106.294 115.202 106.794 118.802 111.394Z" fill="white"/>
<path d="M23.0021 108.094C21.1021 109.994 21.5021 111.494 25.4021 117.294C29.3021 123.294 31.0021 124.394 33.8021 122.894C37.2021 121.094 37.1021 118.694 33.1021 112.894C29.1021 107.194 25.6021 105.494 23.0021 108.094ZM30.2021 113.894C33.5021 118.394 34.3021 121.894 31.7021 120.394C29.9021 119.194 24.7021 110.794 25.3021 109.894C26.2021 108.394 26.3021 108.494 30.2021 113.894Z" fill="white"/>
<path d="M107.802 130.394C106.302 132.294 107.102 144.394 108.902 146.494C110.602 148.594 113.602 148.194 115.102 145.594C116.902 142.794 115.902 131.194 113.802 129.894C111.602 128.494 109.202 128.694 107.802 130.394ZM113.102 137.894C113.602 141.394 113.502 143.594 112.802 144.294C111.102 145.994 109.802 142.994 109.802 137.094C109.802 129.994 112.002 130.594 113.102 137.894Z" fill="white"/>
<path d="M29.6021 134.993C27.5021 136.193 27.2021 140.193 29.1021 141.693C29.8021 142.293 32.9021 143.693 36.0021 144.893C40.5021 146.493 42.2021 146.793 43.8021 145.893C46.1021 144.693 46.5021 140.693 44.4021 138.993C43.4021 138.193 32.0021 133.693 31.4021 133.893C31.3021 133.893 30.5021 134.393 29.6021 134.993ZM42.7021 141.393C42.8021 141.593 42.7021 142.193 42.4021 142.793C42.0021 143.393 40.1021 143.193 37.0021 142.193C31.6021 140.393 30.3021 139.493 31.2021 137.993C31.7021 137.293 33.6021 137.593 37.1021 138.993C40.0021 140.093 42.5021 141.193 42.7021 141.393Z" fill="white"/>
<path d="M81.6021 154.994C76.6021 160.294 75.6021 163.694 78.3021 165.894C80.6021 167.794 84.0021 166.194 88.1021 161.294C92.2021 156.294 92.8021 152.494 89.9021 150.894C87.0021 149.394 86.8021 149.494 81.6021 154.994ZM88.8021 154.794C88.8021 155.994 81.8021 163.894 80.7021 163.894C78.9021 163.894 79.8021 161.694 83.4021 157.294C86.6021 153.494 88.8021 152.394 88.8021 154.794Z" fill="white"/>
<path d="M56.802 152.595C50.302 154.295 48.802 155.395 48.802 158.395C48.802 162.595 51.202 163.395 58.102 161.495C65.402 159.495 66.802 158.395 66.802 155.295C66.802 153.395 64.002 150.595 62.602 150.995C62.402 150.995 59.802 151.795 56.802 152.595ZM63.802 155.895C63.802 157.195 53.102 160.195 51.702 159.395C50.002 158.295 52.002 156.895 57.402 155.495C62.402 154.195 63.802 154.295 63.802 155.895Z" fill="white"/>
<path d="M62.3019 58.5926C61.2019 58.7926 57.6019 59.8926 54.3019 61.0926C21.5019 72.5926 6.50191 110.093 21.9019 141.793C26.7019 151.593 37.2019 161.993 47.2019 166.893C60.5019 173.493 72.1019 175.193 85.3019 172.393C113.302 166.493 133.502 139.993 131.402 111.593C129.602 86.8926 111.902 65.5926 88.2019 59.4926C82.5019 57.9926 67.3019 57.4926 62.3019 58.5926ZM65.6019 66.0926C67.6019 68.0926 67.0019 71.1926 63.2019 76.6926C59.3019 82.5926 58.0019 83.3926 54.3019 82.4926C51.0019 81.6926 50.0019 77.6926 52.3019 74.0926C56.9019 66.8926 58.9019 64.8926 61.7019 64.8926C63.2019 64.8926 64.9019 65.3926 65.6019 66.0926ZM94.4019 68.3926C97.1019 72.5926 95.2019 75.2926 87.4019 77.8926C80.0019 80.2926 77.1019 79.8926 76.2019 76.1926C75.2019 72.4926 76.7019 70.6926 82.9019 68.2926C90.2019 65.2926 92.4019 65.3926 94.4019 68.3926ZM41.8019 81.7926C43.5019 84.9926 43.1019 95.9926 41.1019 98.0926C39.3019 100.193 35.8019 100.493 34.0019 98.6926C32.4019 97.0926 32.4019 82.6926 34.0019 81.0926C35.9019 79.1926 40.6019 79.5926 41.8019 81.7926ZM109.202 82.4926C112.502 83.3926 115.902 84.4926 116.602 85.0926C118.202 86.4926 118.102 90.0926 116.402 92.3926C115.102 94.1926 114.602 94.2926 108.702 92.9926C101.002 91.4926 97.8019 89.5926 97.8019 86.6926C97.8019 84.4926 100.402 80.8926 102.102 80.8926C102.602 80.8926 105.802 81.5926 109.202 82.4926ZM86.6019 86.8926C93.4019 89.8926 101.002 98.0926 103.302 104.993C104.602 108.693 104.902 112.193 104.602 117.793C103.902 129.993 98.4019 138.493 87.6019 143.893C82.5019 146.393 80.3019 146.893 74.3019 146.893C65.0019 146.893 59.0019 144.793 52.9019 139.293C45.7019 132.793 42.4019 125.493 42.3019 115.893C42.3019 107.893 43.5019 103.893 47.9019 97.2926C56.1019 85.1926 72.4019 80.7926 86.6019 86.8926ZM121.702 108.893C127.402 115.693 127.002 120.893 120.702 120.893C118.702 120.893 117.002 119.693 114.002 116.093C110.002 111.393 109.402 110.093 109.702 106.593C109.802 104.593 113.302 102.993 115.902 103.593C116.902 103.893 119.502 106.293 121.702 108.893ZM33.0019 111.393C38.5019 118.593 37.9019 123.893 31.6019 123.893C29.4019 123.893 28.1019 122.793 24.8019 117.993C20.3019 111.293 20.1019 110.293 22.5019 107.693C25.3019 104.593 28.8019 105.793 33.0019 111.393ZM114.302 129.293C115.902 130.393 116.302 132.193 116.602 138.193C117.002 145.393 116.902 145.793 114.402 147.393C112.002 148.993 111.602 148.993 109.402 147.593C107.502 146.293 107.002 144.893 106.402 138.893C105.802 132.793 105.902 131.393 107.402 129.793C109.402 127.493 111.702 127.393 114.302 129.293ZM39.1019 135.693C45.8019 138.293 47.5019 140.093 46.2019 143.593C45.3019 146.093 44.7019 146.393 40.8019 146.393C35.9019 146.293 29.0019 143.393 27.4019 140.693C26.7019 139.593 26.8019 138.293 27.6019 136.493C29.0019 133.293 32.2019 133.093 39.1019 135.693ZM91.8019 151.793C93.4019 154.893 93.0019 156.093 88.7019 161.393C83.5019 167.693 81.6019 168.693 78.3019 166.493C74.7019 164.093 75.2019 161.293 80.4019 155.293C84.0019 151.093 85.6019 149.893 87.8019 149.893C89.7019 149.893 91.1019 150.593 91.8019 151.793ZM67.2019 154.193C68.6019 157.993 66.0019 160.293 58.3019 162.293C53.0019 163.693 52.1019 163.693 50.1019 162.293C47.4019 160.593 47.1019 156.793 49.4019 154.793C51.7019 152.893 58.6019 150.993 62.8019 151.193C65.6019 151.393 66.4019 151.893 67.2019 154.193Z" fill="black"/>
<path d="M179.588 115.117C177.763 115.303 175.359 116.16 173.794 117.185C173.142 117.595 172.043 118.545 171.353 119.272C170.049 120.669 169.583 121.414 167.664 125.364C167.05 126.649 166.472 127.805 166.398 127.916C166.286 128.103 163.957 128.159 155.815 128.159H145.4L144.692 128.792L144.003 129.426V167.973C144.003 211.142 143.873 207.304 145.344 210.322C145.903 211.458 146.425 212.11 148.176 213.862C149.928 215.613 150.598 216.153 151.735 216.712C154.66 218.147 152.182 218.035 182.569 218.11C199.989 218.147 210.441 218.091 211.653 217.979C215.062 217.625 217.111 216.619 219.794 213.918C222.459 211.235 223.465 209.241 223.856 205.943C223.986 204.826 224.024 190.759 223.986 163.93L223.93 123.594L223.521 122.383C222.365 118.992 219.962 116.589 216.571 115.434C215.36 115.042 215.341 115.024 198.219 115.005C188.792 114.986 180.408 115.042 179.588 115.117ZM211.503 127.823C211.671 127.991 211.727 130.245 211.727 136.841C211.727 141.685 211.671 145.765 211.615 145.933C211.559 146.1 211.336 146.231 211.149 146.231C210.945 146.231 205.225 144.256 198.443 141.834C179.998 135.276 178.713 134.791 178.526 134.493C178.396 134.288 178.806 133.319 180.054 130.897L181.787 127.6H196.524C207.759 127.6 211.336 127.656 211.503 127.823ZM169.714 136.3C170.571 136.766 171.242 137.437 171.931 138.555C172.546 139.542 173.738 140.716 174.744 141.312C175.173 141.554 177.688 142.542 180.352 143.511C182.998 144.479 189.575 146.864 194.959 148.839C209.734 154.242 209.156 154.056 211.224 154.149C212.193 154.186 213.273 154.335 213.609 154.484C214.41 154.838 215.323 155.733 215.751 156.627C216.087 157.279 216.105 158.304 216.105 181.35V205.385L215.565 206.558C214.876 208.03 213.441 209.409 212.062 209.893C211.131 210.21 209.771 210.229 183.967 210.229C152.536 210.229 155.722 210.434 153.486 208.198C152.573 207.266 152.107 206.651 151.958 206.111C151.642 205.049 151.642 140.269 151.94 139.058C152.294 137.66 153.673 136.356 155.182 135.965C155.498 135.891 158.722 135.835 162.355 135.853C168.745 135.891 168.987 135.909 169.714 136.3Z" fill="black"/>
<path d="M181.135 171.592C178.377 176.1 176.719 179.417 176.03 181.746C175.229 184.484 176.812 187.763 179.626 189.198C180.613 189.682 180.874 189.738 182.569 189.738C184.265 189.738 184.525 189.682 185.513 189.198C187.525 188.173 189.09 185.956 189.314 183.795C189.444 182.472 188.922 180.758 187.506 177.814C186.556 175.858 183.557 170.641 182.793 169.635C182.551 169.319 182.439 169.449 181.135 171.592Z" fill="black"/>
<path d="M148.419 116.348C147.58 116.944 147.45 117.503 147.45 120.801V123.875L156.728 123.838L165.988 123.782L166.044 121.267C166.118 117.969 166.006 117.317 165.317 116.609L164.739 116.05H156.784C149.89 116.05 148.791 116.087 148.419 116.348Z" fill="black"/>
</svg>
