<?xml version="1.0" encoding="UTF-8"?>
<svg version="1.1" xmlns="http://www.w3.org/2000/svg" width="174" height="174">
<path d="M0 0 C3.80793919 2.50534259 7.43708729 5.15921868 11 8 C11.92425781 8.69609375 12.84851563 9.3921875 13.80078125 10.109375 C14.88939453 11.04523437 14.88939453 11.04523437 16 12 C16 12.66 16 13.32 16 14 C16.66 14 17.32 14 18 14 C37.17247032 34.81175216 41.86085333 59.09604365 41.17041016 86.49609375 C40.34635827 103.4399227 31.28957901 118.94980223 21 132 C20.47019531 132.75796875 19.94039062 133.5159375 19.39453125 134.296875 C18.93433594 134.85890625 18.47414062 135.4209375 18 136 C17.34 136 16.68 136 16 136 C16 136.66 16 137.32 16 138 C3.63990455 149.47171359 -10.7211754 156.78749714 -27 161 C-27.58257568 161.1743457 -28.16515137 161.34869141 -28.76538086 161.52832031 C-50.38917805 166.09263542 -73.33562173 161.05002999 -92 150 C-95.80793919 147.49465741 -99.43708729 144.84078132 -103 142 C-103.92425781 141.30390625 -104.84851563 140.6078125 -105.80078125 139.890625 C-106.88939453 138.95476562 -106.88939453 138.95476562 -108 138 C-108 137.34 -108 136.68 -108 136 C-108.66 136 -109.32 136 -110 136 C-129.17247032 115.18824784 -133.86085333 90.90395635 -133.17041016 63.50390625 C-132.34635827 46.5600773 -123.28957901 31.05019777 -113 18 C-112.47019531 17.24203125 -111.94039062 16.4840625 -111.39453125 15.703125 C-110.93433594 15.14109375 -110.47414063 14.5790625 -110 14 C-109.34 14 -108.68 14 -108 14 C-108 13.34 -108 12.68 -108 12 C-95.63990455 0.52828641 -81.2788246 -6.78749714 -65 -11 C-64.41742432 -11.1743457 -63.83484863 -11.34869141 -63.23461914 -11.52832031 C-41.61082195 -16.09263542 -18.66437827 -11.05002999 0 0 Z M-37 35.375 C-39.294961 37.48740728 -41.39195896 39.26130597 -44 41 C-44 41.66 -44 42.32 -44 43 C-44.66 43 -45.32 43 -46 43 C-47.53237551 44.55383147 -47.53237551 44.55383147 -49.125 46.5625 C-52.29312862 50.31756613 -55.69430236 53.45265657 -59.49609375 56.5546875 C-59.99238281 57.03164062 -60.48867187 57.50859375 -61 58 C-61 58.66 -61 59.32 -61 60 C-61.66 60 -62.32 60 -63 60 C-63 60.66 -63 61.32 -63 62 C-63.66 62 -64.32 62 -65 62 C-66.73888091 63.71885317 -66.73888091 63.71885317 -68.5 65.875 C-70.28933258 67.99035504 -72.04019124 70.04019124 -74 72 C-74.83939269 74.7392959 -74.83939269 74.7392959 -74 78 C-72.09243096 80.28568406 -70.04868281 82.26257438 -67.84765625 84.265625 C-66 86 -66 86 -65 88 C-64.34 88 -63.68 88 -63 88 C-63 88.66 -63 89.32 -63 90 C-62.34 90 -61.68 90 -61 90 C-61 90.66 -61 91.32 -61 92 C-59.44616853 93.53237551 -59.44616853 93.53237551 -57.4375 95.125 C-53.68243387 98.29312862 -50.54734343 101.69430236 -47.4453125 105.49609375 C-46.96835938 105.99238281 -46.49140625 106.48867187 -46 107 C-45.34 107 -44.68 107 -44 107 C-44 107.66 -44 108.32 -44 109 C-42.31759272 110.74082372 -42.31759272 110.74082372 -40.1875 112.5 C-39.47980469 113.1084375 -38.77210937 113.716875 -38.04296875 114.34375 C-34.70124425 117.26736117 -34.70124425 117.26736117 -30.5 117.8125 C-27.11270839 116.71593328 -27.11270839 116.71593328 -25 114 C-24.9996414 109.37223063 -25.89698377 106.71030403 -28.95922852 103.35961914 C-30.25048757 102.06930306 -31.55808466 100.79519429 -32.87890625 99.53515625 C-33.5655687 98.85698349 -34.25223114 98.17881073 -34.95970154 97.48008728 C-37.14691032 95.32635024 -39.3540802 93.19446062 -41.5625 91.0625 C-43.05280051 89.60230658 -44.54174933 88.14073223 -46.02929688 86.67773438 C-49.67073196 83.10230154 -53.33020959 79.54631373 -57 76 C-55.71130407 73.15346971 -54.38228746 71.15032389 -52.12670898 68.99487305 C-51.54948593 68.43716721 -50.97226288 67.87946136 -50.37754822 67.30485535 C-49.75666824 66.71312027 -49.13578827 66.12138519 -48.49609375 65.51171875 C-47.18496549 64.23562312 -45.87443691 62.9589111 -44.56445312 61.68164062 C-42.50128346 59.68037341 -40.4339503 57.68410849 -38.35571289 55.69848633 C-36.34715989 53.77480512 -34.35816723 51.83254691 -32.37109375 49.88671875 C-31.74818954 49.30105637 -31.12528534 48.71539398 -30.48350525 48.11198425 C-27.45104339 45.1160161 -26.11970877 43.43536856 -24.96118164 39.22192383 C-24.64240635 35.84177994 -24.64240635 35.84177994 -27.25 33.5625 C-31.83643821 30.9565692 -33.40470774 32.03845983 -37 35.375 Z " fill="#000000" transform="translate(133,12)"/>
</svg>
