<svg width="114" height="114" xmlns="http://www.w3.org/2000/svg" xmlns:xlink="http://www.w3.org/1999/xlink" xml:space="preserve" overflow="hidden"><g transform="translate(-1125 -483)"><path d="M1139.25 509.125C1139.25 549.787 1172.21 582.75 1212.88 582.75 1214.71 582.75 1216.53 582.683 1218.33 582.551 1220.4 582.399 1221.43 582.324 1222.37 581.782 1223.15 581.334 1223.89 580.539 1224.28 579.729 1224.75 578.751 1224.75 577.611 1224.75 575.331L1224.75 561.948C1224.75 560.03 1224.75 559.071 1224.43 558.25 1224.16 557.523 1223.7 556.877 1223.12 556.367 1222.45 555.789 1221.55 555.461 1219.75 554.806L1204.52 549.267C1202.42 548.504 1201.37 548.123 1200.37 548.188 1199.5 548.245 1198.65 548.544 1197.94 549.053 1197.12 549.629 1196.55 550.585 1195.4 552.499L1191.5 559C1178.91 553.299 1168.71 543.082 1163 530.5L1169.5 526.599C1171.41 525.451 1172.37 524.877 1172.95 524.064 1173.46 523.347 1173.76 522.503 1173.81 521.626 1173.88 520.631 1173.5 519.582 1172.73 517.485L1167.19 502.253C1166.54 500.45 1166.21 499.549 1165.63 498.884 1165.12 498.297 1164.48 497.844 1163.75 497.566 1162.93 497.25 1161.97 497.25 1160.05 497.25L1146.67 497.25C1144.39 497.25 1143.25 497.25 1142.27 497.721 1141.46 498.112 1140.67 498.851 1140.22 499.63 1139.68 500.571 1139.6 501.604 1139.45 503.671 1139.32 505.472 1139.25 507.29 1139.25 509.125Z" stroke="#000000" stroke-width="5.46407" stroke-linecap="round" stroke-linejoin="round" fill="none"/></g></svg>