<svg width="1em" height="1em" viewBox="0 0 512 512"
    xmlns="http://www.w3.org/2000/svg" fill="currentColor">
    <g clip-path="url(#clip0_234_3)">
        <path d="M356.4 60.4981C348.7 62.1981 341.6 65.6981 334.6 71.4981C331 74.3981 328.1 75.9981 326.3 75.9981C316.7 75.9981 307 83.4981 307 90.9981C307 92.9981 306.5 92.9981 281.1 92.9981C266.9 92.9981 252.9 93.4981 249.9 93.9981C238.5 96.1981 229.3 103.298 224.9 113.398L222.5 118.898L158.5 119.198C95.4997 119.498 94.3997 119.498 89.8997 121.598C84.3997 124.198 77.5997 130.098 74.4997 134.998C73.2997 136.898 68.0997 151.098 62.9997 166.498C57.8997 181.898 53.5997 194.698 53.3997 194.898C53.1997 195.098 51.6997 194.098 49.9997 192.598C43.5997 187.198 28.8997 185.398 17.8997 188.598C11.1997 190.598 3.09972 198.298 1.19972 204.598C-2.70028 217.698 2.89972 231.198 14.2997 236.598L19.1997 238.798L13.7997 242.298C7.79972 246.098 3.39972 250.898 1.29972 255.698C0.29972 258.298 -0.000279954 271.098 -0.000279954 320.498C-0.000279954 380.898 -0.000279998 382.098 2.09972 386.498C4.29972 391.098 10.2997 397.298 14.5997 399.198C16.9997 400.298 16.9997 400.598 16.9997 412.398C16.9997 422.998 17.2997 425.098 19.3997 429.498C22.0997 435.398 27.0997 440.098 33.1997 442.398C36.8997 443.898 40.9997 444.098 60.9997 443.798C86.8997 443.498 88.3997 443.198 94.8997 436.798C101 430.798 102.4 426.798 102.8 413.698L103.2 401.998H162H220.7L221.3 413.698C221.6 420.698 222.5 427.298 223.4 429.998C226.8 439.398 234.6 447.198 244.2 450.798C248.1 452.298 259.5 452.498 364.4 452.798C492.2 453.098 487.2 453.298 497.2 446.898C502.6 443.398 507.9 436.598 510.4 429.998C511.9 425.898 512 413.298 511.8 271.498L511.5 117.498L508.9 112.498C503.5 102.398 494.3 95.7981 483.1 93.8981C480 93.3981 466.2 92.9981 452.5 92.9981H427.4L426.2 88.5981C424.3 81.4981 416.4 75.9981 407.7 75.9981C405.9 75.9981 403 74.3981 399.4 71.4981C392.2 65.5981 385.3 62.1981 377.1 60.3981C369.1 58.6981 364.4 58.6981 356.4 60.4981ZM381.2 80.6981C384.3 82.3981 387.7 85.2981 389.7 88.1981C393.7 93.6981 394.3 93.9981 402.6 93.9981H409V101.998V109.998H367H325V101.998V93.9981H331.8C339.2 93.9981 340.1 93.4981 344.3 87.7981C347.3 83.7981 354.2 79.1981 359.3 77.8981C365.4 76.2981 375.6 77.6981 381.2 80.6981ZM307 113.898C307 117.498 310.6 122.798 314.9 125.698L318.3 127.998H366.7C420.1 127.998 418.5 128.198 423.5 121.598C424.9 119.698 426.4 116.598 426.7 114.598L427.3 110.998H452.2C483.6 110.998 486.8 111.698 491.9 120.098L494 123.498V272.798C494 440.198 494.6 426.598 486.7 431.798L482.6 434.498H367.1H251.5L247.8 432.198C245.8 430.898 243.1 428.198 241.8 426.198L239.5 422.498V272.998V123.498L241.8 119.898C244.3 115.698 248 112.998 252.5 111.898C254.1 111.498 267.1 111.198 281.3 111.098L307 110.998V113.898ZM221 178.998V220.998H142.5C99.2997 220.998 63.9997 220.898 63.9997 220.698C63.9997 219.498 87.9997 148.798 89.1997 146.498C91.1997 142.798 94.6997 139.398 97.9997 138.098C99.5997 137.498 123.2 137.098 160.8 137.098L221 136.998V178.998ZM38.8997 207.598C41.6997 209.898 41.9997 210.798 41.9997 215.598V220.998H32.2997C23.6997 220.998 22.3997 220.698 20.2997 218.798C18.7997 217.398 17.9997 215.498 17.9997 213.498C17.9997 207.698 21.7997 205.098 30.1997 204.998C34.7997 204.998 36.3997 205.498 38.8997 207.598ZM221 251.498V263.898L174.3 264.198C121 264.498 123 264.198 113 273.598C99.5997 286.098 98.2997 306.898 110.5 313.698L114.5 315.998H167.8H221V328.498V340.998H172.8C121.9 341.098 122.7 340.998 120.2 345.698C118.2 349.398 118.8 352.998 121.9 356.098L124.8 358.998H172.9H221V371.498V383.998L122.1 383.798L23.1997 383.498L20.5997 381.098L17.9997 378.698V320.498C17.9997 263.698 17.9997 262.298 19.9997 260.498C21.0997 259.498 29.2997 254.298 38.1997 248.898L54.4997 239.098L137.8 238.998H221V251.498ZM221 289.998V297.998H170.5C139.8 297.998 120 297.598 120 297.098C120 294.798 122.3 290.298 124.8 287.598C130 282.098 129.9 282.098 177.3 281.998H221V289.998ZM84.9997 410.598C84.9997 425.698 84.6997 425.898 59.6997 425.998C39.9997 425.998 39.8997 425.998 37.4997 423.498C35.1997 421.298 34.9997 420.298 34.9997 411.498V401.998H59.9997H84.9997V410.598Z" fill="currentColor"/>
        <path d="M328.5 154.1C327.4 154.6 320 165 312 177L297.5 198.9L292.5 194.1C286.3 188.1 283.6 186.6 280.2 187.5C275.6 188.6 273 191.9 273 196.4C273 200.2 273.6 201 283.8 211.2C293.9 221.3 294.8 222 298.6 222C301.7 222 303.2 221.4 305.2 219.2C306.6 217.7 315.5 204.8 325 190.6C340.9 166.6 342.2 164.3 341.6 161.1C341.3 159.2 340.2 156.8 339.2 155.8C337 153.6 331.3 152.6 328.5 154.1Z" fill="currentColor"/>
        <path d="M360.999 172.9C357.099 176.7 356.899 182 360.499 185.5L362.899 188H405.399H447.799L450.499 184.8C452.699 182.2 453.099 180.9 452.599 178.1C452.299 176.2 451.099 173.7 449.999 172.6C447.999 170.6 446.799 170.5 405.899 170.2L363.899 169.9L360.999 172.9Z" fill="currentColor"/>
        <path d="M363.399 205C357.799 207.2 356.199 215.3 360.499 219.5L362.899 222H391.799C420.499 222 420.699 222 422.699 219.7C425.599 216.5 426.199 214.1 424.899 210.3C422.999 204.3 421.199 204 391.799 204.1C377.299 204.1 364.499 204.5 363.399 205Z" fill="currentColor"/>
        <path d="M330.5 238.699C327.1 239.499 326.2 240.799 311.6 262.599L297.5 283.799L291.7 278.399C286.7 273.699 285.4 272.999 281.9 272.999C276.5 272.999 273 276.399 273 281.699C273 285.199 273.9 286.399 283.5 296.099C289.5 302.199 295.1 307.099 296.6 307.399C302.4 308.899 304 307.099 323.4 277.899C333.6 262.499 342 249.099 342 247.999C342 244.099 340 240.899 336.5 239.499C334.6 238.699 332.9 238.099 332.8 238.099C332.6 238.199 331.6 238.499 330.5 238.699Z" fill="currentColor"/>
        <path d="M360.499 258.499C357.199 261.699 357.199 266.899 360.399 270.699L362.799 273.499L402.699 273.799C429.899 273.999 443.699 273.799 446.299 272.999C452.899 271.099 454.899 262.899 449.999 257.999C448.099 256.099 446.499 255.999 405.499 255.999H362.899L360.499 258.499Z" fill="currentColor"/>
        <path d="M360.499 292.5C357.199 295.7 357.199 300.9 360.399 304.7L362.799 307.5L390.099 307.8C420.499 308.1 422.299 307.8 424.699 302.3C426.299 298.4 425.699 295.5 422.699 292.2C420.699 290 420.399 290 391.799 290H362.899L360.499 292.5Z" fill="currentColor"/>
        <path d="M328.2 324.7C327.5 325 320.6 334.7 312.8 346.4C305.1 358 298.4 367.9 297.9 368.4C297.4 369 294.5 367 291 363.6C285.1 358 284.7 357.8 280.7 358.3C275.4 359 273 361.8 273 367.3C273 371.2 273.6 372 283.8 382.2C293.1 391.5 295 393 297.9 393C299.7 393 302 392.5 303.1 392C306 390.4 341.1 337.4 341.7 333.6C342.5 328.8 338.1 324 333.2 324.1C331.1 324.1 328.9 324.4 328.2 324.7Z" fill="currentColor"/>
        <path d="M360.499 343.5C356.899 347 357.099 352.3 360.899 356.1L363.799 359H405.399H446.899L449.499 356.7C450.999 355.4 452.299 353 452.699 350.8C453.199 347.6 452.799 346.7 450.199 344L447.199 341H404.999H362.899L360.499 343.5Z" fill="currentColor"/>
        <path d="M362.4 376.2C356.6 379 356.8 389.2 362.7 391.9C364.3 392.6 374.5 393 392.5 393C419.7 393 419.9 393 422.6 390.7C424.7 388.8 425.3 387.5 425.3 384C425.3 380.5 424.7 379.2 422.6 377.3C419.9 375 419.8 375 392.2 375.1C375.3 375.1 363.7 375.5 362.4 376.2Z" fill="currentColor"/>
        <path d="M48.2 258.097C42.9 260.797 36.7 267.697 35.2 272.797C34.5 274.997 34 282.897 34 291.097C34 307.197 35 310.897 41 316.797C46.4 322.297 51.6 324.397 59.5 324.397C71.6 324.497 81.3 317.597 84.5 306.597C86.2 300.797 86.5 280.497 85 274.797C83.2 268.297 78 261.797 72.1 258.797C65.1 255.197 54.8 254.897 48.2 258.097ZM63.5 274.597C66.6 275.797 68 280.497 68 290.197C68 300.497 66.9 303.797 62.7 305.797C59.5 307.297 56.7 306.697 54 303.697C52.2 301.897 52 300.197 52 290.097C52 279.697 52.2 278.397 54.2 276.297C56.3 273.997 60.1 273.297 63.5 274.597Z" fill="currentColor"/>
        <path d="M44.7998 344C42.1998 346.7 41.7998 347.6 42.2998 350.8C42.6998 353 43.9998 355.4 45.4998 356.7C47.8998 358.8 49.0998 359 59.0998 359C73.4998 359 76.8998 357.2 76.9998 349.7C76.9998 347 76.2998 345.2 74.4998 343.5C72.1998 341.1 71.4998 341 59.9998 341H47.7998L44.7998 344Z" fill="currentColor"/>
    </g>
    <defs>
        <clipPath id="clip0_234_3">
            <rect width="512" height="512" fill="none"/>
        </clipPath>
    </defs>
</svg>
