<?xml version="1.0" encoding="UTF-8"?>
<svg version="1.1" xmlns="http://www.w3.org/2000/svg" width="425" height="426">
<path d="M0 0 C1.88714992 0.695106 3.78659666 1.35662159 5.6875 2.01318359 C10.1993148 3.57911932 14.03894226 5.29266993 18.125 7.78271484 C19.6409375 8.40146484 19.6409375 8.40146484 21.1875 9.03271484 C25.79875352 10.93977593 29.99922605 13.55143824 34.28125 16.09521484 C36.38065327 17.34101459 38.48603023 18.5458785 40.625 19.72021484 C47.1198638 23.41778582 53.91304159 27.39055574 59.125 32.78271484 C60.86463203 34.21209403 62.61588218 35.62738608 64.375 37.03271484 C68.91365218 40.7211182 73.09137177 44.55649959 77.125 48.78271484 C78.3315625 49.98927734 78.3315625 49.98927734 79.5625 51.22021484 C80.408125 52.06583984 81.25375 52.91146484 82.125 53.78271484 C82.74375 54.38986328 83.3625 54.99701172 84 55.62255859 C95.53098542 67.0006711 95.53098542 67.0006711 97.125 71.78271484 C98.45411173 73.12025646 99.78803198 74.45302614 101.125 75.78271484 C102.31772754 77.50109636 103.46210821 79.25379047 104.5625 81.03271484 C105.16964844 82.00853516 105.77679688 82.98435547 106.40234375 83.98974609 C107.25505859 85.37226563 107.25505859 85.37226563 108.125 86.78271484 C108.95808163 88.09537462 109.79138658 89.40789272 110.625 90.72021484 C111.46249319 92.07181277 112.29537832 93.42627109 113.125 94.78271484 C113.97771484 96.17296875 113.97771484 96.17296875 114.84765625 97.59130859 C118.10291015 103.01673176 120.9609751 108.32528789 123.171875 114.25537109 C124.19029794 116.95586144 125.34151783 119.57696912 126.5 122.22021484 C129.9528595 130.58757374 132.7358625 139.05594393 135.125 147.78271484 C135.4977002 149.09900879 135.4977002 149.09900879 135.87792969 150.44189453 C144.93504866 184.00228915 143.49102056 224.46667685 134.125 257.78271484 C133.76462646 259.10335937 133.76462646 259.10335937 133.39697266 260.45068359 C131.92688611 265.68598119 130.15709267 270.74085601 128.125 275.78271484 C127.78033691 276.64074707 127.43567383 277.4987793 127.08056641 278.3828125 C119.5466079 296.91157008 110.35565142 314.86018045 98.125 330.78271484 C97.465 330.78271484 96.805 330.78271484 96.125 330.78271484 C96.0125293 331.38035645 95.90005859 331.97799805 95.78417969 332.59375 C94.7032662 336.18318344 91.92756489 338.52006445 89.375 341.15771484 C88.31627936 342.26833356 87.25897569 343.38030484 86.203125 344.49365234 C85.68685547 345.03473633 85.17058594 345.57582031 84.63867188 346.13330078 C83.13683015 347.7698238 81.74636124 349.46253537 80.359375 351.19677734 C79.62203125 352.05013672 78.8846875 352.90349609 78.125 353.78271484 C77.465 353.78271484 76.805 353.78271484 76.125 353.78271484 C76.125 354.44271484 76.125 355.10271484 76.125 355.78271484 C74.83203125 357.12255859 74.83203125 357.12255859 72.9375 358.72021484 C72.19886719 359.34412109 71.46023438 359.96802734 70.69921875 360.61083984 C69.84972656 361.32755859 69.00023437 362.04427734 68.125 362.78271484 C67.20332031 363.60255859 66.28164063 364.42240234 65.33203125 365.26708984 C52.24435471 376.82790618 37.67578381 385.92752986 22.125 393.78271484 C21.16980469 394.30220703 20.21460938 394.82169922 19.23046875 395.35693359 C5.87058207 402.4759781 -8.95097992 406.98720968 -23.67941284 410.28367615 C-25.11892679 410.61086569 -26.55634811 410.94743415 -27.99124146 411.29432678 C-42.35958147 414.75921654 -56.19402992 415.46510929 -70.9375 415.34521484 C-72.05885345 415.3409549 -73.18020691 415.33669495 -74.33554077 415.33230591 C-91.30615041 415.24263593 -107.45618538 414.43930546 -123.875 409.78271484 C-124.87708496 409.50443848 -125.87916992 409.22616211 -126.91162109 408.93945312 C-137.25404443 406.00210616 -147.23565895 402.57706311 -156.875 397.78271484 C-158.37244419 397.13097748 -159.87243236 396.48505168 -161.375 395.84521484 C-166.71694527 393.46682225 -171.79569257 390.67411221 -176.875 387.78271484 C-177.44524902 387.46173828 -178.01549805 387.14076172 -178.60302734 386.81005859 C-187.79671606 381.60599051 -196.12469344 375.76915329 -204.29101562 369.07421875 C-206.64751123 367.15284672 -209.0464962 365.28585541 -211.4375 363.40771484 C-214.80636903 360.69929955 -218.01228666 358.02712329 -220.875 354.78271484 C-220.875 354.12271484 -220.875 353.46271484 -220.875 352.78271484 C-221.431875 352.55583984 -221.98875 352.32896484 -222.5625 352.09521484 C-235.81329372 344.57449408 -245.95968694 326.40048326 -253.875 313.78271484 C-254.47054687 312.83396484 -255.06609375 311.88521484 -255.6796875 310.90771484 C-258.6935614 305.98955246 -261.40666608 300.99364202 -263.875 295.78271484 C-264.32617188 294.86232422 -264.77734375 293.94193359 -265.2421875 292.99365234 C-269.1253366 284.88531511 -272.22650195 276.62790739 -275.08984375 268.11401367 C-275.66790145 266.39763524 -276.25520896 264.68436521 -276.84765625 262.97290039 C-283.94405978 242.22763583 -285.36018715 222.4405967 -285.375 200.65771484 C-285.3793103 199.55724823 -285.38362061 198.45678162 -285.38806152 197.32296753 C-285.41013761 184.14612168 -284.73515758 171.65706747 -281.875 158.78271484 C-281.69678711 157.90566895 -281.51857422 157.02862305 -281.33496094 156.125 C-273.89495874 120.0257237 -256.03744737 87.33098287 -231.875 59.78271484 C-230.68602576 58.34643396 -229.49821411 56.90918828 -228.3125 55.47021484 C-227.508125 54.58333984 -226.70375 53.69646484 -225.875 52.78271484 C-225.215 52.78271484 -224.555 52.78271484 -223.875 52.78271484 C-223.545 51.79271484 -223.215 50.80271484 -222.875 49.78271484 C-222.215 49.78271484 -221.555 49.78271484 -220.875 49.78271484 C-220.875 49.12271484 -220.875 48.46271484 -220.875 47.78271484 C-219.58203125 46.44287109 -219.58203125 46.44287109 -217.6875 44.84521484 C-216.58728516 43.91515625 -216.58728516 43.91515625 -215.46484375 42.96630859 C-214.61019531 42.24572266 -213.75554687 41.52513672 -212.875 40.78271484 C-211.90691406 39.92806641 -210.93882812 39.07341797 -209.94140625 38.19287109 C-203.37085621 32.42637716 -196.62749386 27.40883911 -189.18359375 22.82568359 C-187.19283833 21.596445 -185.21968822 20.33694469 -183.28515625 19.02099609 C-169.74669424 9.84564033 -154.22948595 3.36566711 -138.70654297 -1.62207031 C-137.07782948 -2.15136963 -135.46162132 -2.71880663 -133.84765625 -3.29150391 C-130.55146561 -4.4108814 -127.24048419 -5.32601685 -123.875 -6.21728516 C-123.13088867 -6.43304199 -122.38677734 -6.64879883 -121.62011719 -6.87109375 C-83.00223797 -17.69705794 -37.22833492 -13.74838635 0 0 Z M-175.75 94.53271484 C-181.48304135 100.60299392 -183.99505226 105.1594404 -184.125 113.59521484 C-184.15078125 114.59166016 -184.1765625 115.58810547 -184.203125 116.61474609 C-183.51772446 123.23212509 -180.58118148 127.58420058 -176.09082031 132.32177734 C-175.61276569 132.82883209 -175.13471107 133.33588684 -174.64216995 133.85830688 C-169.01924924 139.77436258 -163.20372653 145.50440266 -157.38445282 151.22616577 C-154.67622381 153.89157714 -151.97796349 156.566993 -149.27890396 159.24168396 C-144.27976367 164.19536854 -139.27636714 169.1445997 -134.25732422 174.078125 C-130.73911354 177.53714337 -127.23307061 181.00808507 -123.73490143 184.48736572 C-122.40446879 185.80604222 -121.06950898 187.12016727 -119.73000336 188.42962646 C-117.87058661 190.24828219 -116.02705479 192.0816963 -114.18652344 193.91943359 C-113.62981461 194.456595 -113.07310577 194.99375641 -112.49952698 195.54719543 C-110.996521 197.06665039 -110.996521 197.06665039 -108.875 199.78271484 C-108.91538675 203.04567638 -109.86651311 203.77352071 -112.125 206.22021484 C-113.48625 207.48865234 -113.48625 207.48865234 -114.875 208.78271484 C-115.7 209.60771484 -116.525 210.43271484 -117.375 211.28271484 C-118.2 212.10771484 -119.025 212.93271484 -119.875 213.78271484 C-120.720625 214.64896484 -121.56625 215.51521484 -122.4375 216.40771484 C-124.875 218.78271484 -124.875 218.78271484 -127.1875 220.47021484 C-127.744375 220.90333984 -128.30125 221.33646484 -128.875 221.78271484 C-128.875 222.44271484 -128.875 223.10271484 -128.875 223.78271484 C-129.535 223.78271484 -130.195 223.78271484 -130.875 223.78271484 C-132.54166667 225.11604818 -132.54166667 225.11604818 -133.875 226.78271484 C-133.875 227.44271484 -133.875 228.10271484 -133.875 228.78271484 C-134.535 228.78271484 -135.195 228.78271484 -135.875 228.78271484 C-137.37816854 230.26652818 -137.37816854 230.26652818 -138.94213867 232.22094727 C-142.99651853 236.98563308 -147.35570751 241.37268543 -151.80078125 245.77099609 C-152.62958298 246.5960112 -153.4583847 247.42102631 -154.31230164 248.27104187 C-156.93493869 250.88155634 -159.56080746 253.48878144 -162.1875 256.09521484 C-165.66562184 259.5467789 -169.14044313 263.00161675 -172.61328125 266.45849609 C-173.41220291 267.24911942 -174.21112457 268.03974274 -175.03425598 268.85432434 C-175.77229965 269.58906479 -176.51034332 270.32380524 -177.27075195 271.08081055 C-178.24501884 272.04722221 -178.24501884 272.04722221 -179.2389679 273.03315735 C-184.2077428 278.34671895 -184.18996199 284.06215821 -184.078125 291.00537109 C-183.61175552 297.38207687 -181.79320922 301.26250028 -177.0625 305.59521484 C-170.44443989 310.82754395 -165.62523621 312.40942724 -157.12890625 312.19677734 C-147.15570805 310.92767889 -139.65533279 303.06218561 -133.53222656 295.64233398 C-131.92127456 293.83464079 -130.26178786 292.33461924 -128.40625 290.78271484 C-122.74791798 285.89582646 -117.55963188 280.53828815 -112.3125 275.22021484 C-101.19906964 263.95706064 -101.19906964 263.95706064 -96.875 260.31396484 C-94.4327546 258.25332029 -92.44222448 256.30816206 -90.4375 253.84521484 C-87.40920307 250.26070011 -84.11411898 247.28207602 -80.4765625 244.32568359 C-78.61265368 242.76867494 -78.61265368 242.76867494 -77.875 239.78271484 C-75.34801868 238.21424368 -72.82160836 237.192182 -69.875 236.78271484 C-68.29632187 237.75732708 -68.29632187 237.75732708 -66.75238037 239.33097839 C-66.16103806 239.92122803 -65.56969574 240.51147766 -64.96043396 241.11961365 C-64.32348099 241.78082718 -63.68652802 242.44204071 -63.03027344 243.12329102 C-62.35003616 243.80922333 -61.66979889 244.49515564 -60.96894836 245.20187378 C-59.48959322 246.69693737 -58.01607843 248.1977969 -56.54769135 249.70363426 C-54.22095372 252.08944563 -51.87945951 254.45982528 -49.5335083 256.82673645 C-44.54990525 261.86075714 -39.58688219 266.9147981 -34.625 271.97021484 C-28.88854932 277.8106919 -23.1438683 283.64276183 -17.38318634 289.45934486 C-15.08134608 291.79076948 -12.79238104 294.13433044 -10.50384521 296.47880554 C-9.08223472 297.91815525 -7.66008254 299.35697021 -6.23730469 300.79516602 C-5.60844864 301.44625839 -4.97959259 302.09735077 -4.3316803 302.76817322 C0.55038708 307.66423283 5.52299633 311.16607903 12.43359375 312.34912109 C20.94301919 312.33849759 26.63268784 310.94584896 32.9375 305.10302734 C38.49592258 299.09031061 39.48644567 293.43011163 39.3125 285.39599609 C38.84674123 278.90448326 36.13078999 273.5527566 31.33203125 269.13037109 C29.95921924 267.9593651 28.58141189 266.79419543 27.19921875 265.63427734 C25.14366367 263.79937507 23.40024356 261.88700812 21.625 259.78271484 C18.75478681 256.40065777 15.67439074 253.56598309 12.30078125 250.69677734 C5.70863138 244.89757907 -0.24773596 238.50798163 -5.875 231.78271484 C-7.34626369 230.10252357 -7.34626369 230.10252357 -8.875 228.78271484 C-9.535 228.78271484 -10.195 228.78271484 -10.875 228.78271484 C-10.875 228.12271484 -10.875 227.46271484 -10.875 226.78271484 C-12.20833333 225.11604818 -12.20833333 225.11604818 -13.875 223.78271484 C-14.535 223.78271484 -15.195 223.78271484 -15.875 223.78271484 C-15.875 223.12271484 -15.875 222.46271484 -15.875 221.78271484 C-17.42883147 220.25033933 -17.42883147 220.25033933 -19.4375 218.65771484 C-23.10055783 215.55770654 -26.17084352 212.23902927 -29.265625 208.58349609 C-31.25986421 206.35207795 -33.45810217 204.54045872 -35.875 202.78271484 C-35.29656717 199.63828712 -34.47265046 198.00846373 -32.20684814 195.76725769 C-31.6405368 195.19971268 -31.07422546 194.63216766 -30.49075317 194.04742432 C-29.55415359 193.13171661 -29.55415359 193.13171661 -28.59863281 192.19750977 C-27.61559677 191.21863548 -27.61559677 191.21863548 -26.61270142 190.21998596 C-24.44123727 188.06082167 -22.25957355 185.91225579 -20.078125 183.76318359 C-18.56615887 182.26189508 -17.05500037 180.75979279 -15.5446167 179.25691223 C-11.56114812 175.29625591 -7.56965404 171.34379948 -3.57556152 167.39385986 C2.80464312 161.08373418 9.17755199 154.76632417 15.54117584 148.43947792 C17.7618669 146.23542933 19.98891519 144.03795246 22.2164917 141.84086609 C23.58827943 140.47954729 24.95981369 139.11797302 26.33105469 137.75610352 C26.94735748 137.15170441 27.56366028 136.5473053 28.19863892 135.92459106 C34.91380236 129.22786847 39.22482098 123.71933638 39.375 113.97021484 C39.30143453 106.41136243 37.41551383 101.37554375 32.125 95.78271484 C26.37715741 90.75335257 19.14036255 89.61553609 11.6640625 89.86474609 C-0.98230163 91.88372703 -10.85697605 105.50589136 -19.41015625 114.12255859 C-20.8990104 115.61514878 -22.3883111 117.10729366 -23.8780365 118.59901428 C-27.77369357 122.50226128 -31.66330354 126.41147938 -35.55163574 130.32202148 C-39.53010022 134.32104493 -43.5143223 138.31432319 -47.49804688 142.30810547 C-55.29597323 150.12739976 -63.08751592 157.95302165 -70.875 165.78271484 C-74.01151224 164.39385075 -76.11130749 162.78312286 -78.51025391 160.34277344 C-79.20422272 159.64219818 -79.89819153 158.94162292 -80.6131897 158.21981812 C-81.35185272 157.46455841 -82.09051575 156.70929871 -82.8515625 155.93115234 C-83.61802094 155.15712067 -84.38447937 154.38308899 -85.17416382 153.58560181 C-87.62095872 151.11437541 -90.06121364 148.63684348 -92.5 146.15771484 C-95.71570188 142.88904847 -98.93779057 139.62688229 -102.1640625 136.36865234 C-103.27812973 135.22969009 -103.27812973 135.22969009 -104.41470337 134.06771851 C-105.10236786 133.37344757 -105.79003235 132.67917664 -106.49853516 131.96386719 C-107.10380035 131.34812836 -107.70906555 130.73238953 -108.33267212 130.09799194 C-109.79079729 128.56642195 -109.79079729 128.56642195 -111.875 128.78271484 C-112.12636719 128.19361328 -112.37773437 127.60451172 -112.63671875 126.99755859 C-114.02955401 124.50627282 -115.4958572 123.1597107 -117.6875 121.34521484 C-121.62194255 118.06524436 -125.1805027 114.50823969 -128.76831055 110.85473633 C-130.94629075 108.63983692 -133.12930074 106.42996909 -135.3125 104.22021484 C-136.05048828 103.46546875 -136.78847656 102.71072266 -137.54882812 101.93310547 C-148.53297239 90.85132437 -161.19878388 85.67545286 -175.75 94.53271484 Z " fill="#000000" transform="translate(284.875,11.21728515625)"/>
</svg>
