<?xml version="1.0" encoding="UTF-8"?>
<svg version="1.1" xmlns="http://www.w3.org/2000/svg" width="638" height="638">
<path d="M0 0 C1.05123047 0.17160645 2.10246094 0.34321289 3.18554688 0.52001953 C19.15162037 3.16448908 34.61318532 6.9995355 50 12 C51.50530273 12.48678223 51.50530273 12.48678223 53.04101562 12.98339844 C96.08901757 27.13635388 139.05857286 51.70207473 170.66796875 84.671875 C172.10692696 86.17038183 172.10692696 86.17038183 174.4375 87.8125 C174.953125 88.204375 175.46875 88.59625 176 89 C176 89.66 176 90.32 176 91 C176.66 91 177.32 91 178 91 C179.3046875 92.29296875 179.3046875 92.29296875 180.875 94.1875 C183.55205381 97.3522986 186.31212433 100.39931493 189.17163086 103.40039062 C238.03111794 154.95899255 268.87581776 231.11617583 269.203125 302.09765625 C269.21018463 303.12175598 269.21724426 304.14585571 269.22451782 305.20098877 C269.45211628 347.90945578 269.45211628 347.90945578 266 367 C265.80132324 368.1348584 265.60264648 369.2697168 265.39794922 370.43896484 C254.553582 430.91560448 226.71442682 493.85629909 181.3046875 536.66796875 C179.75188784 538.17073632 179.75188784 538.17073632 178 541 C177.34 541 176.68 541 176 541 C175.73960937 541.59683594 175.47921875 542.19367187 175.2109375 542.80859375 C173.91099639 545.16106783 172.6882846 546.36050785 170.625 548.0625 C167.21423298 550.93312776 163.97671845 553.9241055 160.75 557 C116.95992005 597.68869852 58.39133922 622.31953941 0 632 C-1.44415283 632.24991699 -1.44415283 632.24991699 -2.91748047 632.50488281 C-34.13213213 637.71001893 -68.84037498 637.36963948 -100 632 C-101.05123047 631.82839355 -102.10246094 631.65678711 -103.18554688 631.47998047 C-164.84884374 621.26665466 -228.28176994 592.32382186 -271.66796875 546.3046875 C-273.17073632 544.75188784 -273.17073632 544.75188784 -276 543 C-276 542.34 -276 541.68 -276 541 C-276.99 540.67 -277.98 540.34 -279 540 C-280.4375 538.57421875 -280.4375 538.57421875 -282 536.6875 C-284.89313346 533.25793137 -287.90434317 529.99767569 -291 526.75 C-331.56886922 483.142745 -355.7235418 424.97351061 -366 367 C-366.18079102 366.00387695 -366.36158203 365.00775391 -366.54785156 363.98144531 C-371.98357519 332.45857089 -371.66750949 296.45878459 -366 265 C-365.80664062 263.88109375 -365.61328125 262.7621875 -365.4140625 261.609375 C-360.7302171 235.12540964 -352.95552532 209.55994345 -342 185 C-341.61231445 184.1244043 -341.22462891 183.24880859 -340.82519531 182.34667969 C-326.58440404 150.49442664 -306.52353271 121.52738162 -282.32666016 96.44628906 C-280.85616471 94.89619316 -280.85616471 94.89619316 -279.23046875 92.5859375 C-278.62138672 91.80089844 -278.62138672 91.80089844 -278 91 C-277.34 91 -276.68 91 -276 91 C-275.505 89.515 -275.505 89.515 -275 88 C-273.57421875 86.5625 -273.57421875 86.5625 -271.6875 85 C-268.2052136 82.05912915 -264.87544913 79.0054175 -261.5625 75.875 C-217.1775945 34.85805481 -159.14375283 9.80520015 -100 0 C-99.03723145 -0.16661133 -98.07446289 -0.33322266 -97.08251953 -0.50488281 C-65.86786787 -5.71001893 -31.15962502 -5.36963948 0 0 Z " fill="#0D0D0D" transform="translate(369,3)"/>
<path d="M0 0 C1.25179536 -0.00260775 2.50359073 -0.00521549 3.79331928 -0.00790226 C5.1901444 -0.00574001 6.58696938 -0.00348335 7.98379421 -0.0011425 C9.46163691 -0.00229401 10.93947933 -0.00388174 12.41732115 -0.00586975 C16.48845302 -0.01005892 20.55956157 -0.00797422 24.63069355 -0.00488353 C29.01722476 -0.00262801 33.40375185 -0.00610979 37.79028225 -0.00886345 C46.3872189 -0.01331838 54.98414684 -0.01234593 63.58108384 -0.00945081 C70.56516916 -0.00719584 77.54925202 -0.00688466 84.53333759 -0.00797462 C85.525933 -0.00812786 86.51852841 -0.00828109 87.54120247 -0.00843897 C89.5573924 -0.00875868 91.57358234 -0.00908289 93.58977228 -0.00941156 C112.51105484 -0.0122655 131.43233256 -0.00898059 150.35361432 -0.00361119 C166.60415828 0.00085746 182.85469509 0.00008024 199.10523891 -0.00452995 C217.95864732 -0.00987603 236.81205147 -0.01199155 255.66546053 -0.00891769 C257.67408272 -0.00859913 259.68270491 -0.00828476 261.6913271 -0.00797462 C262.67971218 -0.00782035 263.66809727 -0.00766607 264.68643342 -0.00750712 C271.6661299 -0.00664212 278.64582369 -0.00810447 285.62551975 -0.01045418 C294.12559879 -0.01325272 302.62566858 -0.01251274 311.12574656 -0.00717343 C315.46616647 -0.00453726 319.80657096 -0.00352996 324.14699078 -0.00682259 C328.11491007 -0.00978722 332.08279953 -0.00818991 336.05071609 -0.00284503 C337.4914328 -0.00172158 338.93215199 -0.00231047 340.37286711 -0.00472082 C342.32080641 -0.00773153 344.26875269 -0.00406643 346.21669006 0 C347.30182343 0.00016235 348.3869568 0.0003247 349.50497299 0.00049198 C352.04542446 0.12584114 352.04542446 0.12584114 354.04542446 1.12584114 C354.04542446 1.78584114 354.04542446 2.44584114 354.04542446 3.12584114 C354.91167446 3.18771614 354.91167446 3.18771614 355.79542446 3.25084114 C359.37293766 4.64209627 360.30542034 6.76583318 362.04542446 10.12584114 C363.3645371 15.44025178 363.5499853 20.11671947 361.04542446 25.12584114 C360.05542446 25.45584114 359.06542446 25.78584114 358.04542446 26.12584114 C357.73604946 27.05396614 357.42667446 27.98209114 357.10792446 28.93834114 C355.94437139 32.42900037 354.63534561 33.61685503 352.04542446 36.12584114 C350.7910626 38.75807076 350.7910626 38.75807076 350.04542446 41.12584114 C349.38542446 41.12584114 348.72542446 41.12584114 348.04542446 41.12584114 C347.80952602 41.64920052 347.57362759 42.17255989 347.33058071 42.71177864 C345.63219294 45.90206326 343.5645738 48.80430432 341.48292446 51.75084114 C338.55125761 55.80721135 338.55125761 55.80721135 336.04542446 60.12584114 C335.38542446 60.12584114 334.72542446 60.12584114 334.04542446 60.12584114 C333.66063931 61.20285286 333.66063931 61.20285286 333.26808071 62.30162239 C331.97122224 65.29724115 330.39596073 67.67343097 328.48292446 70.31334114 C326.07341807 73.60462437 326.07341807 73.60462437 324.04542446 77.12584114 C323.38542446 77.12584114 322.72542446 77.12584114 322.04542446 77.12584114 C321.79534634 77.83998177 321.54526821 78.55412239 321.28761196 79.28990364 C319.92138675 82.40902157 318.22782328 84.79128572 316.17042446 87.50084114 C313.12656685 91.59067891 310.44256834 95.63119638 308.04542446 100.12584114 C307.38542446 100.12584114 306.72542446 100.12584114 306.04542446 100.12584114 C305.64323696 100.93021614 305.64323696 100.93021614 305.23292446 101.75084114 C304.84104946 102.53459114 304.44917446 103.31834114 304.04542446 104.12584114 C303.65354946 105.01271614 303.26167446 105.89959114 302.85792446 106.81334114 C300.83120401 110.51734748 298.39129221 113.58661047 295.75636196 116.87193489 C294.2167357 118.900164 292.95125792 120.89528328 291.73292446 123.12584114 C290.04542446 126.12584114 290.04542446 126.12584114 288.04542446 127.12584114 C287.71542446 128.11584114 287.38542446 129.10584114 287.04542446 130.12584114 C286.38542446 130.12584114 285.72542446 130.12584114 285.04542446 130.12584114 C284.76996792 130.70688606 284.49451138 131.28793098 284.21070766 131.88658333 C283.07926891 134.06080421 281.83049163 135.96578622 280.40089321 137.95396614 C279.88849087 138.67197395 279.37608852 139.38998177 278.84815884 140.12974739 C278.04861782 141.2415638 278.04861782 141.2415638 277.23292446 142.37584114 C273.64400623 147.37104748 270.20593554 152.35999699 267.11695766 157.68345833 C266.76335171 158.15944466 266.40974575 158.63543098 266.04542446 159.12584114 C265.38542446 159.12584114 264.72542446 159.12584114 264.04542446 159.12584114 C263.70511196 160.11584114 263.70511196 160.11584114 263.35792446 161.12584114 C261.65754296 165.01242742 259.64919362 168.76263931 257.04542446 172.12584114 C256.38542446 172.12584114 255.72542446 172.12584114 255.04542446 172.12584114 C254.61229946 172.99209114 254.61229946 172.99209114 254.17042446 173.87584114 C253.12875779 175.95917447 252.08709113 178.04250781 251.04542446 180.12584114 C250.38542446 180.12584114 249.72542446 180.12584114 249.04542446 180.12584114 C248.94229946 180.68271614 248.83917446 181.23959114 248.73292446 181.81334114 C247.90364038 184.60275124 246.7024339 186.73974754 245.04542446 189.12584114 C244.38542446 189.12584114 243.72542446 189.12584114 243.04542446 189.12584114 C242.71542446 190.44584114 242.38542446 191.76584114 242.04542446 193.12584114 C241.38542446 193.12584114 240.72542446 193.12584114 240.04542446 193.12584114 C239.66063931 193.9437513 239.66063931 193.9437513 239.26808071 194.77818489 C237.30957428 198.53876753 234.91966875 202.01915083 232.60401821 205.56724739 C230.92913532 208.10225174 230.92913532 208.10225174 230.04542446 211.12584114 C229.38542446 211.12584114 228.72542446 211.12584114 228.04542446 211.12584114 C225.65079133 217.70876378 225.74585036 224.02346466 225.74244595 230.97422981 C225.72978695 232.89733231 225.72978695 232.89733231 225.71687222 234.85928535 C225.69866759 237.63604644 225.68658217 240.4127412 225.67933369 243.18955231 C225.66780408 247.58093052 225.64233091 251.97216189 225.6150198 256.36346626 C225.57345472 263.30705663 225.54099864 270.25065415 225.51254565 277.19430953 C225.46147892 289.63687159 225.39936389 302.07937205 225.32720524 314.52182943 C225.30231006 318.88697735 225.28286703 323.25210588 225.2678231 327.61729848 C225.26007361 329.67704869 225.25014628 331.7367748 225.23927212 333.7965107 C225.22612225 336.30733266 225.21651695 338.81817664 225.21108913 341.32902718 C225.20074139 342.98810349 225.20074139 342.98810349 225.19018459 344.68069649 C225.18632968 345.64133098 225.18247477 346.60196547 225.17850304 347.59171009 C225.05643369 349.91619932 224.70365892 351.90066139 224.04542446 354.12584114 C223.38542446 354.12584114 222.72542446 354.12584114 222.04542446 354.12584114 C221.98354946 354.74459114 221.92167446 355.36334114 221.85792446 356.00084114 C221.04542446 358.12584114 221.04542446 358.12584114 218.48292446 359.37584114 C217.67854946 359.62334114 216.87417446 359.87084114 216.04542446 360.12584114 C216.04542446 360.78584114 216.04542446 361.44584114 216.04542446 362.12584114 C211.7792613 363.26348465 208.48056135 364.12584114 204.04542446 364.12584114 C204.04542446 364.78584114 204.04542446 365.44584114 204.04542446 366.12584114 C201.73542446 366.45584114 199.42542446 366.78584114 197.04542446 367.12584114 C197.04542446 367.78584114 197.04542446 368.44584114 197.04542446 369.12584114 C195.93683071 369.46357552 194.82823696 369.80130989 193.68604946 370.14927864 C192.22245148 370.59961648 190.75891291 371.05014747 189.29542446 371.50084114 C188.56581509 371.72255989 187.83620571 371.94427864 187.08448696 372.17271614 C182.83499421 373.48552217 182.83499421 373.48552217 178.77979946 375.28990364 C177.04542446 376.12584114 177.04542446 376.12584114 173.04542446 376.12584114 C173.04542446 376.78584114 173.04542446 377.44584114 173.04542446 378.12584114 C171.60988421 378.63144022 170.17190427 379.13011604 168.73292446 379.62584114 C167.53216274 380.04349739 167.53216274 380.04349739 166.30714321 380.46959114 C164.04542446 381.12584114 164.04542446 381.12584114 161.04542446 381.12584114 C161.04542446 381.78584114 161.04542446 382.44584114 161.04542446 383.12584114 C156.7792613 384.26348465 153.48056135 385.12584114 149.04542446 385.12584114 C149.04542446 385.78584114 149.04542446 386.44584114 149.04542446 387.12584114 C143.06238669 389.78496904 137.60955408 391.41373999 131.04542446 390.12584114 C127.10021322 388.15323552 123.94018878 385.93892177 121.9608469 381.92813778 C120.88567996 378.63683033 120.79944936 375.95106845 120.80491543 372.48831367 C120.80320658 371.83475673 120.80149773 371.18119978 120.7997371 370.50783807 C120.79645249 368.32594955 120.80742863 366.14437108 120.81837368 363.96251106 C120.81893802 362.39529108 120.81862079 360.82807058 120.81748867 359.26085091 C120.81691504 355.01123611 120.82867109 350.7617343 120.84263659 346.51214576 C120.85514214 342.06919983 120.85631431 337.62625129 120.8586874 333.18329048 C120.86490268 324.77213979 120.88131416 316.36104111 120.90138638 307.94991332 C120.92374387 298.37320333 120.93473844 288.79649085 120.94477725 279.21976125 C120.96568033 259.52175886 121.00085727 239.82380328 121.04542446 220.12584114 C120.38542446 220.12584114 119.72542446 220.12584114 119.04542446 220.12584114 C115.78574337 210.71581836 115.78574337 210.71581836 115.04542446 206.12584114 C114.38542446 206.12584114 113.72542446 206.12584114 113.04542446 206.12584114 C109.04542446 200.71407643 109.04542446 200.71407643 109.04542446 198.12584114 C108.38542446 198.12584114 107.72542446 198.12584114 107.04542446 198.12584114 C105.64308071 196.26255989 105.64308071 196.26255989 104.10792446 193.81334114 C101.99901011 190.46064191 101.99901011 190.46064191 99.39698696 187.50084114 C97.50945493 185.58057734 97.39817575 183.73620066 97.04542446 181.12584114 C96.38542446 181.12584114 95.72542446 181.12584114 95.04542446 181.12584114 C94.71542446 179.80584114 94.38542446 178.48584114 94.04542446 177.12584114 C93.38542446 177.12584114 92.72542446 177.12584114 92.04542446 177.12584114 C91.08643572 175.79010683 90.14073953 174.44283741 89.26417446 173.05162239 C87.3349369 170.00317971 85.26010645 167.05216048 83.21729946 164.07896614 C82.04542446 162.12584114 82.04542446 162.12584114 82.04542446 160.12584114 C81.38542446 160.12584114 80.72542446 160.12584114 80.04542446 160.12584114 C74.85054637 153.76659382 70.59355252 146.51777459 67.04542446 139.12584114 C66.38542446 139.12584114 65.72542446 139.12584114 65.04542446 139.12584114 C63.87978046 137.30880784 62.72446646 135.48439063 61.61964321 133.62974739 C59.17426575 129.74020161 56.3830598 126.11368249 53.61964321 122.44615364 C52.04542446 120.12584114 52.04542446 120.12584114 52.04542446 118.12584114 C51.38542446 118.12584114 50.72542446 118.12584114 50.04542446 118.12584114 C49.44729946 117.05334114 48.84917446 115.98084114 48.23292446 114.87584114 C47.00984419 112.72130473 45.79520704 110.79519669 44.29542446 108.81334114 C43.04542446 107.12584114 43.04542446 107.12584114 43.04542446 105.12584114 C42.38542446 105.12584114 41.72542446 105.12584114 41.04542446 105.12584114 C39.1308606 102.47015578 37.40858781 99.76505388 35.79151821 96.91880989 C33.43272429 93.145795 30.74487714 89.6599072 28.04542446 86.12584114 C24.81541886 81.89718647 21.70568959 77.74541265 19.04542446 73.12584114 C18.21011196 72.04302864 18.21011196 72.04302864 17.35792446 70.93834114 C16.04542446 69.12584114 16.04542446 69.12584114 16.04542446 67.12584114 C15.38542446 67.12584114 14.72542446 67.12584114 14.04542446 67.12584114 C13.71542446 65.80584114 13.38542446 64.48584114 13.04542446 63.12584114 C12.38542446 63.12584114 11.72542446 63.12584114 11.04542446 63.12584114 C9.81886196 61.32505989 9.81886196 61.32505989 8.42042446 58.81334114 C5.01162176 52.94262537 1.08181828 47.57603315 -2.95457554 42.12584114 C-4.77768962 39.65426854 -6.58790678 37.17376817 -8.39207554 34.68834114 C-8.82938999 34.09698372 -9.26670444 33.5056263 -9.71727085 32.89634895 C-11.77506037 30.05324309 -13.47768606 27.65482327 -13.95457554 24.12584114 C-14.61457554 24.12584114 -15.27457554 24.12584114 -15.95457554 24.12584114 C-17.91704035 20.20091152 -17.29694303 15.41477213 -16.95457554 11.12584114 C-15.22711841 6.9435765 -12.30329411 4.13968786 -8.95457554 1.12584114 C-5.72234637 0.04843142 -3.3999634 0.00050861 0 0 Z " fill="#FEFEFE" transform="translate(140.95457553863525,123.87415885925293)"/>
</svg>
