<?xml version="1.0" encoding="UTF-8"?>
<svg version="1.1" xmlns="http://www.w3.org/2000/svg" width="638" height="638">
<path d="M0 0 C1.05123047 0.17160645 2.10246094 0.34321289 3.18554688 0.52001953 C19.15162037 3.16448908 34.61318532 6.9995355 50 12 C51.50530273 12.48678223 51.50530273 12.48678223 53.04101562 12.98339844 C96.08901757 27.13635388 139.05857286 51.70207473 170.66796875 84.671875 C172.10692696 86.17038183 172.10692696 86.17038183 174.4375 87.8125 C174.953125 88.204375 175.46875 88.59625 176 89 C176 89.66 176 90.32 176 91 C176.66 91 177.32 91 178 91 C179.3046875 92.29296875 179.3046875 92.29296875 180.875 94.1875 C183.55205381 97.3522986 186.31212433 100.39931493 189.17163086 103.40039062 C238.03111794 154.95899255 268.87581776 231.11617583 269.203125 302.09765625 C269.21018463 303.12175598 269.21724426 304.14585571 269.22451782 305.20098877 C269.45211628 347.90945578 269.45211628 347.90945578 266 367 C265.80132324 368.1348584 265.60264648 369.2697168 265.39794922 370.43896484 C254.553582 430.91560448 226.71442682 493.85629909 181.3046875 536.66796875 C179.75188784 538.17073632 179.75188784 538.17073632 178 541 C177.34 541 176.68 541 176 541 C175.73960937 541.59683594 175.47921875 542.19367187 175.2109375 542.80859375 C173.91099639 545.16106783 172.6882846 546.36050785 170.625 548.0625 C167.21423298 550.93312776 163.97671845 553.9241055 160.75 557 C116.95992005 597.68869852 58.39133922 622.31953941 0 632 C-1.44415283 632.24991699 -1.44415283 632.24991699 -2.91748047 632.50488281 C-34.13213213 637.71001893 -68.84037498 637.36963948 -100 632 C-101.05123047 631.82839355 -102.10246094 631.65678711 -103.18554688 631.47998047 C-164.84884374 621.26665466 -228.28176994 592.32382186 -271.66796875 546.3046875 C-273.17073632 544.75188784 -273.17073632 544.75188784 -276 543 C-276 542.34 -276 541.68 -276 541 C-276.99 540.67 -277.98 540.34 -279 540 C-280.4375 538.57421875 -280.4375 538.57421875 -282 536.6875 C-284.89313346 533.25793137 -287.90434317 529.99767569 -291 526.75 C-331.56886922 483.142745 -355.7235418 424.97351061 -366 367 C-366.18079102 366.00387695 -366.36158203 365.00775391 -366.54785156 363.98144531 C-371.98357519 332.45857089 -371.66750949 296.45878459 -366 265 C-365.80664062 263.88109375 -365.61328125 262.7621875 -365.4140625 261.609375 C-360.7302171 235.12540964 -352.95552532 209.55994345 -342 185 C-341.61231445 184.1244043 -341.22462891 183.24880859 -340.82519531 182.34667969 C-326.58440404 150.49442664 -306.52353271 121.52738162 -282.32666016 96.44628906 C-280.85616471 94.89619316 -280.85616471 94.89619316 -279.23046875 92.5859375 C-278.62138672 91.80089844 -278.62138672 91.80089844 -278 91 C-277.34 91 -276.68 91 -276 91 C-275.505 89.515 -275.505 89.515 -275 88 C-273.57421875 86.5625 -273.57421875 86.5625 -271.6875 85 C-268.2052136 82.05912915 -264.87544913 79.0054175 -261.5625 75.875 C-217.1775945 34.85805481 -159.14375283 9.80520015 -100 0 C-99.03723145 -0.16661133 -98.07446289 -0.33322266 -97.08251953 -0.50488281 C-65.86786787 -5.71001893 -31.15962502 -5.36963948 0 0 Z " fill="#0D0D0D" transform="translate(369,3)"/>
<path d="M0 0 C8.25 0 16.5 0 25 0 C25 0.66 25 1.32 25 2 C28.63 2.33 32.26 2.66 36 3 C36 3.66 36 4.32 36 5 C37.32 5 38.64 5 40 5 C40 5.66 40 6.32 40 7 C40.78375 7.04125 41.5675 7.0825 42.375 7.125 C56.609254 10.56085441 67.46970117 24.30775765 77.36816406 34.40429688 C78.20879395 35.25797852 78.20879395 35.25797852 79.06640625 36.12890625 C79.56084229 36.63494385 80.05527832 37.14098145 80.56469727 37.66235352 C82.1675317 39.22831402 82.1675317 39.22831402 85 41 C85 41.66 85 42.32 85 43 C85.66 43 86.32 43 87 43 C87 43.66 87 44.32 87 45 C87.99 45 88.98 45 90 45 C90 45.66 90 46.32 90 47 C92.18636304 47.10916653 94.37434574 47.18611228 96.5625 47.25 C98.38974609 47.31960937 98.38974609 47.31960937 100.25390625 47.390625 C107.65111651 46.61927878 112.36082063 42.0660545 117.30078125 36.921875 C117.86323044 36.35043762 118.42567963 35.77900024 119.00517273 35.19024658 C120.7817129 33.38393493 122.54786993 31.56794288 124.3125 29.75 C126.09592746 27.91877428 127.88154026 26.08989791 129.67338562 24.26690674 C130.78368473 23.13680753 131.88901517 22.00180105 132.98884583 20.86151123 C134.28829539 19.53639051 135.63979479 18.26267806 137 17 C137.66 17 138.32 17 139 17 C139 16.34 139 15.68 139 15 C141.30078125 13.2734375 141.30078125 13.2734375 144.3125 11.375 C145.29863281 10.74335938 146.28476562 10.11171875 147.30078125 9.4609375 C150 8 150 8 153 8 C153 7.34 153 6.68 153 6 C163.54315349 1.53943506 174.20241435 0.6656951 185.5625 0.75 C187.13161133 0.73839844 187.13161133 0.73839844 188.73242188 0.7265625 C195.68818461 0.74383317 202.20532634 1.52058934 209 3 C209 3.66 209 4.32 209 5 C212.96 5.495 212.96 5.495 217 6 C217 6.66 217 7.32 217 8 C217.721875 8.103125 218.44375 8.20625 219.1875 8.3125 C222.27793421 9.06793947 224.41743841 10.15531315 227 12 C227 12.66 227 13.32 227 14 C227.87011719 14.39638672 227.87011719 14.39638672 228.7578125 14.80078125 C235.0759815 18.18001101 240.91646613 24.13765403 245 30 C245 30.66 245 31.32 245 32 C245.66 32 246.32 32 247 32 C250.12389348 36.555678 252 40.45108875 252 46 C252.66 46 253.32 46 254 46 C254.4898355 47.47566795 254.9661592 48.95582103 255.4375 50.4375 C255.70433594 51.26121094 255.97117187 52.08492187 256.24609375 52.93359375 C259.66892767 66.85548299 259.19554512 82.39165159 255 96 C254.64764458 97.66274909 254.30852682 99.32856346 254 101 C253.34 101 252.68 101 252 101 C251.89816406 101.86882812 251.79632813 102.73765625 251.69140625 103.6328125 C250.95465207 107.22084698 249.75250461 109.70839622 247.9375 112.875 C247.38964844 113.84179688 246.84179688 114.80859375 246.27734375 115.8046875 C245.64505859 116.89136719 245.64505859 116.89136719 245 118 C244.34 118 243.68 118 243 118 C242.78859375 118.69351563 242.5771875 119.38703125 242.359375 120.1015625 C240.59109439 123.87186196 238.12228835 126.40267738 235.25 129.375 C234.15523925 130.53029305 233.06147698 131.68653314 231.96875 132.84375 C231.44925781 133.39160156 230.92976563 133.93945312 230.39453125 134.50390625 C228.77645878 136.23982154 227.25253988 138.03856237 225.75 139.875 C223.11489942 143.01239248 220.1207434 145.60039271 217.00390625 148.25 C215.08033286 149.92984577 213.28686504 151.67650219 211.5 153.5 C208.40589653 156.65074609 205.14197182 159.54574857 201.79296875 162.421875 C200.34479809 163.69651758 198.97133859 165.05573144 197.625 166.4375 C196 168 196 168 194 168 C194 168.66 194 169.32 194 170 C192.20703125 171.55078125 192.20703125 171.55078125 189.8125 173.3125 C186.21823593 175.96498343 183.12959856 178.81297762 180 182 C178.11677946 183.78424076 176.22084464 185.55515671 174.3125 187.3125 C173.35988281 188.19550781 172.40726563 189.07851563 171.42578125 189.98828125 C169 192 169 192 167 192 C167 192.66 167 193.32 167 194 C165.00715862 195.3440093 163.00580329 196.67541292 161 198 C159.31126121 199.64429829 157.64694485 201.31384218 156 203 C154.61661882 204.28437711 153.22001286 205.55461463 151.8125 206.8125 C150.80123047 207.71935547 150.80123047 207.71935547 149.76953125 208.64453125 C148 210 148 210 146 210 C146 210.66 146 211.32 146 212 C141.52941176 216 141.52941176 216 139 216 C139 216.66 139 217.32 139 218 C137.27734375 219.515625 137.27734375 219.515625 134.9375 221.25 C131.87740796 223.55230899 128.92565418 225.89448754 126.0625 228.4375 C123 231 123 231 121 231 C121 231.66 121 232.32 121 233 C119.51143934 234.33264423 117.95696355 235.59219479 116.375 236.8125 C113.3624155 239.15514716 110.38174874 241.49818331 107.5 244 C105 246 105 246 103 246 C103 246.66 103 247.32 103 248 C101.75 249.6875 101.75 249.6875 100 251 C95.79760755 250.72230887 93.54565408 247.98134697 90.625 245.1875 C86.93794807 241.67181809 83.26562861 238.78011599 79 236 C77.33333333 234.33333333 75.66666667 232.66666667 74 231 C71.78847368 229.24129077 69.54548697 227.53395506 67.28125 225.84375 C64.66384003 223.72830906 62.37538463 221.38267108 60 219 C58.27079138 217.51707261 56.52019398 216.0587536 54.75 214.625 C53.79480469 213.84898437 52.83960938 213.07296875 51.85546875 212.2734375 C49.28477357 210.22672806 46.68221843 208.2331918 44.0625 206.25 C40.83879797 203.77506564 38.51116645 201.20390202 36 198 C35.09765625 197.40574219 34.1953125 196.81148437 33.265625 196.19921875 C29.82618098 193.88294246 26.93742245 191.34121687 23.9375 188.5 C20.40190633 185.17717573 16.8050925 182.01399938 13 179 C11.33333333 177.33333333 9.66666667 175.66666667 8 174 C4.52046904 170.85354023 0.99261073 167.784855 -2.6875 164.875 C-5.31373185 162.74562283 -7.60949325 160.39050675 -10 158 C-11.18097662 156.99230437 -12.36881876 155.9926134 -13.5625 155 C-16.44429187 152.57257272 -18.66249826 149.96083553 -21 147 C-21.825 146.34 -22.65 145.68 -23.5 145 C-26 143 -26 143 -27.9375 140.5625 C-29.94597101 137.88020496 -29.94597101 137.88020496 -32.78125 135.76171875 C-36.20870148 132.94967782 -38.86603197 129.7526828 -41.5625 126.25 C-42.04066162 125.63600342 -42.51882324 125.02200684 -43.01147461 124.3894043 C-46.09156249 120.36751931 -48.80296094 116.29830727 -51.09765625 111.76953125 C-52.08935256 109.74011312 -52.08935256 109.74011312 -54 107 C-54 106.01 -54 105.02 -54 104 C-54.66 104 -55.32 104 -56 104 C-56.33 101.36 -56.66 98.72 -57 96 C-57.66 96 -58.32 96 -59 96 C-60.89043342 88.15132554 -61.2188968 80.47832466 -61.25 72.4375 C-61.25902344 71.48093506 -61.26804688 70.52437012 -61.27734375 69.53881836 C-61.23558415 59.36426461 -59.83174245 50.02505648 -55 41 C-54.47792969 40.01257813 -53.95585937 39.02515625 -53.41796875 38.0078125 C-49.68538753 31.45418568 -45.54783975 26.08719301 -40.25 20.75 C-39.69513916 20.18893555 -39.14027832 19.62787109 -38.56860352 19.04980469 C-35.78524213 16.35267409 -33.80299105 14.7221387 -30 14 C-30 13.34 -30 12.68 -30 12 C-28.68 11.67 -27.36 11.34 -26 11 C-26 10.34 -26 9.68 -26 9 C-24.02 8.67 -22.04 8.34 -20 8 C-20 7.34 -20 6.68 -20 6 C-17.36 5.67 -14.72 5.34 -12 5 C-12 4.34 -12 3.68 -12 3 C-6.06 2.505 -6.06 2.505 0 2 C0 1.34 0 0.68 0 0 Z " fill="#0D0D0D" transform="translate(220,191)"/>
<path d="M0 0 C0.68139542 -0.00095673 1.36279083 -0.00191345 2.06483459 -0.00289917 C3.49594211 -0.00357504 4.9270528 -0.00176248 6.3581543 0.00244141 C8.52595035 0.00778979 10.69353847 0.00248044 12.86132812 -0.00390625 C30.54302528 -0.01421079 30.54302528 -0.01421079 36.41015625 2.4453125 C39.59566776 3.7320093 42.79585066 4.92437431 46.03515625 6.0703125 C50.99952761 7.8660837 55.81052156 9.9106364 60.59765625 12.1328125 C60.59765625 12.7928125 60.59765625 13.4528125 60.59765625 14.1328125 C61.27957031 14.19984375 61.96148437 14.266875 62.6640625 14.3359375 C66.54147411 15.38918912 69.36097569 17.51840674 72.53515625 19.8828125 C73.13005859 20.31335938 73.72496094 20.74390625 74.33789062 21.1875 C80.16092166 25.43863085 85.55818472 29.9607233 90.59765625 35.1328125 C91.36078125 35.8546875 92.12390625 36.5765625 92.91015625 37.3203125 C94.59765625 39.1328125 94.59765625 39.1328125 94.59765625 41.1328125 C95.58765625 41.1328125 96.57765625 41.1328125 97.59765625 41.1328125 C97.819375 40.58882812 98.04109375 40.04484375 98.26953125 39.484375 C100.02283143 36.38000232 102.34250178 34.00571382 104.84765625 31.5078125 C105.36980713 30.98582275 105.89195801 30.46383301 106.42993164 29.92602539 C124.73591724 12.1328125 124.73591724 12.1328125 133.59765625 12.1328125 C133.59765625 11.4728125 133.59765625 10.8128125 133.59765625 10.1328125 C135.17733432 9.45753027 136.76157528 8.79291556 138.34765625 8.1328125 C139.67023438 7.5759375 139.67023438 7.5759375 141.01953125 7.0078125 C143.59765625 6.1328125 143.59765625 6.1328125 147.59765625 6.1328125 C147.59765625 5.4728125 147.59765625 4.8128125 147.59765625 4.1328125 C151.22765625 3.8028125 154.85765625 3.4728125 158.59765625 3.1328125 C158.59765625 2.4728125 158.59765625 1.8128125 158.59765625 1.1328125 C181.0302271 -1.78601099 203.22454756 -0.3062377 224.59765625 7.1328125 C224.59765625 7.7928125 224.59765625 8.4528125 224.59765625 9.1328125 C225.13132812 9.27976563 225.665 9.42671875 226.21484375 9.578125 C243.81136741 14.87534839 261.35102737 29.76286918 271.47265625 44.9453125 C272.59765625 47.1328125 272.59765625 47.1328125 272.59765625 49.1328125 C273.25765625 49.1328125 273.91765625 49.1328125 274.59765625 49.1328125 C275.85430603 52.03881511 276.59765625 53.92885834 276.59765625 57.1328125 C277.23703125 57.3184375 277.87640625 57.5040625 278.53515625 57.6953125 C280.59765625 59.1328125 280.59765625 59.1328125 281.34765625 62.7578125 C281.43015625 63.8715625 281.51265625 64.9853125 281.59765625 66.1328125 C282.25765625 66.1328125 282.91765625 66.1328125 283.59765625 66.1328125 C284.20825078 68.02658538 284.81065045 69.92300014 285.41015625 71.8203125 C285.74660156 72.87605469 286.08304687 73.93179688 286.4296875 75.01953125 C286.82769288 76.38812985 287.21568858 77.75965151 287.59765625 79.1328125 C287.85861084 80.06399902 288.11956543 80.99518555 288.38842773 81.95458984 C290.58540232 90.49481255 291.10050824 98.58588967 291.03515625 107.3828125 C291.03358521 108.39397629 291.03358521 108.39397629 291.03198242 109.42556763 C290.99782761 120.09436107 289.97384756 129.98916629 286.59765625 140.1328125 C285.93765625 140.1328125 285.27765625 140.1328125 284.59765625 140.1328125 C284.49453125 140.9165625 284.39140625 141.7003125 284.28515625 142.5078125 C282.92018823 149.70491659 281.46943559 155.52288478 276.59765625 161.1328125 C276.08203125 162.2671875 275.56640625 163.4015625 275.03515625 164.5703125 C272.03371526 170.88659795 267.2651503 176.16640337 262.875 181.55615234 C261.75475674 182.93889909 260.65853135 184.3410328 259.56640625 185.74609375 C257.38694341 188.38826001 255.04631005 190.73754505 252.59765625 193.1328125 C251.47101112 194.26790072 250.34612374 195.40473533 249.22265625 196.54296875 C248.01436254 197.760456 246.80602853 198.97790324 245.59765625 200.1953125 C244.69273437 201.11280273 244.69273437 201.11280273 243.76953125 202.04882812 C240.52413765 205.31185973 237.24395489 208.3111185 233.59765625 211.1328125 C231.36373026 213.30795097 229.1854617 215.53056465 227.0078125 217.76171875 C223.29885976 221.52113343 219.4638114 225.04835178 215.45703125 228.48828125 C213.7974894 229.95606932 212.25407392 231.47133229 210.72265625 233.0703125 C208.59765625 235.1328125 208.59765625 235.1328125 206.59765625 235.1328125 C206.59765625 235.7928125 206.59765625 236.4528125 206.59765625 237.1328125 C204.60481487 238.4768218 202.60345954 239.80822542 200.59765625 241.1328125 C198.90768302 242.77584203 197.24549231 244.44752562 195.59765625 246.1328125 C190.12486439 251.24910207 184.50754571 256.04546669 178.55078125 260.5859375 C176.02928266 262.58296439 173.84173551 264.83119275 171.59765625 267.1328125 C170.21398692 268.41687918 168.81726946 269.68698008 167.41015625 270.9453125 C166.73597656 271.54988281 166.06179688 272.15445312 165.3671875 272.77734375 C163.59765625 274.1328125 163.59765625 274.1328125 161.59765625 274.1328125 C161.59765625 274.7928125 161.59765625 275.4528125 161.59765625 276.1328125 C160.27765625 276.4628125 158.95765625 276.7928125 157.59765625 277.1328125 C157.59765625 277.7928125 157.59765625 278.4528125 157.59765625 279.1328125 C155.98382677 280.58941227 154.30402409 281.97330201 152.59765625 283.3203125 C148.32189759 286.72988521 144.18666406 290.22272426 140.15625 293.91796875 C138.59765625 295.1328125 138.59765625 295.1328125 136.59765625 295.1328125 C136.59765625 295.7928125 136.59765625 296.4528125 136.59765625 297.1328125 C134.875 298.6484375 134.875 298.6484375 132.53515625 300.3828125 C129.47506421 302.68512149 126.52331043 305.02730004 123.66015625 307.5703125 C120.59765625 310.1328125 120.59765625 310.1328125 118.59765625 310.1328125 C118.59765625 310.7928125 118.59765625 311.4528125 118.59765625 312.1328125 C116.69921875 313.859375 116.69921875 313.859375 114.22265625 315.7578125 C113.00449219 316.70527344 113.00449219 316.70527344 111.76171875 317.671875 C109.59765625 319.1328125 109.59765625 319.1328125 107.59765625 319.1328125 C107.59765625 319.7928125 107.59765625 320.4528125 107.59765625 321.1328125 C105.94765625 321.4628125 104.29765625 321.7928125 102.59765625 322.1328125 C102.59765625 322.7928125 102.59765625 323.4528125 102.59765625 324.1328125 C98.30765625 324.1328125 94.01765625 324.1328125 89.59765625 324.1328125 C89.59765625 323.4728125 89.59765625 322.8128125 89.59765625 322.1328125 C88.85773438 322.04128906 88.1178125 321.94976562 87.35546875 321.85546875 C84.12948934 321.0101342 82.848119 319.87803392 80.47265625 317.5703125 C76.28631816 313.66399703 71.87521454 310.35333909 67.17578125 307.08984375 C64.38821415 304.9738269 62.05518182 302.62105714 59.59765625 300.1328125 C57.86692012 298.6721761 56.11634901 297.23474955 54.34765625 295.8203125 C50.85709717 292.99706618 47.43276341 290.13800798 44.09765625 287.1328125 C38.36033968 281.97128398 32.33084665 277.16724283 26.34375 272.30078125 C24.72386483 270.95578568 23.15401848 269.55083142 21.59765625 268.1328125 C21.59765625 267.4728125 21.59765625 266.8128125 21.59765625 266.1328125 C20.83453125 265.8646875 20.07140625 265.5965625 19.28515625 265.3203125 C16.60686164 264.13688 15.57468459 263.19925418 13.59765625 261.1328125 C8.5609949 256.53816762 3.30160424 252.27501462 -2.10546875 248.125 C-4.55891467 245.99701119 -6.38490237 243.66983637 -8.40234375 241.1328125 C-10.22177622 239.57657606 -10.22177622 239.57657606 -12.21484375 238.1953125 C-17.52377617 234.20257131 -22.27756092 229.67848041 -27.08520508 225.10766602 C-30.41677461 221.94802031 -33.78526179 218.96886083 -37.40234375 216.1328125 C-39.08945798 214.4868474 -40.75690595 212.82044101 -42.40234375 211.1328125 C-43.39234375 210.1428125 -43.39234375 210.1428125 -44.40234375 209.1328125 C-50.06901042 203.46614583 -55.73567708 197.79947917 -61.40234375 192.1328125 C-62.09328125 191.45089844 -62.78421875 190.76898438 -63.49609375 190.06640625 C-66.6239337 186.89369974 -69.49231352 183.50403055 -72.40234375 180.1328125 C-72.91796875 179.55660156 -73.43359375 178.98039063 -73.96484375 178.38671875 C-77.40234375 174.47070312 -77.40234375 174.47070312 -77.40234375 171.1328125 C-78.06234375 171.1328125 -78.72234375 171.1328125 -79.40234375 171.1328125 C-84.16352984 165.50100953 -86.98968566 159.01857392 -89.40234375 152.1328125 C-89.7586084 151.14716309 -89.7586084 151.14716309 -90.12207031 150.14160156 C-93.29737228 141.32394146 -95.9814681 132.87833416 -97.078125 123.5390625 C-97.27113675 121.12541614 -97.27113675 121.12541614 -98.40234375 119.1328125 C-98.6488631 114.78371394 -98.5875623 110.42559708 -98.58984375 106.0703125 C-98.60208984 104.86697266 -98.61433594 103.66363281 -98.62695312 102.42382812 C-98.63797973 95.69392525 -98.27573175 89.60141749 -96.40234375 83.1328125 C-96.19343506 82.3797583 -95.98452637 81.6267041 -95.76928711 80.85083008 C-95.12700169 78.58358884 -94.45754379 76.32644111 -93.77734375 74.0703125 C-93.43316406 72.91499023 -93.43316406 72.91499023 -93.08203125 71.73632812 C-92.52491261 69.86765935 -91.96403433 68.00011211 -91.40234375 66.1328125 C-90.74234375 66.1328125 -90.08234375 66.1328125 -89.40234375 66.1328125 C-89.31597656 65.11316406 -89.22960937 64.09351563 -89.140625 63.04296875 C-86.68761118 50.05108074 -73.04564649 35.86074655 -63.40234375 27.1328125 C-62.74234375 27.1328125 -62.08234375 27.1328125 -61.40234375 27.1328125 C-61.40234375 26.4728125 -61.40234375 25.8128125 -61.40234375 25.1328125 C-59.3327049 23.45293046 -57.27071238 21.90657948 -55.08984375 20.3828125 C-54.45554443 19.93542725 -53.82124512 19.48804199 -53.16772461 19.02709961 C-34.60787178 6.1328125 -34.60787178 6.1328125 -25.40234375 6.1328125 C-25.40234375 5.4728125 -25.40234375 4.8128125 -25.40234375 4.1328125 C-24.69207031 4.00003906 -23.98179687 3.86726562 -23.25 3.73046875 C-21.87134766 3.46556641 -21.87134766 3.46556641 -20.46484375 3.1953125 C-19.54832031 3.02128906 -18.63179688 2.84726563 -17.6875 2.66796875 C-15.44944531 2.35566262 -15.44944531 2.35566262 -14.40234375 1.1328125 C-9.56945975 0.26877795 -4.90305315 0.00441347 0 0 Z M-2.40234375 34.1328125 C-2.40234375 34.7928125 -2.40234375 35.4528125 -2.40234375 36.1328125 C-8.34234375 36.6278125 -8.34234375 36.6278125 -14.40234375 37.1328125 C-14.40234375 37.7928125 -14.40234375 38.4528125 -14.40234375 39.1328125 C-17.04234375 39.4628125 -19.68234375 39.7928125 -22.40234375 40.1328125 C-22.40234375 40.7928125 -22.40234375 41.4528125 -22.40234375 42.1328125 C-24.38234375 42.4628125 -26.36234375 42.7928125 -28.40234375 43.1328125 C-28.40234375 43.7928125 -28.40234375 44.4528125 -28.40234375 45.1328125 C-29.72234375 45.4628125 -31.04234375 45.7928125 -32.40234375 46.1328125 C-32.40234375 46.7928125 -32.40234375 47.4528125 -32.40234375 48.1328125 C-33.09714844 48.34292969 -33.79195312 48.55304688 -34.5078125 48.76953125 C-38.23574922 50.5253341 -40.85429126 53.05102211 -43.71484375 55.9453125 C-44.28517334 56.5220874 -44.85550293 57.0988623 -45.44311523 57.69311523 C-58.76547833 71.58872651 -63.60217718 87.37462126 -63.58984375 106.3203125 C-63.59048828 107.33810791 -63.59113281 108.35590332 -63.59179688 109.40454102 C-63.54188479 116.50510161 -63.07050954 123.2069456 -61.40234375 130.1328125 C-60.74234375 130.1328125 -60.08234375 130.1328125 -59.40234375 130.1328125 C-59.07234375 132.7728125 -58.74234375 135.4128125 -58.40234375 138.1328125 C-57.74234375 138.1328125 -57.08234375 138.1328125 -56.40234375 138.1328125 C-56.29921875 138.6690625 -56.19609375 139.2053125 -56.08984375 139.7578125 C-52.55541779 151.96764764 -42.21971083 164.47167246 -32.40234375 172.1328125 C-31.06901042 173.79947917 -29.73567708 175.46614583 -28.40234375 177.1328125 C-27.57734375 177.7928125 -26.75234375 178.4528125 -25.90234375 179.1328125 C-23.40234375 181.1328125 -23.40234375 181.1328125 -21.5859375 183.4765625 C-19.26626636 186.29834493 -16.83080322 188.37502473 -13.96484375 190.6328125 C-9.50516952 194.15589311 -5.53172274 197.92064988 -1.59375 202.01171875 C1.08962826 204.78518645 3.55653867 207.10540078 6.78515625 209.2578125 C9.59765625 211.1328125 9.59765625 211.1328125 11.44140625 213.47265625 C13.7140782 216.27644176 16.08651392 218.32977028 18.91015625 220.5703125 C22.70227641 223.61006794 26.44096994 226.68451769 30.11328125 229.8671875 C31.45459334 231.01083254 32.83662835 232.10629058 34.22265625 233.1953125 C36.59765625 235.1328125 36.59765625 235.1328125 38.91796875 237.48046875 C41.45964871 239.9962132 44.07009965 242.25815409 46.84765625 244.5078125 C47.80414063 245.28382813 48.760625 246.05984375 49.74609375 246.859375 C52.30087998 248.89620457 54.87878507 250.89620213 57.47265625 252.8828125 C60.77665536 255.42794256 63.64712847 258.18228472 66.59765625 261.1328125 C68.81026287 262.88988247 71.05229711 264.59895286 73.31640625 266.2890625 C75.93357189 268.40430596 78.21874421 270.75390046 80.59765625 273.1328125 C82.45347196 274.69751987 84.32868882 276.23950803 86.22265625 277.7578125 C91.37694495 281.8953648 91.37694495 281.8953648 93.24609375 283.90625 C94.66372482 285.46882919 94.66372482 285.46882919 97.59765625 285.1328125 C99.327091 283.82013294 99.327091 283.82013294 100.59765625 282.1328125 C100.59765625 281.4728125 100.59765625 280.8128125 100.59765625 280.1328125 C101.14292969 279.895625 101.68820312 279.6584375 102.25 279.4140625 C105.20081058 277.80363676 107.58469842 275.79129144 110.16015625 273.6328125 C112.92677336 271.32041611 115.59642173 269.13363551 118.59765625 267.1328125 C118.59765625 266.4728125 118.59765625 265.8128125 118.59765625 265.1328125 C119.14292969 264.895625 119.68820312 264.6584375 120.25 264.4140625 C123.20081058 262.80363676 125.58469842 260.79129144 128.16015625 258.6328125 C130.92677336 256.32041611 133.59642173 254.13363551 136.59765625 252.1328125 C136.59765625 251.4728125 136.59765625 250.8128125 136.59765625 250.1328125 C137.19578125 249.8440625 137.79390625 249.5553125 138.41015625 249.2578125 C140.79093417 248.08539224 140.79093417 248.08539224 143.59765625 246.1328125 C143.59765625 245.4728125 143.59765625 244.8128125 143.59765625 244.1328125 C144.43490234 243.75576172 144.43490234 243.75576172 145.2890625 243.37109375 C151.8420725 239.85619667 157.44877782 234.44259338 162.59765625 229.1328125 C163.25765625 228.8028125 163.91765625 228.4728125 164.59765625 228.1328125 C164.59765625 227.4728125 164.59765625 226.8128125 164.59765625 226.1328125 C165.149375 225.89949219 165.70109375 225.66617188 166.26953125 225.42578125 C169.21020892 223.79261966 171.38842876 221.73942043 173.84765625 219.4453125 C174.81316406 218.55328125 175.77867187 217.66125 176.7734375 216.7421875 C177.70542969 215.88109375 178.63742187 215.02 179.59765625 214.1328125 C181.07081159 212.81356892 182.54916724 211.50008334 184.03515625 210.1953125 C184.63199219 209.67066406 185.22882813 209.14601563 185.84375 208.60546875 C187.59765625 207.1328125 187.59765625 207.1328125 189.8203125 205.56640625 C190.70009766 204.85677734 190.70009766 204.85677734 191.59765625 204.1328125 C191.59765625 203.4728125 191.59765625 202.8128125 191.59765625 202.1328125 C192.1803125 201.87886719 192.76296875 201.62492188 193.36328125 201.36328125 C195.83953658 199.99960917 197.40286251 198.49056047 199.34765625 196.4453125 C204.22459651 191.44146301 209.41158145 186.89218439 214.84765625 182.5078125 C217.49956112 180.21753102 219.45822231 177.89337242 221.59765625 175.1328125 C223.85138646 172.81647867 226.15384896 170.55916153 228.484375 168.3203125 C232.96639747 163.94927344 237.28342384 159.48077843 240.59765625 154.1328125 C240.59765625 153.4728125 240.59765625 152.8128125 240.59765625 152.1328125 C241.25765625 152.1328125 241.91765625 152.1328125 242.59765625 152.1328125 C243.77172646 149.86553917 244.93705364 147.59446626 246.09765625 145.3203125 C246.59845703 144.35641602 246.59845703 144.35641602 247.109375 143.37304688 C248.60004709 140.43733551 249.59765625 138.47154733 249.59765625 135.1328125 C250.25765625 135.1328125 250.91765625 135.1328125 251.59765625 135.1328125 C251.90509766 133.79476562 251.90509766 133.79476562 252.21875 132.4296875 C252.62287109 130.67398438 252.62287109 130.67398438 253.03515625 128.8828125 C253.30199219 127.72265625 253.56882812 126.5625 253.84375 125.3671875 C254.24715756 123.63650638 254.66039531 121.90718498 255.13647461 120.19506836 C255.61998299 118.03297451 255.7269906 116.11568988 255.73046875 113.90234375 C255.73240234 112.69674805 255.73240234 112.69674805 255.734375 111.46679688 C255.73050781 110.63470703 255.72664063 109.80261719 255.72265625 108.9453125 C255.72652344 108.13255859 255.73039062 107.31980469 255.734375 106.48242188 C255.72248059 99.00678321 255.35326508 91.72621367 253.03515625 84.5703125 C252.76574219 83.72339844 252.49632812 82.87648437 252.21875 82.00390625 C252.01378906 81.38644531 251.80882812 80.76898438 251.59765625 80.1328125 C250.93765625 80.1328125 250.27765625 80.1328125 249.59765625 80.1328125 C249.49453125 79.4521875 249.39140625 78.7715625 249.28515625 78.0703125 C248.29550196 73.84178961 246.53548768 70.00847536 244.59765625 66.1328125 C243.93765625 66.1328125 243.27765625 66.1328125 242.59765625 66.1328125 C242.33339844 65.55273438 242.06914062 64.97265625 241.796875 64.375 C238.41764524 58.056831 232.46000222 52.21634637 226.59765625 48.1328125 C225.93765625 48.1328125 225.27765625 48.1328125 224.59765625 48.1328125 C224.59765625 47.4728125 224.59765625 46.8128125 224.59765625 46.1328125 C222.95796875 45.1428125 222.95796875 45.1428125 221.28515625 44.1328125 C220.67027344 43.7615625 220.05539062 43.3903125 219.421875 43.0078125 C217.48403699 41.91657251 217.48403699 41.91657251 214.59765625 42.1328125 C214.59765625 41.4728125 214.59765625 40.8128125 214.59765625 40.1328125 C210.63765625 39.6378125 210.63765625 39.6378125 206.59765625 39.1328125 C206.59765625 38.4728125 206.59765625 37.8128125 206.59765625 37.1328125 C198.71706985 35.41696504 191.21446638 34.82326122 183.16015625 34.8828125 C182.11794922 34.87507813 181.07574219 34.86734375 180.00195312 34.859375 C169.72511059 34.88486004 160.09674156 36.11396872 150.59765625 40.1328125 C150.59765625 40.7928125 150.59765625 41.4528125 150.59765625 42.1328125 C149.50904297 42.28943359 149.50904297 42.28943359 148.3984375 42.44921875 C145.33781434 43.19623277 143.38294147 44.30829898 140.78515625 46.0703125 C139.59986328 46.85728516 139.59986328 46.85728516 138.390625 47.66015625 C137.50310547 48.38912109 137.50310547 48.38912109 136.59765625 49.1328125 C136.59765625 49.7928125 136.59765625 50.4528125 136.59765625 51.1328125 C136.04891846 51.35340332 135.50018066 51.57399414 134.93481445 51.80126953 C131.86629332 53.54948997 129.62723529 55.91421868 127.203125 58.4375 C126.1544228 59.50663395 125.10559053 60.57564032 124.05664062 61.64453125 C122.42172115 63.32279066 120.78937499 65.0034537 119.15991211 66.68701172 C117.57680257 68.31882125 115.98425144 69.94096895 114.390625 71.5625 C113.91433151 72.06055145 113.43803802 72.55860291 112.9473114 73.07174683 C108.55203468 77.5299046 104.2002466 80.86142665 97.8515625 81.5234375 C96.63339844 81.47703125 95.41523438 81.430625 94.16015625 81.3828125 C92.92394531 81.34671875 91.68773437 81.310625 90.4140625 81.2734375 C89.48464844 81.22703125 88.55523437 81.180625 87.59765625 81.1328125 C87.59765625 80.4728125 87.59765625 79.8128125 87.59765625 79.1328125 C86.60765625 79.1328125 85.61765625 79.1328125 84.59765625 79.1328125 C84.59765625 78.4728125 84.59765625 77.8128125 84.59765625 77.1328125 C83.93765625 77.1328125 83.27765625 77.1328125 82.59765625 77.1328125 C82.26765625 76.1428125 81.93765625 75.1528125 81.59765625 74.1328125 C80.00682753 72.52260414 80.00682753 72.52260414 78.03515625 70.94921875 C72.90752803 66.59964641 68.27277279 61.83163886 63.59765625 57.00585938 C57.26934894 50.57249228 50.24455514 44.22099067 41.59765625 41.1328125 C40.27765625 41.1328125 38.95765625 41.1328125 37.59765625 41.1328125 C37.59765625 40.4728125 37.59765625 39.8128125 37.59765625 39.1328125 C36.27765625 39.1328125 34.95765625 39.1328125 33.59765625 39.1328125 C33.59765625 38.4728125 33.59765625 37.8128125 33.59765625 37.1328125 C29.96765625 36.8028125 26.33765625 36.4728125 22.59765625 36.1328125 C22.59765625 35.4728125 22.59765625 34.8128125 22.59765625 34.1328125 C14.34765625 34.1328125 6.09765625 34.1328125 -2.40234375 34.1328125 Z " fill="#FBFBFB" transform="translate(222.40234375,156.8671875)"/>
<path d="M0 0 C0.66 0.33 1.32 0.66 2 1 C1.36908447 1.62567871 0.73816895 2.25135742 0.08813477 2.89599609 C-2.24899635 5.21609619 -4.58386778 7.53842292 -6.91723633 9.86230469 C-7.92805585 10.86809203 -8.93977062 11.87298048 -9.95239258 12.87695312 C-11.40681856 14.31926483 -12.85800615 15.76476672 -14.30859375 17.2109375 C-15.62041626 18.51490479 -15.62041626 18.51490479 -16.95874023 19.84521484 C-19.03506773 21.82809002 -19.03506773 21.82809002 -20 24 C-20.66 23.67 -21.32 23.34 -22 23 C-12.00312891 10.51501877 -12.00312891 10.51501877 -7 6 C-6.34 6 -5.68 6 -5 6 C-5 5.34 -5 4.68 -5 4 C-3.37373596 2.61767557 -1.7074998 1.28062485 0 0 Z " fill="#CDCDCD" transform="translate(166,178)"/>
<path d="M0 0 C4.82380802 -0.0246519 9.64757967 -0.04283693 14.47143555 -0.05493164 C16.11369464 -0.05997174 17.75594923 -0.06680378 19.39819336 -0.07543945 C21.75375479 -0.08751926 24.10925709 -0.09323139 26.46484375 -0.09765625 C27.20339096 -0.10281754 27.94193817 -0.10797882 28.7028656 -0.11329651 C30.46898088 -0.1134925 32.23497146 -0.06194719 34 0 C34.495 0.495 34.495 0.495 35 1 C36.155 1.144375 37.31 1.28875 38.5 1.4375 C39.655 1.623125 40.81 1.80875 42 2 C42.495 2.99 42.495 2.99 43 4 C42.24203125 3.855625 41.4840625 3.71125 40.703125 3.5625 C27.20442697 1.36361706 13.63848459 1.81440354 0 2 C0 1.34 0 0.68 0 0 Z " fill="#444444" transform="translate(388,156)"/>
</svg>
