<svg width="114" height="114" xmlns="http://www.w3.org/2000/svg" xmlns:xlink="http://www.w3.org/1999/xlink" xml:space="preserve" overflow="hidden"><g transform="translate(-903 -483)"><path d="M1009.02 517.057C1008.45 514.807 1007.56 512.649 1006.38 510.645 1005.26 508.56 1003.81 506.662 1002.11 505.016 999.636 502.552 996.708 500.592 993.487 499.245 987.005 496.584 979.735 496.584 973.253 499.245 970.208 500.533 967.412 502.342 964.987 504.589L964.631 505.016 960 509.647 955.369 505.016 955.013 504.589C952.588 502.342 949.792 500.533 946.747 499.245 940.265 496.584 932.995 496.584 926.513 499.245 923.292 500.592 920.364 502.552 917.891 505.016 914.509 508.307 912.116 512.478 910.98 517.057 910.376 519.383 910.088 521.78 910.125 524.182 910.125 526.441 910.41 528.693 910.98 530.88 911.577 533.089 912.438 535.218 913.545 537.221 914.74 539.28 916.201 541.173 917.891 542.85L960 584.959 1002.11 542.85C1003.8 541.19 1005.24 539.287 1006.38 537.221 1008.7 533.268 1009.9 528.763 1009.88 524.182 1009.91 521.78 1009.62 519.383 1009.02 517.057ZM1001.9 528.671C1001.04 531.927 999.346 534.9 996.979 537.292L959.857 574.343 922.736 537.292C921.527 536.074 920.474 534.71 919.601 533.231 918.781 531.768 918.135 530.214 917.677 528.6 917.312 526.986 917.121 525.338 917.107 523.684 917.117 521.982 917.308 520.286 917.677 518.625 918.121 517.006 918.768 515.45 919.601 513.994 920.456 512.497 921.511 511.144 922.736 509.932 924.567 508.127 926.717 506.677 929.078 505.658 933.834 503.755 939.141 503.755 943.898 505.658 946.249 506.634 948.372 508.066 950.167 509.861L959.857 519.622 969.547 509.861C971.342 508.063 973.472 506.634 975.818 505.658 980.574 503.755 985.881 503.755 990.638 505.658 992.996 506.676 995.148 508.13 996.979 509.932 998.219 511.108 999.259 512.476 1000.04 513.994 1001.69 516.904 1002.55 520.196 1002.54 523.541 1002.63 525.263 1002.49 526.989 1002.11 528.671L1001.9 528.671Z"/></g></svg>