<svg width="2048" height="2048" viewBox="0 0 2048 2048" fill="none" xmlns="http://www.w3.org/2000/svg">
<path d="M1841.5 1782H206.5C217.812 1749.42 226.015 1715.85 231 1681.73C271.12 1407 71.6098 1279.73 123 1124C171.45 977.19 371.13 1022.5 442 853C504.66 703.12 373.31 608.41 435 478C505.44 329.1 775.33 244.07 956 324C1151.48 410.48 1125.8 638.41 1308 684C1461.18 722.33 1566.49 583 1664 647C1732.47 691.91 1715.94 783.81 1755.31 938.76C1765.06 977.082 1777.08 1014.79 1791.31 1051.68C1880.42 1283.01 1897.93 1535.8 1842.56 1777.44L1841.5 1782Z" fill="#FAFAFA"/>
<path d="M1024.5 1837C1541.16 1837 1960 1825.36 1960 1811C1960 1796.64 1541.16 1785 1024.5 1785C507.838 1785 89 1796.64 89 1811C89 1825.36 507.838 1837 1024.5 1837Z" fill="url(#paint0_radial_637_2)"/>
<path d="M501.63 1094.77C496.74 1103.58 493.44 1110.27 492.21 1113.77C488.78 1124.25 487.42 1129.49 486.31 1132.39C480.25 1130.9 473.56 1128.28 468.15 1130.03C462.81 1132.13 461.86 1137.35 455.58 1139.03C448.11 1140.53 437.13 1136.41 429.82 1135.38C414.08 1132.78 397.72 1130.64 382.01 1126.99C356.71 1121.23 347.9 1097.65 349.4 1073.99C351.05 1051.91 373.56 1044.61 391.4 1041.99C409.2 1038.8 433.4 1030.85 450.21 1040.93C474.59 1055.87 465 1101.51 501.63 1094.77Z" fill="#1F1F1F"/>
<path d="M373 1660.77C368.78 1652.59 371.95 1642.04 370.89 1632.55C370.38 1627.86 364.23 1568.14 358.5 1504.33V1748.19C358.5 1768.19 364.04 1785 371.15 1785L529.7 1784.26C536.55 1784.26 542.09 1767.37 542.09 1747.44V1673.17C465.32 1672.11 409.68 1671.31 404.4 1671.31C387.78 1671.58 377.22 1669.21 373 1660.77Z" fill="#1F1F1F"/>
<path d="M1675.24 1659.71C1670.76 1668.16 1660.24 1670.26 1643.59 1670.26C1638.85 1670.26 1586.59 1671.06 1514.59 1672.11L1508.52 1672.2V1745.11C1508.52 1765.11 1514.32 1781.93 1521.17 1781.93L1679.69 1781.18C1686.82 1781.18 1692.36 1765.08 1692.36 1744.37V1470.85C1685.64 1545.14 1677.76 1625.9 1677.08 1631.49C1676 1641 1679.19 1651.53 1675.24 1659.71Z" fill="#1F1F1F"/>
<path d="M1624.47 1178C1618.75 1173.5 1580.15 1143.1 1570.79 1140C1567.62 1138.92 1564.77 1137.04 1562.53 1134.54C1561.78 1133.64 1561.19 1132.63 1560.77 1131.54C1559.71 1128.39 1558.4 1123.11 1554.97 1112.82C1553.63 1109.13 1550.49 1102.54 1545.47 1093.82C1515.93 1040.27 1429.68 907.07 1422.55 899.68C1413.84 891.24 1395.11 874.35 1368.22 869.61C1341.59 865.13 1073.85 851.15 1023.46 851.15C972.82 851.15 705.08 865.65 678.46 870.4C651.56 875.15 632.81 891.77 624.38 900.2C617.25 907.6 531.01 1041.07 501.75 1094.61C498.188 1100.74 495.005 1107.09 492.22 1113.61C488.82 1124.15 487.48 1129.42 486.45 1132.33C485.11 1135.23 478.25 1139.98 475.63 1141.33L474.83 1142.13C467.44 1147.13 439.17 1169.33 421.28 1184.59C366.4 1231.39 343.2 1309.08 345.57 1353.4C346.37 1374.77 352.45 1439.66 358.24 1501.4C358.33 1502.4 358.42 1503.33 358.5 1504.29C364.23 1568.1 370.38 1627.82 370.89 1632.51C371.95 1642 368.78 1652.51 373 1660.73C377.23 1669.17 387.79 1671.54 404.4 1671.27C409.68 1671.27 465.32 1672.07 542.09 1673.13C724.62 1675.24 1023.99 1679.19 1023.99 1679.19L1508.55 1672.19L1514.62 1672.1C1586.62 1671.1 1638.86 1670.25 1643.62 1670.25C1660.26 1670.25 1670.79 1668.15 1675.27 1659.7C1679.27 1651.52 1676.07 1640.97 1677.13 1631.48C1677.81 1625.89 1685.69 1545.13 1692.41 1470.84C1693.61 1457.55 1694.78 1444.47 1695.86 1432.07C1699 1395.92 1701.38 1365.59 1702.19 1352.15C1703.63 1328.35 1703.19 1277.85 1673.94 1231.39C1655.84 1202.75 1631.28 1183.4 1624.47 1178Z" fill="#131313"/>
<path d="M1590.57 1254C1614.32 1254 1619.06 1250.83 1623.8 1272.73C1626.97 1286.97 1626.97 1305.97 1623.8 1318.63C1614.32 1364.26 1556.29 1364.26 1518.29 1364.26C1448.92 1364.52 1388.78 1381.66 1334.19 1284.07C1381.19 1270.07 1436.54 1271.41 1483.75 1263.76C1518.98 1257.23 1554.74 1253.97 1590.57 1254Z" fill="#1F1F1F"/>
<path d="M423.64 1273.81C428.38 1251.92 433.14 1255.08 456.64 1254.81C492.78 1254.81 527.64 1258.25 563.74 1264.58C611.22 1272.23 666.34 1270.64 713.3 1284.63C658.69 1382.49 598.57 1365.35 529.17 1365.35C491.46 1365.35 433.17 1365.35 423.67 1319.71C420.49 1307.05 420.49 1288.06 423.64 1273.81Z" fill="#1F1F1F"/>
<path d="M1023.47 1105.46C877.57 1102.13 552.21 1123.2 543.07 1123.2C537.61 1123.2 574.92 1053.5 609.3 991.3C641.85 932.43 706.62 894.21 778.71 891.38L960.21 884.28C1002.53 882.62 1044.86 882.573 1087.21 884.14L1267.86 890.81C1340.01 893.48 1404.93 931.61 1437.61 990.49C1472.13 1052.68 1509.61 1122.37 1504.13 1122.37C1494.73 1122.37 1169.61 1101.86 1023.47 1105.46Z" fill="#FAFAFA"/>
<path d="M1024 1116.18C936 1116.18 634.73 1120.35 627.64 1120.35C627.573 1120.36 627.506 1120.36 627.44 1120.35C624.21 1119.69 654.38 1100.35 682.22 1083.03C709.04 1066.36 762.42 1055.54 821.83 1054.74L971.39 1052.74C1006.26 1052.27 1041.15 1052.27 1076.06 1052.74L1224.93 1054.63C1284.39 1055.38 1337.88 1066.18 1364.81 1082.85C1392.81 1100.15 1423.05 1119.5 1419.81 1120.17C1419.74 1120.18 1419.67 1120.18 1419.6 1120.17C1412.51 1120.12 1111.88 1116.15 1024 1116.18Z" fill="#1F1F1F"/>
<path d="M1665.22 1125.88C1649.51 1129.55 1633.05 1131.7 1617.34 1134.35C1610 1135.35 1599.07 1139.54 1591.63 1138.04C1585.32 1136.41 1584.34 1131.25 1579.03 1129.11C1573.57 1127.33 1566.93 1130 1560.9 1131.53C1559.77 1128.6 1558.35 1123.31 1554.9 1112.84C1553.67 1109.33 1550.42 1102.68 1545.45 1093.84C1582.1 1100.46 1572.37 1054.92 1596.84 1039.84C1613.53 1029.75 1637.77 1037.71 1655.67 1040.84C1673.45 1043.45 1696.01 1050.74 1697.61 1072.84C1699.17 1096.45 1690.42 1120 1665.22 1125.88Z" fill="#1F1F1F"/>
<path d="M1584.28 1308.68C1584.28 1318.97 1581.23 1329.04 1575.51 1337.6C1569.79 1346.16 1561.66 1352.83 1552.15 1356.77C1542.64 1360.71 1532.18 1361.75 1522.08 1359.74C1511.98 1357.74 1502.7 1352.78 1495.42 1345.51C1488.14 1338.23 1483.18 1328.96 1481.17 1318.86C1479.15 1308.76 1480.18 1298.3 1484.11 1288.79C1488.05 1279.27 1494.71 1271.14 1503.27 1265.41C1511.82 1259.69 1521.89 1256.63 1532.18 1256.62C1539.02 1256.61 1545.8 1257.94 1552.12 1260.56C1558.45 1263.17 1564.2 1267 1569.04 1271.84C1573.88 1276.67 1577.71 1282.42 1580.33 1288.74C1582.95 1295.06 1584.29 1301.84 1584.28 1308.68Z" fill="#FAFAFA"/>
<path d="M566.65 1309.89C566.65 1320.18 563.598 1330.25 557.879 1338.81C552.161 1347.37 544.032 1354.04 534.522 1357.98C525.012 1361.92 514.546 1362.96 504.449 1360.95C494.351 1358.95 485.075 1353.99 477.792 1346.72C470.51 1339.44 465.549 1330.17 463.535 1320.07C461.522 1309.97 462.547 1299.51 466.482 1290C470.416 1280.48 477.082 1272.35 485.638 1266.62C494.194 1260.9 504.256 1257.84 514.55 1257.83C521.392 1257.82 528.17 1259.15 534.494 1261.77C540.819 1264.38 546.566 1268.21 551.406 1273.05C556.246 1277.88 560.084 1283.63 562.7 1289.95C565.316 1296.27 566.658 1303.05 566.65 1309.89Z" fill="#FAFAFA"/>
<path d="M1379 1366.77C1379 1434.69 1308.14 1493.55 1208.66 1507.89C1145.05 1517.03 1080.86 1521.44 1016.6 1521.07C957.238 1520.76 897.969 1516.37 839.21 1507.93C739.64 1493.6 668.63 1434.76 668.63 1366.78C668.63 1353.28 682.86 1341.64 702.68 1338.91C915.788 1309.81 1131.86 1309.81 1344.97 1338.91C1364.79 1341.63 1378.97 1353.27 1378.97 1366.77H1379Z" fill="#FAFAFA"/>
<path d="M1376.13 1390.87H668.16V1393.87H1376.13V1390.87Z" fill="#131313"/>
<path d="M1366.42 1418.19H681.52V1421.19H1366.42V1418.19Z" fill="#131313"/>
<path d="M1338.49 1449.76H707.02V1452.76H1338.49V1449.76Z" fill="#131313"/>
<path d="M1322.78 1087H1071.24L1091.92 1025.52C1101.48 997.08 1125.35 978.32 1151.92 978.32H1244.64C1272.3 978.32 1296.87 998.56 1305.64 1028.59L1322.78 1087Z" fill="#1F1F1F"/>
<path d="M958.48 1087H706.94L727.61 1025.52C737.17 997.08 761.04 978.32 787.61 978.32H880.34C908 978.32 932.56 998.56 941.34 1028.59L958.48 1087Z" fill="#1F1F1F"/>
<path d="M1622 1501.42V1600.05C1622 1606.95 1619.26 1613.56 1614.38 1618.43C1609.51 1623.31 1602.9 1626.05 1596 1626.05H1458C1432.76 1626.05 1422.38 1593.66 1442.92 1578.99L1581 1480.31C1598.14 1468 1622 1480.32 1622 1501.42Z" fill="#1F1F1F"/>
<path d="M444 1501.42V1600.05C444 1606.94 446.732 1613.54 451.598 1618.42C456.463 1623.29 463.063 1626.04 469.95 1626.05H608C633.25 1626.05 643.63 1593.66 623.08 1578.99L485 1480.31C467.83 1468 444 1480.32 444 1501.42Z" fill="#1F1F1F"/>
<path d="M450.44 836C550.768 836 632.1 754.668 632.1 654.34C632.1 554.012 550.768 472.68 450.44 472.68C350.112 472.68 268.78 554.012 268.78 654.34C268.78 754.668 350.112 836 450.44 836Z" fill="#131313"/>
<path fill-rule="evenodd" clip-rule="evenodd" d="M561.34 642.51C572.02 639.29 577.96 631.36 576.95 625.51C576.572 623.751 575.747 622.119 574.554 620.772C573.361 619.424 571.84 618.408 570.14 617.82C565.36 616.26 561.39 619.3 560.92 619.67C559.553 622.337 558.186 625.043 556.82 627.79L550.08 597.46C547.3 584.96 540.52 573.98 528.62 573.89L409.84 573C400.59 572.93 394.84 579.6 390.93 588.33C394.263 590.25 397.563 592.053 400.83 593.74L404.13 589.23C405.339 587.919 406.811 586.878 408.449 586.173C410.088 585.468 411.856 585.116 413.64 585.14L523.33 586.03C532.41 586.1 537.85 594.43 539.69 604.03L546.44 635.49L464.44 634.83C462.58 672.963 452.436 703.36 434.01 726.02L532.54 726.81L532.49 732.7C532.416 734.566 533.082 736.385 534.342 737.763C535.602 739.141 537.355 739.967 539.22 740.06L568.09 740.3C569.954 740.232 571.716 739.434 572.996 738.077C574.276 736.72 574.97 734.915 574.93 733.05L575.03 719.96C577.59 680.46 579.03 664.5 564.81 648.4L561.34 642.51Z" fill="white"/>
<path fill-rule="evenodd" clip-rule="evenodd" d="M553.43 688.14C553.43 692 549.73 695.14 545.49 695.06L515.2 694.82C512.79 694.82 510.94 692.59 510.96 689.89L511.02 683.3C510.995 682.018 511.41 680.765 512.196 679.752C512.982 678.738 514.092 678.025 515.34 677.73L545.67 673C549.92 672.33 553.53 674.89 553.5 678.74L553.43 688.14Z" fill="#131313"/>
<path d="M393.75 646.58C396.45 649.419 397.947 653.192 397.93 657.11V662.33H369.73V657.11C369.712 653.19 371.213 649.416 373.92 646.58C375.187 645.217 376.721 644.131 378.427 643.387C380.133 642.644 381.974 642.261 383.835 642.261C385.695 642.261 387.536 642.644 389.242 643.387C390.948 644.131 392.483 645.217 393.75 646.58ZM390.38 679.58C390.371 678.406 390.048 677.256 389.443 676.25C388.838 675.244 387.974 674.419 386.941 673.862C385.908 673.304 384.744 673.035 383.571 673.081C382.398 673.127 381.259 673.488 380.274 674.126C379.288 674.763 378.491 675.653 377.968 676.704C377.444 677.754 377.212 678.926 377.297 680.097C377.381 681.268 377.779 682.395 378.448 683.359C379.117 684.324 380.033 685.091 381.1 685.58L377.51 694.98H390.16L386.83 685.45C387.911 684.893 388.816 684.046 389.443 683.004C390.07 681.962 390.394 680.766 390.38 679.55V679.58ZM383.84 746.95C337.44 729.45 315.35 687.95 316.37 620.01C327.613 620.397 338.848 619.048 349.68 616.01C362.005 612.45 373.566 606.643 383.78 598.88C408.88 614.44 431.52 621.88 451.17 621.18C453.54 686.34 430.9 728.64 383.84 746.92V746.95ZM409.84 665.69C409.837 664.808 409.485 663.962 408.861 663.338C408.238 662.714 407.392 662.363 406.51 662.36H404.26V657.14C404.261 651.587 402.111 646.25 398.26 642.25C396.407 640.274 394.169 638.7 391.683 637.623C389.198 636.546 386.518 635.991 383.81 635.991C381.101 635.991 378.421 636.546 375.936 637.623C373.451 638.7 371.212 640.274 369.36 642.25C365.53 646.26 363.398 651.595 363.41 657.14V662.36H361.16C360.277 662.363 359.432 662.714 358.808 663.338C358.184 663.962 357.832 664.808 357.83 665.69V700.87C357.832 701.752 358.184 702.598 358.808 703.222C359.432 703.846 360.277 704.197 361.16 704.2H406.47C407.352 704.197 408.198 703.846 408.821 703.222C409.445 702.598 409.797 701.752 409.8 700.87L409.84 665.69Z" fill="white"/>
<path fill-rule="evenodd" clip-rule="evenodd" d="M1385.73 449.57C1355.87 448.46 1332.03 440.94 1314.25 432.39C1302.28 426.72 1291.12 419.479 1281.07 410.86C1271.02 419.479 1259.86 426.72 1247.89 432.39C1230.11 440.94 1206.27 448.46 1176.41 449.57C1174.58 478.605 1177.89 507.734 1186.18 535.62C1198.57 576.88 1225.18 623.38 1281.07 656.15C1336.93 623.38 1363.57 576.88 1375.96 535.62C1384.25 507.734 1387.56 478.605 1385.73 449.57Z" fill="#131313"/>
<path d="M1291.51 550.62C1287.51 555.953 1283.75 561.46 1280.24 567.14C1279.24 568.78 1278.24 570.43 1277.24 572.06C1271.98 580.5 1262.08 580.83 1256.3 572.75C1253.71 569.13 1251.86 565.08 1249.54 561.3C1246.2 555.739 1242.59 550.349 1238.71 545.15C1237.79 543.94 1236.93 542.68 1236.03 541.45C1235.72 541.03 1234.58 539.67 1233.91 538.95C1232.29 537.22 1230.72 535.43 1229.13 533.67C1228.29 532.735 1227.6 531.68 1227.07 530.54C1226.32 528.92 1226.07 527.18 1227.18 525.68C1229.56 522.273 1232.96 519.713 1236.89 518.37C1240.76 517.12 1244.31 517.97 1247.6 520.22C1251.5 522.985 1255 526.276 1258 530C1260.96 533.654 1263.7 537.477 1266.21 541.45C1267.14 542.87 1267.21 542.89 1268.13 541.45C1278 526.938 1290.56 514.452 1305.13 504.67C1312.23 499.819 1319.84 495.748 1327.82 492.53C1333.62 490.24 1339.73 488.835 1345.94 488.36C1347.42 488.241 1348.9 488.488 1350.26 489.08C1352.54 490.08 1352.73 492.68 1350.8 494.75C1348.66 497.05 1345.96 498.61 1343.5 500.5C1334.5 507.38 1325.64 514.41 1317.34 522.13C1311.6 527.457 1306.14 533.088 1301 539C1298.72 541.64 1296.54 544.36 1294.31 547C1293.29 548.2 1291.69 550.39 1291.51 550.62Z" fill="#FAFAFA"/>
<path d="M1668.33 203.6H1310.33C1301.14 203.608 1292.33 207.262 1285.83 213.76C1279.33 220.258 1275.67 229.069 1275.66 238.26V369.09H1281V238.26C1281.02 230.502 1284.12 223.069 1289.61 217.586C1295.1 212.103 1302.53 209.016 1310.29 209H1668.29C1676.06 209.008 1683.51 212.099 1689.01 217.594C1694.5 223.089 1697.59 230.539 1697.6 238.31V762.33C1697.59 770.102 1694.51 777.554 1689.01 783.05C1683.51 788.545 1676.06 791.635 1668.29 791.64H1310.29C1302.52 791.627 1295.08 788.534 1289.59 783.04C1284.1 777.545 1281.01 770.098 1281 762.33V696.85H1275.64V762.33C1275.65 771.518 1279.3 780.328 1285.8 786.827C1292.29 793.326 1301.1 796.984 1310.29 797H1668.29C1677.49 797 1686.31 793.349 1692.82 786.848C1699.33 780.347 1702.99 771.529 1703 762.33V238.26C1702.99 229.069 1699.33 220.258 1692.83 213.76C1686.33 207.262 1677.52 203.608 1668.33 203.6Z" fill="#131313"/>
<path d="M1629.44 277.51H1348.1C1341.2 277.51 1335.6 283.106 1335.6 290.01V291.79C1335.6 298.694 1341.2 304.29 1348.1 304.29H1629.44C1636.34 304.29 1641.94 298.694 1641.94 291.79V290.01C1641.94 283.106 1636.34 277.51 1629.44 277.51Z" fill="#1F1F1F"/>
<path d="M1629.44 349.27H1348.1C1341.2 349.27 1335.6 354.866 1335.6 361.77V363.55C1335.6 370.454 1341.2 376.05 1348.1 376.05H1629.44C1636.34 376.05 1641.94 370.454 1641.94 363.55V361.77C1641.94 354.866 1636.34 349.27 1629.44 349.27Z" fill="#1F1F1F"/>
<path d="M1629.44 423.18H1452C1445.1 423.18 1439.5 428.776 1439.5 435.68V437.46C1439.5 444.363 1445.1 449.96 1452 449.96H1629.44C1636.34 449.96 1641.94 444.363 1641.94 437.46V435.68C1641.94 428.776 1636.34 423.18 1629.44 423.18Z" fill="#1F1F1F"/>
<path d="M911.57 414.5C973.885 414.5 1024.4 365.923 1024.4 306C1024.4 246.077 973.885 197.5 911.57 197.5C849.256 197.5 798.74 246.077 798.74 306C798.74 365.923 849.256 414.5 911.57 414.5Z" fill="#131313"/>
<path d="M1269 312H1260.09" stroke="#131313" stroke-width="6" stroke-linecap="round" stroke-linejoin="round"/>
<path d="M1249.18 312H1060.91" stroke="#131313" stroke-width="6" stroke-linecap="round" stroke-linejoin="round"/>
<path d="M729 312H444V460.5" stroke="#131313" stroke-width="6" stroke-linecap="round" stroke-linejoin="round"/>
<path d="M986.11 533.61C988.98 534.19 990.36 536.23 991.04 538.72C996.68 559.59 1007.71 577.4 1022.73 592.64C1031.46 601.5 1042.79 606.78 1054.21 611.44C1059.21 613.44 1064.21 616.12 1069.98 615.54C1071.31 615.41 1072.88 615.98 1072.89 617.62C1072.89 619.62 1071.33 620.96 1069.72 621.8C1065.46 624.02 1061.03 625.91 1056.78 628.15C1040.08 636.96 1027.93 650.15 1018.94 666.68C1011.69 680.03 1008.62 694.58 1005.41 709.14C1004.75 712.14 1004.18 716.14 1001.19 716.34C997.74 716.52 997 712.23 996.09 709.34C988.84 686.23 976.49 666.51 957.22 651.58C947.12 643.76 935.22 639.27 923.22 635.1C922.084 634.855 920.921 634.758 919.76 634.81C917.99 634.69 915.64 635.25 915.16 632.89C914.68 630.53 916.59 629.05 918.66 628.07C922.4 626.28 926.15 624.5 929.87 622.67C949.38 613.07 962.73 597.67 971.33 577.99C975.17 569.18 978.92 560.33 981.16 550.9C981.946 547.321 982.325 543.664 982.29 540C982.31 537.27 983.18 534.79 986.11 533.61Z" fill="#131313"/>
<path d="M865.34 635.72C865.906 635.841 866.422 636.129 866.823 636.546C867.224 636.963 867.491 637.49 867.59 638.06C870.182 647.394 875.174 655.886 882.07 662.69C886.07 666.69 891.23 669.15 896.45 671.28C898.74 672.21 901.01 673.42 903.65 673.15C904.26 673.09 904.98 673.35 904.98 674.15C904.944 674.573 904.789 674.977 904.532 675.315C904.275 675.654 903.928 675.912 903.53 676.06C901.59 677.06 899.53 677.94 897.62 678.96C890.211 682.947 884.186 689.087 880.34 696.57C877.02 702.66 875.62 709.31 874.15 715.96C873.85 717.32 873.59 719.18 872.23 719.25C870.65 719.33 870.31 717.37 869.9 716.05C866.59 705.49 860.9 696.48 852.14 689.66C847.53 686.09 842.14 684.04 836.63 682.13C836.111 682.02 835.58 681.977 835.05 682C834.24 681.95 833.17 682.2 832.95 681.12C832.73 680.04 833.6 679.37 834.55 678.92C836.263 678.107 837.97 677.287 839.67 676.46C848.58 672.07 854.67 665.04 858.61 656.04C860.473 652.059 861.975 647.919 863.1 643.67C863.454 642.028 863.619 640.35 863.59 638.67C863.524 638.055 863.658 637.435 863.974 636.904C864.289 636.372 864.769 635.956 865.34 635.72Z" fill="#131313"/>
<path d="M919.499 372.569L871.445 312.444L871.722 300.528C894.275 302.082 911.809 299.695 915.888 278.362L867.833 278.087L875.611 265.062L913.944 265.614C908.103 253.475 892.04 251.979 867 252.87L875.611 240.122L957 240L948.944 252.59H926.445C930.557 256.931 933.567 261.926 933.667 266.167L957 265.89L948.944 278.358L933.389 278.635C930.961 297.235 913.873 308.247 892.279 310.777L940.655 372.552L919.5 372.564L919.499 372.569Z" fill="white"/>
<defs>
<radialGradient id="paint0_radial_637_2" cx="0" cy="0" r="1" gradientUnits="userSpaceOnUse" gradientTransform="translate(1024.5 1814.55) scale(831.66 33.2664)">
<stop offset="0.42" stop-color="#EEEEEE"/>
<stop offset="1" stop-color="white"/>
</radialGradient>
</defs>
</svg>
