<?xml version="1.0" encoding="UTF-8"?>
<svg version="1.1" xmlns="http://www.w3.org/2000/svg" width="425" height="425">
<path d="M0 0 C1.10352466 -0.00322445 2.20704931 -0.00644889 3.34401411 -0.00977105 C4.5510059 -0.00822245 5.75799768 -0.00667385 7.00156498 -0.00507832 C8.2879227 -0.00734387 9.57428043 -0.00960943 10.89961869 -0.01194364 C14.46824044 -0.01806111 18.03683877 -0.01792811 21.60546458 -0.01674926 C25.45488352 -0.01654525 29.30429493 -0.02206406 33.15371037 -0.02680683 C40.69425785 -0.03511333 48.23479752 -0.03786166 55.77534919 -0.03841921 C61.90361267 -0.03889431 68.03187356 -0.04094875 74.16013622 -0.04411983 C91.53152426 -0.05292591 108.90290611 -0.05753921 126.2742964 -0.05678936 C127.21079665 -0.0567494 128.1472969 -0.05670945 129.11217594 -0.05666828 C130.51863937 -0.05660696 130.51863937 -0.05660696 131.95351619 -0.0565444 C147.15519253 -0.0561378 162.35684411 -0.065711 177.55851328 -0.07980665 C193.16417356 -0.09416285 208.76982176 -0.10107727 224.37548882 -0.10021287 C233.13826293 -0.09988067 241.90101109 -0.10263791 250.66377926 -0.11339092 C258.12322802 -0.12248591 265.58263905 -0.12467938 273.04209094 -0.1178815 C276.84837126 -0.11461141 280.65457915 -0.11457724 284.46085262 -0.12323475 C288.58580665 -0.13252071 292.71059218 -0.12633662 296.83554935 -0.11860371 C298.04031042 -0.12374727 299.24507149 -0.12889083 300.48634046 -0.13419026 C310.54753611 -0.09236038 317.26558071 1.85900619 324.48204899 9.12863445 C328.82883563 15.81836992 331.00605711 22.13751063 330.48204899 30.12863445 C328.57238129 38.18855547 324.86570591 44.73799083 318.48204899 50.12863445 C311.37150636 54.460433 304.66329068 54.69964699 296.50843143 54.64329815 C295.22147828 54.65024368 293.93452512 54.65718921 292.60857338 54.6643452 C289.05658392 54.68290006 285.50501344 54.67669262 281.9530071 54.66619217 C278.11445588 54.65917968 274.27598896 54.67521359 270.43746281 54.68818951 C262.92548983 54.70980054 255.41366852 54.70971008 247.9016747 54.70156396 C241.79450389 54.69525699 235.68737722 54.69640739 229.58020687 54.70283604 C228.27500864 54.70418852 228.27500864 54.70418852 226.94344277 54.70556832 C225.17561888 54.70741958 223.407795 54.70928214 221.63997113 54.71115588 C205.07281217 54.72772427 188.50573845 54.71902334 171.93858462 54.7021703 C156.79153305 54.68747431 141.64467987 54.70210201 126.49765385 54.73094047 C110.93250819 54.76035358 95.36745403 54.77130116 79.8022818 54.76175827 C78.04075684 54.76073575 76.27923186 54.75974114 74.51770687 54.75877476 C73.21775779 54.75806017 73.21775779 54.75806017 71.8915471 54.75733115 C65.79465532 54.75516954 59.69785042 54.76495759 53.6009779 54.77954578 C46.16655094 54.79708673 38.73237685 54.79692657 31.29795975 54.77419413 C27.50722969 54.76306779 23.71694483 54.75985236 19.92623425 54.77849483 C15.8113415 54.79847071 11.69752893 54.77947953 7.58265018 54.75682354 C6.39226896 54.76865927 5.20188774 54.780495 3.97543436 54.79268938 C-5.0890566 54.69139716 -12.06656116 52.40708317 -18.89295101 46.31613445 C-24.68093462 39.85589213 -26.82674119 32.77475946 -26.51795101 24.12863445 C-24.84280459 14.93756562 -20.00124963 7.74833323 -12.58045101 2.2575407 C-8.60724243 0.082811 -4.45212691 0.0032952 0 0 Z " fill="#000000" transform="translate(60.517951011657715,291.8713655471802)"/>
<path d="M0 0 C1.28695316 -0.00694553 2.57390632 -0.01389106 3.89985806 -0.02104706 C7.45184751 -0.03960191 11.00341799 -0.03339447 14.55542433 -0.02289402 C18.39397556 -0.01588153 22.23244248 -0.03191544 26.07096863 -0.04489136 C33.5829416 -0.06650239 41.09476291 -0.06641193 48.60675674 -0.05826581 C54.71392755 -0.05195884 60.82105421 -0.05310924 66.92822456 -0.05953789 C67.79835672 -0.06043954 68.66848887 -0.0613412 69.56498866 -0.06227018 C71.33281255 -0.06412143 73.10063644 -0.06598399 74.86846031 -0.06785773 C91.43561926 -0.08442612 108.00269299 -0.07572519 124.56984682 -0.05887216 C139.71689838 -0.04417616 154.86375157 -0.05880386 170.01077759 -0.08764232 C185.57592325 -0.11705543 201.14097741 -0.12800301 216.70614964 -0.11846012 C218.4676746 -0.1174376 220.22919957 -0.11644299 221.99072456 -0.11547661 C223.29067365 -0.11476202 223.29067365 -0.11476202 224.61688433 -0.114033 C230.71377612 -0.1118714 236.81058102 -0.12165944 242.90745354 -0.13624763 C250.34188049 -0.15378858 257.77605458 -0.15362842 265.21047168 -0.13089598 C269.00120175 -0.11976964 272.7914866 -0.11655421 276.58219719 -0.13519669 C280.69708994 -0.15517256 284.8109025 -0.13618138 288.92578125 -0.11352539 C290.11616247 -0.12536112 291.30654369 -0.13719685 292.53299707 -0.14939123 C301.6009323 -0.04806053 308.57042969 2.23881819 315.40138245 8.3271637 C320.53064948 13.96499829 322.71153096 20.34288154 323.27638245 27.8271637 C322.73546636 35.80567594 318.96953051 43.82746034 313.1006012 49.31544495 C307.67029701 53.60037424 303.42537716 54.63817863 296.50843143 54.64329815 C295.40490678 54.6465226 294.30138212 54.64974704 293.16441733 54.6530692 C291.95742554 54.6515206 290.75043375 54.64997199 289.50686646 54.64837646 C288.22050873 54.65064202 286.93415101 54.65290758 285.60881275 54.65524179 C282.04019099 54.66135926 278.47159266 54.66122626 274.90296686 54.66004741 C271.05354792 54.6598434 267.2041365 54.66536221 263.35472107 54.67010498 C255.81417359 54.67841148 248.27363392 54.68115981 240.73308224 54.68171736 C234.60481877 54.68219246 228.47655787 54.6842469 222.34829521 54.68741798 C204.97690718 54.69622406 187.60552532 54.70083736 170.23413504 54.70008751 C169.29763479 54.70004755 168.36113454 54.7000076 167.39625549 54.69996643 C165.98979207 54.69990511 165.98979207 54.69990511 164.55491524 54.69984255 C149.35323891 54.69943595 134.15158733 54.70900915 118.94991816 54.7231048 C103.34425788 54.737461 87.73860967 54.74437542 72.13294262 54.74351102 C63.3701685 54.74317882 54.60742035 54.74593606 45.84465218 54.75668907 C38.38520342 54.76578406 30.92579239 54.76797753 23.46634049 54.76117965 C19.66006017 54.75790955 15.85385229 54.75787539 12.04757881 54.7665329 C7.92262479 54.77581886 3.79783925 54.76963477 -0.32711792 54.76190186 C-1.53187899 54.76704542 -2.73664005 54.77218898 -3.97790903 54.77748841 C-14.08319016 54.73547524 -20.69569534 52.7523764 -27.97361755 45.5146637 C-32.52886404 39.18254801 -34.37108112 32.28223741 -33.97361755 24.5146637 C-32.41740746 16.46791881 -28.22667605 9.79502421 -21.97361755 4.5146637 C-14.86307493 0.18286515 -8.15485925 -0.05634884 0 0 Z " fill="#000000" transform="translate(67.97361755371094,78.48533630371094)"/>
<path d="M0 0 C1.11162604 -0.00507454 2.22325209 -0.01014909 3.36856377 -0.0153774 C5.20806613 -0.01612404 5.20806613 -0.01612404 7.08473015 -0.01688576 C9.03302973 -0.02345914 9.03302973 -0.02345914 11.02068889 -0.03016531 C14.63363649 -0.04213555 18.24657072 -0.04778031 21.85953426 -0.05234647 C25.7533595 -0.05830089 29.64716874 -0.06991117 33.5409832 -0.08063698 C42.94882426 -0.10516515 52.35667062 -0.119789 61.76453382 -0.13269705 C64.42159278 -0.13640876 67.07865122 -0.14038201 69.73570967 -0.14444971 C86.23428293 -0.16968665 102.73285701 -0.19174065 119.23144531 -0.20417786 C123.05346111 -0.20710758 126.87547687 -0.21006923 130.6974926 -0.21308327 C132.12241582 -0.21420234 132.12241582 -0.21420234 133.57612537 -0.21534403 C148.96347732 -0.22799666 164.35071369 -0.26121817 179.73801161 -0.3028851 C195.53459417 -0.34530976 211.33111757 -0.36887353 227.12775695 -0.37409842 C235.99747719 -0.377512 244.86701682 -0.38926081 253.73668098 -0.42220116 C261.29092579 -0.45021019 268.84495299 -0.4611973 276.39924569 -0.4500057 C280.25261249 -0.44482112 284.10552364 -0.44769209 287.95882416 -0.47247124 C292.14002451 -0.49913412 296.32022333 -0.48689664 300.5014782 -0.47098732 C301.71442877 -0.48486941 302.92737934 -0.49875149 304.177086 -0.51305425 C313.13253129 -0.42906707 318.56215341 1.84749304 325.4865551 7.38701439 C330.761934 14.01891929 333.22665018 21.70993948 332.6740551 30.13701439 C330.28298299 40.22874519 325.23395251 46.41465203 316.6740551 52.13701439 C313.61778393 53.15577144 311.5478378 53.26628506 308.3481102 53.27402878 C307.23648415 53.27910332 306.12485811 53.28417786 304.97954643 53.28940618 C303.75321152 53.28990394 302.52687662 53.29040169 301.26338005 53.29091454 C299.31508047 53.29748792 299.31508047 53.29748792 297.32742131 53.30419409 C293.71447371 53.31616433 290.10153948 53.32180909 286.48857594 53.32637525 C282.5947507 53.33232967 278.70094145 53.34393995 274.807127 53.35466576 C265.39928594 53.37919393 255.99143958 53.39381778 246.58357638 53.40672582 C243.92651742 53.41043754 241.26945897 53.41441079 238.61240053 53.41847849 C222.11382727 53.44371543 205.61525319 53.46576943 189.11666489 53.47820663 C185.29464909 53.48113635 181.47263333 53.48409801 177.6506176 53.48711205 C176.70066879 53.4878581 175.75071997 53.48860415 174.77198483 53.4893728 C159.38463288 53.50202543 143.99739651 53.53524695 128.61009859 53.57691388 C112.81351603 53.61933854 97.01699263 53.64290231 81.22035325 53.6481272 C72.35063301 53.65154078 63.48109337 53.66328959 54.61142921 53.69622993 C47.0571844 53.72423897 39.50315721 53.73522608 31.9488645 53.72403447 C28.09549771 53.7188499 24.24258656 53.72172087 20.38928604 53.74650002 C16.20808569 53.7731629 12.02788687 53.76092542 7.846632 53.7450161 C6.02720614 53.76583923 6.02720614 53.76583923 4.1710242 53.78708303 C-4.78442109 53.70309585 -10.21404321 51.42653574 -17.1384449 45.88701439 C-22.20029448 39.52354635 -24.65048329 32.28792075 -24.3259449 24.13701439 C-22.56633962 14.37264737 -18.23454934 8.50395842 -10.44703865 2.55498314 C-6.93711256 0.20856846 -4.11321861 0.00995448 0 0 Z " fill="#000000" transform="translate(58.325944900512695,185.8629856109619)"/>
</svg>
