<svg width="70" height="70" viewBox="0 0 70 70" fill="none" xmlns="http://www.w3.org/2000/svg">
<path d="M35.0117 48.08C34.1317 48.08 33.4517 47.84 32.9717 47.36C32.4917 46.84 32.2517 46.14 32.2517 45.26V35.42H22.5917C21.7517 35.42 21.0917 35.2 20.6117 34.76C20.1317 34.28 19.8917 33.62 19.8917 32.78C19.8917 31.94 20.1317 31.3 20.6117 30.86C21.0917 30.38 21.7517 30.14 22.5917 30.14H32.2517V20.6C32.2517 19.72 32.4917 19.04 32.9717 18.56C33.4517 18.08 34.1517 17.84 35.0717 17.84C35.9517 17.84 36.6117 18.08 37.0517 18.56C37.5317 19.04 37.7717 19.72 37.7717 20.6V30.14H47.4317C48.3117 30.14 48.9717 30.38 49.4117 30.86C49.8917 31.3 50.1317 31.94 50.1317 32.78C50.1317 33.62 49.8917 34.28 49.4117 34.76C48.9717 35.2 48.3117 35.42 47.4317 35.42H37.7717V45.26C37.7717 46.14 37.5317 46.84 37.0517 47.36C36.6117 47.84 35.9317 48.08 35.0117 48.08Z" fill="black"/>
</svg>
