<svg width="1em" height="1em" viewBox="0 0 512 512"
    xmlns="http://www.w3.org/2000/svg" fill="currentColor">
    <path d="M118.6 11.6988C109.2 14.4988 102.3 20.6988 98.0997 29.9988C96.4997 33.4988 95.9997 36.5988 95.9997 43.6988V52.9988H76.7997C48.3997 52.9988 38.8997 55.9988 25.9997 68.9988C18.2997 76.6988 14.6997 82.9988 11.9997 93.5988C9.99972 101.099 9.99972 105.099 9.99972 255.399C9.99972 424.899 9.79972 416.899 16.1997 429.999C20.0997 438.099 30.1997 448.399 38.5997 452.799C50.8997 459.199 45.5997 458.999 174.9 458.999H292.2L302.5 468.699C314 479.699 325.6 487.399 338.3 492.599C383.6 510.999 433 501.299 467.1 467.099C501.2 432.999 511 383.999 492.7 338.499C487.7 326.099 479.7 313.999 468.8 302.499L459 292.299L458.8 193.399L458.5 94.4988L455.8 87.6988C449.8 72.6988 439.2 62.0988 424.3 56.2988C417.8 53.6988 416.5 53.5988 395.9 53.1988L374.3 52.7988L373.8 43.4988C373.2 32.0988 370.3 25.3988 363.4 18.9988C356.6 12.6988 351.1 10.5988 341.4 10.4988C334.1 10.4988 332.6 10.7988 326.4 13.9988C314.6 19.9988 309 29.9988 309 45.0988V52.9988H234.5H160V44.6988C160 40.1988 159.5 34.8988 159 32.9988C156.3 23.2988 147.1 14.3988 136.9 11.5988C130.1 9.59882 125 9.69882 118.6 11.6988ZM135.1 35.8988L138 38.7988V63.9988V89.1988L135.1 92.0988C132.8 94.3988 131.3 94.9988 128 94.9988C124.7 94.9988 123.2 94.3988 120.9 92.0988L118 89.1988V63.9988V38.7988L120.9 35.8988C123.2 33.5988 124.7 32.9988 128 32.9988C131.3 32.9988 132.8 33.5988 135.1 35.8988ZM347.3 34.9988C348.8 36.1988 350.4 38.7988 351 40.7988C352.3 45.5988 352.3 82.3988 351 87.1988C348.2 96.9988 335.5 97.7988 331.9 88.2988C331.4 86.9988 331 75.9988 331 63.9988C331 51.9988 331.4 40.9988 331.9 39.6988C334.4 33.1988 342.1 30.8988 347.3 34.9988ZM95.9997 84.2988C95.9997 92.7988 96.2997 94.2988 99.0997 99.7988C110.8 123.199 143.9 123.799 156.5 100.899C159.1 96.0988 159.5 94.2988 159.8 85.1988L160.2 74.9988H234.5H308.8L309.2 84.6988C309.7 96.0988 312 101.999 318.3 108.299C324.5 114.499 331.9 117.399 341.5 117.499C348.2 117.499 350.4 117.099 355.1 114.699C358.2 113.199 362.7 109.899 365 107.399C371.1 100.699 373.2 95.1988 373.8 84.1988L374.3 74.7988L393.4 75.1988C415.5 75.5988 418.9 76.5988 427.2 84.6988C435.3 92.6988 436.4 96.3988 436.8 118.699L437.2 137.999H234.5H31.6997L32.1997 119.199C32.5997 101.399 32.7997 100.199 35.3997 94.4988C39.6997 84.9988 46.6997 78.8988 55.9997 76.3988C58.6997 75.5988 67.5997 75.0988 78.2997 75.0988L95.9997 74.9988V84.2988ZM437 219.099C437 274.999 436.9 278.199 435.3 277.499C411.9 267.899 392.6 264.699 371.7 266.899C344 269.899 320.5 281.199 300.9 300.899C281.4 320.299 270.1 343.699 266.9 371.099C264.5 391.799 267.9 412.199 277.5 435.299C278.2 436.999 273.1 436.999 167.4 436.799L56.4997 436.499L50.7997 433.699C44.0997 430.399 38.6997 424.699 35.0997 417.099L32.4997 411.499L32.1997 285.699L31.8997 159.999H234.5H437V219.099ZM400.4 290.099C435.1 295.699 464.8 322.399 475.7 357.699C478.2 365.799 478.4 367.799 478.4 383.999C478.4 400.299 478.2 402.099 475.6 410.499C463.1 451.499 426.4 479.099 384.5 479.099C366.9 479.099 353.9 475.899 339.3 467.999C313.5 454.099 295.1 428.899 290.1 400.599C288.7 392.899 288.7 375.099 290.1 367.399C296.3 332.099 322.9 302.699 357.7 292.399C371.3 288.499 385.1 287.699 400.4 290.099Z" fill="currentColor"/>
    <path d="M87.0994 183.599C76.6994 188.799 73.4994 196.899 74.1994 216.499C74.5994 229.299 75.5994 232.699 80.8994 238.299C86.0994 243.999 90.3994 245.399 103.499 245.799C123.099 246.499 131.199 243.299 136.399 232.899C138.799 227.899 138.999 226.699 138.999 213.599C138.999 200.899 138.699 198.999 136.599 194.499C133.799 188.499 130.999 185.799 124.999 183.099C121.199 181.299 118.399 180.999 106.399 180.999C93.1994 180.999 92.0994 181.199 87.0994 183.599ZM116.799 212.899C116.999 219.799 116.699 222.599 115.799 223.199C113.699 224.499 98.5994 224.199 97.1994 222.799C95.8994 221.499 95.4994 207.499 96.5994 204.499C97.0994 203.199 98.7994 202.999 106.899 203.199L116.499 203.499L116.799 212.899Z" fill="currentColor"/>
    <path d="M174.6 182.5C169.7 184.2 164.3 189.3 161.9 194.5C160.4 197.8 160 201 160 213.3C160 229.3 160.6 232 165.5 237.8C171.1 244.5 174.6 245.5 192.1 245.5H207.7L212.5 242.5C215.2 240.8 218.8 237.5 220.5 235.1C223.5 230.9 223.5 230.8 223.8 215.3C224.1 202.7 223.8 198.8 222.5 195.4C220.5 190.1 213.5 183.5 208.4 182.1C202.7 180.5 179.4 180.8 174.6 182.5ZM201.8 212.9C202 219.8 201.7 222.6 200.8 223.2C199.3 224.1 185.9 224.3 183.6 223.4C182.3 222.9 182 221.1 182 213.6C182 208.5 182.3 204 182.7 203.6C183.1 203.2 187.5 203.1 192.5 203.2L201.5 203.5L201.8 212.9Z" fill="currentColor"/>
    <path d="M258.5 183.399C252.5 186.199 249.8 188.999 247.1 194.999C245.3 198.799 245 201.599 245 213.599C245 226.799 245.2 227.899 247.6 232.899C252.8 243.299 260.9 246.499 280.5 245.799C293.6 245.399 297.9 243.999 303.1 238.299C308.4 232.699 309.4 229.299 309.8 216.499C310.5 196.899 307.3 188.799 296.9 183.599C291.9 181.199 290.7 180.999 277.6 180.999C264.9 180.999 263 181.299 258.5 183.399ZM287.4 204.599C288.5 207.499 288.1 221.499 286.8 222.799C285.5 224.099 271.5 224.499 268.6 223.399C267.3 222.899 267 221.099 267 213.599C267 208.499 267.3 203.999 267.7 203.699C268 203.299 272.5 202.999 277.6 202.999C285.1 202.999 286.9 203.299 287.4 204.599Z" fill="currentColor"/>
    <path d="M343.099 183.599C332.699 188.799 329.499 196.899 330.199 216.499C330.599 229.299 331.599 232.699 336.899 238.299C342.099 243.999 346.399 245.399 359.499 245.799C379.099 246.499 387.199 243.299 392.399 232.899C394.799 227.899 394.999 226.699 394.999 213.599C394.999 200.899 394.699 198.999 392.599 194.499C389.799 188.499 386.999 185.799 380.999 183.099C377.199 181.299 374.399 180.999 362.399 180.999C349.199 180.999 348.099 181.199 343.099 183.599ZM372.799 212.899C372.999 219.799 372.699 222.599 371.799 223.199C369.699 224.499 354.599 224.199 353.199 222.799C351.899 221.499 351.499 207.499 352.599 204.499C353.099 203.199 354.799 202.999 362.899 203.199L372.499 203.499L372.799 212.899Z" fill="currentColor"/>
    <path d="M91.9998 266.9C85.0998 269 79.7998 273.5 76.3998 280C74.0998 284.4 73.1998 304.8 74.8998 312.6C76.4998 319.8 80.6998 325.2 87.0998 328.4C92.0998 330.8 93.2998 331 106.4 331C119.1 331 121 330.7 125.5 328.6C131.5 325.8 134.2 323 136.9 317C138.7 313.2 139 310.4 139 298.4C139 285.3 138.8 284.1 136.4 279.2C131.4 269.1 124.1 266 106.1 266.1C99.6998 266.1 93.3998 266.5 91.9998 266.9ZM115.8 288.8C116.7 289.4 117 292.2 116.8 299.1L116.5 308.5L107.1 308.8C100.2 309 97.3998 308.7 96.7998 307.8C95.4998 305.7 95.7998 290.6 97.1998 289.2C98.5998 287.8 113.7 287.5 115.8 288.8Z" fill="currentColor"/>
    <path d="M175.599 267.4C170.199 269.4 167.099 271.9 163.499 276.9C160.499 281.1 160.499 281.3 160.199 296.7C159.799 315.1 160.699 318.6 167.399 324.8C173.099 330 176.899 331 191.999 331C206.899 331 210.199 330.2 215.999 325.3C222.899 319.3 223.999 315.9 223.999 298.7C223.999 282.7 223.399 280 218.499 274.2C213.199 267.8 209.199 266.6 193.499 266.3C183.199 266.1 178.499 266.4 175.599 267.4ZM200.799 288.8C201.699 289.4 201.999 292.2 201.799 299.1L201.499 308.5H191.999H182.499L182.199 299.1C181.999 292.2 182.299 289.4 183.199 288.8C183.899 288.4 187.899 288 191.999 288C196.099 288 200.099 288.4 200.799 288.8Z" fill="currentColor"/>
    <path d="M88.5 353.4C83.9 355.4 79.1 359.8 76.7 364.4C74.7 368.1 74.5 369.9 74.5 384C74.5 401.4 75.5 404.9 82.2 410.5C88 415.4 90.7 416 106.7 416C123.9 416 127.3 414.9 133.3 408C138.2 402.2 139 398.9 139 384C139 369.1 138.1 365.2 133.2 359.8C127.1 353 123.8 352 106.5 352.1C96.4 352.1 90.5 352.5 88.5 353.4ZM116.5 384V393.5L107.1 393.8C100.2 394 97.4 393.7 96.8 392.8C95.9 391.3 95.7 377.9 96.6 375.5C97.1 374.2 98.8 374 106.9 374.2L116.5 374.5V384Z" fill="currentColor"/>
    <path d="M171.3 355C167.4 357.2 165.2 359.4 163 363.3C160 368.5 160 368.6 160 384C160 399.4 160 399.5 163 404.7C165.2 408.6 167.4 410.8 171.3 413C176.5 416 176.6 416 192 416C207.4 416 207.5 416 212.7 413C216.6 410.8 218.8 408.6 221 404.7C224 399.5 224 399.4 224 384C224 368.6 224 368.5 221 363.3C218.8 359.4 216.6 357.2 212.7 355C207.5 352 207.4 352 192 352C176.6 352 176.5 352 171.3 355ZM202 384V394H192H182V384V374H192H202V384Z" fill="currentColor"/>
    <path d="M423.5 344.1C422.4 344.7 409.6 357.1 395 371.6L368.5 398L357.5 386.9C345.9 375.2 342.8 373 338.3 373C331 373 325.2 381.3 327.9 387.8C328.6 389.4 336.9 398.4 346.4 407.8L363.6 425H368.5H373.5L406.7 391.7L440 358.5V354.1C440 350.5 439.4 349.2 436.6 346.4C433.9 343.7 432.4 343 429.4 343C427.2 343 424.6 343.5 423.5 344.1Z" fill="currentColor"/>
</svg>
