<svg width="1em" height="1em" viewBox="0 0 512 512"
    xmlns="http://www.w3.org/2000/svg" fill="currentColor">
    <path d="M12.1098 13.2073L10 15.413V109.202V202.894L12.3975 205.196L14.699 207.593H46.9209H79.1428L81.4443 205.196C83.65 203.086 83.8418 202.223 83.8418 193.209V183.619H149.436H215.127L217.428 188.606C220.401 195.223 226.635 201.456 233.06 204.429L238.238 206.73V215.265V223.8L234.211 224.855C231.909 225.431 227.114 227.157 223.374 228.691L216.661 231.472L187.892 231.856C159.793 232.143 158.93 232.239 150.491 234.829C123.544 243.076 102.926 263.694 94.7742 290.546C92.3768 298.409 92.0891 300.903 91.7055 318.548L91.3219 337.919L62.84 338.207L34.4541 338.495L28.0289 341.659C21.0283 345.112 16.1375 350.003 12.6852 357.099C10.4795 361.51 10.4795 361.702 10.1918 413.487L10 465.368L12.4934 467.382C14.9867 469.3 16.1375 469.396 39.6326 469.396H64.1826L66.9637 474.479C73.3889 485.891 88.0613 496.823 102.062 500.563C108.871 502.385 124.023 502.385 130.832 500.563C144.833 496.823 158.355 486.85 165.451 474.958L168.712 469.396H239.197H309.683L312.464 474.479C318.889 485.891 333.561 496.823 347.562 500.563C354.371 502.385 369.523 502.385 376.332 500.563C390.333 496.823 403.855 486.85 410.951 474.958L414.212 469.396H455.065C495.054 469.396 496.013 469.396 498.507 467.382L501 465.368L500.808 413.487C500.52 361.702 500.52 361.51 498.315 357.099C494.862 350.003 489.972 345.112 482.971 341.659L476.546 338.495L431.761 338.207L386.881 337.919V321.904C386.881 290.641 379.88 272.229 361.18 254.392C352.262 245.857 342.768 240.007 331.931 236.267C320.807 232.431 313.902 231.568 294.722 231.568C278.228 231.568 277.653 231.472 271.707 228.787C268.35 227.348 263.268 225.526 260.583 224.855L255.5 223.704V215.361V207.018L260.774 204.812C274.68 199.058 283.023 182.276 279.475 167.316L278.324 162.425L281.393 159.357C283.119 157.63 285.516 154.37 286.571 151.972C288.489 147.945 288.585 146.027 288.585 122.532C288.585 98.6528 288.489 97.3102 286.667 95.4881C285.612 94.4333 264.035 80.3362 238.718 64.2253L192.687 34.9762H138.312H83.8418V25.3864C83.8418 16.3719 83.65 15.5089 81.4443 13.3991L79.1428 11.0016H46.6332H14.1236L12.1098 13.2073ZM66.5801 109.298V190.332H46.9209H27.2617V109.298V28.2633H46.9209H66.5801V109.298ZM229.416 79.1854L271.803 106.133V123.682C271.803 141.711 271.036 146.506 267.967 148.136C264.706 149.863 260.774 149.191 258.281 146.602C256.171 144.3 255.979 143.246 255.596 132.793C255.308 122.436 255.116 121.285 253.103 119.367C251.28 117.641 244.759 116.394 204.578 110.161C173.507 105.366 156.629 103.16 153.656 103.448C140.23 104.886 132.079 114.86 132.942 128.861C133.229 134.423 133.805 136.341 136.202 139.697C140.038 145.164 145.6 148.904 151.834 150.054C154.711 150.534 172.164 151.013 190.96 151.013C210.907 151.013 225.676 151.397 226.635 151.972C229.32 153.411 230.854 157.822 229.703 160.987C227.594 166.453 228.361 166.357 152.889 166.357H83.8418V109.298V52.238H135.435H187.029L229.416 79.1854ZM196.81 126.559C219.059 130.012 237.471 132.793 237.759 132.793C238.046 132.793 238.238 134.039 238.238 135.67V138.451L234.69 136.341C231.142 134.327 230.183 134.231 192.591 133.752C156.437 133.272 153.944 133.176 152.026 131.45C150.875 130.395 150.012 128.477 150.012 126.847C150.012 124.066 152.889 120.326 155.094 120.326C155.766 120.326 174.562 123.107 196.81 126.559ZM258.952 166.357C260.679 166.357 261.446 167.124 262.309 170.097C265.282 179.975 257.61 190.332 247.349 190.332C243.033 190.332 236.8 187.263 234.69 183.907C233.06 181.509 233.06 181.317 234.882 180.358C238.718 178.248 244.759 171.248 245.91 167.604C246.486 165.59 247.157 163.48 247.349 162.905C247.54 162.138 249.267 162.521 252.239 164.056C254.733 165.302 257.802 166.357 258.952 166.357ZM264.61 244.898C287.914 255.83 294.627 286.71 278.036 306.944C274.296 311.451 266.337 317.014 261.062 318.74C253.678 321.137 253.198 322 249.746 339.741L246.486 355.948L250.13 363.524L253.678 371.196L250.321 378.293C248.404 382.224 246.869 386.348 246.869 387.403C246.869 388.458 248.116 392.006 249.65 395.267L252.527 401.212L246.102 406.007L239.677 410.802L239.197 366.977C238.91 342.906 238.334 322.576 237.855 321.904C237.471 321.233 234.211 319.219 230.662 317.589C214.647 310.013 205.153 292.751 207.551 275.681C211.291 248.926 240.156 233.39 264.61 244.898ZM198.728 249.501C198.536 249.981 197.194 252.57 195.755 255.351C184.727 276.257 189.33 304.547 206.496 321.617C209.948 325.069 214.839 329.001 217.332 330.343L221.84 332.741L222.127 382.416L222.415 432.188L225.1 434.489C230.279 438.9 232.676 438.037 249.938 425.187C270.748 409.747 271.803 408.597 271.803 403.802C271.707 401.308 270.556 397.568 268.542 393.636L265.282 387.403L268.638 380.786C270.46 377.238 271.995 372.922 271.995 371.388C272.09 369.854 270.46 365.155 268.446 360.935L264.706 353.359L266.432 344.249L268.159 335.138L274.871 331.686C284.557 326.507 293.476 317.301 298.367 307.232C303.162 297.354 304.696 291.025 304.696 280.956C304.696 269.736 303.257 264.557 295.969 249.405C295.681 248.926 299.901 248.734 305.943 249.117C324.643 250.076 337.205 255.543 350.056 268.393C358.591 276.928 363.386 284.696 366.838 295.34C368.756 301.286 369.044 304.739 369.523 326.22C370.099 349.811 370.195 350.482 372.304 352.592C374.414 354.798 374.51 354.798 408.937 355.085L443.461 355.373V381.17V406.966L445.762 409.651L448.064 412.337L465.901 412.624L483.738 413.008V432.571V452.134H451.612H419.486V445.613C419.486 435.928 417.856 428.639 413.637 419.625C404.718 400.445 383.429 386.923 361.947 386.923C348.042 386.923 331.931 393.445 322.245 402.843C310.546 414.255 305.463 425.571 304.696 442.257L304.12 452.134H239.101H173.986V445.613C173.986 435.928 172.356 428.639 168.137 419.625C159.218 400.445 137.929 386.923 116.447 386.923C102.542 386.923 86.4311 393.445 76.7453 402.843C65.0457 414.255 59.9631 425.571 59.1959 442.257L58.6205 452.134H42.9891H27.2617V409.46C27.2617 361.99 27.0699 363.428 33.6869 358.442L37.1393 355.756L70.5119 355.277C103.693 354.798 103.98 354.798 106.09 352.592C108.2 350.482 108.296 349.811 108.871 325.74C109.447 298.793 110.118 295.532 116.543 283.353C125.078 267.146 142.34 254.2 160.081 250.364C167.178 248.926 199.399 248.158 198.728 249.501ZM477.409 358.442C483.163 362.853 483.738 364.867 483.738 381.17V395.554H472.23H460.723V375.32V355.085L467.34 355.469C472.71 355.756 474.532 356.332 477.409 358.442ZM123.256 405.144C135.243 407.35 146.655 415.885 152.026 426.434C162.191 446.476 154.327 470.259 134.093 480.52C126.9 484.165 126.421 484.26 116.543 484.26C107.145 484.26 105.898 484.069 100.049 481.288C89.0203 476.013 81.6361 467.574 77.992 455.874C72.334 437.558 81.3484 417.036 98.802 408.788C107.912 404.569 114.529 403.514 123.256 405.144ZM368.756 405.144C380.743 407.35 392.155 415.885 397.526 426.434C407.691 446.476 399.827 470.259 379.593 480.52C372.4 484.165 371.921 484.26 362.043 484.26C352.645 484.26 351.398 484.069 345.549 481.288C334.52 476.013 327.136 467.574 323.492 455.874C317.834 437.558 326.848 417.036 344.302 408.788C353.412 404.569 360.029 403.514 368.756 405.144Z" fill="currentColor"/>
    <path d="M236.799 258.325C231.909 260.626 226.346 266.38 224.237 271.367C222.031 276.641 222.223 285.752 224.524 291.122C233.155 310.589 261.541 310.589 270.076 291.218C272.665 285.464 272.569 275.97 269.884 270.408C267.295 265.133 260.294 258.804 255.595 257.461C250.033 255.927 241.115 256.311 236.799 258.325ZM252.335 275.874C256.267 279.518 254.828 286.039 249.65 288.053C246.773 289.108 241.69 287.286 240.731 284.793C237.758 276.929 246.293 270.216 252.335 275.874Z" fill="currentColor"/>
    <path d="M160.561 274.149C143.778 278.848 129.585 293.521 125.654 310.207C124.599 314.522 124.119 321.523 124.119 332.935C124.119 348.95 124.215 349.525 126.421 352.114L128.722 354.8L163.821 355.087L198.92 355.375V346.648V338.017H170.054H141.189L141.573 326.222C141.86 316.153 142.34 313.755 144.45 309.056C149.053 299.179 159.122 291.603 169.096 290.356L173.986 289.78V281.341V272.806L169.479 272.902C166.89 272.902 162.958 273.478 160.561 274.149Z" fill="currentColor"/>
    <path d="M320.711 281.437C320.711 289.78 320.807 290.068 322.917 290.068C326.753 290.068 332.411 294.192 334.808 298.603C336.918 302.631 337.014 303.878 337.014 320.468V338.017H312.56H288.105V346.648V355.375L318.793 355.087C349.193 354.8 349.48 354.8 351.59 352.594C353.7 350.484 353.796 349.813 354.084 328.14C354.467 301.001 353.7 295.151 348.426 287.287C346.412 284.218 343.055 280.574 340.946 279.136C336.055 275.779 328.287 272.806 324.067 272.806H320.711V281.437Z" fill="currentColor"/>
    <path d="M392.731 12.4417C373.359 16.8531 357.152 25.9634 344.398 39.6769C330.301 55.0207 322.054 74.7757 320.999 96.0652C320.136 112.56 323.78 130.205 330.397 142.001L333.274 146.987L322.629 168.277C316.875 179.976 312.08 190.142 312.08 190.909C312.08 194.169 315.053 197.909 318.409 198.964C321.862 200.115 322.341 199.923 343.439 189.47L364.92 178.826L371.345 182.086C384.579 188.895 399.348 191.868 415.938 191.005C432.049 190.237 444.899 186.21 458.613 177.771C477.409 166.263 491.122 148.33 497.739 126.561C500.233 118.505 500.425 116.779 500.425 100.668C500.425 84.3656 500.233 82.9271 497.739 75.2552C492.273 58.6648 484.889 46.7734 473.573 35.841C462.641 25.388 452.188 19.3464 436.748 14.3597C429.652 12.0581 426.775 11.6746 413.732 11.3869C403.088 11.0992 397.142 11.3869 392.731 12.4417ZM426.295 29.6076C448.927 34.4025 469.258 51.4724 478.464 73.3373C485.944 91.0785 485.56 113.039 477.409 130.685C465.805 156.002 442.694 172.017 415.65 173.743C401.074 174.606 388.415 171.729 374.798 164.345C370.962 162.235 366.742 160.605 364.92 160.605C363.194 160.605 357.536 162.81 351.398 165.879L340.85 171.154L346.124 160.605C349.193 154.467 351.398 148.809 351.398 147.083C351.398 145.261 349.768 141.042 347.658 137.206C340.274 123.588 337.397 110.929 338.26 96.3529C340.178 64.6105 362.81 37.7589 394.073 30.0871C402.321 27.9773 417.664 27.7855 426.295 29.6076Z" fill="currentColor"/>
    <path d="M402.224 56.4559C402.224 61.2508 402.032 61.6344 399.443 62.7852C388.894 67.1006 383.332 81.8689 387.744 93.6645C391.292 102.871 401.169 109.775 410.855 109.775C414.212 109.775 418.527 113.995 418.527 117.351C418.527 120.42 415.554 123.872 412.294 124.736C409.225 125.503 405.197 122.913 403.854 119.269C402.8 116.488 402.8 116.488 394.169 116.488H385.634L386.209 120.804C386.593 123.201 387.648 126.749 388.703 128.763C390.812 132.887 397.046 138.929 400.21 139.983C401.937 140.463 402.224 141.326 402.224 145.833V151.012H410.855H419.486V145.833C419.486 141.038 419.678 140.655 422.267 139.504C426.007 137.97 431.377 132.503 433.487 128.092C437.707 119.365 435.789 107.186 428.98 100.186C424.569 95.6783 420.541 93.6645 412.965 92.5137C410.088 92.0342 406.923 90.8834 406.06 90.1162C401.073 85.609 404.334 77.2658 411.143 77.1699C414.787 77.1699 418.047 80.7182 418.815 85.4172C419.678 90.4039 422.459 92.9932 427.158 92.9932C429.843 92.9932 431.665 92.226 433.391 90.5957C435.789 88.39 435.98 87.7188 435.501 82.1566C434.926 74.293 431.281 68.2514 424.473 63.7441C419.582 60.5795 419.486 60.3877 419.486 55.8805V51.2773H410.855H402.224V56.4559Z" fill="currentColor"/>
</svg>
