<svg width="2048" height="2048" viewBox="0 0 2048 2048" fill="none" xmlns="http://www.w3.org/2000/svg">
<path d="M1715.14 1775.41H337.378C326.382 1775.41 317.469 1784.32 317.469 1795.32C317.469 1806.31 326.382 1815.23 337.378 1815.23H1715.14C1726.14 1815.23 1735.05 1806.31 1735.05 1795.32C1735.05 1784.32 1726.14 1775.41 1715.14 1775.41Z" fill="#F2F2F2"/>
<path d="M1425.79 1431.42C1425.79 1438.78 1419.76 1444.8 1412.4 1444.8H1366.71C1359.35 1444.8 1353.33 1438.78 1353.33 1431.42V1420.34C1353.33 1412.97 1359.35 1406.95 1366.71 1406.95H1412.4C1419.76 1406.95 1425.79 1412.97 1425.79 1420.34V1431.42Z" fill="#1F1F1F"/>
<path d="M1023.52 1530.16H948.289C904.86 1530.16 869.65 1590.34 869.65 1664.58C869.65 1674.25 870.249 1683.68 871.384 1692.77C878.787 1752.02 909.033 1796.78 945.604 1798.88L945.608 1798.98H1023.52C1061.3 1798.99 1092.85 1753.46 1100.44 1692.77C1101.57 1683.68 1102.17 1674.25 1102.17 1664.58C1102.17 1590.34 1066.96 1530.16 1023.52 1530.16Z" fill="#1F1F1F"/>
<path d="M1616.6 1530.15H1541.37C1497.94 1530.15 1462.73 1590.33 1462.73 1664.57C1462.73 1674.24 1463.32 1683.67 1464.46 1692.76C1471.86 1752.01 1502.11 1796.78 1538.68 1798.87L1538.68 1798.97H1616.6C1654.38 1798.98 1685.93 1753.45 1693.51 1692.77C1694.65 1683.67 1695.25 1674.24 1695.25 1664.57C1695.25 1590.33 1660.04 1530.15 1616.6 1530.15Z" fill="#1F1F1F"/>
<path d="M562.593 1385.65H405.306L364.48 1371.09H629.899L562.593 1385.65Z" fill="#1F1F1F"/>
<path d="M382.709 1674C382.709 1679.44 387.16 1683.89 392.599 1683.89H777.782C783.22 1683.89 787.669 1679.44 787.669 1674V1509.64C787.669 1504.2 783.22 1499.75 777.782 1499.75H392.599C387.16 1499.75 382.709 1504.2 382.709 1509.64V1674Z" fill="#1F1F1F"/>
<path d="M785.921 1301.75C724.424 1301.75 720.476 1291.63 683.863 1305.15C626.384 1326.37 495.993 1423.63 495.993 1423.63L453.078 1491.54L889.821 1473.83L785.921 1301.75Z" fill="#131313"/>
<path d="M668.739 1313.01C763.673 1254.08 1119.14 1268.48 1193.55 1301.94C1253.69 1318.52 1423.5 1469.35 1423.5 1469.35L679.268 1441.01C679.268 1436.9 679.737 1430.26 680.872 1422.06C641.981 1403.42 595 1358.78 668.739 1313.01Z" fill="#131313"/>
<path d="M752.091 1304.67C773.078 1301.94 797.01 1301.94 801.916 1301.94C879.208 1301.94 1141.42 1301.94 1177.5 1301.94C1229.62 1301.94 1419.33 1469.35 1419.33 1469.35L637.826 1451.76C513.226 1451.43 638.916 1325.12 752.091 1304.67Z" fill="white"/>
<path d="M1361.87 1445.67C1356.13 1439.85 1345.64 1429.7 1332.15 1417.38C1351.95 1426.13 1367.07 1434.41 1377.08 1440.4C1378.79 1441.42 1380.4 1442.34 1381.92 1443.16C1279.84 1357.26 1203.96 1306.4 1177.5 1306.4H1174.96C1166.96 1303.66 1159.57 1302.08 1153.01 1301.95C1154.47 1301.94 1155.59 1301.94 1156.31 1301.94C1154.95 1301.94 1153.56 1301.94 1152.14 1301.94C1161.83 1301.94 1173.3 1301.94 1177.5 1301.94C1216.66 1301.94 1333.49 1396.44 1389.17 1443.44C1374.25 1444 1367.36 1444.85 1361.87 1445.67Z" fill="white"/>
<path d="M896.284 1445.38C890.83 1432.91 885.259 1410.79 879.962 1388.14L903.149 1364.91C915.726 1371.97 933.15 1374.84 962.573 1375.47C963.292 1377.23 964.018 1379 964.744 1380.79C939.695 1407.03 931.066 1432.62 953.496 1444.64L896.284 1445.38ZM592.764 1403.69C592.928 1403.39 593.1 1403.09 593.285 1402.78C593.296 1402.76 593.308 1402.74 593.319 1402.73C593.312 1402.74 593.303 1402.75 593.296 1402.76C593.292 1402.77 593.289 1402.78 593.285 1402.78C593.107 1403.08 592.939 1403.37 592.78 1403.66C592.775 1403.67 592.768 1403.68 592.764 1403.69ZM594.297 1401.08C594.354 1400.98 594.411 1400.88 594.466 1400.78C602.571 1387.76 616.138 1373.66 633.114 1360.3C633.034 1360.36 632.955 1360.42 632.877 1360.49C615.892 1373.89 602.344 1388.03 594.297 1401.08ZM670.096 1335.59C681.253 1329.28 693.025 1323.52 705.069 1318.63C693.257 1323.43 681.72 1329.05 670.754 1335.22C670.533 1335.35 670.317 1335.47 670.096 1335.59ZM881.618 1333.72C877.149 1333.72 872.238 1333.72 866.975 1333.72C865.409 1327.98 863.917 1323.13 862.515 1319.56C859.024 1310.65 853.922 1305.3 848.097 1301.94C829.446 1301.94 813.57 1301.94 801.917 1301.94C851.212 1301.94 1056.69 1301.94 1152.14 1301.94C1152.43 1301.94 1152.71 1301.94 1153.01 1301.95C1144.47 1302 1124.4 1302.34 1106.49 1304.67C1103.66 1305.18 1100.81 1305.76 1097.97 1306.4H880.867C883.077 1314.73 882.506 1321.75 881.994 1328.1C881.832 1330.08 881.682 1331.94 881.618 1333.72ZM705.074 1318.63C705.231 1318.57 705.381 1318.51 705.538 1318.44C705.379 1318.51 705.231 1318.57 705.074 1318.63ZM705.608 1318.42C705.636 1318.4 705.647 1318.4 705.674 1318.39C705.654 1318.4 705.629 1318.41 705.608 1318.42ZM705.918 1318.29C705.945 1318.28 705.986 1318.26 706.014 1318.25C705.982 1318.26 705.95 1318.28 705.918 1318.29ZM706.109 1318.21C706.123 1318.21 706.148 1318.2 706.161 1318.19C706.146 1318.2 706.125 1318.21 706.109 1318.21ZM706.291 1318.14L706.298 1318.14C706.293 1318.14 706.296 1318.14 706.291 1318.14ZM747.932 1305.47C747.938 1305.47 747.943 1305.47 747.95 1305.46C747.938 1305.47 747.941 1305.47 747.932 1305.47ZM748.43 1305.37C748.437 1305.37 748.444 1305.36 748.45 1305.36C748.444 1305.36 748.434 1305.37 748.43 1305.37ZM748.926 1305.27C748.94 1305.27 748.942 1305.27 748.956 1305.26C748.944 1305.26 748.937 1305.27 748.926 1305.27ZM749.092 1305.24C749.099 1305.23 749.103 1305.23 749.11 1305.23C749.106 1305.23 749.097 1305.23 749.092 1305.24ZM749.59 1305.14C749.6 1305.14 749.604 1305.14 749.611 1305.13C749.604 1305.14 749.597 1305.14 749.59 1305.14ZM749.929 1305.07C749.936 1305.07 749.948 1305.07 749.954 1305.07C749.945 1305.07 749.939 1305.07 749.929 1305.07ZM750.08 1305.04C750.093 1305.04 750.107 1305.04 750.121 1305.04C750.105 1305.04 750.096 1305.04 750.08 1305.04ZM750.243 1305.01C750.257 1305.01 750.264 1305.01 750.278 1305.01C750.266 1305.01 750.255 1305.01 750.243 1305.01ZM750.583 1304.95C750.596 1304.94 750.608 1304.94 750.621 1304.94C750.61 1304.94 750.594 1304.94 750.583 1304.95ZM750.751 1304.91C750.758 1304.91 750.765 1304.91 750.771 1304.91C750.762 1304.91 750.762 1304.91 750.751 1304.91ZM750.924 1304.88L750.931 1304.88C750.926 1304.88 750.928 1304.88 750.924 1304.88ZM751.083 1304.85C751.097 1304.85 751.113 1304.85 751.126 1304.85C751.111 1304.85 751.099 1304.85 751.083 1304.85ZM751.236 1304.83C751.249 1304.82 751.272 1304.82 751.286 1304.81C751.27 1304.82 751.252 1304.82 751.236 1304.83ZM751.409 1304.79C751.415 1304.79 751.427 1304.79 751.434 1304.79C751.422 1304.79 751.418 1304.79 751.409 1304.79ZM751.586 1304.76C751.593 1304.76 751.609 1304.76 751.616 1304.76C751.611 1304.76 751.593 1304.76 751.586 1304.76ZM751.743 1304.73C751.757 1304.73 751.768 1304.73 751.784 1304.72C751.766 1304.73 751.759 1304.73 751.743 1304.73ZM751.909 1304.7C751.925 1304.7 751.927 1304.7 751.941 1304.7C751.932 1304.7 751.932 1304.7 751.921 1304.7C751.916 1304.7 751.914 1304.7 751.909 1304.7Z" fill="white"/>
<path d="M1153.01 1301.95C1152.71 1301.94 1152.43 1301.94 1152.14 1301.94C1153.56 1301.94 1154.95 1301.94 1156.31 1301.94C1155.59 1301.94 1154.47 1301.94 1153.01 1301.95Z" fill="#625B62"/>
<path d="M946.033 1336.41C946.033 1336.41 946.183 1336.75 946.465 1337.4C948.588 1342.27 958.193 1364.41 967.236 1386.96C971.756 1398.23 976.138 1409.62 979.352 1418.92C980.956 1423.56 982.271 1427.7 983.149 1430.95C983.591 1432.58 983.921 1433.98 984.128 1435.08C984.337 1436.16 984.403 1436.97 984.396 1437.14V1443.83H997.779V1437.14C997.77 1435.5 997.545 1433.99 997.217 1432.28C996.591 1429.11 995.531 1425.35 994.145 1420.99C991.717 1413.38 988.281 1404.02 984.474 1394.19C973.057 1364.72 958.309 1331.08 958.289 1331.04L955.604 1324.91L943.348 1330.28L946.033 1336.41V1336.41Z" fill="white"/>
<mask id="mask0_200_3796" style="mask-type:luminance" maskUnits="userSpaceOnUse" x="975" y="1306" width="358" height="112">
<path d="M1332.15 1417.38C1283.87 1396.05 1207.77 1372 1110.17 1372C1102.64 1372 1094.97 1372.14 1087.39 1372.43L1083.94 1372.56C1037.29 1374.33 1003.53 1375.6 977.086 1375.61C976.42 1373.98 975.758 1372.35 975.098 1370.75C1005.62 1343.17 1052.28 1316.7 1097.97 1306.4H1174.96C1222.46 1322.69 1291.16 1379.99 1332.15 1417.38Z" fill="white"/>
</mask>
<g mask="url(#mask0_200_3796)">
<path d="M1332.15 1417.38C1283.87 1396.05 1207.77 1372 1110.17 1372C1102.64 1372 1094.97 1372.14 1087.39 1372.43L1083.94 1372.56C1037.29 1374.33 1003.53 1375.6 977.086 1375.61C976.42 1373.98 975.758 1372.35 975.098 1370.75C1005.62 1343.17 1052.28 1316.7 1097.97 1306.4H1174.96C1222.46 1322.69 1291.16 1379.99 1332.15 1417.38Z" fill="white"/>
</g>
<mask id="mask1_200_3796" style="mask-type:luminance" maskUnits="userSpaceOnUse" x="1174" y="1306" width="208" height="138">
<path d="M1381.92 1443.16C1380.4 1442.34 1378.79 1441.42 1377.08 1440.4C1367.07 1434.41 1351.95 1426.13 1332.15 1417.38C1291.16 1379.99 1222.46 1322.69 1174.96 1306.4H1177.5C1203.96 1306.4 1279.84 1357.26 1381.92 1443.16Z" fill="white"/>
</mask>
<g mask="url(#mask1_200_3796)">
<path d="M1381.92 1443.16C1380.4 1442.34 1378.79 1441.42 1377.08 1440.4C1367.07 1434.41 1351.95 1426.13 1332.15 1417.38C1291.16 1379.99 1222.46 1322.69 1174.96 1306.4H1177.5C1203.96 1306.4 1279.84 1357.26 1381.92 1443.16Z" fill="white"/>
</g>
<mask id="mask2_200_3796" style="mask-type:luminance" maskUnits="userSpaceOnUse" x="880" y="1306" width="218" height="70">
<path d="M962.573 1375.47C933.15 1374.84 915.726 1371.97 903.149 1364.91L907.614 1360.43C907.614 1360.43 945.411 1333.72 894.682 1333.72C890.941 1333.72 886.545 1333.72 881.618 1333.72C881.682 1331.94 881.832 1330.08 881.994 1328.1C882.506 1321.75 883.077 1314.73 880.867 1306.4H1097.97C1052.28 1316.7 1005.62 1343.17 975.098 1370.75C966.314 1349.34 958.304 1331.07 958.288 1331.04L955.603 1324.91L943.347 1330.28L946.032 1336.41V1336.41C946.032 1336.41 946.182 1336.75 946.465 1337.4C948.224 1341.43 955.116 1357.32 962.573 1375.47Z" fill="white"/>
</mask>
<g mask="url(#mask2_200_3796)">
<path d="M962.573 1375.47C933.15 1374.84 915.726 1371.97 903.149 1364.91L907.614 1360.43C907.614 1360.43 945.411 1333.72 894.682 1333.72C890.941 1333.72 886.545 1333.72 881.618 1333.72C881.682 1331.94 881.832 1330.08 881.994 1328.1C882.506 1321.75 883.077 1314.73 880.867 1306.4H1097.97C1052.28 1316.7 1005.62 1343.17 975.098 1370.75C966.314 1349.34 958.304 1331.07 958.288 1331.04L955.603 1324.91L943.347 1330.28L946.032 1336.41V1336.41C946.032 1336.41 946.182 1336.75 946.465 1337.4C948.224 1341.43 955.116 1357.32 962.573 1375.47Z" fill="white"/>
</g>
<mask id="mask3_200_3796" style="mask-type:luminance" maskUnits="userSpaceOnUse" x="943" y="1324" width="35" height="52">
<path d="M976.757 1375.61C971.74 1375.61 967.018 1375.57 962.574 1375.47C955.117 1357.32 948.224 1341.43 946.465 1337.4C946.183 1336.75 946.033 1336.41 946.033 1336.41V1336.41L943.348 1330.28L955.604 1324.91L958.289 1331.04C958.305 1331.07 966.315 1349.34 975.099 1370.75C975.758 1372.35 976.421 1373.98 977.087 1375.61C976.976 1375.61 976.867 1375.61 976.757 1375.61Z" fill="white"/>
</mask>
<g mask="url(#mask3_200_3796)">
<path d="M976.757 1375.61C971.74 1375.61 967.018 1375.57 962.574 1375.47C955.117 1357.32 948.224 1341.43 946.465 1337.4C946.183 1336.75 946.033 1336.41 946.033 1336.41V1336.41L943.348 1330.28L955.604 1324.91L958.289 1331.04C958.305 1331.07 966.315 1349.34 975.099 1370.75C975.758 1372.35 976.421 1373.98 977.087 1375.61C976.976 1375.61 976.867 1375.61 976.757 1375.61Z" fill="white"/>
</g>
<path d="M889.836 1445.46L888.921 1443.98C883.929 1424.62 879.189 1408.03 874.902 1393.22L879.962 1388.14C885.26 1410.79 890.83 1432.91 896.285 1445.38L889.836 1445.46ZM790.667 1437.31C740.505 1437.31 701.334 1435.8 670.916 1432.7C613.169 1426.82 602.122 1416.54 600.051 1413.21C626.579 1413.21 804.844 1413.21 828.157 1413.21C853.354 1413.21 865.517 1402.62 865.517 1402.62L867.699 1400.43C870.865 1411.41 874.255 1423.38 877.794 1436.7L844.095 1437.13C842.275 1437.11 840.14 1437.1 837.726 1437.1C833.093 1437.1 827.404 1437.14 820.873 1437.18C811.973 1437.24 801.884 1437.31 790.667 1437.31ZM590.732 1409.29C591.028 1407.51 591.697 1405.64 592.764 1403.69C592.769 1403.68 592.776 1403.67 592.78 1403.66C591.704 1405.62 591.031 1407.5 590.732 1409.29ZM593.297 1402.76C593.304 1402.75 593.313 1402.74 593.32 1402.73C593.52 1402.39 593.716 1402.06 593.902 1401.75C593.709 1402.07 593.509 1402.41 593.297 1402.76Z" fill="white"/>
<path d="M705.539 1318.44C705.56 1318.43 705.589 1318.42 705.61 1318.42C705.589 1318.42 705.56 1318.44 705.539 1318.44ZM705.676 1318.39C705.703 1318.38 705.723 1318.37 705.748 1318.36C705.728 1318.37 705.696 1318.38 705.676 1318.39ZM705.828 1318.33C705.86 1318.31 705.887 1318.3 705.919 1318.29C705.885 1318.3 705.862 1318.31 705.828 1318.33ZM706.015 1318.25C706.047 1318.24 706.078 1318.22 706.11 1318.21C706.076 1318.23 706.049 1318.24 706.015 1318.25ZM706.163 1318.19C706.204 1318.17 706.249 1318.16 706.292 1318.14C706.245 1318.16 706.21 1318.17 706.163 1318.19ZM706.788 1317.94C720.276 1312.57 734.093 1308.29 747.776 1305.5C734.093 1308.29 720.278 1312.57 706.788 1317.94ZM747.776 1305.5C747.826 1305.49 747.885 1305.48 747.933 1305.47C747.883 1305.48 747.826 1305.49 747.776 1305.5ZM747.951 1305.46C748.058 1305.44 748.165 1305.42 748.272 1305.4C748.16 1305.42 748.06 1305.44 747.951 1305.46ZM748.283 1305.4C748.338 1305.39 748.376 1305.38 748.431 1305.37C748.381 1305.38 748.333 1305.39 748.283 1305.4ZM748.452 1305.36C748.606 1305.33 748.772 1305.3 748.927 1305.27C748.768 1305.3 748.611 1305.33 748.452 1305.36ZM748.957 1305.26C749.004 1305.25 749.045 1305.24 749.093 1305.24C749.052 1305.24 748.998 1305.25 748.957 1305.26ZM749.111 1305.23C749.218 1305.21 749.33 1305.19 749.437 1305.17C749.325 1305.19 749.223 1305.21 749.111 1305.23ZM749.439 1305.17C749.494 1305.16 749.539 1305.15 749.592 1305.14C749.544 1305.15 749.487 1305.16 749.439 1305.17ZM749.612 1305.13C749.719 1305.11 749.824 1305.09 749.931 1305.07C749.819 1305.09 749.721 1305.11 749.612 1305.13ZM749.956 1305.07C749.994 1305.06 750.044 1305.05 750.081 1305.04C750.04 1305.05 749.999 1305.06 749.956 1305.07ZM750.122 1305.04C750.163 1305.03 750.201 1305.02 750.245 1305.01C750.224 1305.02 750.201 1305.02 750.181 1305.02C750.16 1305.03 750.142 1305.03 750.122 1305.04ZM750.279 1305.01C750.379 1304.99 750.481 1304.97 750.584 1304.95C750.515 1304.96 750.443 1304.97 750.372 1304.99H750.37C750.343 1304.99 750.306 1305 750.279 1305.01ZM750.622 1304.94C750.666 1304.93 750.709 1304.92 750.752 1304.91C750.711 1304.92 750.663 1304.93 750.622 1304.94ZM750.773 1304.91C750.823 1304.9 750.877 1304.89 750.925 1304.88C750.87 1304.89 750.829 1304.9 750.773 1304.91ZM751.128 1304.85L751.13 1304.84C751.123 1304.85 751.134 1304.84 751.128 1304.85ZM751.141 1304.84C751.173 1304.84 751.205 1304.83 751.237 1304.83C751.21 1304.83 751.182 1304.84 751.155 1304.84C751.148 1304.84 751.15 1304.84 751.141 1304.84ZM751.287 1304.81C751.326 1304.81 751.371 1304.8 751.41 1304.79C751.389 1304.8 751.369 1304.8 751.348 1304.81C751.337 1304.81 751.328 1304.81 751.316 1304.81C751.303 1304.81 751.301 1304.81 751.287 1304.81ZM751.435 1304.79C751.455 1304.79 751.485 1304.78 751.505 1304.78C751.498 1304.78 751.496 1304.78 751.489 1304.78C751.467 1304.78 751.455 1304.79 751.435 1304.79ZM751.533 1304.77C751.553 1304.77 751.567 1304.76 751.587 1304.76C751.574 1304.76 751.56 1304.76 751.546 1304.77C751.542 1304.77 751.537 1304.77 751.533 1304.77ZM751.617 1304.76C751.66 1304.75 751.701 1304.74 751.744 1304.73C751.737 1304.73 751.735 1304.73 751.728 1304.74C751.71 1304.74 751.694 1304.74 751.674 1304.74C751.653 1304.75 751.637 1304.75 751.617 1304.76ZM751.785 1304.72C751.817 1304.72 751.849 1304.71 751.881 1304.71C751.876 1304.71 751.863 1304.71 751.86 1304.71C751.833 1304.72 751.813 1304.72 751.785 1304.72ZM751.942 1304.7C751.99 1304.69 752.045 1304.68 752.092 1304.67C752.045 1304.68 751.992 1304.69 751.942 1304.7Z" fill="#BC312B"/>
<path d="M781.021 1302.36C791.195 1301.94 799.287 1301.94 801.918 1301.94C799.29 1301.94 791.207 1301.94 781.04 1302.36C781.033 1302.36 781.028 1302.36 781.021 1302.36Z" fill="#972522"/>
<path d="M670.754 1335.22C681.72 1329.05 693.257 1323.43 705.069 1318.63L705.074 1318.63C705.231 1318.57 705.379 1318.51 705.538 1318.44C705.559 1318.44 705.588 1318.42 705.609 1318.42C705.629 1318.41 705.654 1318.4 705.675 1318.39C705.695 1318.38 705.727 1318.37 705.747 1318.36C705.775 1318.35 705.8 1318.34 705.827 1318.33C705.861 1318.31 705.884 1318.3 705.918 1318.29C705.95 1318.28 705.982 1318.26 706.014 1318.25C706.048 1318.24 706.075 1318.23 706.109 1318.21C706.125 1318.21 706.146 1318.2 706.162 1318.19C706.209 1318.17 706.244 1318.16 706.291 1318.14C706.296 1318.14 706.294 1318.14 706.298 1318.14C706.462 1318.07 706.624 1318.01 706.787 1317.94C720.277 1312.57 734.092 1308.29 747.775 1305.5C747.825 1305.49 747.882 1305.48 747.932 1305.47C747.941 1305.47 747.938 1305.47 747.95 1305.46C748.059 1305.44 748.159 1305.42 748.271 1305.4L748.282 1305.4C748.332 1305.39 748.38 1305.38 748.43 1305.37C748.435 1305.37 748.444 1305.36 748.451 1305.36C748.61 1305.33 748.767 1305.3 748.926 1305.27C748.937 1305.27 748.944 1305.26 748.956 1305.26C748.997 1305.25 749.051 1305.24 749.092 1305.24C749.097 1305.23 749.106 1305.23 749.11 1305.23C749.222 1305.21 749.324 1305.19 749.436 1305.17H749.438C749.486 1305.16 749.543 1305.15 749.591 1305.14C749.597 1305.14 749.604 1305.14 749.611 1305.13C749.72 1305.11 749.818 1305.09 749.93 1305.07C749.939 1305.07 749.946 1305.07 749.955 1305.07C749.998 1305.06 750.039 1305.05 750.08 1305.04C750.096 1305.04 750.105 1305.04 750.121 1305.04C750.141 1305.03 750.159 1305.03 750.18 1305.02C723.303 1310.16 695.81 1321.17 671.202 1334.97C671.052 1335.06 670.904 1335.14 670.754 1335.22ZM866.975 1333.72C863.425 1333.72 859.725 1333.72 855.882 1333.72C843.671 1310.14 825.214 1302.16 798.124 1301.95C794.21 1301.98 788.134 1302.07 781.039 1302.36C791.206 1301.94 799.289 1301.94 801.917 1301.94C813.57 1301.94 829.447 1301.94 848.097 1301.94C853.922 1305.3 859.024 1310.65 862.515 1319.56C863.917 1323.13 865.409 1327.98 866.975 1333.72ZM750.18 1305.02C750.2 1305.02 750.223 1305.02 750.244 1305.01C750.255 1305.01 750.266 1305.01 750.278 1305.01C750.305 1305 750.341 1304.99 750.369 1304.99C750.305 1305 750.244 1305.01 750.18 1305.02ZM750.371 1304.99C750.442 1304.97 750.514 1304.96 750.583 1304.95C750.594 1304.94 750.61 1304.94 750.621 1304.94C750.662 1304.93 750.71 1304.92 750.751 1304.91C750.762 1304.91 750.762 1304.91 750.772 1304.91C750.828 1304.9 750.869 1304.89 750.924 1304.88C750.929 1304.88 750.926 1304.88 750.931 1304.88C750.981 1304.87 751.036 1304.86 751.083 1304.85C751.099 1304.85 751.111 1304.85 751.127 1304.85C751.133 1304.84 751.122 1304.85 751.129 1304.84C750.876 1304.89 750.624 1304.94 750.371 1304.99ZM751.154 1304.84C751.181 1304.84 751.208 1304.83 751.236 1304.83C751.252 1304.82 751.27 1304.82 751.286 1304.81C751.299 1304.81 751.302 1304.81 751.315 1304.81C751.263 1304.82 751.206 1304.83 751.154 1304.84ZM751.347 1304.81C751.368 1304.8 751.388 1304.8 751.409 1304.79C751.418 1304.79 751.422 1304.79 751.434 1304.79C751.454 1304.79 751.466 1304.78 751.488 1304.78C751.443 1304.79 751.391 1304.8 751.347 1304.81ZM751.545 1304.77C751.559 1304.76 751.573 1304.76 751.586 1304.76C751.593 1304.76 751.611 1304.76 751.616 1304.76C751.636 1304.75 751.652 1304.75 751.673 1304.74C751.629 1304.75 751.588 1304.76 751.545 1304.77ZM751.727 1304.74C751.734 1304.73 751.736 1304.73 751.743 1304.73C751.759 1304.73 751.766 1304.73 751.784 1304.72C751.811 1304.72 751.832 1304.72 751.859 1304.71C751.814 1304.72 751.773 1304.73 751.727 1304.74ZM751.921 1304.7C751.932 1304.7 751.932 1304.7 751.941 1304.7C751.991 1304.69 752.044 1304.68 752.091 1304.67C752.035 1304.68 751.975 1304.69 751.921 1304.7ZM752.56 1304.61C752.572 1304.61 752.581 1304.61 752.59 1304.61C752.578 1304.61 752.572 1304.61 752.56 1304.61ZM752.829 1304.57C752.831 1304.57 752.831 1304.57 752.833 1304.57H752.829ZM752.94 1304.56C752.949 1304.56 752.961 1304.56 752.97 1304.56C752.961 1304.56 752.952 1304.56 752.94 1304.56ZM753.2 1304.53C753.2 1304.53 753.2 1304.53 753.202 1304.53H753.2Z" fill="#455A5C"/>
<path d="M879.961 1388.14C875.337 1368.37 870.923 1348.21 866.975 1333.72C872.238 1333.72 877.149 1333.72 881.618 1333.72C881.404 1339.84 882.219 1345.02 887.207 1351.14C891.912 1356.91 896.939 1361.42 903.149 1364.91L879.961 1388.14Z" fill="#6FA39B"/>
<mask id="mask4_200_3796" style="mask-type:luminance" maskUnits="userSpaceOnUse" x="881" y="1333" width="41" height="32">
<path d="M903.15 1364.91C896.94 1361.42 891.913 1356.91 887.207 1351.14C882.219 1345.02 881.404 1339.84 881.618 1333.72C886.545 1333.72 890.941 1333.72 894.682 1333.72C945.411 1333.72 907.614 1360.43 907.614 1360.43L903.15 1364.91Z" fill="white"/>
</mask>
<g mask="url(#mask4_200_3796)">
<path d="M903.15 1364.91C896.94 1361.42 891.913 1356.91 887.207 1351.14C882.219 1345.02 881.404 1339.84 881.618 1333.72C886.545 1333.72 890.941 1333.72 894.682 1333.72C945.411 1333.72 907.614 1360.43 907.614 1360.43L903.15 1364.91Z" fill="white"/>
</g>
<path d="M633.113 1360.3C643.387 1351.96 655.751 1343.68 670.096 1335.59C656.699 1343.18 644.184 1351.58 633.113 1360.3Z" fill="#9B9185"/>
<path d="M632.877 1360.49C632.954 1360.43 633.034 1360.36 633.114 1360.3C644.184 1351.58 656.7 1343.18 670.096 1335.59C670.317 1335.47 670.533 1335.35 670.754 1335.22C662.32 1339.97 654.217 1345.05 646.61 1350.33C646.601 1350.34 646.589 1350.35 646.58 1350.35C646.535 1350.38 646.492 1350.41 646.448 1350.44C646.432 1350.46 646.41 1350.47 646.394 1350.48C646.371 1350.5 646.355 1350.51 646.332 1350.53C641.654 1353.78 637.153 1357.11 632.877 1360.49Z" fill="#6FA39B"/>
<path d="M828.156 1413.21C804.843 1413.21 626.578 1413.21 600.05 1413.21C600.009 1413.14 599.97 1413.07 599.936 1413.01C599.558 1412.35 598.776 1410.97 600.935 1407.37C601.29 1406.78 601.618 1406.23 601.932 1405.69C606.226 1398.75 612.226 1391.44 619.595 1384.07C632.716 1381.1 656.921 1379.98 698.823 1379.98C712.078 1379.98 726.33 1380.09 740.11 1380.2C754.248 1380.31 768.867 1380.42 782.811 1380.42C788.3 1380.42 793.716 1380.4 799.015 1380.36L800.583 1380.36C826.998 1380.36 851.319 1385.72 865.787 1393.82C866.415 1395.99 867.052 1398.19 867.698 1400.43L865.516 1402.62C865.516 1402.62 853.353 1413.21 828.156 1413.21ZM874.901 1393.22C871.157 1380.28 867.758 1368.69 864.831 1357.76C862.315 1348.38 859.349 1340.42 855.882 1333.72C859.725 1333.72 863.425 1333.72 866.975 1333.72C870.923 1348.21 875.338 1368.37 879.961 1388.14L874.901 1393.22ZM646.332 1350.53C646.355 1350.51 646.371 1350.5 646.394 1350.48C646.371 1350.5 646.355 1350.51 646.332 1350.53ZM646.449 1350.44C646.492 1350.41 646.535 1350.38 646.58 1350.35C646.533 1350.39 646.494 1350.41 646.449 1350.44ZM646.61 1350.33C654.217 1345.05 662.32 1339.97 670.754 1335.22C670.904 1335.14 671.052 1335.06 671.202 1334.97C662.603 1339.79 654.356 1344.96 646.61 1350.33Z" fill="white"/>
<mask id="mask5_200_3796" style="mask-type:luminance" maskUnits="userSpaceOnUse" x="692" y="1310" width="154" height="24">
<path d="M845.661 1333.72C794.655 1333.72 726.079 1333.72 692.965 1333.72C713.361 1323.99 734.098 1317.01 753.461 1313.49C769.881 1311.37 788.447 1310.94 798.118 1310.87C818.953 1311.04 834.52 1315.43 845.661 1333.72Z" fill="white"/>
</mask>
<g mask="url(#mask5_200_3796)">
<path d="M845.661 1333.72C794.655 1333.72 726.079 1333.72 692.965 1333.72C713.361 1323.99 734.098 1317.01 753.461 1313.49C769.881 1311.37 788.447 1310.94 798.118 1310.87C818.953 1311.04 834.52 1315.43 845.661 1333.72Z" fill="white"/>
</g>
<mask id="mask6_200_3796" style="mask-type:luminance" maskUnits="userSpaceOnUse" x="619" y="1333" width="247" height="61">
<path d="M865.788 1393.82C851.32 1385.72 826.999 1380.36 800.584 1380.36L799.016 1380.36C793.717 1380.4 788.301 1380.42 782.812 1380.42C768.868 1380.42 754.249 1380.31 740.111 1380.2C726.331 1380.09 712.079 1379.98 698.824 1379.98C656.922 1379.98 632.717 1381.1 619.596 1384.07C630.967 1372.7 645.592 1361.19 662.219 1350.7C672.225 1344.38 682.551 1338.7 692.966 1333.72C726.08 1333.72 794.656 1333.72 845.663 1333.72C849.768 1340.46 853.268 1349.08 856.215 1360.07C858.747 1369.53 861.665 1379.59 864.755 1390.25C865.096 1391.43 865.44 1392.62 865.788 1393.82Z" fill="white"/>
</mask>
<g mask="url(#mask6_200_3796)">
<path d="M865.788 1393.82C851.32 1385.72 826.999 1380.36 800.584 1380.36L799.016 1380.36C793.717 1380.4 788.301 1380.42 782.812 1380.42C768.868 1380.42 754.249 1380.31 740.111 1380.2C726.331 1380.09 712.079 1379.98 698.824 1379.98C656.922 1379.98 632.717 1381.1 619.596 1384.07C630.967 1372.7 645.592 1361.19 662.219 1350.7C672.225 1344.38 682.551 1338.7 692.966 1333.72C726.08 1333.72 794.656 1333.72 845.663 1333.72C849.768 1340.46 853.268 1349.08 856.215 1360.07C858.747 1369.53 861.665 1379.59 864.755 1390.25C865.096 1391.43 865.44 1392.62 865.788 1393.82Z" fill="white"/>
</g>
<path d="M1177.5 1301.94C1155.76 1301.94 1051.87 1301.94 955.833 1301.94C939.961 1302.08 886.269 1301.24 877.788 1317.01C870.795 1330.01 877.092 1348.48 881.629 1361.14C894.115 1395.98 907.158 1444.87 935.58 1444.87H935.68L985.715 1452.56C1028.29 1452.56 1197.88 1451.81 1303.43 1451.81C1358.88 1451.81 1396.65 1449.72 1389.04 1443.33C1331.23 1394.86 1215.2 1301.94 1177.5 1301.94ZM1183.75 1310.28C1192.02 1310.28 1215.14 1316.9 1277.13 1361.24C1313.51 1387.26 1347.35 1409.46 1375.62 1432.92C1364.99 1434.03 1151.89 1434.42 1081.88 1432.18C1037.47 1430.76 981.437 1429.63 981.437 1429.63L941.836 1428.19C922.694 1428.19 914.395 1400.29 904.375 1371.16C902.837 1366.69 901.383 1362.47 899.902 1358.33C896.486 1348.8 890.126 1331.05 895.555 1320.96C895.872 1320.37 899.315 1315.13 922.389 1312.25C937.173 1310.4 953.248 1310.34 962.853 1310.3C964.15 1310.29 965.315 1310.29 966.257 1310.28H1173.33H1183.75Z" fill="#1F1F1F"/>
<path d="M985.717 1444.22C1011.37 1447.36 1048.3 1446.48 1094.61 1445.59C1134.81 1444.82 1182.08 1444.05 1235.17 1445.92C1413.41 1452.17 1310.12 1442.83 1432.82 1442.83C1555.51 1442.83 1674.53 1481.12 1699.98 1525.7L1714.89 1561.62C1719.73 1575.05 1716.57 1596.2 1716.57 1611.38L1688.26 1676.33C1688.26 1691.5 1691.81 1700.94 1680.76 1700.94C1680.76 1700.94 1686.44 1705.64 1672.27 1705.64C1658.1 1705.64 1654.6 1704.25 1654.6 1675.93C1654.6 1675.16 1654.6 1674.39 1654.59 1673.63C1654.59 1673.25 1654.6 1672.87 1654.6 1672.49C1654.6 1589.07 1614.34 1521.21 1564.84 1521.21C1515.35 1521.21 1475.09 1589.07 1475.09 1672.49C1475.09 1672.87 1475.11 1673.24 1475.11 1673.62C1475.1 1674.39 1475.09 1675.15 1475.09 1675.92C1475.09 1699.24 1472.73 1705.62 1459.27 1705.62C1386.02 1705.62 1066.06 1705.62 1045.69 1705.62C1022.22 1705.62 1023.9 1698.1 1023.9 1684.94C1023.9 1680.88 1024.08 1677.06 1024.08 1673.85C1024.08 1622.38 1008.9 1576.8 985.717 1549.05V1444.22Z" fill="#131313"/>
<path d="M539.199 1728.36C539.199 1733.35 543.279 1737.43 548.265 1737.43H1559C1563.98 1737.43 1568.06 1733.35 1568.06 1728.36V1529.07C1568.06 1524.09 1563.98 1520.01 1559 1520.01H548.265C543.279 1520.01 539.199 1524.09 539.199 1529.07V1728.36Z" fill="#131313"/>
<path d="M481.264 1798.97H559.179C596.956 1798.98 628.511 1753.45 636.093 1692.77C637.229 1683.67 637.827 1674.24 637.827 1664.57C637.827 1590.33 602.618 1530.15 559.179 1530.15H483.945L476.986 1668.31L481.264 1798.97Z" fill="#1F1F1F"/>
<path d="M1070.53 1798.97H1148.44C1186.22 1798.98 1217.77 1753.45 1225.35 1692.77C1226.49 1683.67 1227.09 1674.24 1227.09 1664.57C1227.09 1590.33 1191.88 1530.15 1148.44 1530.15H1073.21L1066.25 1668.31L1070.53 1798.97Z" fill="#1F1F1F"/>
<path d="M1505.79 1700.94C1505.16 1695.93 1504.83 1690.74 1504.83 1685.41C1504.83 1644.52 1524.22 1611.38 1548.14 1611.38L1505.79 1700.94Z" fill="#131313"/>
<path d="M1548.14 1611.38C1572.06 1611.38 1591.46 1644.52 1591.46 1685.41C1591.46 1690.74 1591.13 1695.93 1590.5 1700.94L1548.14 1611.38Z" fill="#131313"/>
<path d="M1194.46 1518.79L1203.53 1518.84V1710.18H1664.78C1672.1 1710.18 1696.1 1697.79 1696.1 1682.61L1721.05 1619.77C1721.05 1604.59 1719.57 1581.33 1714.73 1567.9L1697.1 1522.27C1695.05 1516.54 1656.33 1511.27 1653.51 1506.88H1616.29H1312.25H1194.46V1518.79Z" fill="#131313"/>
<path d="M1064.41 1447.26C1189.43 1470.73 1261.62 1515.52 1261.62 1515.52C1282.03 1519.51 1353.46 1559.3 1353.46 1559.3L1596.07 1556.17L1631.88 1544.71C1506.06 1447.26 1379.26 1447.26 1289.62 1447.26H1064.41Z" fill="#131313"/>
<path d="M1591.46 1501.76C1588.52 1504.32 1568.85 1503.53 1568.85 1503.53C1568.85 1503.53 1577.04 1507.78 1584.45 1512.38C1599.29 1521.58 1612.04 1544.71 1568.06 1544.71C1524.09 1544.71 1600.69 1563.92 1600.69 1563.92L1622.4 1564.4C1622.4 1564.4 1679.66 1516.52 1674.97 1513.92C1670.28 1511.31 1630.33 1492.94 1631.88 1491.54C1648.99 1476.21 1591.46 1501.76 1591.46 1501.76Z" fill="#131313"/>
<path d="M1353.92 1559.3C1353.92 1559.3 1236.57 1444.22 985.716 1444.22L589.191 1449.35L1005.52 1487.38L1286.95 1559.3H1353.92Z" fill="#131313"/>
<path d="M464.858 1421.55C405.882 1421.55 381.766 1428.83 381.766 1515.57V1563.02C381.766 1578.19 381.766 1575.24 381.766 1590.42V1620.99H401.829C414.625 1562.6 447.975 1520.86 487.008 1520.86C537.061 1520.86 577.784 1589.49 577.784 1673.85C577.784 1677.06 577.607 1680.88 577.607 1684.94C577.607 1698.1 575.921 1705.62 599.397 1705.62C619.768 1705.62 898.035 1705.62 971.282 1705.62C984.738 1705.62 987.102 1699.24 987.102 1675.92C987.102 1675.15 987.113 1674.39 987.12 1673.62C987.118 1673.24 987.102 1672.87 987.102 1672.49C987.102 1589.07 1027.37 1521.21 1076.85 1521.21C1126.35 1521.21 1174.95 1589.07 1174.95 1672.49C1174.95 1672.87 1187.45 1673.25 1187.44 1673.63C1187.45 1674.39 1174.95 1675.16 1174.95 1675.93C1174.95 1704.25 1209.72 1684.79 1223.89 1684.79C1238.06 1684.79 1196.97 1705.64 1196.97 1705.64C1208.01 1705.64 1231.14 1691.5 1231.14 1676.33L1222.8 1613.49C1222.8 1598.31 1208.33 1542.74 1185.2 1540.77L1253.69 1548.63C1228.23 1504.05 1067.52 1463.68 944.829 1463.68C822.136 1463.68 842.029 1460.51 663.796 1454.25C485.565 1448 498.078 1421.55 498.078 1421.55H464.858Z" fill="#131313"/>
<path d="M391.732 1449.31C402.23 1427.7 421.442 1422.66 451.225 1421.74L469.757 1428.61L483.408 1436.28C480.038 1435.22 467.101 1433.97 451.907 1433.97C427.729 1433.97 397.845 1437.15 391.732 1449.31Z" fill="#131313"/>
<path d="M490.006 1499.75H535.053L553.166 1511.15L545.7 1520.46L501.561 1516.43L490.006 1499.75Z" fill="#131313"/>
<mask id="mask7_200_3796" style="mask-type:luminance" maskUnits="userSpaceOnUse" x="394" y="1499" width="208" height="122">
<path d="M401.83 1620.99H394.361C394.361 1589.65 419.54 1499.27 492.376 1499.27C500.73 1499.27 509.716 1500.46 519.36 1503.06C552.096 1513.55 579.792 1548.25 595.661 1595.63C597.939 1599.82 599.605 1605.04 601.13 1612.24C599.118 1607.82 593.984 1605.73 588.352 1605.73C581.665 1605.73 574.278 1608.69 570.608 1614.23C570.605 1614.23 570.605 1614.23 570.605 1614.23C560.818 1575.4 541.774 1544.73 518.17 1530.15C509.944 1525.06 501.167 1521.93 492.03 1521.09H492.028C491.887 1521.07 491.746 1521.06 491.605 1521.05C491.6 1521.05 491.591 1521.05 491.587 1521.05C491.555 1521.05 491.521 1521.05 491.487 1521.04C491.382 1521.03 491.277 1521.02 491.175 1521.02C491.166 1521.02 491.159 1521.02 491.15 1521.02C491.118 1521.01 491.086 1521.01 491.054 1521.01C491.052 1521.01 491.045 1521.01 491.043 1521.01C490.972 1521 490.906 1521 490.836 1520.99H490.833C490.802 1520.99 490.772 1520.99 490.74 1520.99C490.731 1520.99 490.722 1520.98 490.713 1520.98C490.681 1520.98 490.651 1520.98 490.62 1520.98C490.617 1520.98 490.61 1520.98 490.608 1520.98C490.54 1520.97 490.476 1520.97 490.408 1520.96C490.406 1520.96 490.399 1520.96 490.397 1520.96C490.367 1520.96 490.337 1520.96 490.308 1520.96C490.296 1520.96 490.285 1520.96 490.274 1520.96C490.244 1520.95 490.215 1520.95 490.185 1520.95C490.176 1520.95 490.171 1520.95 490.162 1520.95C490.105 1520.94 490.048 1520.94 489.992 1520.94C489.98 1520.94 489.969 1520.94 489.957 1520.94C489.93 1520.94 489.905 1520.93 489.878 1520.93C489.864 1520.93 489.846 1520.93 489.832 1520.93C489.805 1520.93 489.78 1520.93 489.753 1520.93C489.739 1520.93 489.725 1520.92 489.712 1520.92C489.662 1520.92 489.614 1520.92 489.564 1520.92C489.55 1520.92 489.534 1520.92 489.52 1520.92C489.495 1520.92 489.47 1520.91 489.445 1520.91C489.427 1520.91 489.409 1520.91 489.391 1520.91C489.368 1520.91 489.341 1520.91 489.318 1520.91C489.298 1520.91 489.284 1520.9 489.263 1520.9C489.222 1520.9 489.179 1520.9 489.138 1520.9C489.12 1520.9 489.1 1520.9 489.081 1520.9C489.056 1520.9 489.036 1520.89 489.011 1520.89C488.993 1520.89 488.972 1520.89 488.954 1520.89C488.931 1520.89 488.904 1520.89 488.881 1520.89C488.861 1520.89 488.842 1520.89 488.822 1520.89C488.783 1520.89 488.749 1520.89 488.71 1520.88C488.688 1520.88 488.665 1520.88 488.642 1520.88C488.622 1520.88 488.597 1520.88 488.576 1520.88C488.553 1520.88 488.533 1520.88 488.51 1520.88C488.49 1520.88 488.467 1520.88 488.446 1520.88C488.421 1520.88 488.394 1520.87 488.369 1520.87C488.342 1520.87 488.314 1520.87 488.287 1520.87C488.258 1520.87 488.228 1520.87 488.198 1520.87C488.18 1520.87 488.162 1520.87 488.144 1520.87C488.119 1520.87 488.094 1520.87 488.069 1520.87C488.048 1520.87 488.032 1520.87 488.012 1520.87C487.982 1520.87 487.95 1520.87 487.921 1520.87C487.9 1520.87 487.878 1520.87 487.857 1520.87C487.825 1520.86 487.791 1520.86 487.759 1520.86C487.741 1520.86 487.725 1520.86 487.707 1520.86C487.68 1520.86 487.65 1520.86 487.623 1520.86C487.607 1520.86 487.593 1520.86 487.577 1520.86C487.538 1520.86 487.502 1520.86 487.463 1520.86C487.454 1520.86 487.445 1520.86 487.436 1520.86C487.397 1520.86 487.356 1520.86 487.315 1520.86C487.302 1520.86 487.288 1520.86 487.275 1520.86C487.243 1520.86 487.211 1520.86 487.179 1520.86C487.165 1520.86 487.152 1520.86 487.138 1520.86C487.095 1520.86 487.052 1520.86 487.006 1520.86C453.464 1520.86 424.116 1551.69 408.406 1597.41C405.835 1604.9 403.627 1612.78 401.83 1620.99Z" fill="white"/>
</mask>
<g mask="url(#mask7_200_3796)">
<path d="M401.83 1620.99H394.361C394.361 1589.65 419.54 1499.27 492.376 1499.27C500.73 1499.27 509.716 1500.46 519.36 1503.06C552.096 1513.55 579.792 1548.25 595.661 1595.63C597.939 1599.82 599.605 1605.04 601.13 1612.24C599.118 1607.82 593.984 1605.73 588.352 1605.73C581.665 1605.73 574.278 1608.69 570.608 1614.23C570.605 1614.23 570.605 1614.23 570.605 1614.23C560.818 1575.4 541.774 1544.73 518.17 1530.15C509.944 1525.06 501.167 1521.93 492.03 1521.09H492.028C491.887 1521.07 491.746 1521.06 491.605 1521.05C491.6 1521.05 491.591 1521.05 491.587 1521.05C491.555 1521.05 491.521 1521.05 491.487 1521.04C491.382 1521.03 491.277 1521.02 491.175 1521.02C491.166 1521.02 491.159 1521.02 491.15 1521.02C491.118 1521.01 491.086 1521.01 491.054 1521.01C491.052 1521.01 491.045 1521.01 491.043 1521.01C490.972 1521 490.906 1521 490.836 1520.99H490.833C490.802 1520.99 490.772 1520.99 490.74 1520.99C490.731 1520.99 490.722 1520.98 490.713 1520.98C490.681 1520.98 490.651 1520.98 490.62 1520.98C490.617 1520.98 490.61 1520.98 490.608 1520.98C490.54 1520.97 490.476 1520.97 490.408 1520.96C490.406 1520.96 490.399 1520.96 490.397 1520.96C490.367 1520.96 490.337 1520.96 490.308 1520.96C490.296 1520.96 490.285 1520.96 490.274 1520.96C490.244 1520.95 490.215 1520.95 490.185 1520.95C490.176 1520.95 490.171 1520.95 490.162 1520.95C490.105 1520.94 490.048 1520.94 489.992 1520.94C489.98 1520.94 489.969 1520.94 489.957 1520.94C489.93 1520.94 489.905 1520.93 489.878 1520.93C489.864 1520.93 489.846 1520.93 489.832 1520.93C489.805 1520.93 489.78 1520.93 489.753 1520.93C489.739 1520.93 489.725 1520.92 489.712 1520.92C489.662 1520.92 489.614 1520.92 489.564 1520.92C489.55 1520.92 489.534 1520.92 489.52 1520.92C489.495 1520.92 489.47 1520.91 489.445 1520.91C489.427 1520.91 489.409 1520.91 489.391 1520.91C489.368 1520.91 489.341 1520.91 489.318 1520.91C489.298 1520.91 489.284 1520.9 489.263 1520.9C489.222 1520.9 489.179 1520.9 489.138 1520.9C489.12 1520.9 489.1 1520.9 489.081 1520.9C489.056 1520.9 489.036 1520.89 489.011 1520.89C488.993 1520.89 488.972 1520.89 488.954 1520.89C488.931 1520.89 488.904 1520.89 488.881 1520.89C488.861 1520.89 488.842 1520.89 488.822 1520.89C488.783 1520.89 488.749 1520.89 488.71 1520.88C488.688 1520.88 488.665 1520.88 488.642 1520.88C488.622 1520.88 488.597 1520.88 488.576 1520.88C488.553 1520.88 488.533 1520.88 488.51 1520.88C488.49 1520.88 488.467 1520.88 488.446 1520.88C488.421 1520.88 488.394 1520.87 488.369 1520.87C488.342 1520.87 488.314 1520.87 488.287 1520.87C488.258 1520.87 488.228 1520.87 488.198 1520.87C488.18 1520.87 488.162 1520.87 488.144 1520.87C488.119 1520.87 488.094 1520.87 488.069 1520.87C488.048 1520.87 488.032 1520.87 488.012 1520.87C487.982 1520.87 487.95 1520.87 487.921 1520.87C487.9 1520.87 487.878 1520.87 487.857 1520.87C487.825 1520.86 487.791 1520.86 487.759 1520.86C487.741 1520.86 487.725 1520.86 487.707 1520.86C487.68 1520.86 487.65 1520.86 487.623 1520.86C487.607 1520.86 487.593 1520.86 487.577 1520.86C487.538 1520.86 487.502 1520.86 487.463 1520.86C487.454 1520.86 487.445 1520.86 487.436 1520.86C487.397 1520.86 487.356 1520.86 487.315 1520.86C487.302 1520.86 487.288 1520.86 487.275 1520.86C487.243 1520.86 487.211 1520.86 487.179 1520.86C487.165 1520.86 487.152 1520.86 487.138 1520.86C487.095 1520.86 487.052 1520.86 487.006 1520.86C453.464 1520.86 424.116 1551.69 408.406 1597.41C405.835 1604.9 403.627 1612.78 401.83 1620.99Z" fill="#1F1F1F"/>
</g>
<mask id="mask8_200_3796" style="mask-type:luminance" maskUnits="userSpaceOnUse" x="588" y="1523" width="405" height="167">
<path d="M727.087 1689.12C701.21 1689.12 672.233 1687.82 648.845 1681.32C647.62 1680.63 646.446 1679.92 645.329 1679.19C643.554 1612.52 621.085 1554.78 588.506 1523.84C642.116 1527.59 752.944 1535.49 850.243 1542.94C850.231 1543.05 850.22 1543.16 850.208 1543.27L850.199 1543.38V1688.55C820.351 1688.55 790.175 1688.55 772.034 1688.55C760.117 1688.55 744.288 1689.12 727.087 1689.12ZM937.767 1688.55C927.575 1688.55 891.849 1688.55 854.659 1688.55V1543.6C854.671 1543.49 854.68 1543.39 854.691 1543.28C909.4 1547.48 959.44 1551.5 992.096 1554.53C981.378 1572.94 973.427 1594.54 968.594 1617.92C967.893 1617.68 967.151 1617.55 966.403 1617.55H962.107C964.61 1607.41 967.352 1601.72 967.352 1601.72H938.762C927.869 1601.72 918.425 1608.23 914.129 1617.55H902.328C900.566 1617.55 898.842 1618.27 897.597 1619.51C896.35 1620.76 895.638 1622.48 895.638 1624.24C895.638 1626 896.35 1627.73 897.597 1628.97C898.844 1630.22 900.566 1630.93 902.328 1630.93H911.662V1646.74H902.328C900.566 1646.74 898.842 1647.45 897.597 1648.7C896.35 1649.94 895.638 1651.67 895.638 1653.43C895.638 1655.19 896.35 1656.92 897.597 1658.16C898.844 1659.41 900.566 1660.12 902.328 1660.12H914.001C917.167 1668.42 923.22 1674.06 930.126 1674.06C940.282 1674.06 958.065 1674.06 958.065 1674.06C958.065 1674.06 958.065 1671.69 958.065 1660.12H960.15C961.303 1660.12 962.441 1659.81 963.44 1659.25C963.233 1663.64 963.128 1668.05 963.128 1672.49C962.785 1687.5 956.529 1688.55 937.767 1688.55ZM964.191 1648.1C963.035 1647.23 961.606 1646.74 960.15 1646.74H958.149C958.343 1641 958.846 1635.71 959.526 1630.93H966.257C965.39 1636.58 964.701 1642.3 964.191 1648.1Z" fill="white"/>
</mask>
<g mask="url(#mask8_200_3796)">
<path d="M727.087 1689.12C701.21 1689.12 672.233 1687.82 648.845 1681.32C647.62 1680.63 646.446 1679.92 645.329 1679.19C643.554 1612.52 621.085 1554.78 588.506 1523.84C642.116 1527.59 752.944 1535.49 850.243 1542.94C850.231 1543.05 850.22 1543.16 850.208 1543.27L850.199 1543.38V1688.55C820.351 1688.55 790.175 1688.55 772.034 1688.55C760.117 1688.55 744.288 1689.12 727.087 1689.12ZM937.767 1688.55C927.575 1688.55 891.849 1688.55 854.659 1688.55V1543.6C854.671 1543.49 854.68 1543.39 854.691 1543.28C909.4 1547.48 959.44 1551.5 992.096 1554.53C981.378 1572.94 973.427 1594.54 968.594 1617.92C967.893 1617.68 967.151 1617.55 966.403 1617.55H962.107C964.61 1607.41 967.352 1601.72 967.352 1601.72H938.762C927.869 1601.72 918.425 1608.23 914.129 1617.55H902.328C900.566 1617.55 898.842 1618.27 897.597 1619.51C896.35 1620.76 895.638 1622.48 895.638 1624.24C895.638 1626 896.35 1627.73 897.597 1628.97C898.844 1630.22 900.566 1630.93 902.328 1630.93H911.662V1646.74H902.328C900.566 1646.74 898.842 1647.45 897.597 1648.7C896.35 1649.94 895.638 1651.67 895.638 1653.43C895.638 1655.19 896.35 1656.92 897.597 1658.16C898.844 1659.41 900.566 1660.12 902.328 1660.12H914.001C917.167 1668.42 923.22 1674.06 930.126 1674.06C940.282 1674.06 958.065 1674.06 958.065 1674.06C958.065 1674.06 958.065 1671.69 958.065 1660.12H960.15C961.303 1660.12 962.441 1659.81 963.44 1659.25C963.233 1663.64 963.128 1668.05 963.128 1672.49C962.785 1687.5 956.529 1688.55 937.767 1688.55ZM964.191 1648.1C963.035 1647.23 961.606 1646.74 960.15 1646.74H958.149C958.343 1641 958.846 1635.71 959.526 1630.93H966.257C965.39 1636.58 964.701 1642.3 964.191 1648.1Z" fill="#131313"/>
</g>
<mask id="mask9_200_3796" style="mask-type:luminance" maskUnits="userSpaceOnUse" x="1017" y="1558" width="2" height="2">
<path d="M1017.04 1559.79C1017.36 1559.31 1017.68 1558.83 1018.01 1558.35C1018.6 1558.93 1017.88 1559.44 1017.04 1559.79Z" fill="white"/>
</mask>
<g mask="url(#mask9_200_3796)">
<path d="M1017.04 1559.79C1017.36 1559.31 1017.68 1558.83 1018.01 1558.35C1018.6 1558.93 1017.88 1559.44 1017.04 1559.79Z" fill="url(#paint0_linear_200_3796)"/>
</g>
<mask id="mask10_200_3796" style="mask-type:luminance" maskUnits="userSpaceOnUse" x="1017" y="1558" width="2" height="2">
<path d="M1017.04 1559.79C1017.36 1559.31 1017.68 1558.83 1018.01 1558.35C1018.01 1558.35 1018.01 1558.35 1018.01 1558.35C1017.69 1558.83 1017.36 1559.31 1017.04 1559.79C1017.04 1559.79 1017.04 1559.79 1017.04 1559.79Z" fill="white"/>
</mask>
<g mask="url(#mask10_200_3796)">
<path d="M1017.04 1559.79C1017.36 1559.31 1017.68 1558.83 1018.01 1558.35C1018.01 1558.35 1018.01 1558.35 1018.01 1558.35C1017.69 1558.83 1017.36 1559.31 1017.04 1559.79C1017.04 1559.79 1017.04 1559.79 1017.04 1559.79Z" fill="url(#paint1_linear_200_3796)"/>
</g>
<path d="M992.8 1553.34C1014.27 1517.16 1044.12 1497.23 1076.85 1497.23C1109.09 1497.23 1140.99 1517.28 1164.39 1552.23C1186.66 1585.5 1198.93 1628.21 1198.93 1672.49H1174.96H1174.95C1174.95 1589.08 1126.35 1521.21 1076.85 1521.21C1027.37 1521.21 987.102 1589.07 987.102 1672.49H963.129C963.129 1627.91 973.667 1585.59 992.8 1553.34Z" fill="#1F1F1F"/>
<path d="M926.509 1525.92C926.509 1530.91 922.429 1534.98 917.443 1534.98H897.782C892.797 1534.98 888.719 1530.91 888.719 1525.92V1516.57C888.719 1511.58 892.797 1507.5 897.782 1507.5H917.443C922.429 1507.5 926.509 1511.58 926.509 1516.57V1525.92Z" fill="#1F1F1F"/>
<path d="M667.537 1485.18C665.819 1491.59 656.405 1496.22 646.62 1495.47L627.735 1494.03C617.95 1493.28 611.351 1487.42 613.072 1481.01C614.79 1474.6 624.204 1469.96 633.989 1470.71L652.873 1472.16C662.658 1472.91 669.257 1478.77 667.537 1485.18Z" fill="#131313"/>
<path d="M1073.21 1530.15C1116.65 1530.15 1151.85 1590.33 1151.85 1664.57C1151.85 1674.24 1151.26 1683.67 1150.12 1692.77C1142.54 1753.45 1110.98 1798.98 1073.21 1798.97C1035.44 1798.97 1003.88 1753.45 996.302 1692.76C995.167 1683.67 994.568 1674.24 994.568 1664.57C994.568 1590.33 1029.78 1530.15 1073.21 1530.15Z" fill="#131313"/>
<path d="M1072.29 1567.16C1103.77 1567.16 1129.28 1610.77 1129.28 1664.57C1129.28 1671.58 1128.85 1678.41 1128.02 1685C1122.53 1728.98 1099.66 1761.96 1072.29 1761.96C1044.92 1761.96 1022.05 1728.97 1016.56 1684.99C1015.74 1678.4 1015.3 1671.57 1015.3 1664.56C1015.31 1610.76 1040.82 1567.16 1072.29 1567.16Z" fill="white"/>
<path d="M1072.29 1567.16V1572.73C1078.85 1572.74 1085.15 1574.97 1091.21 1579.33C1100.27 1585.86 1108.52 1597.33 1114.36 1612.15C1120.22 1626.97 1123.71 1645.06 1123.7 1664.57C1123.7 1671.35 1123.29 1677.95 1122.49 1684.31C1119.85 1705.52 1112.97 1723.96 1103.83 1736.73C1099.26 1743.12 1094.15 1748.08 1088.83 1751.38C1083.5 1754.69 1078 1756.38 1072.29 1756.39C1066.58 1756.38 1061.09 1754.69 1055.75 1751.38C1047.77 1746.44 1040.27 1737.71 1034.35 1726.13C1028.43 1714.57 1024.08 1700.21 1022.09 1684.3C1021.3 1677.94 1020.88 1671.34 1020.88 1664.56C1020.87 1638.55 1027.1 1615.06 1036.81 1598.5C1041.65 1590.22 1047.34 1583.69 1053.38 1579.33C1059.43 1574.97 1065.73 1572.74 1072.29 1572.73V1567.16V1561.58C1063.11 1561.57 1054.42 1564.8 1046.84 1570.29C1035.45 1578.56 1026.3 1591.79 1019.85 1608.05C1013.42 1624.33 1009.73 1643.72 1009.73 1664.56C1009.73 1671.8 1010.17 1678.86 1011.03 1685.69C1013.88 1708.45 1021.18 1728.49 1031.69 1743.21C1036.94 1750.56 1043.03 1756.6 1049.86 1760.85C1056.68 1765.11 1064.31 1767.54 1072.29 1767.54C1080.26 1767.54 1087.89 1765.11 1094.72 1760.85C1104.97 1754.46 1113.54 1744.12 1120.16 1731.22C1126.76 1718.3 1131.42 1702.76 1133.56 1685.69C1134.41 1678.87 1134.86 1671.81 1134.86 1664.57C1134.84 1636.78 1128.32 1611.57 1117.4 1592.87C1111.93 1583.53 1105.34 1575.8 1097.74 1570.3C1090.16 1564.8 1081.47 1561.58 1072.29 1561.58V1567.16Z" fill="white"/>
<path d="M483.945 1530.15C527.383 1530.15 562.593 1590.33 562.593 1664.57C562.593 1674.24 561.995 1683.67 560.859 1692.77C553.277 1753.45 521.722 1798.98 483.945 1798.97C446.176 1798.97 414.623 1753.45 407.041 1692.76C405.905 1683.67 405.307 1674.24 405.307 1664.57C405.307 1590.33 440.519 1530.15 483.945 1530.15Z" fill="#131313"/>
<path d="M1174.95 1757.34V1672.49L1721.05 1619.77L1702.29 1757.34H1174.95Z" fill="#131313"/>
<path d="M1707.91 1757.43H1669.5L1525.76 1757.43L1488.21 1757.43H1285.74V1739.16H1707.91V1757.43Z" fill="#131313"/>
<path d="M1682.76 1617.51C1685.78 1606.45 1678.87 1597.4 1667.41 1597.4H1294.25C1282.78 1597.4 1275.99 1606.42 1279.15 1617.44L1300.05 1690.4C1303.21 1701.42 1315.17 1710.44 1326.64 1710.44H1636.53C1648 1710.44 1659.85 1701.39 1662.87 1690.33L1682.76 1617.51Z" fill="#131313"/>
<path d="M1682.76 1617.51C1685.78 1606.45 1678.87 1597.4 1667.41 1597.4H1294.25C1282.78 1597.4 1275.99 1606.42 1279.15 1617.44L1300.05 1690.4C1303.21 1701.42 1315.17 1710.44 1326.64 1710.44H1636.53C1648 1710.44 1659.85 1701.39 1662.87 1690.33L1682.76 1617.51Z" stroke="#FAFAFA" stroke-width="2.61371" stroke-miterlimit="10"/>
<path d="M1338.52 1564.33C1303.85 1547.8 1202.33 1486.82 1171.81 1504.93C1141.3 1523.03 1178.78 1556.13 1217.58 1562.51C1256.39 1568.88 1338.52 1564.33 1338.52 1564.33Z" fill="#FAFAFA"/>
<path d="M889.305 1445.47C889.177 1444.98 889.047 1444.48 888.92 1443.98L889.835 1445.46L889.305 1445.47Z" fill="#415055"/>
<path d="M872.983 1463.05C871.329 1463.02 869.713 1462.98 868.113 1462.94C868.37 1462.35 868.618 1461.81 868.86 1461.32C871.515 1456.02 875.8 1451.66 879.407 1448.55C880.804 1447.35 882.103 1446.34 883.175 1445.55L889.306 1445.47L889.836 1445.46L890.289 1446.2L888.393 1447.37L888.288 1447.44L887.943 1447.66C887.638 1447.86 887.192 1448.16 886.636 1448.55C885.528 1449.34 883.992 1450.49 882.315 1451.93C879.022 1454.75 875.208 1458.71 872.983 1463.05Z" fill="#1F1F1F"/>
<path d="M854.691 1543.28C853.212 1543.17 851.728 1543.05 850.242 1542.94C852.632 1518.96 859.071 1490.83 864.228 1473.99C865.65 1469.36 866.956 1465.61 868.112 1462.94C869.712 1462.98 871.328 1463.02 872.982 1463.05C872.936 1463.14 872.893 1463.23 872.85 1463.32C871.746 1465.51 870.181 1469.78 868.494 1475.3C866.799 1480.83 864.949 1487.65 863.156 1495.17C859.597 1510.05 856.252 1527.65 854.691 1543.28Z" fill="#1F1F1F"/>
<mask id="mask11_200_3796" style="mask-type:luminance" maskUnits="userSpaceOnUse" x="850" y="1542" width="5" height="147">
<path d="M854.659 1688.55C853.171 1688.55 851.69 1688.55 850.199 1688.55V1543.38L850.208 1543.28C850.22 1543.16 850.231 1543.05 850.242 1542.94C851.728 1543.05 853.212 1543.17 854.691 1543.28C854.68 1543.39 854.671 1543.49 854.659 1543.6V1688.55Z" fill="white"/>
</mask>
<g mask="url(#mask11_200_3796)">
<path d="M854.659 1688.55C853.171 1688.55 851.69 1688.55 850.199 1688.55V1543.38L850.208 1543.28C850.22 1543.16 850.231 1543.05 850.242 1542.94C851.728 1543.05 853.212 1543.17 854.691 1543.28C854.68 1543.39 854.671 1543.49 854.659 1543.6V1688.55Z" fill="#1F1F1F"/>
</g>
<path d="M533.93 1499.75C594.118 1499.75 643.313 1580.53 645.375 1681.14C614.698 1675.26 611.39 1661.07 607.03 1644.57C605.926 1636.68 602.854 1621.49 602.854 1621.49C600.795 1609.2 598.815 1601.43 595.661 1595.63C579.791 1548.25 552.096 1513.55 519.359 1503.06C526.109 1500.91 526.814 1499.75 533.93 1499.75Z" fill="#131313"/>
<path d="M1732.03 1738.27C1732.03 1732.13 1727.01 1727.11 1720.88 1727.11H1224.1C1217.97 1727.11 1212.95 1732.13 1212.95 1738.27V1746.19C1212.95 1752.32 1217.97 1757.34 1224.1 1757.34H1350.7C1356.83 1757.34 1365.89 1754.36 1370.83 1750.73L1372.67 1749.37C1377.61 1745.73 1386.67 1742.75 1392.8 1742.75H1643.83C1649.96 1742.75 1657.16 1746.03 1659.82 1750.05C1662.48 1754.06 1669.68 1757.34 1675.81 1757.34H1720.88C1727.01 1757.34 1732.03 1752.32 1732.03 1746.19V1738.27Z" fill="#131313"/>
<path d="M844.089 1446.06C838.228 1445.97 829.007 1446.05 817.486 1446.12C741.753 1446.62 566.645 1447.11 593.284 1402.78C613.739 1368.74 562.592 1431.16 562.592 1431.16L589.191 1448.81L617.216 1451.91L825.441 1460.88L836.692 1451.94L844.089 1446.06Z" fill="#131313"/>
<path d="M797.052 1289.33C803.612 1288.84 810.5 1288.11 817.295 1287.34C818.843 1281.27 825.471 1276.26 832.541 1280.33C835.061 1281.78 837.568 1283.28 840.035 1284.83C852.717 1283.64 862.713 1283.42 865.919 1286.21C867.53 1287.6 868.338 1290.88 868.648 1295.01C882.779 1281.91 904.524 1279.07 923.175 1278.91C936.623 1278.79 969.271 1301.82 955.833 1301.94C939.961 1302.08 886.27 1301.24 877.789 1317C870.796 1330.01 877.092 1348.48 881.63 1361.14C894.129 1396.02 907.193 1444.99 935.681 1444.87C949.157 1444.82 893.495 1461.95 890.22 1449.04C880.349 1410.13 871.397 1382.27 864.832 1357.76C853.338 1314.87 832.491 1301.94 797.052 1301.94C744.241 1301.94 768.91 1291.42 797.052 1289.33Z" fill="#131313"/>
<path d="M492.789 1436.28C465.815 1421.6 446.646 1408.99 435.422 1392.62L403.742 1385.64L435.093 1424.74C435.093 1424.74 439.484 1424.6 454.574 1426.84C464.354 1428.29 483.409 1436.28 483.409 1436.28H492.789Z" fill="#131313"/>
<path d="M612.291 1660.49C640.71 1695.57 730.342 1688.55 772.035 1688.55C813.73 1688.55 919.006 1688.55 937.768 1688.55C956.53 1688.55 962.785 1687.5 963.129 1672.49L987.188 1666.74C987.148 1668.65 987.102 1670.56 987.102 1672.49C987.102 1672.87 987.118 1673.24 987.12 1673.62C987.113 1674.39 987.102 1675.15 987.102 1675.92C987.102 1699.24 984.738 1705.62 971.282 1705.62C898.035 1705.62 619.768 1705.62 599.397 1705.62C575.92 1705.62 577.607 1698.1 577.607 1684.94C577.607 1680.88 577.784 1677.06 577.784 1673.85C594.71 1654.94 612.291 1660.49 612.291 1660.49Z" fill="#131313"/>
<path d="M1601.47 1564.33H1359.37L1318.42 1532.2H1598.02L1601.47 1564.33Z" fill="#131313"/>
<path d="M483.411 1436.28C456.434 1421.6 437.265 1408.99 426.042 1392.62L394.361 1385.64L425.712 1424.74C425.712 1424.74 430.106 1424.6 445.195 1426.84C464.378 1429.69 483.411 1436.28 483.411 1436.28Z" fill="#131313"/>
<path d="M447.708 1369.46C459.835 1371.31 461.157 1378.01 450.648 1384.33L438.833 1391.45C428.323 1397.77 409.688 1402.95 397.421 1402.95H361.767C349.5 1402.95 336.939 1393.23 333.851 1381.36L331.525 1372.41C328.439 1360.54 335.835 1352.35 347.959 1354.2L447.708 1369.46Z" fill="#131313"/>
<path d="M655.873 1348.79C655.873 1348.79 624.732 1419.82 624.732 1431.52" stroke="#1F1F1F" stroke-width="6.53427" stroke-miterlimit="10"/>
<path d="M798.124 1301.95C789.349 1302.01 769.704 1302.38 752.091 1304.67C686.888 1316.45 617.54 1363.37 594.286 1401.09C593.972 1401.63 593.642 1402.19 593.285 1402.78C569.444 1442.46 707.179 1446.23 790.667 1446.23C810.273 1446.23 826.9 1446.02 837.725 1446.02C840.144 1446.02 842.281 1446.03 844.09 1446.06L889.305 1445.47C879.798 1408.43 871.194 1381.51 864.831 1357.76C853.456 1315.31 832.905 1302.21 798.124 1301.95ZM798.119 1310.87C826.627 1311.1 845.273 1319.24 856.214 1360.07C858.747 1369.53 861.664 1379.59 864.754 1390.25C868.723 1403.94 873.13 1419.15 877.793 1436.7L844.094 1437.13C842.274 1437.11 840.139 1437.1 837.725 1437.1C833.092 1437.1 827.403 1437.14 820.872 1437.18C811.973 1437.24 801.883 1437.31 790.667 1437.31C740.504 1437.31 701.333 1435.8 670.915 1432.7C611.997 1426.71 601.691 1416.12 599.936 1413.01C599.559 1412.35 598.776 1410.97 600.935 1407.37C601.29 1406.78 601.618 1406.23 601.932 1405.69C612.85 1388.03 634.816 1367.99 662.218 1350.7C691.821 1332.02 724.214 1318.81 753.461 1313.49C769.882 1311.37 788.448 1310.94 798.119 1310.87Z" fill="#131313"/>
<path d="M1642.02 1690.33L1661.91 1617.51C1664.94 1606.45 1658.03 1597.4 1646.56 1597.4H1667.41C1678.87 1597.4 1685.78 1606.45 1682.76 1617.51L1662.87 1690.33C1659.85 1701.39 1648 1710.44 1636.53 1710.44H1615.68C1627.15 1710.44 1639 1701.39 1642.02 1690.33Z" fill="#FAFAFA"/>
<path d="M1006.96 1437.14C1022.36 1440.82 1013.53 1443.42 1044.34 1446.39C1075.15 1449.36 1168.98 1451.94 1230.13 1451.94C1291.28 1451.94 1398.31 1451.05 1388.44 1442.83H1312.18L1088.37 1437.14H1006.96Z" fill="#1F1F1F"/>
<path d="M1338.52 1564.33C1307.25 1549.42 1221.63 1498.38 1182.74 1501.78C1227.09 1516.04 1224.31 1546.93 1274.96 1556.23C1313.63 1563.33 1338.52 1564.33 1338.52 1564.33Z" fill="#FAFAFA"/>
<path d="M1162.28 1514.25C1162.28 1514.25 1162.29 1514.25 1162.29 1514.24C1162.29 1514.25 1162.29 1514.25 1162.28 1514.25ZM1162.31 1514.21C1162.31 1514.2 1162.32 1514.19 1162.32 1514.18C1162.32 1514.19 1162.31 1514.2 1162.31 1514.21ZM1162.34 1514.15C1162.34 1514.14 1162.35 1514.12 1162.36 1514.11C1162.35 1514.12 1162.34 1514.14 1162.34 1514.15ZM1162.36 1514.1C1162.37 1514.08 1162.39 1514.06 1162.4 1514.04C1162.39 1514.06 1162.37 1514.08 1162.36 1514.1ZM1171.28 1505.24C1171.31 1505.23 1171.34 1505.21 1171.37 1505.19C1171.34 1505.21 1171.31 1505.23 1171.28 1505.24ZM1171.55 1505.08C1171.58 1505.07 1171.6 1505.05 1171.62 1505.04C1171.6 1505.05 1171.58 1505.07 1171.55 1505.08Z" fill="#ECABAD"/>
<path d="M1208.97 1558.61C1205.48 1558.61 1200.76 1557.7 1194.56 1555.6C1171.81 1545.63 1155.2 1528.19 1162.28 1514.25C1162.29 1514.25 1162.29 1514.25 1162.29 1514.24C1162.3 1514.23 1162.3 1514.22 1162.31 1514.21C1162.31 1514.2 1162.32 1514.19 1162.32 1514.18C1162.33 1514.17 1162.33 1514.16 1162.34 1514.15C1162.34 1514.14 1162.35 1514.12 1162.36 1514.11C1162.36 1514.1 1162.36 1514.1 1162.36 1514.1C1162.38 1514.08 1162.39 1514.06 1162.4 1514.04C1162.4 1514.03 1162.4 1514.03 1162.4 1514.03C1162.41 1514.01 1162.42 1513.99 1162.43 1513.97C1162.43 1513.97 1162.43 1513.97 1162.43 1513.97C1164.1 1510.84 1166.99 1507.89 1171.28 1505.25C1171.28 1505.25 1171.28 1505.25 1171.28 1505.24C1171.31 1505.23 1171.34 1505.21 1171.37 1505.19C1171.37 1505.19 1171.37 1505.19 1171.37 1505.19C1171.43 1505.16 1171.49 1505.12 1171.54 1505.09C1171.55 1505.08 1171.55 1505.08 1171.55 1505.08C1171.58 1505.07 1171.6 1505.05 1171.63 1505.04C1171.63 1505.03 1171.64 1505.03 1171.64 1505.03C1171.67 1505.01 1171.69 1505 1171.71 1504.99C1171.71 1504.98 1171.72 1504.98 1171.73 1504.98C1171.76 1504.96 1171.78 1504.94 1171.81 1504.93L1172.25 1504.72C1182.76 1506.96 1183.49 1507.1 1194.46 1515.52C1205.56 1524.03 1230.41 1558.61 1208.97 1558.61Z" fill="#FAFAFA"/>
<path d="M1634.42 1553.96C1631.25 1557.38 1628.35 1560.48 1625.78 1563C1627.25 1563.07 1629.16 1563.16 1631.43 1563.25C1637.18 1563.49 1645.25 1563.78 1654.53 1564.02C1672.52 1564.47 1695.03 1564.68 1714.01 1563.77C1713.85 1563.21 1713.67 1562.68 1713.49 1562.16L1698.63 1526.36C1695.55 1520.98 1691.02 1515.65 1685.19 1510.44C1671.72 1517.32 1659.45 1528.1 1648.97 1538.64C1644.11 1543.51 1639.66 1548.31 1635.65 1552.64C1635.24 1553.08 1634.83 1553.52 1634.42 1553.96Z" fill="#FAFAFA" stroke="#131313" stroke-width="3"/>
<path d="M1297.55 1565.91C1294.68 1565.91 1291.8 1565.89 1288.89 1565.85C1298.15 1565.76 1306.88 1565.55 1314.37 1565.32C1314.49 1565.46 1314.61 1565.6 1314.73 1565.74C1308.89 1565.84 1303.23 1565.91 1297.55 1565.91Z" fill="#FAC3C1"/>
<path d="M1288.89 1565.85C1283.61 1565.79 1278.21 1565.66 1272.52 1565.45C1270.76 1561.54 1268.77 1557.86 1266.6 1554.39C1269.22 1555.07 1272 1555.69 1274.96 1556.23C1288.9 1558.79 1301.05 1560.56 1310.88 1561.77C1312.18 1562.99 1313.35 1564.17 1314.36 1565.32C1306.88 1565.55 1298.15 1565.76 1288.89 1565.85ZM1194.36 1502.13C1193.69 1502.05 1193.03 1501.98 1192.38 1501.91C1192.42 1501.92 1192.47 1501.92 1192.52 1501.93C1193.13 1501.99 1193.74 1502.05 1194.36 1502.13Z" fill="#FBF6F7"/>
<path d="M1310.88 1561.77C1301.05 1560.56 1288.9 1558.79 1274.96 1556.23C1272 1555.69 1269.22 1555.07 1266.6 1554.39C1240.95 1513.42 1189.74 1501.91 1192.29 1501.91C1192.31 1501.91 1192.34 1501.91 1192.38 1501.91C1193.03 1501.98 1193.69 1502.05 1194.36 1502.13C1198.99 1502.7 1204 1503.73 1209.27 1505.13C1246.63 1520.25 1292.37 1544.4 1310.88 1561.77Z" fill="#FAFAFA"/>
<path d="M1187.23 1599.31C1204.42 1655.19 1200.53 1701.23 1199.68 1750.64L1233.5 1755.69C1233.5 1755.69 1247.51 1659.73 1211.24 1568.88L1187.23 1599.31Z" fill="#131313"/>
<path d="M1174.16 1757.34H1250.23C1255.97 1757.34 1260.66 1752.65 1260.66 1746.92V1737.54C1260.66 1731.8 1255.97 1727.11 1250.23 1727.11H1174.16V1757.34Z" fill="#131313"/>
<path d="M1377.48 1670.43C1377.48 1673.88 1380.3 1676.7 1383.74 1676.7H1527.88C1531.33 1676.7 1534.15 1673.88 1534.15 1670.43V1632.35C1534.15 1628.9 1531.33 1626.08 1527.88 1626.08H1383.74C1380.3 1626.08 1377.48 1628.9 1377.48 1632.35V1670.43Z" fill="#FAFAFA"/>
<path d="M1383.74 1676.7H1402.26V1626.08H1383.74C1380.3 1626.08 1377.48 1628.9 1377.48 1632.35V1670.43C1377.48 1673.88 1380.3 1676.7 1383.74 1676.7Z" fill="#FAFAFA"/>
<path d="M1606.73 1633.28H1534.15V1632.35C1534.15 1628.9 1531.33 1626.08 1527.88 1626.08H1383.74C1380.3 1626.08 1377.48 1628.9 1377.48 1632.35V1633.28H1330.53V1604.53H1615.19L1606.73 1633.28Z" fill="#131313"/>
<path d="M582.589 1448.94C581.057 1448.78 579.553 1448.61 578.076 1448.45C578.67 1446.46 579.269 1444.52 579.867 1442.62L583.74 1445.19C583.355 1446.42 582.971 1447.67 582.589 1448.94Z" fill="#1F1F1F"/>
<path d="M570.533 1510.15C569.116 1509.32 567.689 1508.53 566.246 1507.8C567.957 1486.88 572.823 1466.01 578.074 1448.45C579.551 1448.61 581.055 1448.78 582.587 1448.94C577.139 1467.03 572.072 1488.72 570.533 1510.15Z" fill="#1F1F1F"/>
<path d="M565.616 1525.48L565.598 1523.25V1523.04C565.6 1517.99 565.83 1512.89 566.246 1507.8C567.689 1508.53 569.116 1509.32 570.533 1510.15C570.222 1514.47 570.055 1518.77 570.058 1523.04V1523.22L570.076 1525.45L565.616 1525.48Z" fill="#1F1F1F"/>
<path d="M583.738 1445.19L579.865 1442.62C583.781 1430.24 587.739 1419.85 590.629 1412.77C590.874 1414.89 591.694 1416.89 593.032 1418.75C590.319 1425.66 587.001 1434.74 583.738 1445.19Z" fill="#1F1F1F"/>
<path d="M593.032 1418.75C591.694 1416.89 590.875 1414.89 590.629 1412.77C591.371 1410.95 592.04 1409.36 592.62 1408L592.622 1408L593.501 1405.95L597.599 1407.71L596.721 1409.76C595.724 1412.07 594.463 1415.11 593.032 1418.75Z" fill="#1F1F1F"/>
<path d="M670.815 1476.92L610.709 1472.69" stroke="#1F1F1F" stroke-width="11.7617" stroke-miterlimit="10" stroke-linejoin="round"/>
<path d="M1083.2 1754.24C1066.34 1742.01 1053.64 1716.29 1049.73 1684.99C1049.08 1679.81 1048.67 1674.48 1048.53 1669.02H1065.67C1065.78 1673.3 1066.1 1677.49 1066.61 1681.56C1067.68 1690.07 1069.92 1698.84 1072.99 1706.86L1069 1712.78L1076.39 1717.77L1077.26 1716.48C1083.08 1727.83 1090.58 1736.33 1098.39 1738.1L1098.36 1738.7L1102.2 1738.91C1098.06 1744.26 1093.53 1748.47 1088.83 1751.38C1086.97 1752.54 1085.1 1753.49 1083.2 1754.24ZM1107.74 1730.68L1107.83 1729.02C1111.48 1722.23 1115.86 1711.9 1118.96 1698.39L1119.7 1699.86C1116.91 1711.6 1112.78 1722.07 1107.74 1730.68Z" fill="#FAFAFA"/>
<path d="M1088.87 1757.76C1086.94 1756.75 1085.04 1755.58 1083.2 1754.24C1085.1 1753.49 1086.97 1752.53 1088.83 1751.38C1093.53 1748.47 1098.06 1744.26 1102.2 1738.91L1107.26 1739.2L1107.74 1730.68C1112.78 1722.07 1116.91 1711.6 1119.7 1699.86L1121.2 1702.86L1125.19 1700.86C1118.8 1728.05 1105.43 1749.16 1088.87 1757.76Z" fill="#FAFAFA"/>
<path d="M1122.37 1685.29L1121.57 1683.71C1122.17 1679.08 1122.6 1674.18 1122.8 1669.02H1123.64C1123.5 1674.24 1123.11 1679.35 1122.49 1684.31C1122.45 1684.63 1122.41 1684.96 1122.37 1685.29Z" fill="#FAFAFA"/>
<path d="M1126.66 1693.85L1122.37 1685.29C1122.41 1684.96 1122.45 1684.63 1122.49 1684.31C1123.11 1679.35 1123.5 1674.24 1123.64 1669.02H1129.22C1129.08 1674.48 1128.67 1679.81 1128.02 1685C1127.65 1688 1127.19 1690.95 1126.66 1693.85Z" fill="#FAFAFA"/>
<path d="M1123.65 1660.1H1122.92C1122.81 1652.02 1122.15 1644.72 1121.11 1638.19L1121.38 1637.42C1122.65 1644.64 1123.43 1652.24 1123.65 1660.1Z" fill="#FAFAFA"/>
<path d="M1129.22 1660.1H1123.65C1123.43 1652.24 1122.65 1644.64 1121.38 1637.42L1124.97 1627.34C1127.43 1637.51 1128.92 1648.54 1129.22 1660.1Z" fill="#FAFAFA"/>
<path d="M1065.12 1660.65H1047.89C1048.91 1622.25 1062.93 1589.68 1082.61 1575.44C1085.31 1576.52 1087.96 1578 1090.57 1579.88C1094.42 1582.65 1098.12 1586.31 1101.55 1590.75L1097.72 1590.96L1097.86 1593.56C1089.4 1595.09 1081.93 1603.23 1076.26 1614.68L1075.7 1613.88L1068.4 1619.02L1072.17 1624.36C1068.21 1635.37 1065.7 1648.13 1065.12 1660.65ZM1116.77 1622.53C1113.87 1612.98 1110.28 1605.92 1107.22 1601.12L1107.1 1599C1109.54 1603.15 1111.77 1607.74 1113.72 1612.7C1114.9 1615.68 1115.98 1618.78 1116.96 1622L1116.77 1622.53Z" fill="#FAFAFA"/>
<path d="M1117.59 1621.46C1116.62 1618.23 1115.54 1615.13 1114.36 1612.15C1112.41 1607.19 1110.18 1602.6 1107.74 1598.45L1107.26 1589.91L1102.19 1590.2C1098.76 1585.76 1095.05 1582.1 1091.21 1579.33C1088.6 1577.45 1085.95 1575.97 1083.24 1574.89C1085.09 1573.56 1086.98 1572.38 1088.91 1571.38C1103.68 1579.07 1115.91 1596.72 1122.9 1619.76L1118.73 1618.28L1117.59 1621.46Z" fill="#FAFAFA"/>
<mask id="mask12_200_3796" style="mask-type:luminance" maskUnits="userSpaceOnUse" x="911" y="1601" width="57" height="74">
<path d="M958.065 1674.06C958.065 1674.06 940.282 1674.06 930.126 1674.06C923.22 1674.06 917.167 1668.42 914.001 1660.12H958.065C958.065 1671.69 958.065 1674.06 958.065 1674.06ZM958.149 1646.74H911.662V1630.93H959.526C958.846 1635.71 958.343 1641 958.149 1646.74ZM962.107 1617.55H914.129C918.425 1608.23 927.869 1601.72 938.762 1601.72H967.352C967.352 1601.72 964.61 1607.41 962.107 1617.55Z" fill="white"/>
</mask>
<g mask="url(#mask12_200_3796)">
<path d="M958.065 1674.06C958.065 1674.06 940.282 1674.06 930.126 1674.06C923.22 1674.06 917.167 1668.42 914.001 1660.12H958.065C958.065 1671.69 958.065 1674.06 958.065 1674.06ZM958.149 1646.74H911.662V1630.93H959.526C958.846 1635.71 958.343 1641 958.149 1646.74ZM962.107 1617.55H914.129C918.425 1608.23 927.869 1601.72 938.762 1601.72H967.352C967.352 1601.72 964.61 1607.41 962.107 1617.55Z" fill="#131313"/>
</g>
<mask id="mask13_200_3796" style="mask-type:luminance" maskUnits="userSpaceOnUse" x="895" y="1617" width="74" height="14">
<path d="M966.258 1630.93H902.329C900.568 1630.93 898.845 1630.22 897.598 1628.97C896.351 1627.73 895.639 1626 895.639 1624.24C895.639 1622.48 896.351 1620.76 897.598 1619.51C898.843 1618.27 900.568 1617.55 902.329 1617.55H914.13H962.108H966.404C967.153 1617.55 967.894 1617.68 968.595 1617.92C967.71 1622.2 966.932 1626.54 966.258 1630.93Z" fill="white"/>
</mask>
<g mask="url(#mask13_200_3796)">
<path d="M966.258 1630.93H902.329C900.568 1630.93 898.845 1630.22 897.598 1628.97C896.351 1627.73 895.639 1626 895.639 1624.24C895.639 1622.48 896.351 1620.76 897.598 1619.51C898.843 1618.27 900.568 1617.55 902.329 1617.55H914.13H962.108H966.404C967.153 1617.55 967.894 1617.68 968.595 1617.92C967.71 1622.2 966.932 1626.54 966.258 1630.93Z" fill="#131313"/>
</g>
<mask id="mask14_200_3796" style="mask-type:luminance" maskUnits="userSpaceOnUse" x="895" y="1646" width="70" height="15">
<path d="M960.151 1660.12H902.329C900.568 1660.12 898.845 1659.41 897.598 1658.16C896.351 1656.92 895.639 1655.19 895.639 1653.43C895.639 1651.67 896.351 1649.94 897.598 1648.7C898.843 1647.45 900.568 1646.74 902.329 1646.74H911.663H958.15H960.151C961.607 1646.74 963.036 1647.23 964.192 1648.1C963.869 1651.79 963.616 1655.51 963.441 1659.25C962.442 1659.81 961.304 1660.12 960.151 1660.12Z" fill="white"/>
</mask>
<g mask="url(#mask14_200_3796)">
<path d="M960.151 1660.12H902.329C900.568 1660.12 898.845 1659.41 897.598 1658.16C896.351 1656.92 895.639 1655.19 895.639 1653.43C895.639 1651.67 896.351 1649.94 897.598 1648.7C898.843 1647.45 900.568 1646.74 902.329 1646.74H911.663H958.15H960.151C961.607 1646.74 963.036 1647.23 964.192 1648.1C963.869 1651.79 963.616 1655.51 963.441 1659.25C962.442 1659.81 961.304 1660.12 960.151 1660.12Z" fill="#131313"/>
</g>
<path d="M1101.41 1592.74C1103.61 1593.89 1122.93 1614.86 1122.93 1662.29C1122.93 1709.72 1103.72 1737.22 1101.38 1738.44C1085.41 1738.44 1070 1708.69 1066.61 1681.56C1065.97 1676.41 1065.63 1671.06 1065.63 1665.59C1065.63 1631.23 1081.03 1592.74 1101.41 1592.74Z" fill="black"/>
<path d="M1129.28 1669.02H1129.22C1129.26 1667.55 1129.28 1666.06 1129.28 1664.57C1129.28 1663.07 1129.26 1661.58 1129.22 1660.1H1129.28V1669.02Z" fill="#E1EAE9"/>
<path d="M1123.64 1669.02H1122.8C1122.88 1666.82 1122.93 1664.58 1122.93 1662.29C1122.93 1661.55 1122.92 1660.83 1122.92 1660.1H1123.64C1123.68 1661.58 1123.7 1663.07 1123.7 1664.57C1123.7 1666.06 1123.68 1667.55 1123.64 1669.02Z" fill="#FAFAFA"/>
<path d="M1129.22 1669.02H1123.64C1123.68 1667.55 1123.7 1666.06 1123.7 1664.57C1123.7 1663.07 1123.68 1661.58 1123.64 1660.1H1129.22C1129.26 1661.58 1129.28 1663.07 1129.28 1664.57C1129.28 1666.06 1129.26 1667.55 1129.22 1669.02Z" fill="#FAFAFA"/>
<path d="M1048.53 1669.02H1048.47V1664.56C1048.47 1666.06 1048.49 1667.55 1048.53 1669.02ZM1048.47 1664.56V1660.1H1048.53C1048.49 1661.58 1048.47 1663.07 1048.47 1664.56Z" fill="#CCD8D7"/>
<path d="M1065.67 1669.02H1048.53C1048.49 1667.55 1048.47 1666.06 1048.47 1664.56C1048.47 1663.07 1048.49 1661.58 1048.53 1660.1H1065.76C1065.67 1661.94 1065.63 1663.77 1065.63 1665.59C1065.63 1666.74 1065.64 1667.88 1065.67 1669.02Z" fill="#FAFAFA"/>
<path d="M1122.8 1669.02H1118.98C1119.12 1667.58 1119.2 1666.1 1119.2 1664.59C1119.2 1663.06 1119.12 1661.56 1118.98 1660.1H1122.92C1122.93 1660.83 1122.93 1661.55 1122.93 1662.29C1122.93 1664.58 1122.88 1666.82 1122.8 1669.02ZM1088.15 1669.02H1065.67C1065.64 1667.88 1065.63 1666.74 1065.63 1665.59C1065.63 1663.77 1065.67 1661.94 1065.76 1660.1H1088.15C1088.01 1661.56 1087.93 1663.06 1087.93 1664.58C1087.93 1666.1 1088.01 1667.58 1088.15 1669.02Z" fill="#FAFAFA"/>
<path d="M1102.2 1738.91L1098.36 1738.7L1098.39 1738.1C1099.38 1738.32 1100.38 1738.44 1101.38 1738.44C1102.14 1738.04 1104.72 1734.83 1107.83 1729.02L1107.74 1730.68C1106.49 1732.81 1105.18 1734.83 1103.82 1736.73C1103.29 1737.48 1102.75 1738.2 1102.2 1738.91Z" fill="#FAFAFA"/>
<path d="M1107.26 1739.2L1102.2 1738.91C1102.75 1738.2 1103.29 1737.48 1103.82 1736.73C1105.18 1734.83 1106.49 1732.82 1107.74 1730.68L1107.26 1739.2Z" fill="#FAFAFA"/>
<path d="M1101.38 1738.44C1100.38 1738.44 1099.38 1738.32 1098.39 1738.1L1101.03 1690.95C1101.86 1691.18 1102.7 1691.3 1103.57 1691.3C1103.57 1691.3 1103.57 1691.3 1103.57 1691.3C1105.89 1691.3 1108.1 1690.44 1110.08 1688.88L1107.83 1729.02C1104.72 1734.83 1102.15 1738.04 1101.38 1738.44Z" fill="#FAFAFA"/>
<path d="M1107.86 1600.57C1104.72 1595.65 1102.14 1593.12 1101.41 1592.74C1100.43 1592.74 1099.46 1592.83 1098.5 1593.01L1098.36 1590.41L1102.19 1590.2C1104.13 1592.71 1105.99 1595.46 1107.74 1598.45L1107.86 1600.57Z" fill="#FAFAFA"/>
<path d="M1107.74 1598.45C1105.99 1595.46 1104.13 1592.71 1102.19 1590.2L1107.26 1589.91L1107.74 1598.45Z" fill="#FAFAFA"/>
<path d="M1110.09 1640.3C1108.1 1638.74 1105.89 1637.87 1103.56 1637.87C1102.7 1637.87 1101.86 1637.98 1101.03 1638.21L1098.5 1593.01C1099.46 1592.83 1100.43 1592.74 1101.41 1592.74C1102.14 1593.12 1104.72 1595.65 1107.86 1600.57L1110.09 1640.3Z" fill="#FAFAFA"/>
<path d="M1069.04 1618.48L1101.56 1664.62L1068.99 1712.78L1076.39 1717.77L1112.4 1664.51L1076.34 1613.33L1069.04 1618.48Z" fill="#FAFAFA"/>
<path d="M1125.19 1700.86C1125.73 1698.56 1126.22 1696.22 1126.66 1693.85L1129.18 1698.86L1125.19 1700.86Z" fill="#FAFAFA"/>
<path d="M1119.7 1699.86L1118.96 1698.39C1120 1693.85 1120.9 1688.95 1121.57 1683.71L1122.37 1685.29C1121.71 1690.32 1120.81 1695.19 1119.7 1699.86Z" fill="#FAFAFA"/>
<path d="M1121.2 1702.86L1119.7 1699.86C1120.81 1695.19 1121.71 1690.32 1122.37 1685.29L1126.66 1693.85C1126.22 1696.22 1125.73 1698.56 1125.19 1700.86L1121.2 1702.86Z" fill="#FAFAFA"/>
<path d="M1118.96 1698.39L1112.81 1686.13C1114.9 1683.52 1116.59 1680.03 1117.71 1676L1121.57 1683.71C1120.9 1688.95 1120 1693.85 1118.96 1698.39Z" fill="#FAFAFA"/>
<path d="M1124.97 1627.34C1124.34 1624.76 1123.65 1622.23 1122.9 1619.76L1127.13 1621.27L1124.97 1627.34Z" fill="#FAFAFA"/>
<path d="M1121.11 1638.19C1120.14 1632.15 1118.86 1626.75 1117.41 1621.98L1117.59 1621.46C1119.13 1626.51 1120.4 1631.85 1121.38 1637.42L1121.11 1638.19Z" fill="#FAFAFA"/>
<path d="M1121.38 1637.42C1120.4 1631.85 1119.13 1626.51 1117.59 1621.46L1118.73 1618.28L1122.9 1619.76C1123.65 1622.23 1124.34 1624.76 1124.97 1627.34L1121.38 1637.42Z" fill="white"/>
<path d="M1116.79 1650.32C1115.3 1646.3 1113.19 1643 1110.7 1640.81L1117.41 1621.98C1118.86 1626.75 1120.14 1632.15 1121.1 1638.19L1116.79 1650.32Z" fill="#FAFAFA"/>
<path d="M1101.03 1690.95C1099.36 1690.49 1097.78 1689.57 1096.33 1688.28L1101.62 1680.45L1101.03 1690.95ZM1110.08 1688.88L1110.5 1681.52L1112.81 1686.13C1111.96 1687.2 1111.05 1688.12 1110.08 1688.88ZM1090.94 1680.33C1089.66 1677.36 1088.74 1673.92 1088.28 1670.19C1088.23 1669.81 1088.19 1669.42 1088.15 1669.02H1098.58L1090.94 1680.33ZM1098.37 1660.1H1088.15C1088.54 1656.13 1089.45 1652.45 1090.75 1649.28L1098.37 1660.1ZM1101.65 1649.27L1095.98 1641.22C1097.52 1639.75 1099.23 1638.72 1101.03 1638.21L1101.65 1649.27ZM1110.2 1642.24L1110.09 1640.3C1110.3 1640.46 1110.5 1640.63 1110.7 1640.81L1110.2 1642.24Z" fill="#FAFAFA"/>
<path d="M1098.58 1669.02H1088.15C1088.01 1667.58 1087.93 1666.1 1087.93 1664.58C1087.93 1663.06 1088.01 1661.56 1088.15 1660.1H1098.37L1101.56 1664.62L1098.58 1669.02Z" fill="#FAFAFA"/>
<path d="M1103.57 1691.3C1103.56 1691.3 1103.56 1691.3 1103.56 1691.3C1102.7 1691.3 1101.86 1691.18 1101.03 1690.95L1101.62 1680.45L1106.41 1673.38L1110.5 1681.52L1110.08 1688.88C1108.1 1690.43 1105.89 1691.3 1103.57 1691.3Z" fill="#FAFAFA"/>
<path d="M1105.67 1654.96L1101.65 1649.27L1101.04 1638.21C1101.86 1637.98 1102.7 1637.87 1103.56 1637.87C1105.89 1637.87 1108.1 1638.74 1110.09 1640.3L1110.2 1642.24L1105.67 1654.96Z" fill="#FAFAFA"/>
<path d="M1096.33 1688.28C1094.19 1686.37 1092.35 1683.64 1090.93 1680.33L1098.58 1669.02L1101.56 1664.62L1098.37 1660.1L1090.75 1649.28C1092.11 1645.96 1093.9 1643.19 1095.98 1641.21L1101.65 1649.27L1105.66 1654.96L1102.14 1664.87L1106.41 1673.38L1101.62 1680.45L1096.33 1688.28Z" fill="#FAFAFA"/>
<path d="M1117.71 1676L1114.21 1669.02H1118.98C1118.95 1669.42 1118.9 1669.8 1118.85 1670.19C1118.6 1672.22 1118.21 1674.17 1117.71 1676ZM1118.98 1660.1H1113.3L1116.79 1650.32C1117.87 1653.25 1118.63 1656.56 1118.98 1660.1Z" fill="#FAFAFA"/>
<path d="M1118.98 1669.02H1114.21L1112.14 1664.9L1112.4 1664.51L1111.96 1663.89L1113.3 1660.1H1118.98C1119.12 1661.56 1119.2 1663.06 1119.2 1664.59C1119.2 1666.1 1119.13 1667.58 1118.98 1669.02Z" fill="#FAFAFA"/>
<path d="M1112.14 1664.9L1111.82 1664.27L1111.96 1663.89L1112.4 1664.51L1112.14 1664.9Z" fill="#FAFAFA"/>
<path d="M1112.81 1686.13L1110.5 1681.52L1111.2 1669.02H1114.2L1117.7 1676C1116.59 1680.03 1114.89 1683.52 1112.81 1686.13ZM1113.3 1660.1H1111.2L1110.2 1642.24L1110.7 1640.81C1113.19 1643 1115.29 1646.3 1116.79 1650.32L1113.3 1660.1Z" fill="#FAFAFA"/>
<path d="M1114.21 1669.02H1111.2L1111.36 1666.05L1112.14 1664.9L1114.21 1669.02ZM1111.96 1663.89L1111.36 1663.04L1111.2 1660.1H1113.3L1111.96 1663.89Z" fill="#FAFAFA"/>
<path d="M1110.5 1681.52L1106.41 1673.38L1109.35 1669.02H1111.2L1110.5 1681.52Z" fill="#FAFAFA"/>
<path d="M1111.2 1669.02H1109.35L1111.36 1666.05L1111.2 1669.02Z" fill="#FAFAFA"/>
<path d="M1111.2 1660.1H1109.29L1105.67 1654.96L1110.2 1642.24L1111.2 1660.1Z" fill="#FAFAFA"/>
<path d="M1111.36 1663.04L1109.29 1660.1H1111.2L1111.36 1663.04Z" fill="#FAFAFA"/>
<path d="M1106.41 1673.38L1102.14 1664.87L1105.67 1654.96L1109.29 1660.1L1111.36 1663.04L1111.96 1663.89L1111.82 1664.27L1112.14 1664.9L1111.36 1666.05L1109.35 1669.02L1106.41 1673.38Z" fill="#FAFAFA"/>
<path d="M482.424 1566.25C513.902 1566.25 539.415 1609.86 539.415 1663.66C539.415 1670.67 538.983 1677.5 538.159 1684.09C532.664 1728.07 509.799 1761.06 482.424 1761.05C455.054 1761.05 432.189 1728.07 426.696 1684.09C425.872 1677.5 425.439 1670.67 425.439 1663.66C425.439 1609.86 450.955 1566.25 482.424 1566.25Z" fill="#FAFAFA"/>
<path d="M482.425 1566.25V1571.83C488.988 1571.84 495.286 1574.06 501.341 1578.43C510.405 1584.95 518.654 1596.42 524.498 1611.25C530.357 1626.06 533.843 1644.15 533.841 1663.66C533.841 1670.44 533.422 1677.04 532.626 1683.4C529.988 1704.62 523.109 1723.05 513.962 1735.82C509.397 1742.21 504.288 1747.17 498.966 1750.48C493.63 1753.79 488.136 1755.47 482.425 1755.48C476.713 1755.47 471.222 1753.79 465.888 1750.48C457.906 1745.53 450.408 1736.81 444.489 1725.23C438.563 1713.66 434.213 1699.31 432.228 1683.39C431.434 1677.04 431.015 1670.44 431.015 1663.66C431.002 1637.64 437.235 1614.15 446.944 1597.6C451.787 1589.31 457.476 1582.78 463.51 1578.43C469.566 1574.06 475.864 1571.84 482.425 1571.83V1566.25V1560.68C473.25 1560.67 464.557 1563.89 456.977 1569.39C445.586 1577.65 436.434 1590.88 429.987 1607.14C423.558 1623.42 419.868 1642.82 419.865 1663.66C419.865 1670.89 420.311 1677.96 421.162 1684.78C424.02 1707.54 431.32 1727.58 441.82 1742.3C447.079 1749.66 453.163 1755.69 459.999 1759.95C466.819 1764.2 474.449 1766.64 482.425 1766.63C490.401 1766.64 498.031 1764.2 504.853 1759.95C515.106 1753.55 523.674 1743.21 530.291 1730.31C536.902 1717.4 541.555 1701.86 543.692 1684.78C544.545 1677.96 544.993 1670.9 544.993 1663.66C544.978 1635.88 538.454 1610.66 527.538 1591.97C522.067 1582.62 515.475 1574.89 507.877 1569.39C500.295 1563.89 491.602 1560.67 482.425 1560.68V1566.25Z" fill="#FAFAFA"/>
<path d="M493.341 1753.34C476.479 1741.1 463.772 1715.38 459.863 1684.09C459.217 1678.9 458.809 1673.57 458.666 1668.12H475.81C475.922 1672.4 476.238 1676.58 476.748 1680.65C477.81 1689.16 480.056 1697.93 483.13 1705.96L479.132 1711.87L486.521 1716.87L487.399 1715.57C493.218 1726.92 500.716 1735.42 508.526 1737.19L508.494 1737.79L512.337 1738.01C508.198 1743.35 503.665 1747.56 498.966 1750.48C497.112 1751.63 495.236 1752.58 493.341 1753.34ZM517.878 1729.77L517.972 1728.11C521.612 1721.33 525.993 1711 529.094 1697.48L529.834 1698.96C527.046 1710.69 522.921 1721.17 517.878 1729.77ZM532.501 1684.38L531.711 1682.81C532.308 1678.17 532.733 1673.28 532.936 1668.12H533.78C533.639 1673.34 533.247 1678.45 532.626 1683.4C532.585 1683.73 532.544 1684.05 532.501 1684.38Z" fill="#FAFAFA"/>
<path d="M499.004 1756.85C497.069 1755.85 495.181 1754.67 493.34 1753.34C495.235 1752.58 497.11 1751.63 498.965 1750.48C503.664 1747.56 508.197 1743.35 512.336 1738.01L517.399 1738.29L517.877 1729.77C522.92 1721.17 527.045 1710.69 529.833 1698.96L531.337 1701.96L535.326 1699.96C528.93 1727.15 515.561 1748.26 499.004 1756.85ZM536.796 1692.94L532.5 1684.38C532.543 1684.05 532.584 1683.73 532.625 1683.4C533.246 1678.45 533.638 1673.34 533.779 1668.12H539.356C539.213 1673.57 538.808 1678.91 538.159 1684.09C537.784 1687.09 537.329 1690.05 536.796 1692.94Z" fill="#FAFAFA"/>
<path d="M533.78 1659.2H533.052C532.949 1651.11 532.283 1643.82 531.243 1637.28L531.516 1636.52C532.785 1643.73 533.566 1651.33 533.78 1659.2ZM475.894 1659.2H458.666C459.679 1620.8 473.705 1588.23 493.382 1573.99C496.081 1575.06 498.734 1576.55 501.342 1578.43C505.192 1581.2 508.892 1584.86 512.326 1589.29L508.494 1589.51L508.637 1592.1C500.177 1593.64 492.706 1601.78 487.035 1613.23L486.473 1612.43L479.18 1617.57L482.944 1622.91C478.984 1633.91 476.472 1646.68 475.894 1659.2ZM527.545 1621.07C524.639 1611.52 521.055 1604.46 517.997 1599.67L517.878 1597.54C520.315 1601.7 522.541 1606.28 524.498 1611.25C525.674 1614.22 526.755 1617.33 527.731 1620.55L527.545 1621.07Z" fill="#FAFAFA"/>
<path d="M539.356 1659.2H533.779C533.565 1651.33 532.784 1643.73 531.515 1636.52L535.105 1626.44C537.568 1636.6 539.051 1647.64 539.356 1659.2ZM527.73 1620.55C526.754 1617.33 525.673 1614.22 524.497 1611.25C522.54 1606.28 520.314 1601.7 517.877 1597.54L517.399 1589.01L512.325 1589.29C508.891 1584.86 505.191 1581.2 501.341 1578.43C498.733 1576.55 496.08 1575.06 493.381 1573.99C495.222 1572.65 497.113 1571.48 499.049 1570.48C513.818 1578.16 526.042 1595.82 533.039 1618.86L528.864 1617.37L527.73 1620.55Z" fill="#FAFAFA"/>
<path d="M511.549 1591.84C513.745 1592.98 533.064 1613.95 533.064 1661.38C533.064 1708.81 513.858 1736.32 511.512 1737.53C495.54 1737.53 480.135 1707.78 476.746 1680.65C476.102 1675.5 475.766 1670.16 475.766 1664.68C475.766 1630.32 491.164 1591.84 511.549 1591.84Z" fill="black"/>
<path d="M539.417 1668.12H539.357C539.396 1666.64 539.417 1665.16 539.417 1663.66C539.417 1662.17 539.396 1660.68 539.357 1659.2H539.417V1668.12Z" fill="#E1EAE9"/>
<path d="M533.78 1668.12H532.936C533.02 1665.92 533.065 1663.67 533.065 1661.38C533.065 1660.64 533.061 1659.92 533.052 1659.2H533.78C533.821 1660.68 533.841 1662.17 533.841 1663.66C533.841 1665.16 533.821 1666.64 533.78 1668.12Z" fill="#FAFAFA"/>
<path d="M539.357 1668.12H533.779C533.82 1666.64 533.841 1665.16 533.841 1663.66C533.841 1662.17 533.82 1660.68 533.779 1659.2H539.357C539.395 1660.68 539.416 1662.17 539.416 1663.66C539.416 1665.16 539.395 1666.64 539.357 1668.12Z" fill="#FAFAFA"/>
<path d="M532.936 1668.12H529.12C529.261 1666.67 529.334 1665.19 529.334 1663.68C529.334 1662.15 529.259 1660.65 529.115 1659.2H533.052C533.061 1659.92 533.066 1660.64 533.066 1661.38C533.066 1663.67 533.02 1665.92 532.936 1668.12Z" fill="#FAFAFA"/>
<path d="M458.665 1668.12H458.605V1663.66C458.605 1665.15 458.626 1666.64 458.665 1668.12ZM458.605 1663.66V1659.2H458.665C458.626 1660.68 458.605 1662.16 458.605 1663.66Z" fill="#CCD8D7"/>
<path d="M475.809 1668.12H458.665C458.626 1666.64 458.605 1665.15 458.605 1663.66C458.605 1662.16 458.626 1660.68 458.665 1659.2H475.893C475.809 1661.03 475.765 1662.86 475.765 1664.68C475.765 1665.83 475.779 1666.98 475.809 1668.12Z" fill="#FAFAFA"/>
<path d="M498.282 1668.12H475.809C475.779 1666.98 475.766 1665.83 475.766 1664.68C475.766 1662.86 475.809 1661.03 475.893 1659.2H498.287C498.143 1660.65 498.068 1662.15 498.068 1663.68C498.068 1665.19 498.141 1666.67 498.282 1668.12Z" fill="#FAFAFA"/>
<path d="M512.338 1738.01L508.494 1737.79L508.526 1737.19C509.518 1737.42 510.515 1737.53 511.514 1737.53C512.283 1737.13 514.857 1733.92 517.972 1728.11L517.879 1729.77C516.627 1731.91 515.319 1733.93 513.962 1735.82C513.428 1736.57 512.886 1737.3 512.338 1738.01Z" fill="#FAFAFA"/>
<path d="M517.399 1738.29L512.336 1738.01C512.884 1737.3 513.426 1736.57 513.961 1735.82C515.317 1733.93 516.625 1731.91 517.877 1729.77L517.399 1738.29Z" fill="#FAFAFA"/>
<path d="M511.513 1737.53C510.514 1737.53 509.518 1737.42 508.525 1737.19L511.17 1690.05C511.993 1690.28 512.84 1690.4 513.702 1690.4C516.028 1690.4 518.237 1689.53 520.22 1687.97L517.971 1728.11C514.856 1733.92 512.282 1737.13 511.513 1737.53Z" fill="#FAFAFA"/>
<path d="M517.997 1599.67C514.859 1594.75 512.274 1592.21 511.55 1591.84C510.567 1591.84 509.598 1591.93 508.637 1592.1L508.494 1589.51L512.326 1589.29C514.272 1591.8 516.129 1594.56 517.879 1597.54L517.997 1599.67Z" fill="#FAFAFA"/>
<path d="M517.879 1597.54C516.129 1594.56 514.272 1591.8 512.326 1589.29L517.401 1589.01L517.879 1597.54Z" fill="#FAFAFA"/>
<path d="M520.224 1639.39C518.237 1637.83 516.028 1636.96 513.7 1636.96C513.7 1636.96 513.7 1636.96 513.698 1636.96C512.837 1636.96 511.993 1637.08 511.172 1637.31L508.637 1592.1C509.597 1591.93 510.566 1591.84 511.549 1591.84C512.273 1592.21 514.858 1594.75 517.996 1599.67L520.224 1639.39Z" fill="#FAFAFA"/>
<path d="M479.181 1617.57L511.696 1663.72L479.133 1711.87L486.522 1716.87L522.537 1663.61L486.474 1612.43L479.181 1617.57Z" fill="#FAFAFA"/>
<path d="M535.326 1699.96C535.865 1697.66 536.357 1695.32 536.796 1692.94L539.313 1697.96L535.326 1699.96Z" fill="#FAFAFA"/>
<path d="M529.833 1698.96L529.094 1697.48C530.136 1692.94 531.033 1688.05 531.711 1682.81L532.5 1684.38C531.843 1689.41 530.944 1694.29 529.833 1698.96Z" fill="#FAFAFA"/>
<path d="M531.338 1701.96L529.834 1698.96C530.944 1694.29 531.843 1689.41 532.501 1684.38L536.797 1692.94C536.358 1695.32 535.866 1697.66 535.327 1699.96L531.338 1701.96Z" fill="#FAFAFA"/>
<path d="M529.094 1697.48L522.945 1685.23C525.032 1682.61 526.723 1679.13 527.84 1675.09L531.711 1682.81C531.033 1688.05 530.136 1692.94 529.094 1697.48Z" fill="#FAFAFA"/>
<path d="M535.105 1626.44C534.48 1623.85 533.788 1621.32 533.039 1618.86L537.267 1620.36L535.105 1626.44Z" fill="#FAFAFA"/>
<path d="M531.243 1637.29C530.28 1631.24 528.997 1625.85 527.545 1621.07L527.731 1620.55C529.263 1625.6 530.535 1630.95 531.516 1636.52L531.243 1637.29Z" fill="#FAFAFA"/>
<path d="M531.515 1636.52C530.534 1630.95 529.262 1625.6 527.73 1620.55L528.864 1617.37L533.039 1618.86C533.788 1621.32 534.48 1623.85 535.106 1626.44L531.515 1636.52Z" fill="#FAFAFA"/>
<path d="M526.922 1649.42C525.432 1645.39 523.329 1642.09 520.84 1639.9L527.544 1621.07C528.995 1625.85 530.279 1631.24 531.241 1637.29L526.922 1649.42Z" fill="#FAFAFA"/>
<path d="M511.17 1690.05C509.498 1689.58 507.918 1688.66 506.469 1687.37L511.757 1679.55L511.17 1690.05ZM520.22 1687.97L520.634 1680.62L522.946 1685.23C522.1 1686.29 521.187 1687.21 520.22 1687.97Z" fill="#FAFAFA"/>
<path d="M513.703 1690.4C512.84 1690.4 511.994 1690.28 511.17 1690.05L511.757 1679.55L516.545 1672.47L520.634 1680.62L520.22 1687.97C518.238 1689.53 516.028 1690.4 513.703 1690.4Z" fill="#FAFAFA"/>
<path d="M501.073 1679.43C499.801 1676.45 498.879 1673.01 498.413 1669.28C498.365 1668.9 498.322 1668.51 498.283 1668.12H508.719L501.073 1679.43ZM508.512 1659.2H498.288C498.681 1655.22 499.587 1651.55 500.886 1648.37L508.512 1659.2Z" fill="#FAFAFA"/>
<path d="M508.718 1668.12H498.282C498.141 1666.67 498.068 1665.19 498.068 1663.68C498.068 1662.15 498.143 1660.65 498.287 1659.2H508.511L511.694 1663.72L508.718 1668.12Z" fill="#FAFAFA"/>
<path d="M511.79 1648.36L506.117 1640.31C507.66 1638.84 509.362 1637.81 511.171 1637.31L511.79 1648.36ZM520.33 1641.33L520.223 1639.39C520.43 1639.55 520.635 1639.72 520.84 1639.9L520.33 1641.33Z" fill="#FAFAFA"/>
<path d="M515.803 1654.05L511.791 1648.36L511.172 1637.31C511.993 1637.08 512.838 1636.96 513.698 1636.96C513.7 1636.96 513.7 1636.96 513.7 1636.96C516.028 1636.96 518.237 1637.83 520.224 1639.39L520.331 1641.33L515.803 1654.05Z" fill="#FAFAFA"/>
<path d="M506.469 1687.37C504.332 1685.46 502.486 1682.73 501.073 1679.43L508.719 1668.12L511.696 1663.72L508.512 1659.2L500.887 1648.37C502.245 1645.05 504.036 1642.29 506.118 1640.31L511.791 1648.36L515.803 1654.05L512.274 1663.96L516.545 1672.47L511.757 1679.55L506.469 1687.37Z" fill="#FAFAFA"/>
<path d="M527.84 1675.09L524.341 1668.12H529.119C529.081 1668.51 529.037 1668.9 528.99 1669.29C528.737 1671.32 528.348 1673.26 527.84 1675.09ZM529.115 1659.2H523.439L526.923 1649.42C528.004 1652.34 528.764 1655.65 529.115 1659.2Z" fill="#FAFAFA"/>
<path d="M529.119 1668.12H524.34L522.274 1664L522.536 1663.61L522.092 1662.98L523.439 1659.2H529.114C529.257 1660.65 529.333 1662.15 529.333 1663.68C529.333 1665.19 529.26 1666.67 529.119 1668.12Z" fill="#FAFAFA"/>
<path d="M522.274 1664L521.955 1663.36L522.092 1662.98L522.535 1663.61L522.274 1664Z" fill="#FAFAFA"/>
<path d="M522.945 1685.23L520.633 1680.62L521.334 1668.12H524.34L527.84 1675.09C526.722 1679.13 525.031 1682.61 522.945 1685.23Z" fill="#FAFAFA"/>
<path d="M524.34 1668.12H521.334L521.5 1665.14L522.274 1664L524.34 1668.12Z" fill="#FAFAFA"/>
<path d="M520.634 1680.62L516.545 1672.47L519.487 1668.12H521.335L520.634 1680.62Z" fill="#FAFAFA"/>
<path d="M521.334 1668.12H519.486L521.5 1665.14L521.334 1668.12Z" fill="#FAFAFA"/>
<path d="M523.438 1659.2H521.331L520.33 1641.33L520.84 1639.9C523.329 1642.09 525.432 1645.39 526.922 1649.42L523.438 1659.2Z" fill="#FAFAFA"/>
<path d="M522.092 1662.98L521.498 1662.14L521.332 1659.2H523.439L522.092 1662.98Z" fill="#FAFAFA"/>
<path d="M521.332 1659.2H519.425L515.803 1654.05L520.331 1641.33L521.332 1659.2Z" fill="#FAFAFA"/>
<path d="M521.499 1662.14L519.426 1659.2H521.333L521.499 1662.14Z" fill="#FAFAFA"/>
<path d="M516.545 1672.47L512.273 1663.96L515.803 1654.05L519.425 1659.2L521.499 1662.14L522.092 1662.98L521.956 1663.37L522.274 1664L521.501 1665.14L519.487 1668.12L516.545 1672.47Z" fill="#FAFAFA"/>
<path d="M1091.35 1682.38C1090.2 1682.38 1086.07 1678.38 1084.91 1669.08C1084.73 1667.61 1084.63 1666.1 1084.63 1664.58C1084.63 1653.1 1089.67 1646.79 1091.35 1646.79C1093.01 1646.79 1098.06 1653.1 1098.06 1664.59C1098.06 1666.1 1097.97 1667.62 1097.78 1669.09C1096.62 1678.38 1092.5 1682.38 1091.35 1682.38Z" fill="#FAFAFA"/>
<path d="M501.484 1681.48C500.333 1681.48 496.209 1677.48 495.049 1668.18C494.864 1666.72 494.773 1665.21 494.773 1663.68C494.773 1652.19 499.812 1645.88 501.479 1645.88C503.15 1645.88 508.192 1652.19 508.192 1663.68C508.192 1665.21 508.101 1666.72 507.919 1668.17C506.757 1677.48 502.635 1681.48 501.484 1681.48Z" fill="#FAFAFA"/>
<path d="M866.176 1451.94C864.092 1456.53 855.568 1462.14 835.764 1466.06C815.96 1469.98 775.83 1460.88 775.83 1460.88C775.83 1460.88 795.9 1449.13 850.357 1449.13L866.176 1451.94Z" fill="#131313"/>
<path d="M862.204 1437.13L831.006 1428.12L825.328 1434.49C825.328 1434.49 845.342 1451.8 849.574 1456.17C857.914 1464.77 880.513 1443.6 862.204 1437.13Z" fill="#1F1F1F"/>
<path d="M834.027 1436.01C834.027 1436.01 841.322 1442.53 847.25 1444.54C853.18 1446.55 861.82 1439.75 858.323 1436.01L862.203 1437.13C880.512 1443.6 857.913 1464.77 849.573 1456.17C846.103 1452.59 832.04 1440.32 827.084 1436.01H834.027Z" fill="#1F1F1F"/>
<path d="M753.418 1425.16C753.418 1432.52 759.441 1438.55 766.801 1438.55H833.338C840.697 1438.55 846.72 1432.52 846.72 1425.16V1414.08C846.72 1406.72 840.697 1400.7 833.338 1400.7H766.801C759.441 1400.7 753.418 1406.72 753.418 1414.08V1425.16Z" fill="#1F1F1F"/>
<path d="M780 1410.24C780 1413.2 783.011 1415.61 786.69 1415.61H835.86C839.54 1415.61 842.55 1413.2 842.55 1410.24C842.55 1407.29 839.54 1404.87 835.86 1404.87H786.69C783.011 1404.87 780 1407.29 780 1410.24Z" fill="#1F1F1F"/>
<path d="M1388.97 832.059C1284.09 819.216 1260.04 906.77 1144.83 932.279C1144.83 932.279 1001.16 936.036 1024.6 980.419C1030.7 991.976 1048.88 1001.11 1063.64 1004.03C1032.37 1008.26 1009.42 1012.78 1009.42 1012.78C842.151 922.599 806.352 968.627 806.352 968.627L1015.04 1064.54C1015.04 1064.54 1287.09 1055.56 1292.5 1055.2C1297.9 1054.86 1381.39 933.062 1381.39 933.062L1917.46 1126.86L1954.84 992.816C1954.84 992.816 1420.59 835.932 1388.97 832.059Z" fill="#EEEEEE"/>
<path d="M771.39 968.895C795.547 951.728 860.159 942.872 974.998 1031.12C974.998 1031.12 1066.15 1017.06 1149.72 1057.6C1149.72 1057.6 1366.92 848.491 1424.67 845.244C1482.43 842.001 1954.84 992.816 1954.84 992.816L1990.77 1160.46L1835.01 1193.84L1475.82 998.671C1475.82 998.671 1251.9 1149.4 1220.36 1170.32C1179.66 1197.3 1050.86 1110.81 967.468 1096.66C939 1091.83 812.391 1015.72 772.444 991.389C764.22 986.38 763.544 974.472 771.39 968.895Z" fill="#EEEEEE"/>
<path d="M1496.7 1122.41L1584.12 874.728L1996.2 996.081L2048 1187.75L1820.89 1233.66L1496.7 1122.41Z" fill="#EEEEEE"/>
<path d="M1496.7 1122.41L1626.18 887.114L2048 1187.75L1820.89 1233.66L1496.7 1122.41Z" fill="#1F1F1F"/>
<path d="M1531.89 1154.27L1630.02 876.228L2048 1010.54V1367.03L1531.89 1154.27Z" fill="#131313"/>
<path d="M1617.07 1125.92C1618.58 1136.31 1611.31 1146.42 1600.83 1148.49C1590.35 1150.57 1580.64 1143.82 1579.13 1133.42C1577.62 1123.03 1584.89 1112.92 1595.36 1110.84C1605.84 1108.77 1615.56 1115.52 1617.07 1125.92Z" fill="#1F1F1F"/>
<path d="M1675.99 1148.25C1677.5 1158.65 1670.23 1168.76 1659.75 1170.83C1649.28 1172.9 1639.56 1166.15 1638.05 1155.76C1636.54 1145.36 1643.81 1135.25 1654.29 1133.18C1664.76 1131.11 1674.48 1137.85 1675.99 1148.25Z" fill="#1F1F1F"/>
<path d="M701.932 427.754C701.932 427.754 876.524 484.659 951.371 396.288L1050.83 408.419C1050.83 408.419 1108.65 556.369 1167.45 538.487C1192.73 530.801 1161.89 500.797 1092.91 370.242C1092.91 370.242 997.79 300.387 845.139 294.354L701.932 427.754Z" fill="#EEEEEE"/>
<path d="M0 641.272L389.102 390.627C398.445 384.608 407.233 377.802 415.694 370.597C433.762 355.208 455.998 343.566 480.631 336.707C592.427 305.58 875.593 232.416 910.575 232.107C927.912 231.952 1046.04 359.338 1075.6 395.635C1080.92 402.161 1084.37 409.577 1085.73 417.387C1092.59 456.691 1113.42 581.127 1103.87 589.865C1092.51 600.253 1042.56 604.062 1008.41 426.38L884.879 381.06L847.924 437.517C847.924 437.517 712.956 565.096 540.499 489.119L0 999.725V641.272Z" fill="#EEEEEE"/>
<path d="M401.82 383.595C401.82 383.595 454.117 465.865 535.457 493.884L495.989 533.909L386.756 397.82L401.82 383.595Z" fill="#EEEEEE"/>
<path d="M572.398 622.894L399.725 381.986L40.3418 626.847L46.7347 894.475L254.758 866.561L572.398 622.894Z" fill="#EEEEEE"/>
<path d="M572.397 622.895L357.869 411.341L20.332 898.019L254.757 866.561L572.397 622.895Z" fill="#1F1F1F"/>
<path d="M549.39 669.204L355.551 398.768L0 623.962V1084.74L549.39 669.204Z" fill="#131313"/>
<path d="M463.991 671.375C465.083 679.533 472.581 685.258 480.739 684.164C488.895 683.069 494.622 675.569 493.53 667.411C492.438 659.253 484.94 653.528 476.782 654.623C468.626 655.717 462.899 663.217 463.991 671.375Z" fill="#1F1F1F"/>
<path d="M425.331 702.956C426.423 711.114 433.921 716.841 442.077 715.744C450.234 714.652 455.962 707.15 454.87 698.992C453.778 690.834 446.28 685.109 438.122 686.203C429.966 687.298 424.239 694.798 425.331 702.956Z" fill="#1F1F1F"/>
<path d="M859.681 439.895L839.186 410.285C837.777 408.995 837.784 401.517 843.73 404.039C856.951 409.643 855.786 427.779 884.879 383.336L859.681 439.895Z" fill="#EEEEEE"/>
<path d="M1115.6 633.929C1115.89 622.699 1112.95 611.269 1106.46 601.092C1089.17 573.977 1053.23 566.053 1026.2 583.393C999.158 600.733 991.255 636.771 1008.55 663.886C1020.89 683.238 1042.73 692.813 1064.05 690.408" stroke="#131313" stroke-width="4.09544" stroke-miterlimit="10"/>
<path d="M1055.44 683.288C1070.83 685.306 1069.64 704.983 1054.26 702.962C1038.87 700.946 1040.06 681.269 1055.44 683.288ZM1002.86 708.872L1001.67 728.562C1000.3 751.391 1018.17 772.385 1041.59 775.457L1056.35 777.393C1079.77 780.465 1099.87 764.452 1101.25 741.626L1102.43 721.931C1103.8 699.105 1085.93 678.111 1062.51 675.037L1047.31 666.367C1023.89 663.293 1004.23 686.044 1002.86 708.872Z" fill="#1F1F1F"/>
<path d="M1075.09 730.144L1069.24 827.44L1082.2 828.882L1078.42 836.515L1068.3 843.054L1068.16 845.326L1080.65 846.161L1077.35 854.4L1067.22 860.94L1067.08 863.214L1079.58 864.046L1076.27 872.289L1069.17 876.856L1065.8 884.461L1041.53 903.723L1020.82 878.56L1027.51 767.381L1032.59 758.916L1075.09 730.144Z" fill="#FAFAFA"/>
<path d="M1068.73 870.82L1068.77 870.316L1069.19 870.042L1078.26 864.191L1069.96 855.986L1069.64 855.668L1069.66 855.217L1069.79 852.949L1069.82 852.441L1070.25 852.166L1079.33 846.297L1071.03 838.091L1070.71 837.773L1070.74 837.322L1070.87 835.054L1070.89 834.546L1071.32 834.271L1080.41 828.402L1072.12 820.209L1071.8 819.892L1071.83 819.441L1072.11 814.544L1072.11 814.54L1072.94 800.94L1072.94 800.939L1077.61 723.062L1034.62 717.441L1029.53 802.041L1029.53 802.041L1028.71 815.655L1028.71 815.656L1025.42 870.289L1045.25 894.386L1068.41 876.026L1068.73 870.82Z" fill="#FAFAFA" fill-opacity="0.666667" stroke="#1F1F1F" stroke-width="2"/>
<path d="M1073.11 814.729C1057.96 817.509 1042.84 820.135 1027.71 822.636L1028.53 808.896C1043.66 806.396 1058.81 803.761 1073.94 801L1073.11 814.729Z" fill="#FAFAFA"/>
<path d="M1042.93 881.964L1034.57 867.057L1043.33 721.654L1052.5 722.857L1042.93 881.964Z" fill="#1F1F1F" fill-opacity="0.25"/>
<path d="M1059.23 701.545C1043.83 699.538 1045.23 676.289 1060.62 678.296C1076.01 680.321 1074.61 703.57 1059.23 701.545ZM1106.67 732.574L1107.85 712.884C1109.23 690.058 1091.36 669.077 1067.93 665.983L1053.18 664.044C1030.55 661.081 1011 675.945 1008.48 697.565C1008.39 698.305 1008.32 699.058 1008.27 699.827L1007.09 719.517C1006.41 730.718 1010.37 741.488 1017.37 749.894C1024.6 758.63 1035.08 764.849 1047.01 766.417L1061.76 768.358C1085.18 771.418 1105.28 755.401 1106.67 732.574Z" fill="#1F1F1F"/>
<path d="M1059.46 704.33C1067.53 705.39 1074.46 699.87 1074.94 691.999C1075.41 684.13 1069.25 676.889 1061.17 675.831" stroke="#18222D" stroke-width="3.86004" stroke-miterlimit="10"/>
<path d="M1021.94 756.142C1028.79 761.421 1037.49 765.165 1047.1 766.425L1061.85 768.36C1070.8 769.534 1079.24 768.385 1086.31 765.461" stroke="#1F1F1F" stroke-width="1.56901" stroke-miterlimit="10"/>
<path d="M1061.17 675.831C1053.1 674.771 1046.17 680.293 1045.7 688.162C1045.22 696.033 1051.38 703.272 1059.46 704.33" stroke="#1F1F1F" stroke-width="3.86004" stroke-miterlimit="10"/>
<path d="M1093.49 673.571C1108.85 671.394 1112.98 690.668 1097.62 692.845C1082.25 695.023 1078.12 675.749 1093.49 673.571ZM1049.68 712.306L1053.81 731.596C1058.6 753.958 1081.45 769.397 1104.84 766.082L1119.57 763.993C1142.96 760.679 1163.09 738.32 1157.97 711.013L1149.11 698.213C1144.32 675.854 1121.47 660.414 1098.08 663.729L1081.12 659.445C1057.73 662.76 1044.89 689.946 1049.68 712.306Z" fill="#1F1F1F"/>
<path d="M1126.49 711.933L1146.91 807.242L1159.79 805.158L1158.2 813.523L1150.19 822.536L1150.67 824.764L1162.93 822.22L1161.95 831.044L1153.95 840.058L1154.42 842.286L1166.68 839.742L1165.71 848.566L1160.09 854.87L1158.88 863.098L1140.66 888.159L1113.96 869.465L1090.62 760.557L1093.25 751.038L1126.49 711.933Z" fill="#FAFAFA" fill-opacity="0.666667"/>
<path d="M1158.05 849.172L1157.94 848.678L1158.28 848.3L1165.45 840.232L1155.26 834.551L1154.86 834.331L1154.76 833.89L1154.28 831.669L1154.17 831.172L1154.51 830.793L1161.69 822.704L1151.5 817.022L1151.1 816.802L1151.01 816.361L1150.52 814.14L1150.42 813.644L1150.75 813.264L1157.93 805.177L1147.76 799.503L1147.36 799.283L1147.27 798.842L1146.22 794.049L1146.22 794.046L1143.38 780.719L1143.38 780.718L1127.02 704.432L1084.1 710.535L1101.85 793.408L1101.85 793.409L1104.71 806.746L1104.71 806.746L1116.18 860.263L1141.74 878.168L1159.13 854.273L1158.05 849.172Z" fill="#FAFAFA" stroke="#1F1F1F" stroke-width="2"/>
<path d="M1147.2 793.837C1132.74 798.349 1118.26 802.711 1103.74 806.955L1100.87 793.618C1115.4 789.376 1129.9 785.003 1144.36 780.509L1147.2 793.837Z" fill="#FAFAFA"/>
<path d="M1136.17 866.823L1124.13 854.699L1093.61 712.263L1102.77 710.965L1136.17 866.823Z" fill="#1F1F1F" fill-opacity="0.25"/>
<path d="M1106.76 687.241C1092.58 693.576 1081.62 673.023 1095.8 666.688C1109.97 660.375 1120.93 680.926 1106.76 687.241ZM1157.56 705.814L1153.42 686.526C1148.64 664.164 1125.8 648.74 1102.4 652.035L1087.67 654.12C1065.07 657.326 1050.22 676.885 1053.59 698.389C1053.7 699.126 1053.83 699.872 1053.99 700.625L1058.13 719.913C1060.47 730.888 1067.17 740.2 1076.17 746.426C1085.48 752.904 1097.24 756.088 1109.15 754.404L1123.89 752.319C1147.27 748.995 1162.34 728.176 1157.56 705.814Z" fill="#1F1F1F"/>
<path d="M1104.51 691.25C1112.57 690.108 1117.77 682.933 1116.12 675.223C1114.47 667.514 1106.59 662.189 1098.53 663.331" stroke="#1F1F1F" stroke-width="3.86004" stroke-miterlimit="10"/>
<path d="M1082.24 751.218C1090.26 754.474 1099.65 755.746 1109.24 754.388L1123.97 752.299C1132.91 751.032 1140.73 747.666 1146.76 742.956" stroke="#1F1F1F" stroke-width="1.56901" stroke-miterlimit="10"/>
<path d="M1085.91 680.862C1103.76 676.027 1115.18 650.452 1115.6 633.929" stroke="#131313" stroke-width="4.09544" stroke-miterlimit="10"/>
<path d="M1098.53 663.331C1090.46 664.476 1085.27 671.653 1086.92 679.36C1088.57 687.072 1096.45 692.395 1104.51 691.25" stroke="#1F1F1F" stroke-width="3.86004" stroke-miterlimit="10"/>
<path d="M507.344 481.936C507.344 481.936 608.986 519.107 729.003 524.73C796.594 527.895 862.713 544.209 923.679 571.399C938.8 578.144 953.353 584.657 965.695 590.218C1020.09 614.73 1054.4 661.37 1077.59 620.874C1100.78 580.378 1017.44 524.907 945.723 498.891C874.011 472.872 834.391 360.25 834.391 360.25L507.344 481.936Z" fill="#EEEEEE"/>
<defs>
<linearGradient id="paint0_linear_200_3796" x1="811.248" y1="1491.77" x2="803.825" y2="1660.42" gradientUnits="userSpaceOnUse">
<stop stop-color="#342330"/>
<stop offset="0.784297" stop-color="#3B2A3C"/>
<stop offset="1" stop-color="#3B2A3C"/>
</linearGradient>
<linearGradient id="paint1_linear_200_3796" x1="811.251" y1="1491.77" x2="803.829" y2="1660.42" gradientUnits="userSpaceOnUse">
<stop stop-color="#B92424"/>
<stop offset="0.784297" stop-color="#D42927"/>
<stop offset="1" stop-color="#D42927"/>
</linearGradient>
</defs>
</svg>
