<svg width="114" height="114" xmlns="http://www.w3.org/2000/svg" xmlns:xlink="http://www.w3.org/1999/xlink" xml:space="preserve" overflow="hidden"><g transform="translate(-1347 -483)"><path d="M1427.75 516.25 1380.25 516.25C1367.13 516.25 1356.5 526.883 1356.5 540 1356.5 553.117 1367.13 563.75 1380.25 563.75L1427.75 563.75C1440.87 563.75 1451.5 553.117 1451.5 540 1451.5 526.883 1440.87 516.25 1427.75 516.25ZM1427.75 554.25C1419.88 554.25 1413.5 547.87 1413.5 540 1413.5 532.13 1419.88 525.75 1427.75 525.75 1435.62 525.75 1442 532.13 1442 540 1442 547.87 1435.62 554.25 1427.75 554.25Z"/></g></svg>