<svg width="256" height="256" viewBox="0 0 256 256" fill="none" xmlns="http://www.w3.org/2000/svg">
<path d="M144.8 54.7C143.2 56.6 136 76.6 136 79.2C136 81.3 138.8 83.5 143.3 85C146.2 85.9 147 86.6 146.5 87.9C146.1 88.8 145.6 90.7 145.3 92.2L144.8 94.8L140.7 93.4C137.2 92.2 134.9 92.1 127.2 93C119.2 94 117.3 93.9 112.9 92.5C110.1 91.5 107.5 91.2 107 91.6C105.6 93.2 102 105.4 102.7 106.1C103.7 107.1 195.2 138 197.1 138C198.7 138 203.6 124.7 202.6 123.1C202.3 122.7 200.1 121.7 197.7 121C194.4 120.1 191.5 118.1 186.9 113.4C182.5 108.9 179.2 106.6 175.9 105.5L171.3 103.9L172.8 99.6L174.4 95.2L206.5 106.1C232.8 115.1 238.9 116.9 240.5 116C242 115.2 243.4 115.2 245.4 115.9C246.9 116.5 248.5 117 249 117C249.8 117 255 102.6 255 100.3C255 99.6 253.2 98.5 251 97.9C248 97 247.1 96.2 247.3 94.7C247.5 93 245.3 92 230.5 87C213.9 81.5 213.5 81.2 213.5 78.5C213.5 77 212.8 75.3 212 74.9C209.9 73.7 149 53 147.5 53C146.8 53 145.6 53.8 144.8 54.7Z" fill="#1C1C1A"/>
<path d="M45.6999 89.5016C44.7999 91.5016 42.8999 93.6016 41.4999 94.2016C38.1999 95.7016 38.2999 98.5016 41.7999 99.9016C43.3999 100.602 45.3999 102.402 46.3999 104.002C48.5999 107.802 50.3999 107.802 51.9999 104.002C52.6999 102.302 54.5999 100.202 56.0999 99.3016C59.7999 97.1016 59.7999 95.4016 56.0999 93.5016C54.4999 92.7016 52.1999 90.7016 50.9999 89.0016C49.7999 87.4016 48.4999 86.0016 48.0999 86.0016C47.6999 86.0016 46.5999 87.6016 45.6999 89.5016ZM52.7999 99.2016C51.2999 100.602 49.9999 102.402 49.9999 103.102C49.9999 103.902 48.6999 103.102 47.1999 101.402C45.5999 99.7016 43.6999 98.1016 42.8999 97.8016C41.8999 97.4016 42.1999 96.7016 44.1999 95.1016C45.6999 93.9016 47.0999 92.1016 47.4999 91.1016C47.9999 89.6016 48.4999 89.8016 51.7999 92.9016L55.5999 96.5016L52.7999 99.2016Z" fill="black"/>
<path d="M60.6 109.901C58.9 113.201 56.6 115.701 53.5 117.601C51 119.201 49 121.101 49 121.801C49 122.501 51 123.901 53.5 125.001C56 126.101 58 127.301 58 127.801C58 128.201 51.4 130.801 43.3 133.401C32.3 137.001 26.4 138.401 20.2 138.801C13.3 139.201 11.7 139.601 10.5 141.401C8.69997 143.901 8.59996 146.601 10.2 147.601C10.9 148.101 14.1 149.101 17.4 150.001C20.7 150.801 23.5 152.001 23.7 152.501C23.8 153.101 22.2 154.401 20 155.401C16.3 157.201 12.9 157.301 5.79996 155.801C4.89996 155.601 4.29997 157.301 3.79997 161.501C3.39997 164.801 2.79997 169.301 2.49997 171.501C1.99996 174.601 2.39996 176.901 4.29996 181.201C6.69996 186.601 6.99996 186.801 13.1 188.901C19.8 191.101 25 191.601 25 190.001C25 187.701 26.9 189.201 27.9 192.301C29.5 197.101 34.7 201.701 39.8 202.801C47.7 204.601 54.8 201.501 58.5 194.701C60.5 191.001 63 189.701 63 192.401C63 193.501 71.4 193.901 111.2 194.501C146.5 195.001 159.5 194.901 159.8 194.101C160.5 192.001 162.9 193.001 164.5 195.901C168.2 203.201 180.4 205.601 187.9 200.701C190 199.301 192.5 196.601 193.4 194.601C195.2 190.701 197.6 189.701 196.7 193.101C196.1 195.201 196.3 195.201 202.4 194.601C211.6 193.701 218.9 191.201 222.2 188.001C224.8 185.301 225 184.601 225.2 175.801C225.4 163.401 225.3 162.901 222.7 160.201C216.6 153.601 187.2 144.001 173.2 144.001C170.9 144.001 164.9 141.801 156.6 137.901C124.4 122.901 115.7 120.501 96.2 121.301C88.7 121.501 81.6 122.101 80.5 122.501C78.9 123.201 78.7 123.101 79.8 121.901C81.9 119.601 81.1 118.401 76 116.001C72.4 114.301 70.1 112.401 68.2 109.301C66.7 106.901 64.9 105.001 64.3 105.001C63.6 105.001 61.9 107.201 60.6 109.901ZM67.2 111.801C68.7 114.001 71.5 116.401 73.9 117.401C77.7 119.101 79.3 121.001 77.1 121.001C75.2 121.001 69.8 126.401 67.8 130.301L65.8 134.401L63.3 130.301C61.7 127.501 59.4 125.501 56.4 124.101C54 122.901 52 121.801 52 121.601C52 121.401 53.8 120.101 56 118.601C58.2 117.201 60.9 114.201 62 112.001C63.1 109.801 64.2 108.001 64.4 108.001C64.6 108.001 65.9 109.701 67.2 111.801ZM109 126.001C119.3 127.501 128 130.601 135.5 135.401C141.7 139.401 142.4 140.201 142.4 143.201C142.5 146.001 142.9 146.601 145.8 147.501C152.7 149.501 148.6 150.201 133.8 149.601C83.9 147.401 45 144.101 45 142.001C45 141.101 60.4 134.001 62.4 134.001C63.2 134.001 64.2 134.401 64.5 135.001C65.6 136.701 67 136.101 68.2 133.501C69.5 130.701 74.8 128.801 87.4 126.501C96.2 124.901 100.7 124.801 109 126.001ZM209.5 156.401C215.7 159.301 220.2 163.501 219.8 165.801C219.3 168.501 212.7 168.601 208.4 165.901C204.5 163.501 198.7 156.301 199.6 154.901C200.5 153.401 204.3 153.901 209.5 156.401ZM52.1 177.601C58.1 183.301 58 191.301 51.9 196.401C40.8 205.801 25.5 192.601 33 180.201C37 173.601 46.6 172.301 52.1 177.601ZM184 175.501C188.8 178.001 191 181.701 191 187.201C191 191.501 190.5 192.701 187.7 195.501C178.9 204.301 165.2 198.101 166.3 185.701C166.8 180.501 168.9 177.501 173.5 175.401C177.5 173.701 180.5 173.701 184 175.501Z" fill="black"/>
<path d="M40.4 184.4C40.1 185.2 40 186.9 40.2 188.2C40.4 190 41.1 190.5 43.4 190.5C47 190.5 49 187.8 47.4 185.2C46 183 41.2 182.4 40.4 184.4Z" fill="black"/>
<path d="M175 185C173.5 187.8 175.4 191 178.6 191C181.7 191 184 186.9 182 184.5C180.2 182.4 176.3 182.6 175 185Z" fill="black"/>
</svg>
