<svg width="256" height="256" viewBox="0 0 256 256" fill="none" xmlns="http://www.w3.org/2000/svg">
<path d="M92 71.999V74.999H85.7C80.4 74.999 79 75.399 77.2 77.299C75.2 79.399 75 80.799 74.8 95.999L74.5 112.299L60 117.199C49.7 120.699 43.3 122.299 38 122.599C27.2 123.299 26.2 123.699 24.4 127.199C22.9 130.199 22.9 130.399 24.6 131.699C25.7 132.499 27.6 133.299 29 133.599C36.1 135.199 39 136.199 39 136.899C39 137.299 37.4 138.399 35.5 139.299C31.5 141.199 24.8 141.499 21.8 139.899C20.7 139.299 19.6 139.099 19.3 139.299C19.1 139.599 18.8 142.499 18.6 145.899C18.5 149.199 18.1 152.199 17.7 152.599C16.3 153.999 17 160.799 19.1 165.799C21 170.499 21.7 171.099 26.4 172.899C29.2 173.899 33.5 175.099 35.9 175.499C39.7 176.099 40.2 175.999 39.7 174.699C39.3 173.599 39.6 173.299 40.4 173.599C41.1 173.899 42.4 175.799 43.2 177.899C44 179.999 46.4 182.999 48.5 184.599C51.8 187.099 53.2 187.499 58.6 187.499C65.5 187.499 68.8 185.799 72.5 180.299L74.6 177.299L77.2 180.199L79.8 182.999H124.4C167 182.999 169.1 182.899 170.9 181.099C172 179.999 173.1 179.399 173.4 179.699C173.7 180.099 174 179.599 174 178.699C174 176.299 177.7 176.499 178.5 178.899C179.5 181.999 185.6 186.799 189.5 187.599C197.1 188.999 204.8 185.399 208.3 178.699C210.5 174.499 212.5 173.699 211.6 177.499C211 179.799 211.2 179.999 213.2 179.599C214.5 179.299 217.8 178.799 220.5 178.499C228.6 177.499 234.7 175.099 237.5 171.899C239.8 168.999 240 168.199 240 157.899C240 147.499 239.9 146.799 237.5 144.399C231.4 138.299 206.6 129.999 190 128.499C185.5 128.099 180.8 126.999 178.3 125.699L174.1 123.599L173.8 101.199C173.5 79.099 173.5 78.799 171.1 76.899C169.3 75.399 167.2 74.999 161.9 74.999H155V71.999C155 69.299 154.7 68.999 152 68.999C149.3 68.999 149 69.299 149 71.999V74.999H123.5H98V71.999C98 69.299 97.7 68.999 95 68.999C92.3 68.999 92 69.299 92 71.999ZM147 91.499V94.999H124H101V91.499V87.999H124H147V91.499ZM171 143.399V177.899L168.8 179.399C166.9 180.799 160.9 180.999 124.4 180.999C84.4 180.999 82.1 180.899 79.9 179.099L77.5 177.199L77.2 143.099L76.9 108.999H124H171V143.399ZM76 124.099V129.199L69.3 128.499C57.8 127.299 57.4 126.699 66 122.699C70.1 120.699 74.1 119.099 74.8 119.099C75.6 118.999 76 120.699 76 124.099ZM225.6 141.599C235.8 146.399 237.9 151.999 229.5 151.999C225.6 151.999 224.4 151.499 220.4 147.799C214.8 142.599 213.3 140.099 215.1 138.899C216.8 137.899 218.9 138.399 225.6 141.599ZM65.9 160.899C68.8 162.499 71 167.199 71 171.999C71 175.199 70.3 176.799 67.6 179.799C64.4 183.199 63.8 183.499 58.5 183.499C53.2 183.499 52.6 183.199 49.4 179.799C46.7 176.799 46 175.199 46 171.999C46 160.999 55.8 155.499 65.9 160.899ZM200.9 160.899C206.7 163.999 207.6 174.699 202.5 179.999C195.7 187.099 183.8 184.099 181.2 174.599C178 162.999 189.6 154.899 200.9 160.899Z" fill="black"/>
<path d="M109 125.5V131H114.5H120V125.5V120H114.5H109V125.5Z" fill="#1C1C1A"/>
<path d="M128 125.5V131H133.5H139V125.5V120H133.5H128V125.5Z" fill="#1C1C1A"/>
<path d="M148 125.5V131H153H158V125.5V120H153H148V125.5Z" fill="#1C1C1A"/>
<path d="M90 145V150H95.5H101V145V140H95.5H90V145Z" fill="#1C1C1A"/>
<path d="M109 145V150H114.5H120V145V140H114.5H109V145Z" fill="#1C1C1A"/>
<path d="M128 145V150H133.5H139V145V140H133.5H128V145Z" fill="#1C1C1A"/>
<path d="M148 145V150H153H158V145V140H153H148V145Z" fill="#1C1C1A"/>
<path d="M90 163.5V169H95.5H101V163.5V158H95.5H90V163.5Z" fill="#1C1C1A"/>
<path d="M109 163.5V169H114.5H120V163.5V158H114.5H109V163.5Z" fill="#1C1C1A"/>
<path d="M128 163.5V169H133.5H139V163.5V158H133.5H128V163.5Z" fill="#1C1C1A"/>
<path d="M148 163V168H153H158V163V158H153H148V163Z" fill="#1C1C1A"/>
<path d="M55.6003 168.598C53.7003 170.498 53.6003 172.198 55.2003 173.798C57.6003 176.198 63.0003 174.598 63.0003 171.398C63.0003 169.698 60.2003 166.998 58.5003 166.998C57.8003 166.998 56.4003 167.698 55.6003 168.598Z" fill="black"/>
<path d="M190.6 168.598C187.5 171.598 189.3 175.298 193.6 174.798C196 174.598 196.6 173.998 196.8 171.598C197.3 167.298 193.6 165.498 190.6 168.598Z" fill="black"/>
</svg>
