<svg width="256" height="256" viewBox="0 0 256 256" fill="none" xmlns="http://www.w3.org/2000/svg">
<path d="M118.805 41.0403L103.477 41.1083L102.661 41.992C101.879 42.8417 101.845 43.0796 101.743 48.4158C101.607 54.6016 101.879 55.6213 103.612 56.369C104.326 56.6409 108.949 56.7429 120.607 56.6749L136.649 56.573L137.431 55.7912C138.179 55.0775 138.213 54.7376 138.315 49.1295L138.417 43.2495L137.567 42.2299C136.921 41.4821 136.309 41.1422 135.392 41.0743C134.712 41.0063 127.234 40.9723 118.805 41.0403Z" fill="black"/>
<path d="M64.3898 47.5987C62.2485 48.4144 59.6994 50.8276 58.7138 53.0029L58 54.5323V124.208V193.885L58.9517 195.822C59.9713 197.895 61.4668 199.391 63.71 200.58L65.1376 201.362L100.587 201.464C120.063 201.498 136.003 201.43 136.003 201.294C136.003 201.124 135.697 200.172 135.29 199.153C134.882 198.133 134.304 196.196 133.998 194.904L133.42 192.525L116.936 192.457C107.895 192.389 93.3139 192.355 84.5789 192.355H68.6723L67.8566 191.505L67.0069 190.69V130.836V70.9827L67.8566 70.167L68.6723 69.3173H87.128C162.718 69.2833 171.079 69.3513 171.759 69.6911C173.017 70.3709 173.424 72.1043 173.39 76.7267C173.356 79.1059 173.356 96.8478 173.356 116.119L173.39 151.229L174.172 151.263C174.818 151.263 179.304 152.385 181.48 153.099L182.227 153.336V104.393V55.416L181.48 53.4447C180.562 50.9296 178.183 48.5504 175.6 47.5987C173.764 46.919 173.085 46.885 157.246 46.885H140.762V50.4537V54.0225H149.938C159.931 54.0225 160.645 54.1245 161.427 55.8919C162.378 57.9992 161.529 60.2424 159.523 60.8202C158.64 61.0921 146.574 61.1601 119.281 61.0921L80.3303 60.9901L79.4467 60.1744C78.9708 59.7326 78.495 58.8489 78.359 58.2371C78.0871 56.8436 78.9708 54.9402 80.1264 54.3964C80.7042 54.1585 84.0011 54.0225 90.119 54.0225H99.2958V50.4537V46.885L82.7435 46.919C66.9729 46.919 66.0552 46.9529 64.3898 47.5987Z" fill="black"/>
<path d="M107.657 77.8489C103.137 78.5287 97.6645 80.466 93.6878 82.8452C91.4786 84.2047 86.8562 87.5356 86.5163 88.0454C86.4143 88.2154 84.9188 88.3513 83.1854 88.3513H80.0245L79.6506 90.0847C79.4127 91.0364 79.2428 92.4639 79.2428 93.2796C79.2428 94.1973 78.9709 95.2509 78.529 95.9987C77.9172 97.0183 77.8153 97.5622 77.9852 99.2276C78.1212 100.315 78.461 102.015 78.8009 103C79.5827 105.311 80.5683 105.821 85.1228 106.331C90.357 106.909 90.255 106.943 90.0171 105.379C89.3713 100.451 92.7022 96.3726 97.3925 96.3726C99.7038 96.4065 100.927 96.9164 102.593 98.5478C104.19 100.111 104.87 102.151 104.666 104.904L104.496 107.215H121.592H138.654L138.484 104.768C138.315 102.728 138.416 102.117 139.062 100.791C141.781 95.149 148.851 94.7751 152.148 100.043C153.031 101.471 153.167 102.049 153.167 104.054V106.365H157.11C160.373 106.365 161.155 106.263 161.529 105.787C161.834 105.447 162.038 104.088 162.106 101.913C162.208 99.0916 162.14 98.5138 161.699 98.3439C161.325 98.2079 161.155 97.6981 161.155 96.7124C161.155 94.8771 160.475 94.1973 157.076 92.6678C153.575 91.0704 148.137 89.6769 142.121 88.8611C140.83 88.6912 140.116 88.2833 137.941 86.38C132.503 81.6216 126.487 78.9025 118.839 77.8149C116.018 77.441 110.478 77.441 107.657 77.8489ZM114.931 84.5106V89.4729L107.215 89.269C100.214 89.099 99.1599 88.9631 96.4069 88.1814C94.7415 87.7055 93.28 87.1957 93.178 87.0937C92.8041 86.7199 96.3389 84.0008 98.7521 82.8112C102.763 80.8399 107.861 79.6843 112.993 79.5483L114.931 79.5143V84.5106ZM123.292 80.364C126.283 81.0438 129.715 82.4033 132.265 83.9328C134.678 85.3603 138.111 88.1814 138.96 89.371L139.504 90.1187L129.342 89.8808C123.768 89.7448 119.145 89.6089 119.111 89.5749C119.077 89.5409 118.737 87.7055 118.363 85.4623C117.956 83.2191 117.582 80.9418 117.48 80.432L117.31 79.4803L119.281 79.6843C120.335 79.8202 122.136 80.1261 123.292 80.364ZM83.8312 91.4782C83.3554 92.4639 82.9815 93.6195 82.9815 94.0274C82.9815 94.7411 82.8115 94.8091 81.418 94.8091H79.8546L80.0925 92.4979C80.2284 91.2403 80.3984 90.1187 80.5003 89.9488C80.5683 89.8128 81.554 89.7108 82.6416 89.7108H84.6469L83.8312 91.4782ZM159.931 94.6731C160.577 95.3529 160.815 95.9307 160.815 96.8824C160.815 98.3439 160.747 98.3779 159.693 97.8341C158.64 97.2563 158.436 96.8824 158.436 95.217C158.436 93.5515 158.708 93.4496 159.931 94.6731Z" fill="black"/>
<path d="M95.7273 97.7328C93.586 98.2426 91.7507 100.214 91.1729 102.491C90.3911 105.584 92.1585 108.949 95.2855 110.24C96.7809 110.886 97.3248 110.886 99.0242 110.444C101.777 109.663 103.715 106.978 103.715 103.987C103.715 99.6021 99.9419 96.6451 95.7273 97.7328ZM99.9079 101.37C100.452 101.913 100.792 102.729 100.894 103.783C101.063 105.21 100.995 105.414 99.8739 106.536C97.3927 109.017 93.8579 107.419 93.8579 103.783C93.8579 102.831 94.1298 102.287 95.0475 101.37C96.1352 100.282 96.4071 100.18 97.6646 100.35C98.5143 100.452 99.398 100.86 99.9079 101.37Z" fill="black"/>
<path d="M144.16 97.5969C139.198 98.9224 137.771 105.822 141.747 109.187C144.772 111.702 149.531 110.852 151.264 107.42C152.725 104.632 152.454 101.879 150.55 99.7041C148.817 97.7328 146.506 96.9851 144.16 97.5969ZM147.559 100.826C148.919 101.777 149.225 102.355 149.259 104.055C149.259 106.23 148.273 107.386 146.166 107.623C144.874 107.759 144.466 107.657 143.583 106.91C143.005 106.4 142.427 105.55 142.291 105.006C141.577 101.845 145.044 99.0924 147.559 100.826Z" fill="black"/>
<path d="M78.869 122.679C78.5631 122.849 78.1213 123.46 77.8834 124.038C77.5435 124.888 77.5435 125.194 78.0193 125.908C78.3592 126.383 78.971 126.927 79.4468 127.097C80.6704 127.573 159.421 127.539 160.747 127.063C161.699 126.723 162.514 125.568 162.514 124.514C162.514 124.242 162.14 123.63 161.665 123.189L160.849 122.339H120.131C95.1834 122.339 79.2089 122.475 78.869 122.679Z" fill="black"/>
<path d="M79.0387 139.403C77.3732 140.185 77.3393 142.428 78.9707 143.55C79.6505 144.025 83.6611 144.093 119.961 144.093C163.636 144.093 161.834 144.161 162.31 142.258C162.582 141.17 162.038 139.811 161.189 139.369C160.271 138.859 80.0583 138.893 79.0387 139.403Z" fill="black"/>
<path d="M79.0049 156.056C77.4415 156.803 77.4075 159.115 78.9709 160.202C79.6507 160.678 82.9136 160.746 111.838 160.746H143.957L145.486 159.455C146.336 158.741 147.763 157.653 148.681 157.007C149.565 156.396 150.278 155.818 150.278 155.75C150.278 155.682 134.406 155.648 115.033 155.682C90.9008 155.682 79.5147 155.818 79.0049 156.056Z" fill="black"/>
<path d="M164.383 157.517C157.926 158.571 153.303 160.882 148.613 165.3C144.636 169.107 141.815 173.865 140.388 179.269C139.334 183.178 139.334 189.738 140.354 193.613C143.039 203.707 150.074 211.218 159.965 214.515C162.582 215.399 163.67 215.569 167.612 215.705C171.011 215.841 172.846 215.739 174.716 215.331C185.218 213.088 193.477 205.712 196.91 195.414C197.964 192.321 197.998 191.947 197.998 186.747C198.032 180.425 197.658 178.624 195.313 173.831C190.894 164.79 182.499 158.672 172.609 157.347C169.312 156.939 167.85 156.939 164.383 157.517ZM189.297 170.127C190.86 171.214 191.574 174.103 190.69 175.735C189.943 177.162 168.904 202.755 167.884 203.469C166.627 204.387 165.029 204.455 163.873 203.673C162.344 202.619 149.666 191.369 149.123 190.588C147.967 188.956 148.817 185.489 150.652 184.538C151.672 183.96 153.541 184.028 154.459 184.64C154.867 184.912 157.484 187.155 160.271 189.602C163.058 192.083 165.437 193.952 165.573 193.816C165.845 193.511 174.512 182.838 180.324 175.701C182.499 172.982 184.708 170.5 185.218 170.195C186.374 169.447 188.277 169.413 189.297 170.127Z" fill="#1C1C1A"/>
<path d="M82.3356 172.64C79.0048 172.81 78.7669 172.844 78.1211 173.728C77.5433 174.509 77.5093 174.781 77.8492 175.631C78.0871 176.175 78.6649 176.787 79.1068 177.025C79.7185 177.296 87.6378 177.398 107.079 177.398H134.168L134.916 175.087C135.323 173.796 135.663 172.64 135.663 172.538C135.663 172.266 87.7058 172.334 82.3356 172.64Z" fill="black"/>
</svg>
