<svg width="256" height="256" viewBox="0 0 256 256" fill="none" xmlns="http://www.w3.org/2000/svg">
<path d="M167.65 41.6047C165.6 42.7547 165.25 43.8547 165.25 49.0547V53.8547H161C158.45 53.8547 156.05 54.1547 155 54.5547C153.25 55.3047 151.75 57.5047 151.75 59.3547C151.75 61.2047 153.25 63.4047 155 64.1547C156.05 64.5547 158.45 64.8547 161 64.8547H165.25V69.8047C165.25 74.3047 165.35 74.9547 166.4 76.1047C167.2 77.1047 168.15 77.5047 169.8 77.7047C171.85 77.9547 172.3 77.8047 173.8 76.4547C175.5 74.9547 175.5 74.9047 175.65 69.9547L175.85 64.9547L180.85 64.7547C185.75 64.5547 185.9 64.5547 187.3 62.9547C188.35 61.8047 188.75 60.8047 188.75 59.4547C188.75 55.5047 186.2 53.8547 180.05 53.8547H175.85L175.65 48.8547C175.5 44.2547 175.4 43.7547 174.2 42.5547C172.6 40.9547 169.55 40.5047 167.65 41.6047Z" fill="black"/>
<path d="M95.3 51.7539C92.55 53.2539 91.8 55.3039 91.75 61.2039V66.2539L85.95 66.4539L80.15 66.6039L78.45 68.4539C77.1 69.9539 76.75 70.7539 76.75 72.4039C76.75 77.2039 79.3 78.8539 86.7 78.8539H91.75V83.7039C91.75 89.8039 92.7 92.2539 95.5 93.5539C98 94.7539 100.45 94.2539 102.6 92.1039L104.25 90.4539V84.6539V78.8539H109.65C114.05 78.8539 115.3 78.7039 116.6 77.8539C119.65 76.0039 120.55 72.4539 118.75 69.5039C117.2 66.9539 115.5 66.3539 109.5 66.3539H104.25V60.9539C104.25 57.7039 104 55.1539 103.6 54.4039C102.1 51.4039 98.2 50.2039 95.3 51.7539Z" fill="black"/>
<path d="M141 75.5058C138.7 76.4058 137.5 77.4058 136.3 79.3558C135.35 80.9058 135.25 81.8558 135.25 88.2058V95.3558H128.4C119.05 95.4058 116.65 96.3058 114.7 100.606C114.2 101.706 113.75 103.256 113.75 104.056C113.75 106.606 115.65 109.756 117.95 111.106C119.95 112.306 120.5 112.356 127.65 112.356H135.25V119.806C135.25 126.706 135.35 127.306 136.4 128.906C138.2 131.556 141 132.956 144.15 132.706C147.1 132.506 148.85 131.456 150.65 128.856C151.65 127.306 151.75 126.656 151.75 119.806V112.356H159.05C164.8 112.356 166.7 112.156 168.1 111.556C173.3 109.056 174.3 101.706 170 97.9058C167.6 95.8058 165.45 95.3558 158.15 95.3558H151.8L151.65 87.7058C151.5 80.8058 151.4 79.9558 150.4 78.5558C148.4 75.8058 143.9 74.3058 141 75.5058Z" fill="black"/>
<path d="M200.05 129.405C198.95 129.655 197.35 130.305 196.45 130.855C195.2 131.655 181.7 146.355 174.85 154.455C174.15 155.255 173.4 157.205 173 159.105C171.3 167.055 165.65 173.105 158 175.055C155.7 175.655 152.25 175.855 142.6 175.855C128.85 175.855 127.8 175.655 126.8 172.805C126.1 170.855 127.2 168.255 129.05 167.405C129.9 167.055 134.55 166.855 142.95 166.855C155.45 166.855 155.55 166.855 158.1 165.605C164.8 162.255 166.55 153.605 161.6 148.005C160.75 147.005 159 145.705 157.75 145.155C155.6 144.155 154.4 144.105 135 143.805L114.5 143.555L111.25 142.255C102 138.605 89.75 139.205 79.85 143.855C74.45 146.355 70.65 149.655 56 164.355L42 178.355L50.5 186.755C55.2 191.355 63.55 199.605 69.15 205.055L79.3 215.055L84.65 209.705L90 204.405L123.25 204.255C156.45 204.105 156.5 204.105 159.55 202.955C165.25 200.805 168.45 198.205 176.25 189.355C199.8 162.505 212.6 147.555 213.5 145.955C214.9 143.355 214.85 138.305 213.4 135.555C211.9 132.705 209.25 130.555 206.15 129.605C203.3 128.755 202.85 128.755 200.05 129.405Z" fill="black"/>
</svg>
